<?xml version="1.0" encoding="UTF-8"?>
<svg id="Layer_2" data-name="Layer 2" xmlns="http://www.w3.org/2000/svg" viewBox="0 0 283.46 124.75">
  <defs>
    <style>
      .cls-1 {
        fill: #fff;
      }

      .cls-1, .cls-2 {
        fill-rule: evenodd;
      }

      .cls-3 {
        fill: #671773;
      }

      .cls-2 {
        fill: #f47920;
      }
    </style>
  </defs>
  <g id="Layer_1-2" data-name="Layer 1">
    <g>
      <rect class="cls-3" width="283.46" height="124.75"/>
      <g>
        <polygon class="cls-2" points="60 64.35 70.53 64.35 65.26 51.82 60 64.35"/>
        <path class="cls-2" d="M120.22,63.7c0,11.5-6.46,17.14-16.65,17.14s-16.44-5.7-16.44-16.87v-17.85c0-2.33,1.85-4.18,4.18-4.18s4.17,1.85,4.17,4.18v17.63c0,6.19,3.09,9.39,8.19,9.39s8.19-3.09,8.19-9.12v-17.9c0-2.33,1.84-4.18,4.18-4.18s4.18,1.85,4.18,4.18v17.58h0ZM80.19,80.57c-1.95,0-3.26-1.14-4.02-2.88l-2.55-5.97h-16.71l-2.66,6.24c-.71,1.63-2.12,2.6-3.85,2.6-2.17,0-3.85-1.74-3.85-3.91,0-.59.22-1.19.49-1.79l13.23-29.89c.92-2.07,2.6-3.31,4.88-3.31h.49c2.28,0,3.91,1.25,4.83,3.31l13.24,29.89c.27.6.44,1.14.44,1.68,0,2.23-1.74,4.02-3.96,4.02h0ZM85.44,12.34c-27.63,0-50.03,22.4-50.03,50.03s22.4,50.03,50.03,50.03,50.03-22.4,50.03-50.03S113.07,12.34,85.44,12.34Z"/>
        <g>
          <path class="cls-1" d="M157.51,31.92l-2.23-5.32-2.23,5.32h4.47ZM147.54,36.38l5.62-12.68c.39-.88,1.1-1.4,2.07-1.4h.21c.97,0,1.66.53,2.05,1.4l5.62,12.68c.12.25.19.48.19.71,0,.94-.74,1.7-1.68,1.7-.83,0-1.38-.48-1.7-1.22l-1.08-2.53h-7.09l-1.13,2.65c-.3.69-.9,1.11-1.63,1.11-.92,0-1.63-.74-1.63-1.66,0-.25.09-.51.21-.76Z"/>
          <path class="cls-1" d="M164.55,31.76v-7.57c0-.99.78-1.77,1.77-1.77s1.77.78,1.77,1.77v7.48c0,2.62,1.31,3.98,3.48,3.98s3.48-1.31,3.48-3.87v-7.6c0-.99.78-1.77,1.77-1.77s1.77.78,1.77,1.77v7.46c0,4.88-2.74,7.27-7.07,7.27s-6.98-2.42-6.98-7.16Z"/>
          <path class="cls-1" d="M147.98,57.82c-.39-.28-.67-.78-.67-1.34,0-.92.74-1.63,1.66-1.63.46,0,.78.16,1.01.32,1.22.9,2.55,1.45,4.12,1.45,1.45,0,2.33-.57,2.33-1.52v-.04c0-.9-.55-1.36-3.25-2.05-3.24-.83-5.34-1.73-5.34-4.93v-.04c0-2.92,2.35-4.86,5.64-4.86,1.96,0,3.66.51,5.11,1.43.39.23.78.71.78,1.4,0,.92-.74,1.64-1.66,1.64-.34,0-.62-.09-.9-.25-1.17-.69-2.28-1.08-3.38-1.08-1.36,0-2.07.62-2.07,1.41v.05c0,1.06.69,1.4,3.48,2.12,3.27.85,5.11,2.03,5.11,4.83v.05c0,3.2-2.44,4.99-5.92,4.99-2.12,0-4.26-.64-6.05-1.93Z"/>
          <path class="cls-1" d="M162.11,45.09c0-.99.78-1.77,1.77-1.77h.39c.76,0,1.29.39,1.61.92l4.28,6.97,4.3-7c.37-.6.88-.9,1.59-.9h.39c.99,0,1.77.79,1.77,1.77v12.8c0,.99-.78,1.77-1.77,1.77s-1.75-.81-1.75-1.77v-8.03l-3.11,4.79c-.37.55-.83.9-1.47.9s-1.1-.34-1.47-.9l-3.06-4.72v8.01c0,.97-.78,1.73-1.75,1.73s-1.73-.76-1.73-1.73v-12.84Z"/>
          <path class="cls-1" d="M190.24,52.78l-2.23-5.32-2.23,5.32h4.47ZM180.27,57.24l5.62-12.68c.39-.87,1.1-1.4,2.07-1.4h.21c.97,0,1.66.53,2.05,1.4l5.62,12.68c.12.25.18.48.18.71,0,.94-.74,1.71-1.68,1.71-.83,0-1.38-.48-1.7-1.22l-1.08-2.53h-7.09l-1.13,2.65c-.3.69-.9,1.11-1.63,1.11-.92,0-1.63-.74-1.63-1.66,0-.25.09-.51.21-.76Z"/>
          <path class="cls-1" d="M197.88,45.04c0-.99.78-1.77,1.77-1.77s1.77.78,1.77,1.77v11.26h6.56c.9,0,1.61.71,1.61,1.61s-.72,1.61-1.61,1.61h-8.33c-.99,0-1.77-.78-1.77-1.77v-12.71Z"/>
          <path class="cls-1" d="M211.21,45.04c0-.99.78-1.77,1.77-1.77s1.77.78,1.77,1.77v11.26h6.56c.9,0,1.61.71,1.61,1.61s-.71,1.61-1.61,1.61h-8.33c-.99,0-1.77-.78-1.77-1.77v-12.71Z"/>
          <path class="cls-1" d="M147.33,66.04c0-.99.78-1.77,1.77-1.77h9.02c.9,0,1.61.71,1.61,1.61s-.71,1.61-1.61,1.61h-7.25v3.43h6.21c.9,0,1.61.71,1.61,1.61s-.71,1.61-1.61,1.61h-6.21v4.6c0,.99-.78,1.77-1.77,1.77s-1.77-.78-1.77-1.77v-12.71Z"/>
          <path class="cls-1" d="M161.67,65.9c0-.99.78-1.77,1.77-1.77s1.77.78,1.77,1.77v12.85c0,.99-.78,1.77-1.77,1.77s-1.77-.78-1.77-1.77v-12.85Z"/>
          <path class="cls-1" d="M168.33,65.95c0-.99.78-1.77,1.77-1.77h.37c.85,0,1.36.41,1.84,1.04l6.84,8.98v-8.31c0-.96.78-1.75,1.75-1.75s1.75.78,1.75,1.75v12.82c0,.99-.78,1.77-1.77,1.77h-.12c-.85,0-1.36-.41-1.84-1.03l-7.09-9.3v8.63c0,.97-.78,1.75-1.75,1.75s-1.75-.78-1.75-1.75v-12.82Z"/>
          <path class="cls-1" d="M194.66,73.63l-2.23-5.32-2.23,5.32h4.47ZM184.69,78.1l5.62-12.68c.39-.87,1.1-1.4,2.07-1.4h.21c.97,0,1.66.53,2.05,1.4l5.62,12.68c.11.25.18.48.18.71,0,.95-.74,1.7-1.68,1.7-.83,0-1.38-.48-1.7-1.22l-1.08-2.53h-7.09l-1.13,2.65c-.3.69-.9,1.1-1.63,1.1-.92,0-1.63-.74-1.63-1.66,0-.26.09-.51.21-.76Z"/>
          <path class="cls-1" d="M202.3,65.95c0-.99.78-1.77,1.77-1.77h.37c.85,0,1.36.41,1.84,1.04l6.84,8.98v-8.31c0-.96.78-1.75,1.75-1.75s1.75.78,1.75,1.75v12.82c0,.99-.78,1.77-1.77,1.77h-.12c-.85,0-1.36-.41-1.84-1.03l-7.09-9.3v8.63c0,.97-.78,1.75-1.75,1.75s-1.75-.78-1.75-1.75v-12.82Z"/>
          <path class="cls-1" d="M218.85,72.37v-.05c0-4.58,3.45-8.33,8.4-8.33,2.42,0,4.05.64,5.39,1.63.37.27.69.78.69,1.4,0,.97-.78,1.73-1.75,1.73-.48,0-.8-.18-1.06-.34-.99-.74-2.02-1.15-3.29-1.15-2.71,0-4.67,2.25-4.67,5.02v.04c0,2.76,1.91,5.07,4.67,5.07,1.5,0,2.49-.46,3.5-1.27.28-.23.64-.39,1.06-.39.9,0,1.66.74,1.66,1.63,0,.55-.28.99-.6,1.27-1.45,1.27-3.15,2.02-5.73,2.02-4.74,0-8.26-3.66-8.26-8.28Z"/>
          <path class="cls-1" d="M235.62,78.61v-12.57c0-.99.78-1.77,1.77-1.77h9.07c.87,0,1.59.71,1.59,1.59s-.71,1.56-1.59,1.56h-7.32v3.27h6.15c.87,0,1.59.71,1.59,1.59s-.71,1.57-1.59,1.57h-6.15v3.38h7.3c.87,0,1.59.71,1.59,1.59s-.71,1.56-1.59,1.56h-9.05c-.99,0-1.77-.78-1.77-1.77Z"/>
          <path class="cls-1" d="M155,98.25c1.56,0,2.51-.55,2.51-1.75v-.04c0-1.08-.81-1.75-2.63-1.75h-4.1v3.54h4.21ZM154.06,91.76c1.56,0,2.55-.51,2.55-1.7v-.04c0-1.06-.83-1.66-2.33-1.66h-3.5v3.41h3.27ZM147.33,87.02c0-.99.78-1.77,1.77-1.77h5.71c1.84,0,3.29.51,4.21,1.43.74.74,1.1,1.63,1.1,2.74v.05c0,1.82-.97,2.83-2.12,3.48,1.86.71,3.02,1.8,3.02,3.96v.05c0,2.95-2.39,4.42-6.03,4.42h-5.89c-.99,0-1.77-.78-1.77-1.77v-12.57Z"/>
          <path class="cls-1" d="M172.1,94.49l-2.23-5.32-2.23,5.32h4.47ZM162.13,98.96l5.62-12.68c.39-.87,1.11-1.4,2.07-1.4h.21c.97,0,1.66.53,2.05,1.4l5.62,12.68c.12.25.18.48.18.71,0,.94-.74,1.71-1.68,1.71-.83,0-1.38-.48-1.7-1.22l-1.08-2.53h-7.09l-1.13,2.65c-.3.69-.9,1.11-1.63,1.11-.92,0-1.63-.74-1.63-1.66,0-.25.09-.51.21-.76Z"/>
          <path class="cls-1" d="M179.74,86.81c0-.99.78-1.77,1.77-1.77h.37c.85,0,1.36.42,1.84,1.04l6.84,8.98v-8.31c0-.97.78-1.75,1.75-1.75s1.75.78,1.75,1.75v12.82c0,.99-.78,1.77-1.77,1.77h-.12c-.85,0-1.36-.42-1.84-1.04l-7.09-9.3v8.63c0,.97-.78,1.75-1.75,1.75s-1.75-.78-1.75-1.75v-12.82Z"/>
          <path class="cls-1" d="M197,86.76c0-.99.78-1.77,1.77-1.77s1.77.78,1.77,1.77v5.41l6.54-6.49c.44-.44.87-.69,1.5-.69.99,0,1.63.76,1.63,1.64,0,.55-.25.97-.65,1.33l-4.53,4.24,4.95,6.22c.28.35.48.71.48,1.24,0,.99-.76,1.73-1.8,1.73-.69,0-1.1-.35-1.5-.85l-4.6-6.03-2.03,1.89v3.22c0,.99-.78,1.77-1.77,1.77s-1.77-.78-1.77-1.77v-12.85Z"/>
        </g>
      </g>
    </g>
  </g>
</svg>