<?xml version="1.0" encoding="UTF-8"?>
<svg id="Layer_2" data-name="Layer 2" xmlns="http://www.w3.org/2000/svg" viewBox="0 0 112.72 56.7">
  <defs>
    <style>
      .cls-1 {
        fill: #fff;
      }

      .cls-1, .cls-2, .cls-3, .cls-4, .cls-5 {
        fill-rule: evenodd;
      }

      .cls-2 {
        fill: #007dc5;
      }

      .cls-3 {
        fill: #f58220;
      }

      .cls-4 {
        fill: #231f20;
      }

      .cls-5 {
        fill: #ef4123;
      }
    </style>
  </defs>
  <g id="Layer_1-2" data-name="Layer 1">
    <g>
      <polygon class="cls-2" points="112.72 45.11 0 45.11 0 22.98 75.25 22.97 93.99 29.03 112.72 22.97 112.72 22.97 112.72 45.11 112.72 45.11"/>
      <path class="cls-4" d="M9.02,51.76l-.6,2.38c.14.02.26.03.34.03.13,0,.29-.02.49-.07l-.04.22c-.2.04-.36.06-.47.06-.12,0-.29-.01-.52-.03-.2-.02-.37-.03-.5-.03-.24,0-.52.03-.83.1l.07-.25c.33-.09.54-.17.64-.25.15-.13.26-.36.34-.68l.63-2.51c.08-.32.12-.51.12-.56s-.02-.09-.06-.12c-.04-.03-.11-.04-.22-.04l.06-.22c.3,0,.66-.06,1.08-.17-.04.11-.08.28-.14.5l-.34,1.32c.14.03.26.04.36.04.37,0,.69-.13.96-.39.27-.26.4-.57.4-.93,0-.28-.11-.51-.32-.69-.21-.18-.5-.27-.87-.27-.47,0-.93.11-1.38.34-.45.23-.78.51-1.01.85-.22.34-.34.69-.34,1.06,0,.28.11.52.35.72.12.1.19.17.21.22.03.05.04.09.04.14,0,.06-.02.12-.07.16-.05.05-.1.07-.17.07-.16,0-.31-.09-.43-.28-.16-.24-.24-.55-.24-.91,0-.46.13-.89.38-1.29.25-.4.64-.73,1.16-.99.52-.26,1.06-.39,1.63-.39.53,0,.97.1,1.31.3.34.2.52.5.52.89,0,.37-.16.71-.47,1.03-.32.32-.75.52-1.3.61.14.28.23.46.27.56.06.16.16.44.29.82.3.9.61,1.53.94,1.89.24.27.5.4.78.4s.47-.13.55-.39c.05-.16.09-.26.13-.3.06-.05.12-.08.19-.08s.13.02.18.08c.05.05.07.11.07.18,0,.19-.1.36-.3.53-.2.17-.46.25-.78.25-.29,0-.57-.07-.83-.21-.27-.14-.52-.37-.77-.69-.25-.32-.47-.7-.65-1.15-.09-.22-.23-.64-.41-1.23-.11-.37-.17-.58-.2-.66h-.11s-.06,0-.11,0h0Z"/>
      <path class="cls-4" d="M13,52.55c.48-.22.84-.45,1.09-.7.16-.17.25-.35.25-.52,0-.13-.03-.23-.1-.31-.07-.08-.16-.11-.26-.11-.11,0-.22.04-.32.12-.14.11-.26.28-.36.5-.14.33-.23.66-.29,1h0ZM14.57,53.2l.15.2c-.73.7-1.36,1.04-1.88,1.04-.21,0-.38-.07-.49-.21-.11-.14-.17-.37-.17-.69,0-.64.19-1.28.58-1.91.44-.72.96-1.08,1.57-1.08.21,0,.37.05.49.16.11.11.17.25.17.44,0,.19-.07.39-.2.57-.13.19-.37.38-.72.59-.17.1-.54.28-1.11.53-.03.16-.04.32-.04.46,0,.21.03.36.1.44.07.08.16.12.29.12.12,0,.26-.03.4-.1.2-.09.49-.28.87-.57h0Z"/>
      <path class="cls-4" d="M17.43,53.24l.15.16c-.23.26-.51.5-.83.72-.32.22-.58.33-.79.33-.09,0-.17-.03-.23-.1-.06-.07-.09-.17-.09-.29,0-.24.09-.73.28-1.49l.48-1.97c.18-.71.32-1.19.44-1.43.19-.37.45-.65.79-.85.34-.2.7-.3,1.07-.3.13,0,.23.03.3.09.07.06.11.14.11.22,0,.1-.04.17-.11.24-.07.06-.18.09-.31.09-.09,0-.22-.02-.38-.05-.14-.02-.28-.04-.4-.04-.12,0-.22.02-.28.08-.09.07-.16.22-.23.45-.07.23-.18.68-.34,1.36l-.45,1.88c-.22.94-.33,1.43-.33,1.48,0,.09.03.14.1.14s.16-.04.29-.12c.25-.16.5-.35.74-.6h0Z"/>
      <path class="cls-4" d="M20.49,51.16c-.16-.03-.3-.05-.41-.05-.27,0-.5.07-.7.22-.2.15-.39.42-.56.8-.17.38-.26.77-.26,1.15,0,.2.03.35.1.44.07.09.16.13.27.13.21,0,.43-.11.66-.33.24-.22.41-.54.52-.96l.37-1.4h0ZM21.05,50.48l.3-.06-.34,1.14c-.13.45-.26.97-.38,1.56-.07.32-.1.53-.1.62s.04.14.11.14c.05,0,.12-.03.23-.09.19-.11.36-.25.53-.41l.14.18c-.34.31-.56.5-.66.56-.19.13-.37.23-.55.29-.11.04-.22.06-.33.06-.08,0-.14-.02-.17-.05-.04-.03-.06-.09-.06-.16,0-.04.01-.11.04-.18l.18-.61c-.26.31-.56.57-.92.79-.22.14-.42.21-.6.21s-.31-.06-.4-.18c-.13-.16-.19-.38-.19-.65,0-.32.08-.67.25-1.06.17-.39.4-.74.68-1.06.28-.32.58-.55.9-.7.24-.11.55-.17.93-.17.09,0,.19,0,.29.02l.11-.17h0Z"/>
      <path class="cls-4" d="M23.32,49.86l.71-.27-.32,1.26h.93l-.07.32h-.93l-.39,1.5c-.12.45-.19.76-.19.94,0,.08.02.14.05.18.03.04.08.05.14.05.09,0,.24-.06.43-.17.25-.15.49-.31.72-.5l.17.21c-.66.49-1.09.8-1.32.91-.22.11-.4.17-.53.17-.11,0-.2-.04-.26-.12-.06-.08-.1-.21-.1-.4,0-.21.06-.54.17-.99l.46-1.79h-.73l.08-.32h.73l.25-.98h0Z"/>
      <path class="cls-4" d="M27.13,48.62c.09,0,.17.03.23.09.06.06.09.14.09.24,0,.13-.04.25-.14.35-.09.1-.19.15-.31.15-.09,0-.16-.03-.22-.09-.06-.06-.09-.14-.09-.25,0-.14.04-.25.13-.34.09-.09.19-.14.31-.14h0ZM25.37,51.59l-.2-.15c.3-.33.57-.56.82-.7.25-.14.46-.21.63-.21.1,0,.17.02.22.06.05.04.08.1.08.17,0,.09-.1.45-.29,1.1-.32,1.06-.47,1.7-.47,1.92,0,.04.01.08.03.1.02.03.04.04.07.04.1,0,.34-.19.74-.56l.17.17c-.41.39-.71.63-.9.74-.19.11-.34.16-.46.16-.11,0-.19-.03-.25-.1-.06-.07-.09-.16-.09-.27,0-.37.22-1.29.67-2.74.02-.07.03-.13.03-.18,0-.06-.03-.09-.08-.09-.06,0-.13.03-.2.07-.08.05-.25.2-.51.46h0Z"/>
      <path class="cls-4" d="M29.49,50.89c-.25,0-.5.18-.74.54-.24.36-.36.87-.36,1.51,0,.39.07.7.22.92.11.16.25.25.43.25.25,0,.48-.16.69-.47.26-.4.39-.9.39-1.5,0-.45-.06-.77-.18-.96-.12-.19-.27-.29-.46-.29h0ZM29.87,50.55c.29,0,.54.12.73.35.19.23.29.56.29.97,0,.66-.23,1.26-.7,1.79-.47.53-.96.79-1.48.79-.32,0-.58-.11-.77-.31-.2-.21-.29-.5-.29-.86,0-.63.18-1.21.54-1.74.45-.66,1.01-.99,1.69-.99h0Z"/>
      <path class="cls-4" d="M31.68,51.61l-.15-.16c.38-.37.69-.61.92-.73.23-.12.42-.18.58-.18.06,0,.11.01.15.04.04.03.05.06.05.09,0,.03,0,.07-.02.14l-.2.9c.3-.34.69-.65,1.15-.95.24-.15.45-.23.61-.23.11,0,.21.04.27.11.07.07.1.18.1.32,0,.09-.01.2-.04.31-.05.2-.17.62-.37,1.27-.19.61-.29,1.02-.29,1.22,0,.06,0,.11.03.14.02.03.04.05.08.05.09,0,.22-.08.41-.25.13-.12.26-.23.39-.33l.11.16c-.27.3-.56.55-.86.73-.19.12-.34.18-.47.18-.11,0-.2-.04-.26-.12-.06-.08-.09-.21-.09-.4,0-.27.17-.93.5-1.99.1-.38.15-.6.15-.66,0-.09-.05-.14-.17-.14-.12,0-.27.06-.46.19-.28.19-.52.4-.7.66-.12.16-.22.42-.3.77l-.36,1.57h-.67c.13-.45.24-.88.33-1.29l.4-1.71c.02-.07.02-.12.02-.15,0-.08-.03-.12-.09-.12-.05,0-.12.03-.21.1-.19.12-.36.27-.52.45h0Z"/>
      <path class="cls-4" d="M37.96,50.55c.27,0,.47.05.62.15.14.1.22.22.22.36,0,.08-.03.15-.09.21-.06.06-.13.09-.22.09-.06,0-.11-.01-.15-.04-.04-.02-.1-.09-.18-.19-.15-.19-.29-.29-.44-.29-.12,0-.23.05-.33.14-.09.09-.14.21-.14.35,0,.12.03.24.09.36.06.12.21.3.45.56.33.35.5.69.5,1s-.14.59-.4.83c-.27.24-.62.36-1.04.36-.36,0-.62-.07-.79-.22-.17-.15-.26-.32-.26-.54,0-.1.03-.19.1-.26.07-.07.15-.1.24-.1.08,0,.16.03.22.08.06.05.09.12.09.19,0,.03,0,.07,0,.12,0,.04,0,.07,0,.1,0,.1.04.18.13.25.08.07.19.1.33.1.16,0,.3-.03.42-.08.12-.05.22-.14.29-.25.07-.11.1-.22.1-.33s-.03-.21-.1-.32c-.06-.11-.21-.28-.43-.53-.31-.34-.47-.68-.47-1,0-.29.12-.55.36-.77.24-.22.54-.33.9-.33h0Z"/>
      <path class="cls-4" d="M42.75,53.37l.12.16c-.27.31-.56.55-.85.73-.2.12-.36.18-.49.18-.1,0-.19-.04-.25-.12-.07-.08-.1-.21-.1-.39,0-.12.03-.29.07-.52.05-.23.19-.72.42-1.47.1-.37.15-.59.15-.65,0-.1-.05-.14-.15-.14-.13,0-.28.06-.47.19-.26.17-.5.39-.7.66-.13.17-.23.43-.31.76l-.35,1.57h-.67c.14-.52.25-.95.33-1.28l.66-2.88c.12-.53.28-.94.47-1.23.2-.29.45-.52.77-.69.32-.17.63-.26.94-.26.13,0,.23.03.3.1.08.06.11.14.11.24,0,.08-.04.15-.11.22-.07.06-.17.09-.3.09-.07,0-.16,0-.28-.02-.26-.04-.43-.06-.53-.06-.14,0-.25.06-.34.17-.09.11-.18.37-.27.79l-.5,2.21c.36-.37.74-.69,1.16-.95.25-.15.44-.23.59-.23.12,0,.21.03.27.1.07.07.1.16.1.29,0,.1-.01.2-.04.31-.04.18-.13.5-.28.96-.19.64-.31,1.04-.34,1.19-.03.16-.05.3-.05.42,0,.05,0,.08.02.11.02.02.04.04.07.04.07,0,.21-.08.4-.26.11-.09.24-.2.4-.33h0Z"/>
      <path class="cls-4" d="M45.32,48.62c.09,0,.17.03.23.09.06.06.09.14.09.24,0,.13-.05.25-.14.35-.09.1-.19.15-.31.15-.09,0-.17-.03-.22-.09-.06-.06-.09-.14-.09-.25,0-.14.04-.25.13-.34.09-.09.19-.14.31-.14h0ZM43.55,51.59l-.2-.15c.3-.33.57-.56.82-.7.25-.14.46-.21.63-.21.1,0,.17.02.22.06.05.04.08.1.08.17,0,.09-.1.45-.29,1.1-.32,1.06-.48,1.7-.48,1.92,0,.04.01.08.03.1.02.03.04.04.07.04.1,0,.34-.19.74-.56l.17.17c-.41.39-.71.63-.9.74-.19.11-.34.16-.46.16-.1,0-.19-.03-.25-.1-.06-.07-.09-.16-.09-.27,0-.37.22-1.29.67-2.74.02-.07.03-.13.03-.18,0-.06-.03-.09-.08-.09-.06,0-.13.03-.2.07-.08.05-.25.2-.51.46h0Z"/>
      <path class="cls-4" d="M46.81,53.78c.24.24.48.35.73.35.36,0,.67-.28.94-.84.27-.56.41-1.1.41-1.64,0-.17-.04-.3-.11-.39-.08-.09-.18-.13-.31-.13-.14,0-.3.07-.48.21-.28.22-.49.44-.64.65-.11.16-.2.43-.3.81l-.24.97h0ZM45.9,51.67l-.17-.18c.27-.33.54-.57.81-.72.27-.16.5-.23.7-.23.08,0,.13.02.18.06.04.04.07.09.07.16,0,.09-.01.18-.03.27-.02.09-.08.31-.18.65.46-.46.77-.74.94-.85.28-.18.54-.27.77-.27.15,0,.28.07.39.21.11.14.16.36.16.65,0,.72-.23,1.41-.68,2.06-.45.65-.95.98-1.5.98-.21,0-.43-.06-.65-.17l-.38,1.48c-.02.09-.04.16-.04.22,0,.11.04.19.13.24.13.07.4.14.81.18l-.06.22c-.48-.04-.86-.06-1.14-.06s-.65.02-1.1.06l.06-.22c.23-.02.39-.09.5-.19.1-.1.19-.28.25-.54l.81-3.4c.15-.63.23-.99.23-1.06,0-.08-.04-.12-.11-.12-.13,0-.38.19-.75.58h0Z"/>
      <path class="cls-4" d="M54.58,51.06c-.15,0-.32.09-.52.27-.2.18-.39.49-.57.93-.18.45-.27.89-.27,1.32,0,.16.05.3.16.41.1.11.22.16.36.16.33,0,.63-.26.89-.79.26-.53.39-1.05.39-1.57,0-.24-.05-.43-.15-.58-.07-.1-.16-.15-.28-.15h0ZM53.7,51.34c.24-.27.48-.46.72-.59.23-.13.44-.19.62-.19.21,0,.38.08.5.25.12.17.19.42.19.76,0,.49-.11.97-.35,1.44-.23.47-.52.83-.86,1.07-.34.25-.67.37-.99.37-.27,0-.49-.08-.66-.24-.17-.16-.25-.37-.25-.63,0-.21.04-.49.12-.86l.53-2.37c.13-.58.29-1.02.49-1.32.19-.3.45-.55.77-.73.32-.18.62-.27.9-.27.17,0,.29.03.37.09.08.06.12.14.12.23,0,.09-.04.17-.11.23-.07.06-.17.09-.31.09-.1,0-.27-.02-.51-.07-.11-.02-.2-.03-.29-.03-.15,0-.27.08-.36.24-.07.12-.16.44-.28.95l-.37,1.58h0Z"/>
      <path class="cls-4" d="M57.19,52.55c.48-.22.84-.45,1.09-.7.16-.17.25-.35.25-.52,0-.13-.03-.23-.1-.31-.07-.08-.16-.11-.26-.11-.11,0-.22.04-.32.12-.14.11-.26.28-.35.5-.14.33-.23.66-.29,1h0ZM58.76,53.2l.15.2c-.73.7-1.36,1.04-1.88,1.04-.21,0-.37-.07-.49-.21-.11-.14-.17-.37-.17-.69,0-.64.19-1.28.58-1.91.44-.72.96-1.08,1.57-1.08.21,0,.37.05.49.16.11.11.17.25.17.44,0,.19-.07.39-.2.57-.14.19-.38.38-.72.59-.17.1-.55.28-1.11.53-.03.16-.04.32-.04.46,0,.21.03.36.1.44.07.08.17.12.29.12s.26-.03.4-.1c.2-.09.49-.28.87-.57h0Z"/>
      <path class="cls-4" d="M59.74,51.47l-.14-.21.33-.22c.32-.22.55-.36.68-.43.07-.04.14-.05.21-.05s.12.04.18.11c.26.33.48.78.67,1.34.18.56.27,1.11.27,1.64,0,.07,0,.17,0,.31.5-.93.76-1.67.76-2.22,0-.11-.03-.27-.08-.45-.05-.21-.08-.36-.08-.45s.03-.16.08-.21c.06-.06.13-.09.21-.09.11,0,.19.04.25.12.06.08.1.2.1.35,0,.39-.09.87-.26,1.44-.18.58-.45,1.2-.83,1.86-.38.66-.73,1.15-1.04,1.48-.31.32-.62.55-.91.69-.29.14-.57.21-.83.21-.2,0-.34-.04-.45-.11-.1-.07-.15-.16-.15-.26,0-.09.04-.17.12-.23.08-.07.18-.1.31-.1.1,0,.24.02.42.06.19.04.32.06.39.06.18,0,.38-.08.58-.23.28-.21.5-.46.66-.75.16-.29.24-.58.24-.88,0-.42-.06-.91-.18-1.5-.12-.58-.29-1.03-.51-1.33-.11-.16-.23-.24-.35-.24-.15,0-.36.1-.63.3h0Z"/>
      <path class="cls-4" d="M65.49,50.89c-.25,0-.5.18-.74.54-.24.36-.36.87-.36,1.51,0,.39.07.7.22.92.11.16.25.25.43.25.25,0,.48-.16.69-.47.26-.4.4-.9.4-1.5,0-.45-.06-.77-.18-.96-.12-.19-.27-.29-.46-.29h0ZM65.87,50.55c.29,0,.54.12.73.35.2.23.29.56.29.97,0,.66-.23,1.26-.7,1.79-.47.53-.96.79-1.48.79-.32,0-.58-.11-.77-.31-.19-.21-.29-.5-.29-.86,0-.63.18-1.21.54-1.74.45-.66,1.01-.99,1.69-.99h0Z"/>
      <path class="cls-4" d="M67.68,51.61l-.15-.16c.38-.37.69-.61.92-.73.23-.12.42-.18.58-.18.06,0,.11.01.15.04.04.03.05.06.05.09,0,.03,0,.07-.02.14l-.2.9c.31-.34.69-.65,1.15-.95.25-.15.45-.23.61-.23.12,0,.21.04.27.11.06.07.1.18.1.32,0,.09-.01.2-.04.31-.05.2-.17.62-.38,1.27-.19.61-.28,1.02-.28,1.22,0,.06,0,.11.03.14.02.03.04.05.08.05.09,0,.22-.08.41-.25.13-.12.26-.23.39-.33l.11.16c-.28.3-.56.55-.86.73-.19.12-.34.18-.47.18-.11,0-.2-.04-.26-.12-.06-.08-.09-.21-.09-.4,0-.27.17-.93.5-1.99.1-.38.15-.6.15-.66,0-.09-.05-.14-.17-.14-.12,0-.27.06-.46.19-.28.19-.52.4-.7.66-.12.16-.22.42-.3.77l-.36,1.57h-.67c.12-.45.23-.88.33-1.29l.4-1.71c.01-.07.02-.12.02-.15,0-.08-.03-.12-.09-.12-.05,0-.12.03-.21.1-.19.12-.36.27-.52.45h0Z"/>
      <path class="cls-4" d="M74.5,51.08c-.24-.05-.41-.08-.51-.08-.2,0-.4.08-.59.24-.19.16-.38.46-.56.91-.18.45-.27.85-.27,1.18,0,.15.04.28.12.37.08.1.18.15.28.15.13,0,.27-.06.43-.17.23-.16.41-.36.55-.6.08-.15.19-.52.33-1.1l.21-.9h0ZM75.45,53.4l.12.17c-.4.34-.7.56-.89.67-.27.15-.48.23-.64.23-.07,0-.13-.02-.18-.06-.04-.04-.07-.09-.07-.14s.02-.13.05-.25l.16-.55c-.36.39-.66.65-.9.79-.24.14-.45.21-.65.21-.16,0-.29-.07-.4-.21-.11-.14-.16-.34-.16-.61,0-.42.15-.91.44-1.46.29-.55.62-.96.97-1.23.36-.26.68-.4.98-.4.07,0,.16,0,.3.03.14-.58.28-1.01.4-1.27.13-.27.3-.5.5-.69.2-.19.44-.34.7-.45.26-.11.51-.16.73-.16.12,0,.21.03.29.09.07.06.11.14.11.24,0,.09-.03.17-.1.23-.07.06-.16.09-.27.09-.08,0-.21-.02-.42-.05-.2-.03-.34-.05-.42-.05-.11,0-.2.03-.28.1-.08.06-.16.2-.23.41-.05.13-.16.56-.33,1.29l-.64,2.71c-.07.32-.11.53-.11.64,0,.11.04.17.13.17.05,0,.12-.02.19-.06.1-.06.3-.2.59-.42h0Z"/>
      <path class="cls-4" d="M80.74,51.06c-.15,0-.32.09-.52.27-.2.18-.39.49-.57.93-.18.45-.27.89-.27,1.32,0,.16.05.3.15.41.1.11.22.16.36.16.33,0,.63-.26.89-.79.26-.53.39-1.05.39-1.57,0-.24-.05-.43-.15-.58-.07-.1-.16-.15-.28-.15h0ZM79.86,51.34c.24-.27.48-.46.72-.59.23-.13.44-.19.62-.19.21,0,.38.08.5.25.13.17.19.42.19.76,0,.49-.12.97-.35,1.44-.23.47-.52.83-.85,1.07-.34.25-.67.37-.99.37-.28,0-.5-.08-.66-.24-.16-.16-.25-.37-.25-.63,0-.21.04-.49.12-.86l.53-2.37c.13-.58.29-1.02.49-1.32.19-.3.45-.55.77-.73.32-.18.62-.27.9-.27.17,0,.29.03.37.09.08.06.12.14.12.23,0,.09-.04.17-.11.23-.07.06-.17.09-.3.09-.1,0-.27-.02-.51-.07-.11-.02-.2-.03-.29-.03-.15,0-.27.08-.36.24-.07.12-.16.44-.28.95l-.37,1.58h0Z"/>
      <path class="cls-4" d="M85.07,51.16c-.16-.03-.3-.05-.41-.05-.27,0-.5.07-.7.22-.2.15-.39.42-.56.8-.17.38-.26.77-.26,1.15,0,.2.03.35.1.44.07.09.16.13.27.13.21,0,.43-.11.66-.33.24-.22.41-.54.52-.96l.37-1.4h0ZM85.63,50.48l.3-.06-.34,1.14c-.13.45-.26.97-.38,1.56-.07.32-.1.53-.1.62s.04.14.11.14c.05,0,.12-.03.23-.09.18-.11.36-.25.53-.41l.14.18c-.34.31-.56.5-.66.56-.19.13-.37.23-.55.29-.11.04-.23.06-.33.06-.08,0-.14-.02-.18-.05-.04-.03-.06-.09-.06-.16,0-.04.01-.11.04-.18l.18-.61c-.26.31-.56.57-.92.79-.22.14-.42.21-.6.21s-.31-.06-.4-.18c-.13-.16-.19-.38-.19-.65,0-.32.08-.67.25-1.06.17-.39.4-.74.68-1.06.29-.32.58-.55.9-.7.24-.11.55-.17.93-.17.1,0,.19,0,.29.02l.11-.17h0Z"/>
      <path class="cls-4" d="M86.78,51.61l-.15-.16c.38-.37.69-.61.92-.73.23-.12.42-.18.58-.18.06,0,.11.01.15.04.04.03.05.06.05.09,0,.03,0,.07-.02.14l-.2.9c.3-.34.69-.65,1.15-.95.24-.15.45-.23.6-.23.12,0,.21.04.27.11.07.07.1.18.1.32,0,.09-.01.2-.04.31-.05.2-.17.62-.38,1.27-.19.61-.29,1.02-.29,1.22,0,.06,0,.11.03.14.02.03.04.05.08.05.09,0,.22-.08.41-.25.13-.12.26-.23.39-.33l.11.16c-.28.3-.56.55-.86.73-.19.12-.34.18-.47.18-.11,0-.2-.04-.26-.12-.06-.08-.09-.21-.09-.4,0-.27.17-.93.5-1.99.1-.38.15-.6.15-.66,0-.09-.05-.14-.17-.14-.12,0-.27.06-.46.19-.28.19-.52.4-.71.66-.12.16-.22.42-.3.77l-.36,1.57h-.67c.13-.45.23-.88.33-1.29l.4-1.71c.02-.07.02-.12.02-.15,0-.08-.03-.12-.09-.12-.05,0-.12.03-.21.1-.19.12-.36.27-.52.45h0Z"/>
      <path class="cls-4" d="M92.27,52.2c.4,0,.73-.04.98-.12.25-.08.42-.19.53-.32.11-.13.16-.28.16-.44,0-.11-.03-.2-.09-.27-.06-.07-.14-.1-.22-.1-.28,0-.71.31-1.29.94l-.06.32h0ZM91.79,54.33h-.67l.59-2.44c.29-1.21.47-1.96.56-2.24.09-.28.19-.51.32-.7.12-.18.28-.35.47-.49.19-.14.39-.25.61-.33.22-.08.41-.11.57-.11.15,0,.27.03.35.09.08.06.11.14.11.24,0,.08-.04.16-.1.22-.07.06-.15.09-.26.09-.13,0-.33-.02-.6-.07-.09-.02-.16-.03-.23-.03-.09,0-.18.03-.26.1-.08.07-.15.18-.22.35-.06.17-.15.52-.27,1.06l-.32,1.43c.29-.33.59-.58.89-.75.23-.13.46-.2.67-.2.15,0,.28.06.38.17.1.11.15.25.15.42,0,.32-.16.61-.5.86-.33.25-.84.39-1.52.4.23.1.41.21.55.33.14.12.27.29.41.5.13.21.3.57.51,1.08.25.6.48,1,.69,1.2.21.2.44.3.69.3.15,0,.27-.03.36-.1.1-.06.14-.13.14-.19,0-.04-.01-.1-.04-.17-.03-.08-.05-.14-.05-.2,0-.07.03-.13.08-.18.05-.05.12-.08.19-.08.08,0,.16.03.22.1.06.07.09.16.09.27,0,.22-.1.41-.3.57-.2.17-.45.25-.77.25s-.62-.08-.88-.25c-.26-.17-.5-.43-.72-.79-.13-.21-.35-.69-.67-1.43-.15-.35-.28-.62-.4-.79-.09-.14-.22-.27-.38-.41l-.44,1.94h0Z"/>
      <path class="cls-4" d="M97.27,48.62c.09,0,.17.03.23.09.06.06.09.14.09.24,0,.13-.05.25-.14.35-.09.1-.19.15-.31.15-.09,0-.16-.03-.22-.09-.06-.06-.09-.14-.09-.25,0-.14.04-.25.13-.34.09-.09.19-.14.31-.14h0ZM95.5,51.59l-.2-.15c.3-.33.57-.56.82-.7.25-.14.46-.21.63-.21.1,0,.17.02.22.06.05.04.08.1.08.17,0,.09-.1.45-.29,1.1-.32,1.06-.47,1.7-.47,1.92,0,.04.01.08.03.1.02.03.04.04.07.04.1,0,.34-.19.74-.56l.17.17c-.41.39-.71.63-.9.74-.19.11-.34.16-.46.16-.1,0-.19-.03-.25-.1-.06-.07-.09-.16-.09-.27,0-.37.22-1.29.67-2.74.02-.07.03-.13.03-.18,0-.06-.03-.09-.08-.09-.06,0-.13.03-.2.07-.08.05-.25.2-.51.46h0Z"/>
      <path class="cls-4" d="M97.92,51.61l-.15-.16c.38-.37.69-.61.92-.73.23-.12.42-.18.58-.18.06,0,.11.01.15.04.04.03.05.06.05.09,0,.03,0,.07-.02.14l-.2.9c.31-.34.69-.65,1.15-.95.25-.15.45-.23.61-.23.12,0,.21.04.27.11.07.07.1.18.1.32,0,.09-.01.2-.04.31-.05.2-.17.62-.38,1.27-.19.61-.29,1.02-.29,1.22,0,.06,0,.11.03.14.02.03.04.05.08.05.09,0,.22-.08.41-.25.13-.12.26-.23.39-.33l.11.16c-.28.3-.56.55-.86.73-.19.12-.34.18-.47.18-.11,0-.2-.04-.26-.12-.06-.08-.09-.21-.09-.4,0-.27.16-.93.5-1.99.1-.38.15-.6.15-.66,0-.09-.06-.14-.17-.14-.12,0-.27.06-.46.19-.28.19-.52.4-.7.66-.12.16-.22.42-.3.77l-.36,1.57h-.67c.13-.45.23-.88.33-1.29l.4-1.71c.01-.07.02-.12.02-.15,0-.08-.03-.12-.09-.12-.05,0-.12.03-.21.1-.19.12-.36.27-.52.45h0Z"/>
      <path class="cls-4" d="M104.75,51.18c-.14-.03-.27-.04-.38-.04-.28,0-.53.07-.73.22-.2.15-.38.4-.52.75-.2.5-.3.92-.3,1.26,0,.14.04.26.12.36.08.09.17.14.27.14.12,0,.27-.06.44-.17.18-.11.32-.26.43-.43.11-.17.23-.47.34-.9l.33-1.19h0ZM104.14,53.63c-.2.18-.6.47-1.18.88-.51.35-.83.6-.94.75-.12.16-.17.32-.17.49s.08.32.23.46c.15.14.34.2.55.2.2,0,.4-.05.59-.15.19-.1.36-.25.5-.43.14-.19.24-.41.3-.64.05-.24.08-.56.08-.95,0-.09.02-.29.04-.6h0ZM105.25,50.52l.36-.08c-.22.7-.42,1.4-.6,2.1-.13.5-.22.92-.27,1.26-.03.17-.04.38-.05.64,0,.43-.05.78-.14,1.04-.12.37-.36.66-.7.89-.34.22-.75.34-1.22.34-.4,0-.72-.09-.95-.28-.23-.19-.35-.41-.35-.65,0-.24.09-.47.28-.68.14-.16.42-.35.86-.57.22-.12.43-.24.63-.36-.22.11-.39.17-.52.17-.11,0-.21-.05-.3-.16-.08-.1-.13-.24-.13-.41,0-.55.16-1.1.49-1.64.33-.54.72-.95,1.18-1.22.28-.17.64-.25,1.07-.25.08,0,.19,0,.31,0l.04-.13h0Z"/>
      <path class="cls-1" d="M23.62,31.89c-.09,0-2.83,0-2.83,0v6.66h2.34v-4.74c.12-.05.34-.09.52-.09.43,0,.69.24.69.66v4.17h2.34v-4.44c0-1.44-.89-2.22-3.05-2.22h0ZM34.21,32.04h-2.62l-1.44,2.71h-.03v-5.08h-2.32v8.87h2.32v-3.21h.03l1.64,3.21h2.58l-1.87-3.5,1.7-3h0ZM11.76,33.85h0v-.03c.7-.23,1.24-.82,1.24-1.67,0-1.44-1.02-2.5-3.5-2.5,0,0-2.88,0-2.88,0v8.88h2.88c2.48,0,3.66-.97,3.66-2.6,0-1.07-.75-1.82-1.4-2.09h0ZM8.9,31.49h0c.15-.04.38-.06.59-.06.94,0,1.22.37,1.22.97,0,.31-.1.56-.24.7-.11.11-.39.22-.71.22h-.86v-1.83h0ZM9.49,36.74h0c-.22,0-.46-.04-.59-.06v-1.86h.86c.37,0,.6.1.76.24.16.14.25.41.25.7,0,.71-.36.98-1.28.98h0ZM66.25,31.91h0c-.17-.05-.46-.1-.69-.1-2.04,0-3.08,1.29-3.08,3.31,0,2.22,1.18,3.41,3.37,3.42h2.74v-8.87h-2.34v2.24h0ZM66.25,36.68h0c-.08.04-.24.05-.4.05-.66,0-1.03-.52-1.03-1.63,0-.94.35-1.56,1-1.56.17,0,.35.04.42.08v3.06h0ZM58.59,31.88h0c-.09,0-2.84,0-2.84,0v6.66h2.34v-4.74c.12-.05.34-.09.52-.09.44,0,.69.24.69.66v4.17h2.34v-4.44c0-1.44-.9-2.22-3.05-2.22h0ZM69.72,38.54h2.34v-6.67h-2.34v6.67h0ZM69.72,31.03h2.34v-1.39h-2.34v1.39h0ZM40.58,31.88h0c-1.99,0-3.15,1.45-3.15,3.4s1.16,3.42,3.15,3.42,3.15-1.46,3.15-3.42-1.16-3.4-3.15-3.4h0ZM40.58,36.83h0c-.52,0-.81-.48-.81-1.57s.29-1.57.81-1.57.81.48.81,1.57-.29,1.57-.81,1.57h0ZM44.98,32.08h0v.57h-.7v1.74h.7v4.16h2.29v-4.16h1.06v-1.74h-1.06v-.57c0-.47.36-.64.85-.64.11,0,.22.01.34.03v-1.79c-.2-.03-.54-.06-.8-.06-1.59,0-2.68.75-2.68,2.46h0ZM52.45,38.54h2.41v-8.85h-2.41v8.85h0ZM16.58,31.88h0c-.09,0-2.03,0-2.03,0v1.65h2.27c.36.02.58.22.62.55h0s0,.01,0,.01c-1.96.12-3.64.55-3.64,2.23,0,1.44,1.05,2.21,3.2,2.21h2.64v-4.44c0-1.44-.89-2.22-3.05-2.22h0ZM17.44,36.89h0c-.1.04-.31.05-.52.05-.55,0-.95-.22-.95-.67,0-.57.53-.7,1.47-.74v1.35h0ZM75.7,31.88h-2.03v1.66h2.27c.36.02.58.22.62.55h0s0,.01,0,.01c-1.96.12-3.65.55-3.65,2.23,0,1.44,1.05,2.21,3.2,2.21h2.64v-4.44c0-1.44-.89-2.22-3.05-2.22h0ZM76.56,36.89h0c-.1.04-.31.05-.52.05-.56,0-.95-.22-.95-.67,0-.57.53-.7,1.47-.74v1.35h0Z"/>
      <polygon class="cls-4" points="93.99 34.63 82.14 45.11 88.77 30.78 75.25 22.97 90.7 24.63 93.99 0 97.27 24.63 112.72 22.97 99.21 30.78 105.84 45.11 93.99 34.63 93.99 34.63"/>
      <polygon class="cls-5" points="93.99 34.33 82.79 44.22 89.06 30.69 76.29 23.31 90.89 24.88 93.99 1.71 97.08 24.88 111.68 23.31 98.91 30.69 105.18 44.22 93.99 34.33 93.99 34.33"/>
      <polygon class="cls-2" points="97.08 24.88 90.89 24.88 89.07 30.7 93.99 34.33 98.91 30.69 97.08 24.88 97.08 24.88"/>
      <path class="cls-4" d="M93.98,33.09c-2.2,0-3.99-1.79-3.99-3.99s1.79-3.99,3.99-3.99,3.99,1.79,3.99,3.99-1.79,3.99-3.99,3.99h0Z"/>
      <path class="cls-1" d="M93.98,32.86c-2.08,0-3.77-1.69-3.77-3.77s1.69-3.77,3.77-3.77,3.77,1.69,3.77,3.77-1.69,3.77-3.77,3.77h0Z"/>
      <path class="cls-4" d="M93.84,26.51s0,.01,0,.02c0,.01,0,.02.01.02-.04,0-.05-.02-.05-.02,0,0,.01-.02.05-.02h0ZM93.88,26.51s.02,0,.04.01c0,0-.01.02-.04.02,0,0,.01-.01.01-.02,0,0,0-.01,0-.02h0ZM93.8,26.56s.04.01.06.01c.07,0,.09-.05.1-.05,0-.05-.03-.1-.08-.1-.02,0-.05,0-.06.01-.02,0-.03.03-.04.05.03,0,.05-.04.11-.03.03,0,.06.05.04.05-.01-.01-.02-.02-.03-.02-.05-.02-.09.02-.12.04,0,0,0,0-.02,0h0s.02.03.04.05h0ZM94.1,26.51s0,.01,0,.02c0,.01,0,.02.01.02-.03,0-.05-.02-.05-.02,0,0,.01-.02.05-.02h0ZM94.14,26.51s0,0,0,0h0s.02,0,.02,0c0,0,0,0,0,0,0,0-.01.02-.04.03,0,0,.01-.01.01-.02,0,0,0-.01,0-.02h0ZM93.95,26.71s.01,0,.02,0c.03,0,.05.02.08,0,.04-.02,0-.08,0-.12,0-.02,0-.03.01-.05,0,0,.08.04.13,0,0,0,.02,0,.03-.01,0,0,0,0,0,0,0,0,0-.02,0-.02,0,0-.01.02-.02,0-.03-.02-.05-.03-.09-.02-.03,0-.06.02-.06.02-.01-.06.11-.07.15-.03,0-.02-.01-.03-.02-.04-.04-.03-.12,0-.15.02-.02.02-.02.12-.02.15,0,.02.02.03.01.05,0,.01,0,.03-.02.03-.02,0-.06-.02-.05.02h0ZM95.71,31.52s-.05-.06-.08-.09c0,0-.02-.01-.03-.02,0,0-.02-.01-.03-.02-.03-.02-.08-.02-.12-.03-.01,0-.03,0-.04,0-.02,0-.03-.02-.05-.02-.06-.01-.12,0-.19-.01-.09,0-.18-.02-.27-.03-.04,0-.09-.01-.12-.02-.01,0-.03-.01-.04-.02-.04,0-.06,0-.09,0-.01,0-.02.02-.03.02-.02,0-.03-.03-.05-.02-.01.01-.02.03-.01.05,0,0,.03.03.03.03.03.01.05,0,.06,0,.07-.02.15.02.21.03.16.03.38.01.52.06.03,0,.05,0,.08.02.07.03.12.07.17.1.03.04.06.07.12.09.03,0,.07,0,.07-.03,0-.05-.08-.04-.12-.06h0ZM96.71,31.31s.04.04.03.06c0,0,0,.02-.02.01-.03,0-.02-.06-.07-.06,0,0-.01,0-.02.01-.01.04.07.05.04.11,0,.02-.04.03-.07.03,0-.01.01-.02.01-.03,0-.04-.05-.07-.09-.04,0,.03.04.05.02.08-.02.02-.06.02-.08,0,0,0,.02,0,.03,0,0,0,0,0,.01-.01,0-.02-.01-.02-.03-.03-.01-.01-.03-.02-.03-.03,0-.07-.06-.08-.12-.09-.11,0-.23-.02-.34-.03,0-.05-.04-.06-.08-.07-.06-.01-.11-.01-.18-.03-.02,0-.06-.02-.07-.04,0-.02.03-.04.05-.05.06-.04.11-.08.16-.13.12.02.2.07.29.12.02.01.05.02.07.03.02.01.05.03.08.03.12.03.28,0,.37.06.03.02.06.05.06.09-.02,0-.02-.05-.05-.05-.01,0-.02.01-.02.02,0,.01.02.02.03.03h0ZM96.4,31.43s-.05-.01-.08-.01c-.04,0-.09-.02-.13-.02-.04,0-.09-.01-.13-.02.03-.02.08,0,.12,0,.08,0,.21,0,.23.04,0,0,0,.02,0,.03,0,0-.01,0-.02,0h0ZM96.03,31.44s.04.05.04.1c-.01.02-.03.03-.04.05,0-.02,0-.05-.02-.06,0,0,0,.02-.01.02-.02,0-.01-.03-.03-.02,0,.02.02.03.02.06,0,.05-.03.08-.08.08,0-.02.04-.01.04-.03,0-.03-.02-.04-.03-.05-.01,0,0,.01-.01.02-.02,0-.03-.04-.05-.03.01.02.03.04,0,.06-.02.01-.05.02-.07.02-.04,0-.08,0-.11-.03-.01-.02-.02-.04-.03-.05-.02-.01-.04-.01-.06-.03,0,0-.01-.02-.02-.03-.01-.01-.04-.02-.06-.03-.06-.03-.15-.05-.22-.06-.13-.01-.28,0-.4-.03-.04,0-.09-.02-.13-.03-.05,0-.09.01-.13,0-.04,0-.06-.03-.07-.07-.01-.09-.03-.19-.07-.25-.01-.03-.02-.07,0-.12,0-.03.02-.07.02-.1,0-.04,0-.08.01-.12,0-.07.03-.13.06-.16.02,0,.03.03.04.04.03.02.07.03.1.06.01,0,.02.03.03.04.04.07.02.17.05.25,0,.01.01.02.01.03-.04,0-.1,0-.12.03.02.03.07,0,.11,0,.04,0,.09.01.12.03.02.02.04.05.07.06.04.02.11.02.16.02.06,0,.12.01.18.02.08.02.16.05.23.08.01,0,.03,0,.04.02,0,0,.02.01.03.02.03.02.06.01.09.02.03,0,.06.02.09.02.02.01.06.02.09.04.01,0,.02.02.03.02.02,0,.04,0,.06,0,.02,0,.04.02.06.03.04.02.07.05.07.1-.02-.01-.02-.05-.05-.03h0ZM94.71,31.57s-.08-.06-.14-.07c-.02,0-.04,0-.05,0,0,.02.03.02.04.02.04,0,.07.02.1.04.01,0,.04.02.03.04-.01.03-.07-.02-.07-.03-.02,0-.02-.02-.04-.02-.01,0-.03,0-.04,0-.02,0-.03,0-.04-.01,0,.04.07.03.09.05,0,0,0,0,0,.02,0,0,.01.01.02.02,0,0,0-.01,0-.02.05,0,.05.05.01.06-.04.01-.07-.02-.1-.03-.05,0-.09,0-.13,0-.04,0-.05-.03-.08-.05-.03-.03-.06-.03-.1-.04.02-.03.03-.08.06-.11.02-.02.1-.05.14-.03.02,0,.05.02.07.02.01,0,.03.02.04.02.01,0,.02.03.03.03.03,0,.08.02.11.03,0,0,.03,0,.03.02,0,0,0,.01-.01.02-.01,0-.01-.01-.02-.02-.03-.02-.07-.01-.11-.03,0,0,.02,0,.02.01.05,0,.09.03.13.05.01,0,.03.02.01.03h0ZM94.16,31.21c0-.23.01-.47.02-.71,0,0,0,0,0,0,0,0,0,0,0,0,0,0,0,.03,0,.04.01.09.03.2.04.29.02.11.05.21.05.33-.03.01-.05.02-.08.03-.02,0-.03.02-.05.02h0ZM94.37,31.09s-.04,0-.06.01c-.04-.17-.08-.37-.1-.57-.02-.2-.04-.42-.03-.61.01,0,.03-.01.04,0,.03.01.02.11.02.15,0,.16.01.32.03.46,0,.1.02.21.04.29.01.1.05.18.06.27h0ZM94.32,30.47c-.02-.17-.01-.35,0-.52,0-.02,0-.05,0-.07,0-.04,0-.08.03-.11.01-.01.03-.02.05-.03.02-.01.03-.03.04-.04,0-.03.02-.05.02-.07,0,0,0,0,0,0,.01.35-.04.6-.07.92,0,.09-.02.18-.03.27-.03-.1-.04-.22-.05-.34h0ZM94.07,29.88s-.05.06-.08.09c-.01.02-.03.03-.04.05.09-.25.2-.48.28-.75.04-.13.07-.26.11-.4.04-.14.05-.29.06-.46,0,0,0,0,0,0t0,0s.04.05.04.07c.03.09.05.19.07.29.01.07.02.14.02.21,0,.03,0,.07,0,.11,0,.04,0,.08,0,.12,0,.04-.04.08-.06.12-.02.04-.05.07-.07.11-.04.07-.1.14-.15.2-.07.08-.13.16-.2.24h0ZM94.13,30.1c0,.19-.01.38-.02.57,0,.22-.02.44-.03.65-.04,0-.08-.02-.13-.03-.05,0-.1-.01-.15-.01.07-.25.16-.49.21-.76.03-.16.07-.32.1-.48,0,0,0,0,0,0,.01,0,.01.06.01.08h0ZM93.77,31.45s.04-.08.05-.12h0s-.03.09-.05.12c0,0,0,0-.01,0h0ZM93.98,31.56s-.01.08-.06.11c0,0-.02,0-.03,0-.03.02-.03.12-.1.08-.02-.04.03-.04.05-.02,0-.02-.02-.02-.05-.02,0-.04.03-.06.06-.08,0-.01,0-.02,0-.02-.02-.02-.03,0-.03.03,0,.01-.03.03-.04.05-.01.02-.01.04-.04.02,0-.06.05-.06.06-.1,0,0,0,0,0-.01-.04,0-.03.04-.05.05-.01.02-.02.05-.03.08,0,0-.01,0-.02,0,0,0,0-.01,0-.02,0,0,0,0,.01,0-.02-.04.01-.08.03-.09-.02-.04-.05.03-.06.05,0,.01,0,.03-.01.03-.01,0,0-.06,0-.07,0-.02.03-.02.03-.04-.01,0-.03.01-.04.02,0,0,0,.02-.02.02-.02,0,0-.03,0-.03.02-.02.03-.03.05-.03.01,0,.01-.02.03-.03.03-.02.1,0,.13,0,.02,0,.05,0,.07,0,.02,0,.05,0,.06.02,0,.01-.01.02-.01.03h0ZM93.73,31.73s0,0,.01,0c0-.02.02-.02.03,0,.01.04-.05.04-.04,0h0ZM93.54,31.55c-.09,0-.17,0-.25.01-.02-.09-.04-.17-.06-.25.09,0,.19.01.27.02.01.01.02.02.03.04.02.02.04.03.06.05.01.01.02.03.04.04,0,0,.02.01.02.02.01.01.03.02.05.03-.01.01-.04.02-.05.04-.02.01-.06,0-.1,0h0ZM93.31,31.65s0-.01,0-.01c0,0,.02,0,.03-.01.07-.02.17-.03.26-.03,0,0,.02,0,.03,0-.1.02-.21.03-.31.05h0ZM93.18,31.69c-.05.02-.12.03-.19.03-.03,0-.06,0-.09,0-.05,0-.09,0-.12-.02-.02-.01-.03-.02-.05-.03-.02-.02-.04-.05-.03-.09,0,0,0,0,0,0,0,0,0-.01,0-.02,0-.01.02-.02.02-.03,0-.02-.01-.03-.02-.04-.03,0-.05,0-.06.03,0,0,0,0,0,.01,0,0-.02.01-.02.02,0,0-.02,0-.03,0-.02,0-.05,0-.06-.01-.04-.02-.07-.06-.1-.1,0-.03-.02-.05-.01-.08,0-.02,0-.05.02-.07,0-.01.03-.04.02-.07,0,0-.02-.01-.03-.02,0-.01,0-.02-.02-.03-.01,0-.03,0-.04.01-.02.02-.02.07-.03.1,0,.05,0,.1,0,.15,0,.03.02.04.03.07.02.03.04.05.07.08,0,0,0,0,0,0,.02.03.07.04.08.07.02,0,.04.02.07.03.02.03.07.03.1.05.02,0,.05.02.07.03.1.03.18.08.27.11.03.02.07.04.1.06.01.02.03.04.05.06,0,0,0,0,0,0-.02,0-.03-.03-.06-.02,0,.02.02.04.04.05,0,0,0,0,0,.01,0,0,.02.01.02.02-.02,0-.03-.02-.04-.03,0-.01-.02-.03-.03-.03,0,0,0,.01,0,.02,0,0-.01-.01-.02-.02-.01.01.01.03.02.04-.01,0-.02-.02-.04-.03,0,0,0,.01,0,.03,0,0,0-.02-.02-.01,0,.01,0,.02,0,.04,0,.01.01.02.01.04,0,.05-.02.12,0,.16-.03-.03-.01-.1-.01-.15,0-.02-.02-.06-.03-.08-.07-.1-.2-.17-.33-.2-.03-.02-.08-.03-.11-.04-.09-.02-.17-.06-.25-.1-.04-.03-.07-.06-.1-.1-.02-.02-.04-.05-.06-.08-.01-.02-.02-.05-.03-.07,0-.03,0-.04,0-.07,0-.03,0-.06,0-.09,0-.07.04-.15.07-.2.03-.05.06-.08.09-.12.04-.04.08-.08.11-.12.04-.06.06-.11.11-.15.03-.02.06-.03.09-.05.09-.05.2-.08.31-.1.06.21.11.43.17.64,0,.03.02.06.02.09-.03,0-.13-.04-.16-.02-.03.02,0,.07.04.07,0,0-.01,0-.02,0-.01,0-.03.02-.05.02,0,0-.01,0-.02,0-.02,0-.03.02-.04.04-.01.03,0,.06.04.04.02-.01.05-.04.06-.05.05-.02.11-.04.17-.03.02.09.05.18.06.27-.05,0-.12.01-.18,0-.04-.01-.06-.01-.09,0,0,0,.01.01.01.03,0,.04-.06.03-.06,0-.01.05.05.08.09.09,0,0,.01,0,.02,0,.08,0,.17-.03.23-.04,0,.02-.03.02-.05.03h0ZM93.12,31.99s.03.05.04.08c-.02-.02-.03-.05-.04-.08h0ZM92.85,29.79c-.04-.19-.09-.38-.14-.58-.01-.05-.02-.1-.04-.14-.01-.05-.03-.1-.04-.14-.06-.29-.14-.58-.21-.86,0,0,0,0,0,0,.04.02.1.01.14.02,0,.04,0,.07.06.07,0,.02,0,.04.02.05.03,0,.06,0,.08-.01.17.07.32.15.53.19,0,.2-.02.42-.02.64,0,.07-.01.14-.01.22,0,.14-.01.28-.03.42-.01.1-.03.2-.03.3,0,.04,0,.07,0,.11,0,.03-.01.08,0,.1,0,0,.02.02.02.02.04.03.12.06.16.09,0,.01,0,.03,0,.04-.12.01-.23.03-.34.05-.05-.19-.1-.38-.14-.57h0ZM92.4,27.95s.03-.02.03-.04c0-.02-.01-.03-.02-.04.02,0,.03.02.04.04,0,0,.04.04.05.04.02,0,.05,0,.04-.03-.02,0-.04,0-.05-.02-.03-.02-.04-.05-.05-.08.01-.02,0-.04-.02-.05,0-.03,0-.05-.02-.07,0,0,0,0,0,0,0,0,0,0,0,0,.03.01.06.03.09.05.06.03.09.08.1.15.02.01.05.02.06.04,0,.05-.03.09-.06.11-.02-.01-.04-.03-.07-.05-.02.02-.1.01-.12,0,0,0-.02-.04-.01-.05h0ZM92.33,27.92s-.02.02-.03.03c-.02,0-.04-.06,0-.07.03-.01.12,0,.12.03,0,.03-.06,0-.08.01h0ZM92.25,27.83s.08-.01.11,0c.01,0,.04.01.03.03-.04,0-.09-.02-.13.02-.01,0-.02-.03-.02-.05h0ZM92.24,27.76s.03,0,.04-.01c.05,0,.06.02.09.03.02.01.05.02.04.03,0,.01-.01.01-.03.01-.03,0-.06-.03-.1-.02-.02,0-.03.01-.04.01-.02,0-.02-.04,0-.06h0ZM92.4,27.76s-.03-.02-.05-.02c-.04-.02-.08,0-.12,0-.02-.1.18-.06.16.02h0ZM92.26,27.6s.02.01.02.02c.02.02.04.03.06.05-.02-.01-.06,0-.08-.01-.01,0-.03-.06,0-.06h0ZM92.7,27.93s.01,0,.02,0c.01.04,0,.08-.02.11-.01.03-.04.07-.06.08-.02,0-.04,0-.04-.01,0,0,.02-.03.03-.04.03-.04.06-.09.07-.14h0ZM92.76,27.96s.02,0,.02,0c-.01,0-.04.04-.01.05-.01.01-.02.02-.02.04-.01,0-.02.02-.02.03,0,0-.02.01-.02.02,0,0,0,0,0,.01-.02,0-.02.03-.04.04,0,0,0-.01-.01-.02.05-.04.08-.11.1-.18h0ZM92.79,28.09s0-.02,0-.03c0,0,.01-.02.01-.03,0-.01,0-.03.01-.04.1.02.21.04.3.07.02,0,.04.01.06.02.02,0,.03.03.05.04.02,0,.02,0,.03,0,.03-.03-.01-.08-.05-.08,0-.02,0-.03,0-.04,0,0,.03,0,.05,0,.06.01.12.04.16.06-.01.07-.05.12-.08.18-.02.02-.03.07-.07.08-.02,0-.07,0-.1-.01-.03,0-.06-.01-.09-.02-.03,0-.06-.02-.08-.03-.09-.03-.17-.07-.25-.11,0-.03.02-.04.03-.06h0ZM93.23,27.93c.09,0,.16.03.22.07,0,0,0,.01,0,.02-.07-.03-.14-.05-.22-.07,0,0,0-.01,0-.02h0ZM93.28,27.72c.01-.09.03-.18.05-.28.02-.08.03-.15.07-.22,0-.02.02-.03.04-.05,0,0,0-.02.01-.02.02-.02.04-.03.07-.05,0,0,.01,0,.01,0,.02-.02.06-.02.09-.04,0,0,0,0,0,0h0c0,.07,0,.14.02.2,0,.03.02.07.03.1-.05.03-.1.07-.15.1-.01-.01,0-.04-.02-.05,0,.02-.02.03-.02.05,0,.01.01.04.01.05,0,.02,0,.1,0,.13,0,.02-.02.1-.02.14,0,.02,0,.03,0,.06-.06-.02-.15-.04-.21-.05,0-.02,0-.05.02-.07h0ZM93.68,27.4s.06.02.05.06c0,.01-.06.06-.08.07,0,0-.02,0-.02,0,0-.02.02-.03.02-.05,0-.02,0-.05,0-.06,0-.01.02-.01.03-.02h0ZM93.76,27s0,0,0,0c.01.07.02.14.03.2,0,.02.02.04.02.06-.02.02-.04.03-.07.04-.03-.08-.04-.18-.04-.28.02,0,.04-.02.06-.03h0ZM93.74,26.43s.01-.05.02-.08c0-.01.01-.02.02-.04.05-.05.12-.08.18-.11,0-.02,0-.03,0-.05,0,.01,0,.03,0,.05.06.01.09.04.13.07.04.03.08.08.09.13,0,.03,0,.05.01.08.01.02.03.04.03.07,0,.12-.07.26-.15.32-.03.03-.09.06-.15.05-.05,0-.1-.04-.13-.07-.03-.03-.05-.07-.08-.11-.03-.06-.05-.12-.05-.19,0-.05.03-.08.04-.14h0ZM94.19,27.06s0-.04.02-.06c.02,0,.04.02.06.03-.02.02-.05.02-.07.04h0ZM94.15,26.93s0-.03,0-.04c0-.02,0-.03,0-.04,0,.05.02.09.02.13,0,.04-.02.08-.04.11-.1.05-.18.1-.27.15-.02-.05-.04-.12-.05-.19,0-.03-.01-.06,0-.08,0-.02.01-.04.01-.06.02.01.03.03.05.04.03.03.07.06.13.06.02,0,.04,0,.06,0,.02,0,.05,0,.07,0,.01,0,.03-.03.03-.05,0,0,0-.01,0-.02h0ZM94.33,27.15s-.07.07-.11.1c-.08.06-.16.12-.25.19-.02.01-.03.03-.05.05-.03.03-.06.05-.05.09.03,0,.05-.03.07-.05.07-.06.13-.12.19-.18,0,0,0,0,.01-.01h0s.08-.06.12-.09c.02-.02.04-.04.07-.05,0,0,.01,0,.01,0h0s.04-.03.07-.04c.01,0,.03,0,.04-.01.03,0,.07-.04.09,0-.02.02-.06.03-.08.05-.04.03-.08.05-.11.08-.01.01-.02.02-.04.03-.05.04-.09.09-.14.14-.02.03-.05.06-.07.08-.04.06-.09.12-.13.18-.08.12-.16.24-.26.35-.03.03-.11.07-.12,0,.02,0,.03,0,.05,0,.03-.02.06-.05.08-.08.01-.02.04-.04.03-.06-.03,0-.04.03-.06.05-.03.01-.04.03-.08.03-.07,0-.11-.04-.11-.13,0-.02,0-.11,0-.14.01-.03.04-.06.07-.08.05-.04.1-.07.15-.11.02-.01.03-.03.05-.04.03-.02.07-.05.1-.07.08-.05.17-.1.26-.15h0s.08-.03.12-.05h0s.05-.03.08-.04h0ZM94.32,28.21v-.03s0-.02,0-.03c0,0,0-.01,0-.02,0,0,0,0,0,0,0,0,0,0,0,0,0,.02,0,.04,0,.07,0,.01,0,.03,0,.04,0,0,0-.01,0-.02h0ZM93.88,30s-.04.08-.07.12c-.02.04-.05.07-.08.1-.06.06-.11.13-.16.2-.05.06-.1.12-.14.18,0,0,0,.02-.02.02,0-.03,0-.06-.01-.1-.01-.1-.01-.22-.01-.32,0-.08.03-.12.05-.18,0-.02.01-.04.02-.06.04-.09.08-.18.12-.26.03-.07.08-.13.12-.19.08-.12.16-.25.23-.38.05-.1.1-.21.15-.31.03-.07.07-.14.1-.2.03-.05.06-.1.1-.14,0,0,0,0,.01,0,.02,0,0,.06,0,.07,0,.02-.01.06-.02.07-.05.22-.12.43-.19.63-.01.04-.03.08-.05.12-.01.04-.02.09-.04.12,0,.02-.02.03-.03.05-.01.02-.02.03-.03.05-.02.03-.04.07-.05.1-.02.02-.03.04-.04.06-.02.04-.05.08-.06.13,0,.02-.02.06,0,.07.02,0,.05-.04.06-.05.02-.03.03-.05.04-.07.08-.15.14-.32.21-.48.06-.17.12-.34.16-.52.01-.04.03-.09.04-.14,0-.01,0-.04.02-.04,0,.06-.01.11-.02.16,0,.05-.02.1-.03.15-.03.1-.05.2-.08.29-.05.19-.12.36-.2.53-.02.04-.04.08-.06.12-.02.04-.04.08-.06.12h0ZM93.46,30.9s.03-.06.04-.08c.01-.03.03-.05.05-.08.05-.08.1-.15.16-.23.02-.03.04-.05.05-.07.02-.04.05-.07.08-.11,0-.01.02-.03.03-.03.01.02,0,.04,0,.05-.02.1-.04.18-.07.27,0,0-.05.08-.02.1.02,0,.04-.04.04-.06.03-.07.06-.14.08-.22.02-.08.05-.15.08-.22.01-.03.02-.05.03-.07,0-.01.03-.02.03-.03,0,0,0,0,0,0,0,.04,0,.09-.02.14-.01.07-.03.14-.04.21-.02.08-.04.16-.06.24-.01.04-.02.08-.03.12-.04.11-.08.22-.12.33,0,.02-.01.03-.02.05-.01.03-.02.06-.04.06-.01,0-.04,0-.06,0-.07-.01-.12-.04-.17-.08,0-.04-.02-.08-.02-.12,0-.06-.02-.11,0-.16h0ZM93.34,30.43c0,.09,0,.18.01.27-.07-.01-.16-.02-.23,0,0,0-.02.01-.02.02,0,.03.01.05.03.06.01,0,.03,0,.04.01.03,0,.05-.02.09,0,.01,0,.02.02.04.02.02,0,.03,0,.04.01.03.02.04.05.06.07.01.06.02.14.03.21.01.06.02.11.04.16,0,0-.02,0-.04,0-.04,0-.08,0-.12,0-.03,0-.06,0-.1,0-.07-.25-.13-.51-.19-.77.03-.01.07-.02.1-.03.06,0,.12-.02.18-.02.01,0,.03,0,.05,0h0ZM93.77,28.27s-.02-.02-.03-.05c0-.03-.02-.07.01-.07.01.03.02.08.02.12h0ZM93.77,28.11s-.04.03-.07.01c0-.02.03-.02.04-.03.02-.01.03-.02.04-.03.03,0,.06-.02.08-.04,0,0,0,0,0,0-.03.03-.07.06-.11.09h0ZM93.86,28.26s0-.07,0-.1c.01-.03.06-.05.1-.06.06,0,.12.02.14.06.02.06,0,.12-.05.15-.07.04-.18,0-.2-.05h0ZM93.68,29.25s-.04.05-.06.08c-.03.06-.06.12-.08.19-.06.14-.11.3-.17.44,0,.01,0,.03-.02.04,0-.02,0-.04,0-.06,0-.11,0-.23,0-.34,0-.04.01-.08.01-.12,0-.03,0-.06,0-.09,0-.03,0-.05.02-.08,0-.03.01-.05.02-.07,0-.01,0-.02.01-.04.03-.11.09-.2.15-.28.05-.08.11-.15.17-.21.08-.09.16-.16.25-.23.05-.04.11-.08.15-.13.02-.02.02-.04.04-.05,0,.02,0,.04-.02.06-.03.04-.06.09-.1.13-.06.09-.13.17-.19.27-.03.05-.06.1-.08.15-.08.14-.16.3-.24.44-.03.05-.05.1-.07.16.02,0,.02-.02.03-.03.12-.19.23-.4.35-.59.06-.1.13-.2.21-.29.06-.07.1-.14.15-.22.02-.03.03-.06.05-.08.02-.01.03.03.03.06,0,.01-.02.03-.02.05-.02.05-.04.1-.07.15-.03.06-.07.13-.1.19-.06.14-.14.25-.2.38-.04.06-.07.12-.1.19-.1.17-.19.34-.28.51,0,.01-.01.04-.03.04,0-.02.01-.04.02-.06.04-.09.08-.19.12-.27.03-.06.05-.11.07-.19,0-.03.02-.06,0-.08h0ZM94.17,28.02s.05-.02.07-.03h0s0,.02-.01.02c-.02.03-.02.08-.05.1-.02.01-.04,0-.07,0-.05-.05-.16-.05-.22-.02-.02.01-.04.03-.07.02,0-.02.03-.03.05-.05.04-.02.07-.05.12-.07.02,0,.04-.02.07-.02,0,.03.02.05.06.04,0,0,.02,0,.03-.01h0s.02,0,.03-.01h0ZM93.62,28.28s0-.09,0-.13c0,0,0,0,0,0,0,.04,0,.09,0,.13h0ZM93.43,28.26s0-.03,0-.04c0-.03.02-.06.04-.08.01.02,0,.05.01.08,0,.04.01.09.01.13,0,.03,0,.06-.01.08-.01.02-.03.05-.04.07,0-.08-.02-.16,0-.24h0ZM93.46,28.54s.02-.04.03-.06c.02-.05.04-.08.07-.12.02-.02.03-.04.05-.06.05.01.12.02.18.02.02,0,.04,0,.06,0,.02,0,.03.02.06.03.03,0,.05,0,.09,0-.02.04-.06.06-.09.09-.03.03-.06.06-.09.09-.06.06-.12.12-.17.19-.05.07-.1.14-.16.21-.04.05-.07.11-.1.17,0,.02-.02.04-.03.05,0-.11.01-.23.03-.33,0-.05.02-.1.04-.15.01-.05.02-.1.04-.14h0ZM93.27,29.68c0,.09,0,.18-.01.28,0,.04,0,.07,0,.11,0,.03,0,.07,0,.1-.01,0-.02-.02-.05-.01.02-.18.04-.36.06-.54,0,0,0,0,0,0,0,.02,0,.04,0,.06h0ZM93.31,29.58s-.04,0-.06-.01c0-.21,0-.41.01-.58,0-.05,0-.1,0-.15,0-.05,0-.09,0-.14,0-.11,0-.21.01-.33.03-.01.05-.03.07-.05,0,0,0,0,0,0,.02.05,0,.11,0,.17,0,.06.01.12,0,.17,0,.02-.01.04-.02.06,0,.02,0,.04-.02.05,0,.03,0,.06-.02.09,0,0,0,.02,0,.02,0,0,0,0,0,.01-.03.19-.01.44-.02.69h0ZM94.59,27.23s.01.03.02.04c.02.07.03.14.04.21,0,.03.02.07.02.11,0,.04.02.07.02.1-.01,0-.03,0-.04,0-.07,0-.17,0-.25.03,0,0,0-.01,0-.01,0,0,0,0,0-.01,0-.03,0-.03,0-.05,0-.02,0-.05,0-.04,0-.03-.03-.07-.04-.04,0,.01,0,.03,0,.03,0,.06,0,.06,0,.12,0,.02,0,.14,0,.16,0,0,0,0,0,0-.01,0-.03,0-.04,0-.02,0-.04.01-.05.02-.02,0-.05.01-.08,0-.03,0-.05-.01-.08-.02-.02,0-.04-.03-.06-.03-.06-.02-.07.04-.13.03.02-.06.06-.11.09-.16.04-.08.1-.14.15-.21h0s.04-.05.07-.08c.03-.03.06-.07.09-.1.01,0,.02-.02.04-.03-.01.06-.04.1-.07.13-.01.01-.02.03-.03.03-.01,0-.03.01-.03.03h0s.04.05.06.03c.02-.02.05-.06.07-.1.06-.1.13-.21.22-.27.02-.01.04.02.04.04h0ZM94.72,27.79s-.04,0-.06,0c0-.02,0-.03-.01-.05.01,0,.03-.02.05-.01,0,.02.01.04.02.05h0ZM94.73,27.82s.01,0,.01,0c0,.01-.05.02-.07.02-.08.02-.16.06-.22.09-.02.01-.03.03-.05.02,0-.01.02-.02.03-.03.01,0,.03-.01.04-.02.05-.02.1-.05.16-.07.03,0,.06-.01.09-.03h0ZM94.75,28.34c.05.14.09.28.13.44,0,.02.02.06.02.08,0,.02-.07.04-.1.04-.02,0-.04,0-.05,0-.01,0-.02-.04-.03-.06-.05-.1-.15-.41-.2-.52-.02-.04-.01-.08-.02-.12,0-.03,0-.05,0-.14.05-.02.12-.04.19-.04,0,.04.01.05.02.09,0,.03,0,.03,0,.06v.06s.01.03.02.05c0,.02.02.04.03.07h0ZM94.93,28.86h0s0,.04-.02.05c-.04.02-.11.04-.17.04-.02,0-.07,0-.05-.03.09.02.2,0,.23-.06h0ZM94.95,28.92s.03.01.03.03c0,.02-.03.01-.05.02-.01,0-.02.02-.03.02,0,0-.01,0-.02,0-.01,0-.02,0-.03.01,0,0-.02,0-.03,0-.01,0-.02,0-.03.02-.02,0-.03,0-.05.01-.02,0-.05-.02-.03-.04,0-.01.05-.01.07-.01.02,0,.05,0,.07-.02.04-.01.06-.04.08-.04h0ZM94.99,28.99c.09.02.17.06.25.09.05.01.1.03.15.06,0,0,.02.01.02.02.02,0,.03.01.04.02,0,0,.02,0,.01.01-.01,0-.02,0-.04-.01-.07-.04-.15-.08-.25-.09.01.01.03.01.05.02.09.02.17.08.24.12.01,0,.03.01.03.03-.01,0-.03,0-.04,0-.08-.06-.16-.12-.28-.14,0,.02.02.02.03.03.06.01.11.03.16.07.02,0,.03.02.05.03.02,0,.04.02.05.03-.03.02-.06,0-.09-.02-.02-.01-.04-.02-.06-.03-.04-.02-.1-.03-.15-.04-.03,0-.06,0-.08-.01-.02,0-.04-.02-.07-.02-.02.03.02.02.04.03,0,0,.01,0,.01,0,.03,0,.08,0,.12.01.03,0,.07.02.07.03,0,.03-.1,0-.13,0-.06,0-.1,0-.16,0-.04,0-.09-.02-.11-.05,0,0-.01-.03-.01-.03,0-.01,0-.03,0-.05,0-.01-.02-.02-.01-.03,0-.01,0,0,.03,0,0,0,0,0,.01,0,0,0,.02,0,.03,0,.01,0,.02-.02.04-.02.02-.01.03-.03.05-.04h0ZM95.37,29.1s.03,0,.06.01c.02,0,.04.01.05.02.01,0,.05.05.06.07,0,.02,0,.05-.01.07-.02.02-.05.03-.08.05-.01,0-.02,0-.03.02-.02,0-.02.03-.04.03,0-.02.01-.02.02-.04,0,0,.02-.02.02-.03.03,0,.1-.02.11-.05,0-.02-.02-.02-.03-.04,0,0,0-.02-.01-.02-.01-.02-.04-.02-.06-.04,0,0-.02-.01-.03-.02,0,0-.02-.01-.02-.02t0,0h0ZM95.54,29.13s.04.03.07.04c.02,0,.05,0,.07,0,.02,0,.03.03.04.04,0,0,.02.02.02.03,0,.01-.02,0-.03.01-.03.01-.05.04-.07.06-.02.02-.06.04-.09.04-.02,0-.04,0-.06,0-.02,0-.04.01-.06,0,.01-.02.04-.02.06-.03.04-.02.1-.04.1-.11,0-.03-.03-.06-.04-.09h0ZM95.77,29.3s.06.02.07.05c.05.08.06.2.1.3,0,.02.02.04.02.06.02.07.02.15.02.23,0,.08,0,.17,0,.25,0,.13.03.26.03.4,0,.02,0,.04,0,.05-.01,0-.01-.02-.01-.03-.01-.03-.02-.06-.03-.1,0-.03,0-.05,0-.08,0-.08,0-.15-.03-.22,0-.01-.03-.04-.03-.05,0-.01.01-.02.01-.04.02-.09-.05-.15-.04-.24,0-.03,0-.07,0-.1,0-.1-.04-.17-.08-.23.02-.02.05-.04.06-.08,0-.03,0-.08,0-.11,0-.02-.02-.05-.03-.06-.04-.02-.09,0-.12.01,0,0-.01.01-.02.02-.01,0-.03.01-.04.02.04-.03.07-.07.13-.07h0ZM95.52,31.02s.03-.09.03-.15c0-.05-.02-.1-.01-.14.01-.05.04-.1.07-.15.01-.03.04-.07.04-.11,0-.02,0-.05,0-.07,0-.03-.03-.05-.03-.07,0-.02.01-.04.02-.06.01-.01.03-.02.04-.04,0,0,0-.02.01-.02,0-.02.02-.04.03-.07,0,0,0,0,0,0,0,0,0,0,0,0,0,.05-.02.12,0,.17,0,0,0,.02.01.03,0,0,0,.02.01.03.02.03.04.05.05.09,0,.02,0,.05,0,.06,0,.01-.01.03-.02.05,0,.03.01.06,0,.09,0,.02-.03.04-.03.06,0,.03,0,.07,0,.1,0,.02,0,.04-.01.06,0,.05-.01.1-.04.13,0,0-.02.01-.03.02-.01,0-.02.02-.03.02-.01-.01,0-.03,0-.04.02-.06.1-.14.04-.2,0,.04,0,.08-.02.11,0,.01-.03.03-.04.04,0,0,0,.01-.01.02-.01.04,0,.07-.02.11-.02.05-.09.07-.15.04.03-.02.07-.05.09-.09h0ZM95.22,30.6s-.03.03-.02.05c-.03-.04,0-.09,0-.15,0-.05-.06-.09-.03-.15.02.01.02.03.03.05,0,0,0,.02.01.02,0,0,0,.02,0,.03,0,.02.02.03.02.04,0,.02-.02.04-.02.07,0,.01,0,.03,0,.05h0ZM95.07,30.83s.02-.07.02-.11c0-.03,0-.05,0-.08,0-.08-.08-.15-.06-.25.01,0,0,.02,0,.03.02,0,.02,0,.03-.01.02-.08-.05-.14-.03-.22.01.01.02.03.04.04,0,.02.02.05.02.07,0,.02-.01.03-.01.05,0,.05.03.07.05.11,0,.07,0,.15.02.21.01.03.04.06.06.08,0,0,.01.02.02.03.03.07.01.15-.03.18-.02.01-.04.02-.05.03-.01.01-.01.03-.03.04,0-.01,0-.04,0-.06,0-.01-.01-.03-.02-.04-.02-.03-.05-.06-.05-.11h0ZM95.04,30.93s0,0,0,0c.02.03.04.07.04.12-.02,0-.04,0-.06,0,0-.03.01-.08.01-.11h0ZM94.99,30.76s.02-.12.01-.18c0-.04-.02-.08-.03-.11-.02-.05-.06-.09-.06-.15,0-.08.05-.12.06-.19,0-.03.01-.05.02-.09,0,0,0,0,0,0,.01,0,0,.01.01.03,0,.02.01.04.02.06,0,0,0,.02.01.02,0,.02-.01.05-.01.07,0,.03,0,.06,0,.09,0,.02,0,.03,0,.05,0,.04-.02.08,0,.13,0,.02.01.05.02.07.01.04.03.08.02.14,0,.04-.03.09-.03.13,0-.03-.02-.05-.03-.07h0ZM94.82,30.7s0-.05,0-.07c0,0-.01-.02,0-.03,0-.01.01-.02.01-.03.02-.06-.04-.11-.06-.15-.05-.07-.08-.14-.06-.26,0,0,0,0,0,0,.03.03.05.07.08.1,0,.06,0,.12.02.17,0,.02.02.04.04.06.01.02.03.05.04.06,0,.04-.01.06-.02.09-.02.07-.01.17.02.21.02.02.05.03.05.06,0,.03-.03.03-.04.05-.03-.02-.05-.05-.07-.09,0-.02-.02-.06-.02-.08,0-.03.02-.06.03-.09h0ZM94.87,29.29s-.01.03-.01.05c-.02.02-.03.04-.04.06-.05,0-.08.03-.1.08,0,.02,0,.05,0,.07,0,.01,0,.03,0,.04,0,.03-.01.08-.03.1-.01.03-.04.06-.06.09,0,0-.02.02-.02.03-.02.04,0,.11.01.13,0,.01.02.02.03.03,0,0,0,.03,0,.04,0,.01,0,.03,0,.04,0,.04-.02.07-.02.1,0,.02,0,.04,0,.06,0,.08.03.14.06.2,0,.01.02.02.02.04-.04-.02-.08-.04-.09-.08-.02-.04-.02-.09-.02-.16,0-.06-.03-.1-.04-.16,0-.03,0-.06-.01-.09,0-.03,0-.06,0-.09.01-.08.03-.17.05-.25.01-.06.04-.09.06-.15.05-.08.09-.16.16-.21.02,0,.02,0,.04-.01,0,0,0,.01,0,.02h0ZM94.92,29.51s0-.01,0-.02c0,0,0,0,0,0-.02.04-.03.09-.04.14,0,0,0-.02,0-.03,0-.03.02-.08.04-.1h0ZM94.73,29.87s.03-.04.04-.07c.02-.04.03-.09.03-.14h0s0,0,0,0c.04.13-.04.24-.04.35,0,.04.01.07.03.11,0,.03.03.05.01.09-.03-.02-.04-.05-.06-.08,0-.01-.02-.03-.02-.04-.02-.07-.01-.15,0-.21h0ZM94.78,29.5s.03-.02.05-.02c-.02.04-.03.09-.03.14,0,0-.02,0-.03-.02-.02-.03-.02-.08,0-.11h0ZM94.67,29.8h0c.03-.06.07-.1.08-.17,0,0,0,0,.01,0,0,.12-.1.17-.11.28-.02-.02-.02-.08,0-.1,0,0,0,0,0,0,0,0,0-.03,0-.01,0,0,0,0,0-.02h0ZM94.87,29.76s0,.07,0,.11c0,.03-.04.06-.04.1,0,0,0,.02,0,.02,0,0,0,.02,0,.02,0,.03,0,.06,0,.1-.03-.05-.03-.12-.02-.18.01-.04.03-.08.03-.13,0-.08,0-.17.01-.25.01-.04.04-.07.06-.11.01,0,.02-.02.04-.02,0,0,0,0,0,0,.05-.04.13-.08.22-.05-.03,0-.07,0-.1,0-.08.03-.14.07-.18.15,0,0,0,0,0,0,0,.02-.02.06-.02.09,0,.05.01.1.01.15h0ZM95.63,29.64c.01.09,0,.17-.03.24-.02.04-.05.08-.08.12,0,.01.01.05,0,.06-.04,0-.06-.02-.09-.03,0,.04.05.05.08.06,0,.01-.01.03-.02.03,0,0-.05-.03-.06-.03,0,0-.01-.01-.02-.02,0,.04.03.05.05.08,0,.01-.02.03-.03.03-.03,0-.05-.06-.06-.09-.02,0-.02.04-.02.06-.05-.02-.07-.07-.07-.13.01-.05.11-.04.12-.09,0-.02,0-.03,0-.05,0-.01,0-.03-.02-.03,0,.02.02.04,0,.06-.01,0-.02,0-.03,0-.03,0-.07.01-.1,0-.02,0-.03,0-.05,0-.01,0-.03,0-.04,0,0-.02.01-.04,0-.05,0,.02-.02.03-.01.06,0,.02.02.04.03.05.03.02.07.02.09.04,0,.01,0,.04,0,.05,0,.05-.05.09-.09.1,0-.02.01-.06,0-.06-.01,0-.02.04-.03.05-.02.03-.05.05-.07,0,.03-.02.06-.04.07-.07-.01,0-.04,0-.06.02-.02.01-.04.03-.04-.02.04,0,.07-.03.09-.06-.03,0-.06.02-.09.01,0,0,0-.01,0-.02-.06-.07-.1-.16-.1-.28,0-.07.02-.15.04-.21.01-.02.02-.04.03-.06.01-.02.03-.04.05-.05.03-.01.07-.02.12-.02.04,0,.07.02.11.03.05.01.08-.02.12-.03.05,0,.1.01.13.04.01,0,.02.02.04.04.03.04.06.09.07.16h0ZM95.6,30.36s.02.02.02.03c.01.02.01.11-.01.12,0-.1-.09-.15-.07-.26,0-.02.01-.05.02-.07.02-.05.04-.11.03-.17,0,0,0-.01,0-.02,0,0,.03-.07.04-.08.02,0,.01.03.02.04.01.04.04.08.04.13,0,.04-.02.09-.04.12-.02.04-.06.06-.05.12,0,.02,0,.03.01.04h0ZM95.63,29.55s0,0,0,0c0,0,0,0,0,0,.04.02.06.08.06.13,0,.04-.02.09-.02.12,0,.04,0,.08.02.1.01.01.03.02.03.05,0,.03-.02.04-.02.06-.01-.02-.02-.05-.03-.07,0-.03-.01-.05-.02-.08,0-.03,0-.04,0-.07,0-.09-.02-.18-.05-.25h0ZM95.87,30.09s0,.06-.02.07c-.02.03-.05.04-.06.07-.01.04.02.09.01.13-.01,0-.02-.02-.02-.03,0-.01-.01-.02-.02-.03-.02-.06.02-.15,0-.21,0-.01-.02-.03-.02-.04,0-.03.03-.06.03-.1,0-.03-.02-.04-.03-.05-.01-.02-.02-.02-.02-.05,0-.03.02-.06.03-.1.01-.06,0-.11-.02-.15,0,0,0,0,0,0,.03.02.05.06.06.09.02.03.03.08.03.12,0,.05-.02.11-.01.16,0,.04.05.06.05.11h0ZM95.73,29.37s0,0,0-.02c.02-.02.06,0,.07.03.03.07-.03.16-.09.17-.02,0-.06,0-.06-.02,0,0,.01,0,.02,0,.04,0,.08-.03.1-.06.02-.05,0-.09-.05-.09h0ZM95.72,29.38s-.01.02,0,.04c0,0,.01.01.01.02,0,0-.03.03-.05.03-.04.01-.09,0-.11-.02.07,0,.11-.04.15-.07h0ZM95.26,29.27s.02-.01.03-.02c.04,0,0,.04-.03.02h0ZM95.3,29.3s.04-.03.07-.03c.02.03-.02.04-.03.06-.02.01-.04.03-.08.02-.03,0-.05-.02-.08-.03-.06-.03-.14,0-.19,0-.05.02-.08.05-.11.08.03-.09.08-.14.16-.15.03,0,.06,0,.09,0,.06,0,.12.04.16.03h0ZM94.49,28s.02-.02.04-.02c.05-.01.1-.03.15-.03,0,0,0,.01,0,.02h0s-.07.02-.1.02c-.03,0-.06.02-.09.01,0,0,0,0,0,0h0ZM94.37,28.11s0-.01-.01-.02c.03-.02.05-.05.07-.06,0,0,0,0,0,0,0,.07.01.09.01.09,0,.02,0,.05.01.07,0,.03.01.1.02.13,0,.05.04.16.05.2.05.13.11.26.17.38,0,.02-.02.03-.02.05,0,.02.02.02.02.03,0,.02-.01.03-.01.04,0,.04.06.05.09.05.01.02.02.04.03.06,0,.01.02.05.02.06,0,.01-.03.02-.04.03-.02.02-.04.05-.06.07-.05.06-.09.13-.12.2,0,.02-.01.03-.02.04,0-.5-.03-.97-.23-1.28,0-.01,0-.02,0-.04h0v-.06s0-.04,0-.06h0ZM94.5,30.24s0-.02,0-.03c0-.03.01-.06.02-.09,0-.02,0-.04.01-.05,0,0,0,0,0,0-.01.03-.01.08-.02.11,0,.02,0,.04-.02.06h0ZM94.55,30.14s0,0,0,0h0c.04.09.01.2.06.28.03.05.08.07.15.09.03.02,0,.05.01.08,0,.02.02.04.02.06,0,.02,0,.04,0,.07-.01-.01-.01-.03-.02-.05,0-.02-.03-.05-.04-.06-.04-.04-.1-.05-.14-.09-.04-.04-.07-.11-.07-.19,0-.06.03-.11.03-.18h0ZM94.93,30.81s0,.03,0,.03c-.01,0-.02-.02-.02-.04-.01-.04-.02-.08-.01-.13.02-.05.04-.11.02-.17,0-.03-.03-.05-.04-.08-.02-.04-.05-.07-.04-.14,0-.04.02-.1.03-.15,0-.06,0-.11.01-.16,0-.02.02-.06.03-.07.01,0,.02.02.02.03.01.04.02.1.01.15,0,.03-.02.06-.04.09-.01.05-.02.11-.01.16,0,.02.02.05.02.07.02.05.06.09.06.14,0,.02,0,.05,0,.07,0,.05-.03.08-.02.14,0,.03.03.05.04.08.03.06.04.14,0,.21-.03,0-.03-.03-.05-.05.04-.05.02-.13-.01-.18h0ZM95.39,30.67s0-.02,0-.03c0-.02-.01-.04-.01-.07,0-.02.02-.04.02-.07,0-.03-.01-.04-.01-.07,0-.01,0-.04,0-.05,0,0-.01-.08-.02-.08-.02,0-.03.04-.03.06,0,0,0,.03,0,.04,0,.02.02.03.02.05.01.04-.02.07-.02.1,0,.02.01.03.01.05,0,.03-.02.06-.02.08,0,.02.02.04.03.07.02.09-.03.15-.06.2-.02.02-.04.02-.06.04-.02.02-.02.08-.08.05,0-.02.03-.02.04-.04.03-.02.06-.04.07-.08.01-.05,0-.12,0-.19,0-.03.01-.05.02-.08,0-.03.02-.06.02-.08,0-.06-.03-.11-.02-.16,0-.02.03-.04.03-.06,0-.02,0-.03-.02-.04-.02,0-.05,0-.08,0,0,.01,0,.02,0,.04,0,.01.02.02.02.03,0,.02.01.04.02.07,0,.02.02.04.02.07,0,.07-.05.12-.04.2-.01,0-.02-.02-.02-.03,0-.01,0-.02,0-.04,0-.02.02-.03.02-.05,0-.02,0-.03,0-.05,0-.03.02-.04.02-.06,0-.02-.01-.03-.02-.04,0-.04-.02-.07-.02-.11,0,0,0,0,0-.02-.02-.01-.05,0-.07-.02-.02-.02-.02-.07-.03-.09.01-.01.03,0,.06-.02.02,0,.03-.02.05-.02.02,0,.04,0,.05,0,.02,0,.03-.01.04-.01.02,0,.04.02.06.02,0,0,.01,0,.02,0,.03,0,.04.02.05.03.05-.02.07-.06.09-.1,0,.06-.05.1-.04.17,0,.06.05.1.06.14,0,.01,0,.03,0,.05,0,.09-.03.13-.06.19-.02-.01-.04-.04-.04-.06,0-.04.04-.07.04-.1,0-.06-.02-.11-.03-.15,0-.02-.01-.05-.02-.06,0,0-.01-.02-.02-.03,0-.01,0-.03-.02-.04-.01,0-.02.02-.02.03,0,.04.05.08.06.11,0,.01,0,.03.02.05,0,.02.02.05.01.08,0,.03-.04.06-.05.09,0,.02,0,.05.02.07,0,.01.02.03.03.04,0,.02.02.04.02.07,0,.02.02.05.02.07,0,.02,0,.06,0,.08,0,.03-.02.05-.03.07-.02.03-.02.03-.05.05-.02,0-.04.01-.07.02-.01,0-.02,0-.03.01-.02,0-.04-.01-.06-.01,0-.07.06-.07.1-.11.03-.04.06-.1.05-.17,0-.04-.03-.08-.03-.12h0ZM95.96,30.79s-.01.02-.02.03c-.01.03-.03.06-.05.09-.04.05-.11.08-.16.13-.02.01-.03.03-.05.05-.02.02-.04.04-.05.04,0,0-.02,0-.03,0,0-.02.01-.02.02-.02,0,0,.02-.01.03-.03,0,0,0-.02,0-.03.02-.03.06-.05.08-.09,0-.01.02-.04.02-.05,0,0,0-.02,0-.03.01-.02.04-.03.05-.04,0-.01.02-.03.03-.04,0-.01.02-.05.02-.06.01-.07-.02-.12,0-.21-.03.03-.01.09-.01.14,0,.07-.03.11-.07.14,0-.02,0-.04,0-.06,0-.03.02-.04.04-.06.02-.04,0-.09.01-.13,0-.02.01-.04.02-.06,0-.02,0-.04,0-.06,0-.01-.01-.03-.01-.04,0-.02.02-.03.02-.06,0-.02-.01-.03-.01-.05,0-.02,0-.05.02-.07,0,0,.01,0,.02,0,0,0,.01-.02.02-.02.02,0,.04.09.04.12,0,.05,0,.1,0,.14,0,.03,0,.07,0,.1,0,.06.03.11.04.17,0,.03,0,.07,0,.1h0ZM92.15,26.81s.04-.02.06-.04c0,.02-.03.04-.06.04,0,0,0,0,0,0h0ZM92.1,27.09s-.01-.11-.02-.15c0,.03.02.06.03.09,0,.03.01.07.01.1-.01,0-.01-.03-.02-.04h0ZM92.03,26.82s.02-.02.03-.02c0,0,0,0-.01.01,0,.03,0,.07.03.09-.01,0-.02,0-.03.01,0-.02-.03-.08-.02-.1h0ZM92.02,26.72s-.05-.09-.08-.13c.01-.04.02-.1.02-.15,0,0,0,.01,0,.02.01.04.05.09,0,.1.01.06.04.12.05.18,0,0,0-.01,0-.02h0ZM91.98,26.91s-.07,0-.1,0c-.02,0-.03-.02-.05-.03-.04-.06-.02-.17-.02-.26.01.03,0,.1.01.15,0,.03,0,.06.01.09.01.03.05.05.08.05.01,0,.03,0,.05,0,0,0,.02,0,.03,0,0,.01-.02.01-.03.01h0ZM96.64,31.17s-.03,0-.05-.01c-.03,0-.07,0-.11,0-.03,0-.06,0-.1-.01-.03,0-.07,0-.1-.02-.03,0-.05-.03-.08-.04-.09-.05-.19-.09-.29-.13.02-.03.05-.06.06-.09.02-.04.02-.1.03-.15,0-.04.02-.07.02-.1,0-.07,0-.13,0-.2-.02-.2,0-.39,0-.57,0-.08-.02-.16-.05-.23-.02-.07-.04-.15-.07-.21,0-.02-.03-.05-.04-.07-.01-.02-.04-.03-.05-.05,0,0,0-.02,0-.03,0-.03-.04-.04-.06-.05-.01-.01-.02-.02-.04-.03-.02,0-.03-.02-.05-.02-.01,0-.03,0-.04-.01-.01,0-.02-.02-.03-.02-.04-.03-.08-.01-.13-.03,0,0-.02,0-.03,0-.07-.02-.16,0-.24-.03-.08-.02-.15-.06-.21-.09,0-.04-.03-.05-.05-.06,0-.02.02-.06,0-.07,0,0-.02,0-.03,0-.04-.13-.06-.26-.09-.38-.02-.06-.05-.12-.06-.18,0-.03,0-.07-.01-.1,0-.03-.01-.07-.02-.1,0-.05,0-.1,0-.15.02-.02.06-.05.06-.09,0,0,0-.01,0-.02,0-.02-.02-.05-.03-.07-.03-.07-.04-.16-.06-.25-.02-.09-.03-.17-.06-.25-.01-.03-.02-.05-.03-.07,0,0,0,0,0,0,0-.05-.03-.08-.08-.09,0-.02-.02-.03-.03-.05,0-.01-.03-.04-.03-.05,0-.03,0-.05,0-.07,0-.01-.02-.02-.02-.03,0,0,0-.02,0-.03,0-.02-.02-.02-.02-.03.02-.03,0-.07-.02-.09.02-.02,0-.05-.01-.07.02-.03,0-.06-.02-.07.01-.03,0-.06-.02-.08.02-.04,0-.07-.01-.09,0,0,0-.02,0-.02,0-.01-.01-.02-.01-.03,0-.01,0-.02,0-.03,0-.01,0-.03-.01-.04,0-.08-.02-.12-.07-.17-.07-.08-.17-.1-.25-.1h0c-.09-.01-.18.03-.25.08-.05.03-.08.08-.1.13,0,0,0,0,0,.02-.02.04-.04.08-.04.13-.01.03-.02.06-.03.08,0,.01,0,.03,0,.05,0,0,0,.01,0,.02,0,0,0,.02,0,.03-.03.02-.02.05-.02.08-.02.01-.02.05,0,.07-.03.02-.03.07,0,.1,0,.02-.01.02-.01.04,0,.01.01.02.01.04,0,.01-.02.02-.02.03,0,.03,0,.04,0,.05-.01.02-.03.05-.02.08,0,.01-.02.01-.02.03,0,0,0,.02,0,.03,0,.02-.03.03-.04.05,0,.01-.02.03-.03.05-.03.04-.05.1-.07.15-.04.19-.09.41-.14.6,0,.04-.01.08-.04.11-.1-.03-.22-.05-.33-.08,0-.02,0-.04-.02-.05-.02-.01-.05,0-.07.01,0-.03-.05-.04-.08-.02-.01,0-.03-.01-.04-.02-.01-.05-.04-.09-.08-.13-.02-.01-.04-.02-.06-.04-.03-.02-.06-.04-.1-.05-.02,0-.07-.04-.08-.06,0,0,0-.02,0-.03-.03-.13-.07-.25-.1-.38,0-.02-.01-.04-.01-.06,0,0,0-.01.01-.02,0-.01,0-.03-.01-.05-.01-.05-.03-.1-.04-.15.06-.01.1-.03.14-.07.02-.04.04-.06.04-.12-.01-.14-.12-.24-.13-.39,0-.03,0-.06,0-.09-.02,0-.03.02-.03.04-.04.12.03.22.04.32,0,.05,0,.1-.03.12-.02.01-.04.04-.06.03-.02-.04-.02-.11-.01-.16-.02-.02.01-.05,0-.08,0,0-.02-.03-.03-.04-.01-.01-.02-.03-.03-.04-.04-.06-.08-.13-.1-.19,0-.02-.01-.05-.04-.06-.02.01,0,.03,0,.04,0,.05.01.09.02.15,0,.04,0,.11,0,.15,0,.01-.02.03-.01.04,0,0,.02.02.02.02,0,.01.01.03.02.04.03.04.06.09.08.14-.01,0-.02.02-.02.04-.08.03-.12-.02-.13-.09,0-.06,0-.12,0-.19-.01-.07-.04-.13-.07-.17-.01-.01-.03-.03-.05-.03,0,.02.01.03.02.05.04.11.02.29.02.42,0,.06.03.1.07.13.05.03.12.01.18,0,.02.05.03.11.04.17,0,.01,0,.03,0,.03,0,0,.02,0,.02.02,0,.01.01.04.02.06.04.15.08.3.11.44,0,.01-.01.02-.02.03,0,.02,0,.04,0,.07,0,.01,0,.02,0,.03,0,.01.01.02.02.04,0,.03,0,.05.02.07,0,.03.02.06.03.07.01.01.03.02.04.03,0,.01.01.05.02.07,0,.03.01.05.02.08.04.15.07.3.11.45.13.5.25.99.37,1.49.02.1.05.2.07.3-.02,0-.05.01-.07.02-.03.02-.07.03-.1.04-.06.03-.11.05-.16.08,0,0-.02,0-.03.02-.13.09-.22.24-.31.38-.01.02-.03.04-.04.06,0,.01,0,.03-.02.04,0,.01-.02.02-.02.04-.02.06-.05.12-.05.19-.01.09,0,.17.03.24-.04,0-.12.01-.12.05,0,.02.02.04.03.05-.02,0-.04,0-.06,0-.04,0-.11-.01-.15,0-.01,0-.03.02-.03.04,0,.04.08.04.11.04.01,0,.03,0,.04,0,.03,0,.06,0,.09,0,.01,0,.01,0,.02.01,0,0,.02,0,.03,0,0,0,.02,0,.03,0,.03,0,.07,0,.09,0,0,0-.02.02-.03.03,0,.01,0,.02,0,.04.02.03.04.04.07.05.06.02.12-.02.18-.01.05,0,.09.03.15.02-.02.02-.04.07-.02.1.01.01.03.01.04.03.05,0,.1,0,.15,0,.03,0,.1-.02.13,0,0,0,.02.03.03.04,0,0,.01.01.02.02,0,0,.01.01.02.02.02.01.08.02.09.05,0,0,0,0,0,0,0,.05,0,.11.03.15.01.02.03.03.04.05.03.02.06.04.09.06.02.01.05.02.07.03.02.01.04.03.06.05,0,0,0,0,0,0,0,0,0,0,0,0-.01,0-.01-.02-.01-.03,0-.03.01-.06.02-.08.04-.18-.07-.31-.15-.4-.01-.01-.03-.02-.03-.03.04,0,.07-.03.1-.05.01.06.03.13.04.2,0,.02,0,.05.02.06.02,0,.05,0,.06-.01.02-.02,0-.07-.01-.09-.01-.05-.02-.09-.03-.14,0-.02-.02-.06-.01-.07,0-.02.07-.02.11-.02.02,0,.05,0,.08,0,.03,0,.06-.03.09-.01.02.01.02.03.04.03.05.02.12.01.17,0,.02,0,.05-.01.08-.02.04-.01.08-.01.1-.03.03,0,.08-.01.08-.04,0-.01-.02-.01-.01-.03.02,0,.04-.02.07-.02.03,0,.07.01.1.01.02,0,.04,0,.05,0,.04,0,.08.02.12.02.02,0,.04-.01.06-.02.03,0,.05,0,.08,0,.04,0,.08,0,.11,0,.05,0,.1-.02.14-.03,0,0,.02-.02.03-.02.01,0,.04,0,.06.01.02,0,.05,0,.06,0,.02,0,.06,0,.06-.02,0-.01-.02-.03-.03-.04-.05-.03-.15-.03-.21-.02-.02,0-.04.01-.05,0,0-.02.02-.01.04-.02.01,0,.02-.02.02-.02.05.01.12.01.17,0,.03.02.07.02.11.03,0,0,0,.02,0,.03.03.02.07.02.11.03.11,0,.23.03.34.03.04.04.13.03.19.05-.02,0-.03.02-.04.03-.08-.02-.17-.01-.24.01-.03,0-.04.04-.01.07.02.02.08.03.13.03s.1,0,.14,0c.02,0,.05-.02.06-.03.01,0,.01-.02.01-.03.05,0,.17,0,.18-.04,0-.02-.01-.02-.01-.03.02,0,.03-.03.05-.03.01,0,.02,0,.03,0,.01,0,.03,0,.04-.01.02-.01.02-.03.04-.04.03,0,.05,0,.08,0,.03,0,.05-.04.08-.05.03,0,.06,0,.09,0,.03,0,.06.02.09.02.03,0,.07,0,.1-.02.02,0,.03-.02.05-.03.03,0,.07,0,.09-.03,0,0,0-.02,0-.02.06-.02.08-.06.08-.15,0-.08-.06-.12-.14-.14h0ZM94.94,31.7s-.03.01-.05.01c-.01,0-.02-.01-.03-.02-.02,0-.05-.01-.08-.01-.03,0-.13.01-.08.05.02.01.06.02.08.03-.01.01,0,.03,0,.04.03.02.12.02.17.03.03,0,.08,0,.12,0,.02,0,.04.02.06.02.05,0,.08,0,.11-.03.02-.01.04-.03.03-.05-.04-.03-.09-.03-.16-.04-.02-.05-.12-.05-.17-.03h0ZM94.72,31.09s.05-.02.07-.03c-.03-.04-.14-.03-.13.04,0,.03.07.04.07,0h0ZM95.22,30.22s.02.04.04.04c.02,0,.05-.02.04-.04-.02,0-.06,0-.08,0h0ZM95.07,29.67s.06.01.03.03c0,0-.01,0-.02,0,0,.03.05.03.06.01,0,0,.01,0,0,.01-.04.01-.1,0-.09-.05h0ZM95.13,29.64s-.09,0-.13,0c0,0-.02-.01-.02-.01,0,.04.02.05.05.06.02.05.07.07.14.07,0,0,0,.01.02.02,0,0,.02-.01.02-.02,0-.01-.01-.04-.02-.05,0-.02-.04-.05-.06-.06h0ZM95.42,29.71s0,0-.02,0c0-.01,0,0,.01-.01,0-.02,0-.04.03-.04.01,0,.01.03,0,.04.03,0,.04-.02.05-.04.01,0,.01,0,.02.01,0,.04-.05.06-.09.04h0ZM95.54,29.62s-.06-.02-.09-.01c-.02,0-.05.02-.06.04-.01.02-.03.06-.03.09,0,0,0,.01.01.02,0,0,0-.02.02-.02.06,0,.09,0,.12-.02.02-.01.03-.04.04-.06,0-.02.03-.03.02-.05,0,0,0,0,0,0,0,0-.02.02-.03.02h0ZM95.31,29.62s-.02-.03-.02-.03c-.01.03-.03.04-.04.04-.02,0-.02,0-.03,0,0,.04.07.03.08,0,.01.02.07.03.07,0-.02,0-.03,0-.05,0h0ZM94,28.27s-.02.02-.04,0c-.01-.02-.03-.04-.02-.07,0-.03.03-.06.05-.07,0,0,0,0,0,0,.05.03.05.1,0,.14h0ZM93.98,28.12s-.07.02-.09.05c-.01.02-.02.06,0,.08.01.03.06.06.09.06.04,0,.08-.03.1-.06.03-.07-.02-.14-.1-.13h0ZM93.97,26.8h0s.02,0,.02,0c0,0-.02,0-.02,0h0ZM94.07,26.75s-.01,0-.02,0c0,0-.02,0-.03,0-.01,0-.02,0-.03,0-.03-.02-.05,0-.07,0-.01,0-.01-.01-.03-.01,0,0,0,.02,0,.03.01,0,.02,0,.03,0,0,.01,0,.04.03.05.01,0,.05,0,.06,0,.01,0,.02-.03.03-.05,0,0,.02,0,.04,0,0-.02,0-.03-.02-.03h0Z"/>
      <polygon class="cls-3" points="93.99 3.41 91.21 24.28 93.99 22.8 93.99 3.41 93.99 3.41"/>
      <polygon class="cls-3" points="88.04 27.15 77.33 23.65 88.66 30.18 88.04 27.15 88.04 27.15"/>
      <polygon class="cls-3" points="110.65 23.65 97.73 25.04 99.95 27.14 110.65 23.65 110.65 23.65"/>
      <polygon class="cls-3" points="97.7 34.1 104.52 43.34 98.96 31.37 97.7 34.1 97.7 34.1"/>
      <polygon class="cls-3" points="83.45 43.34 93.37 34.55 90.27 34.1 83.45 43.34 83.45 43.34"/>
      <polygon class="cls-3" points="94.37 34.33 97.53 33.88 98.81 31.05 94.37 34.33 94.37 34.33"/>
      <polygon class="cls-3" points="89.17 31.05 90.43 33.87 93.6 34.33 89.17 31.05 89.17 31.05"/>
      <polygon class="cls-3" points="90.58 25.13 88.32 27.24 88.95 30.3 90.58 25.13 90.58 25.13"/>
      <polygon class="cls-3" points="97.4 25.13 99.65 27.24 99.02 30.3 97.4 25.13 97.4 25.13"/>
      <polygon class="cls-3" points="96.8 24.65 93.99 23.13 91.17 24.65 96.8 24.65 96.8 24.65"/>
    </g>
  </g>
</svg>