<?xml version="1.0" encoding="UTF-8"?>
<svg id="Layer_2" data-name="Layer 2" xmlns="http://www.w3.org/2000/svg" viewBox="0 0 697.81 93">
  <defs>
    <style>
      .cls-1 {
        fill: #a9a8a8;
      }

      .cls-2 {
        fill-rule: evenodd;
      }

      .cls-2, .cls-3 {
        fill: #fefefe;
      }

      .cls-4 {
        fill: #da241a;
      }
    </style>
  </defs>
  <g id="Layer_1-2" data-name="Layer 1">
    <g>
      <rect class="cls-4" x=".06" width="697.75" height="74.4"/>
      <polygon class="cls-2" points="634.31 10.39 655.34 10.39 655.34 14.74 650.36 14.76 660.99 25.25 648.86 37.31 638.69 27.22 638.69 31.32 634.31 31.32 634.31 10.39"/>
      <polygon class="cls-2" points="687.8 10.39 666.78 10.39 666.78 14.74 671.75 14.76 661.13 25.25 673.25 37.31 683.42 27.22 683.42 31.32 687.8 31.32 687.8 10.39"/>
      <polygon class="cls-2" points="634.31 63.89 655.34 63.89 655.34 59.54 650.36 59.52 660.99 49.02 648.86 36.97 638.69 47.05 638.69 42.95 634.31 42.95 634.31 63.89"/>
      <polygon class="cls-2" points="687.8 63.89 666.78 63.89 666.78 59.54 671.75 59.52 661.13 49.02 673.25 36.97 683.42 47.05 683.42 42.95 687.8 42.95 687.8 63.89"/>
      <path class="cls-3" d="M593.99,52.17l8.57-37.48h8.58l-4.33,18.72,7.43-8.91h9.87l-10.28,10.77,4.31,16.91h-9.24l-2-10.26-2.76,3-1.69,7.31-8.46-.06ZM565.81,52.17l6.36-27.67h7.83l-.79,3.65c1.06-1.34,2.36-2.47,3.83-3.34,1.26-.71,2.68-1.09,4.12-1.09,1.99-.12,3.91.78,5.08,2.4,1.21,1.93,1.66,4.23,1.25,6.47-.05.51-.14,1.07-.25,1.69-.11.62-.24,1.27-.4,1.95l-3.54,16h-8.59l3.46-15.73c.1-.39.17-.69.2-.89s.06-.38.08-.54c.14-.79-.04-1.6-.49-2.26-.44-.59-1.15-.91-1.88-.87-1.05,0-2.03.48-2.66,1.32-.86,1.23-1.45,2.62-1.71,4.1l-3.32,14.75-8.58.06ZM553.7,52.17v-2.6c-1.2,1.07-2.54,1.95-4,2.61-1.28.57-2.67.87-4.08.88-1.92.12-3.79-.66-5.06-2.11-1.21-1.6-1.71-3.63-1.36-5.6.35-3.17,1.45-5.54,3.28-7.11s4.77-2.61,8.82-3.12l1.24-.13c2.89-.34,4.41-1.2,4.56-2.58.11-.63-.1-1.28-.56-1.72-.56-.46-1.28-.69-2-.63-.81-.05-1.62.19-2.27.68-.6.56-.99,1.32-1.1,2.14h-8.27c.49-2.79,2.02-5.29,4.28-7,2.15-1.54,5.08-2.31,8.77-2.31,3.43,0,5.95.74,7.57,2.23,1.63,1.49,2.29,3.64,2,6.48-.05.48-.15,1.08-.28,1.8-.14.72-.3,1.49-.5,2.3l-2.36,10c-.15.6-.26,1.08-.34,1.44s-.12.66-.15.88c-.07.51-.07,1.02,0,1.53.07.43.22.84.44,1.22l-.08.74-8.55-.02ZM555.47,39.81c-.94.35-2.14.73-3.6,1.12-2.39.63-3.67,1.71-3.84,3.26-.11.59.05,1.2.43,1.67.4.43.97.66,1.56.63,1.39,0,2.71-.65,3.54-1.76,1.06-1.44,1.71-3.13,1.9-4.91h.01ZM507.9,52.17l8.7-37.48h12.51c4.15,0,7.05.75,8.72,2.25,1.67,1.5,2.32,3.92,1.95,7.25-.17,1.9-.71,3.74-1.6,5.42-.85,1.49-2.06,2.75-3.51,3.66,1.14.66,2.01,1.7,2.46,2.94.53,1.45.69,3.01.48,4.54-.42,3.79-1.75,6.65-4,8.57-2.25,1.92-5.35,2.87-9.31,2.86h-16.4ZM519.22,43.5h4.68c1.22.09,2.44-.23,3.46-.91.85-.77,1.34-1.86,1.37-3,.21-.88-.04-1.81-.65-2.48-.93-.6-2.04-.86-3.14-.75h-4.13l-1.59,7.14ZM522.33,29.74h3.94c1.14.09,2.29-.21,3.24-.85.78-.72,1.23-1.73,1.27-2.79.21-.81-.02-1.68-.61-2.28-.53-.43-1.65-.65-3.37-.65h-2.9l-1.57,6.57ZM483.12,44.14h8.33c-.89,2.71-2.62,5.06-4.94,6.71-2.4,1.61-5.23,2.43-8.12,2.35-3.73,0-6.55-1.18-8.46-3.53-1.91-2.35-2.64-5.54-2.19-9.56.56-5.05,2.19-9.07,4.88-12.07,2.5-2.92,6.16-4.57,10-4.51,3.91,0,6.76,1.24,8.53,3.71s2.4,6.07,1.87,10.79c-.05.44-.11.89-.18,1.34s-.16.9-.25,1.36h-16.2l-.05.48c-.25,1.3-.05,2.65.56,3.83.6.89,1.64,1.4,2.71,1.32.77.02,1.53-.18,2.19-.58.62-.4,1.08-.99,1.32-1.68v.04ZM477.36,35.27h7.67c.21-1.27.01-2.58-.55-3.74-.5-.87-1.45-1.38-2.45-1.31-1.11,0-2.17.49-2.89,1.33-.9,1.05-1.52,2.32-1.78,3.68v.04ZM456.45,41.47h8.45c-.76,3.33-2.5,6.35-5,8.67-2.35,2.02-5.36,3.09-8.46,3-3.67,0-6.44-1.19-8.3-3.56-1.86-2.37-2.57-5.58-2.12-9.63.55-4.95,2.17-8.92,4.86-11.9,2.48-2.89,6.11-4.53,9.92-4.47,3.56,0,6.23,1,8,3,1.77,2,2.5,4.79,2.17,8.36h-8.25c.17-1-.02-2.02-.52-2.9-.5-.69-1.32-1.06-2.16-1-1.37,0-2.53.81-3.49,2.42-1.09,2.08-1.74,4.36-1.9,6.7-.25,1.38-.12,2.79.38,4.1.42.89,1.35,1.44,2.34,1.37.97,0,1.89-.41,2.53-1.13.78-.87,1.31-1.93,1.54-3.07v.04ZM411.16,52.21l6.35-27.71h7.83l-.79,3.65c1.06-1.34,2.36-2.47,3.83-3.34,1.26-.71,2.68-1.09,4.12-1.09,1.99-.12,3.91.78,5.08,2.4,1.21,1.93,1.65,4.23,1.25,6.47-.05.51-.14,1.07-.25,1.69-.11.62-.24,1.27-.4,1.95l-3.54,16h-8.59l3.47-15.73c.1-.39.17-.69.2-.89,0-.21.06-.38.08-.54.14-.79-.04-1.6-.49-2.26-.44-.59-1.15-.91-1.88-.87-1.05,0-2.03.48-2.66,1.32-.86,1.23-1.45,2.62-1.71,4.1l-3.32,14.75-8.58.1ZM399.05,52.21v-2.6c-1.2,1.06-2.54,1.94-4,2.61-1.28.57-2.67.87-4.08.88-1.92.12-3.79-.66-5.06-2.11-1.21-1.6-1.71-3.63-1.36-5.6.35-3.17,1.45-5.54,3.28-7.11,1.83-1.57,4.77-2.61,8.82-3.12l1.24-.13c2.89-.34,4.41-1.2,4.56-2.58.11-.63-.1-1.28-.56-1.72-.56-.46-1.28-.69-2-.63-.81-.05-1.62.19-2.27.68-.6.56-.99,1.32-1.1,2.14h-8.29c.49-2.79,2.02-5.29,4.28-7,2.15-1.54,5.08-2.31,8.77-2.31,3.43,0,5.95.75,7.57,2.23s2.29,3.64,2,6.48c-.05.48-.15,1.08-.28,1.8-.14.72-.3,1.49-.5,2.3l-2.36,10c-.15.6-.26,1.08-.34,1.44s-.12.66-.15.88c-.07.51-.07,1.02,0,1.53.07.43.22.84.44,1.22l-.08.74-8.53-.02ZM400.82,39.85c-.94.35-2.14.73-3.6,1.12-2.39.63-3.67,1.71-3.84,3.26-.11.59.05,1.2.43,1.67.4.43.97.66,1.56.63,1.39,0,2.71-.65,3.54-1.76,1.06-1.45,1.72-3.16,1.9-4.95v.03ZM355.98,52.21l6.35-27.71h7.83l-.79,3.65c1.06-1.34,2.36-2.47,3.83-3.34,1.26-.71,2.68-1.09,4.12-1.09,1.99-.12,3.91.78,5.08,2.4,1.21,1.93,1.65,4.23,1.25,6.47-.05.51-.14,1.07-.25,1.69-.11.62-.24,1.27-.4,1.95l-3.54,16h-8.56l3.44-15.73c.1-.39.17-.69.2-.89,0-.21.06-.38.08-.54.14-.79-.04-1.6-.49-2.26-.44-.59-1.15-.91-1.88-.87-1.05,0-2.03.48-2.66,1.32-.86,1.23-1.45,2.62-1.71,4.1l-3.32,14.75-8.58.1ZM342.71,52.21l6.31-27.71h8.58l-6.31,27.68-8.58.03ZM349.57,21.45l1.78-7.66h8.55l-1.7,7.66h-8.63ZM318.08,52.21l8.74-37.48h21.19l-2.19,9.17h-11.72l-1.42,5.94h10l-2.12,8.91h-9.9l-3.08,13.45h-9.5ZM290.69,52.21l8.28-37.48h8.54l-8.25,37.48h-8.57ZM277.5,52.21l8.28-37.48h8.54l-8.24,37.48h-8.58ZM265.3,52.21v-2.6c-1.2,1.06-2.54,1.94-4,2.61-1.28.57-2.67.87-4.08.88-1.92.12-3.79-.66-5.06-2.11-1.21-1.6-1.71-3.63-1.36-5.6.35-3.17,1.45-5.54,3.28-7.11s4.77-2.61,8.82-3.12l1.24-.13c2.89-.34,4.41-1.2,4.56-2.58.11-.63-.09-1.27-.55-1.72-.56-.46-1.28-.69-2-.63-.81-.05-1.62.19-2.27.68-.6.56-.99,1.32-1.1,2.14h-8.29c.49-2.79,2.02-5.29,4.28-7,2.15-1.54,5.08-2.31,8.77-2.31,3.43,0,5.95.74,7.57,2.23,1.63,1.49,2.29,3.64,2,6.48-.05.48-.15,1.08-.28,1.8-.14.72-.3,1.49-.5,2.3l-2.36,10c-.15.6-.26,1.08-.33,1.44s-.12.66-.15.88c-.07.51-.07,1.02,0,1.53.07.43.22.84.44,1.22l-.08.74-8.55-.02ZM267.07,39.85c-.94.35-2.14.73-3.6,1.12-2.39.63-3.67,1.71-3.84,3.26-.11.59.05,1.2.43,1.67.4.43.97.66,1.56.63,1.39,0,2.71-.65,3.54-1.76,1.07-1.45,1.73-3.16,1.91-4.95v.03ZM209.54,52.21l6.36-27.71h7.75l-.87,3.59c1.01-1.35,2.25-2.49,3.68-3.38,1.21-.72,2.59-1.1,4-1.1,1.32-.08,2.61.38,3.59,1.26.96,1.04,1.53,2.37,1.61,3.78,1.09-1.49,2.45-2.78,4-3.78,1.27-.81,2.74-1.25,4.24-1.27,1.92-.12,3.77.75,4.91,2.3,1.17,1.88,1.59,4.12,1.2,6.3-.04.39-.12.9-.23,1.51-.11.63-.25,1.33-.42,2.13l-3.62,16.33h-8.38l3.44-15.43c.08-.33.15-.64.2-1s.1-.66.14-1c.13-.67,0-1.36-.36-1.94-.39-.47-.99-.71-1.6-.66-.93-.02-1.82.41-2.37,1.16-.78,1.17-1.31,2.49-1.55,3.88l-3.47,15h-8.34l3.45-15.54c.08-.32.14-.63.2-.95s.1-.58.13-.83c.14-.69,0-1.41-.38-2-.44-.48-1.08-.72-1.73-.66-.88-.01-1.72.4-2.24,1.12-.74,1.13-1.25,2.39-1.49,3.72l-3.49,15.13-8.36.04ZM181.48,40.27h9.34v.1c-.22,1.12.07,2.29.8,3.17.86.8,2.03,1.2,3.2,1.1.9.05,1.8-.22,2.52-.77.65-.58,1.04-1.39,1.09-2.26.14-1.22-1-2.49-3.34-3.81l-1.35-.76c-3.33-1.94-5.53-3.78-6.58-5.51-1.11-1.95-1.52-4.22-1.17-6.44.22-3.21,1.7-6.21,4.11-8.35,2.6-2.09,5.88-3.16,9.22-3,3.81,0,6.7,1.06,8.69,3.19,1.99,2.13,2.88,5.13,2.68,9h-9c.09-1.02-.22-2.03-.85-2.83-.7-.67-1.66-1.01-2.63-.93-.73,0-1.45.26-2,.74-.56.46-.92,1.11-1,1.83-.13,1.1,1.24,2.43,4.09,4,1.12.62,2,1.13,2.71,1.52,2.01,1.07,3.69,2.68,4.84,4.65.97,1.95,1.32,4.15,1,6.3-.24,3.41-1.81,6.6-4.38,8.86-2.49,2.11-5.79,3.17-9.9,3.17s-7.46-1.14-9.58-3.41-2.96-5.47-2.51-9.6v.04ZM153.01,52.21l8.28-37.48h8.54l-8.25,37.48h-8.57ZM140.81,52.21v-2.6c-1.2,1.06-2.54,1.94-4,2.61-1.28.57-2.67.87-4.08.88-1.92.12-3.79-.66-5.06-2.11-1.21-1.6-1.71-3.63-1.36-5.6.35-3.17,1.45-5.54,3.28-7.11,1.83-1.57,4.77-2.61,8.82-3.12l1.24-.13c2.89-.34,4.41-1.2,4.56-2.58.11-.63-.09-1.27-.55-1.72-.56-.46-1.28-.68-2-.63-.81-.05-1.62.19-2.27.68-.6.56-.99,1.32-1.1,2.14h-8.29c.49-2.79,2.02-5.29,4.28-7,2.15-1.54,5.08-2.31,8.77-2.31,3.43,0,5.95.75,7.57,2.23s2.29,3.64,2,6.48c-.05.48-.15,1.08-.28,1.8-.14.72-.3,1.49-.5,2.3l-2.36,10c-.15.6-.26,1.08-.34,1.44s-.12.66-.15.88c-.07.51-.07,1.02,0,1.53.07.43.22.84.44,1.22l-.08.74-8.54-.02ZM142.58,39.85c-.94.35-2.14.73-3.6,1.12-2.39.63-3.67,1.71-3.84,3.26-.11.59.05,1.2.43,1.67.4.43.97.66,1.56.63,1.39,0,2.71-.65,3.54-1.76,1.07-1.45,1.73-3.16,1.91-4.95v.03ZM122.9,52.13c-.87.14-1.72.23-2.52.3s-1.58.1-2.31.1c-2.85.4-5.48-1.59-5.88-4.44-.09-.66-.06-1.34.11-1.99,0-.37.11-.81.21-1.31s.22-1.08.38-1.75l2.81-12.41h-3.14l1.44-6.13h3.13l1.92-8.5h8.33l-1.94,8.5h3.39l-1.4,6.15h-3.39l-2.44,10.68c0,.09,0,.18-.06.3s0,.28-.07.5c-.13.57.01,1.16.39,1.6.52.38,1.16.55,1.8.49h1.06l-1.82,7.91ZM97.06,52.13l6.32-27.63h8.58l-6.31,27.68-8.59-.05ZM103.9,21.41l1.78-7.66h8.58l-1.7,7.66h-8.66ZM66.46,62.91l8.66-38.41h7.78l-.71,3.28c.89-1.29,2.04-2.38,3.38-3.21,1.19-.7,2.55-1.07,3.93-1.06,2.52-.13,4.88,1.19,6.08,3.41,1.33,2.28,1.76,5.43,1.28,9.44-.35,4.36-1.83,8.54-4.31,12.14-2.3,3.14-4.97,4.71-8,4.7-1.4.04-2.77-.35-3.94-1.12-1.12-.79-1.96-1.91-2.39-3.21l-3.16,14-8.6.04ZM85.52,31.42c-1.47.08-2.78.93-3.45,2.24-1.08,1.85-1.72,3.92-1.87,6.06-.22,1.24-.06,2.51.47,3.65.46.84,1.37,1.35,2.33,1.29,1.44-.08,2.71-.94,3.33-2.24,1.05-1.88,1.67-3.96,1.82-6.11.22-1.22.08-2.49-.41-3.63-.42-.82-1.28-1.31-2.2-1.26h-.02ZM56.62,52.17v-2.6c-1.2,1.06-2.54,1.94-4,2.61-1.28.57-2.67.87-4.08.88-1.92.12-3.79-.66-5.06-2.11-1.21-1.6-1.71-3.63-1.36-5.6.35-3.17,1.45-5.54,3.28-7.11s4.77-2.61,8.82-3.12l1.24-.13c2.89-.34,4.41-1.2,4.56-2.58.11-.63-.09-1.27-.55-1.72-.56-.46-1.28-.69-2-.63-.81-.05-1.62.19-2.27.68-.6.56-.99,1.32-1.1,2.14h-8.3c.49-2.79,2.02-5.29,4.28-7,2.15-1.54,5.08-2.31,8.77-2.31,3.43,0,5.95.74,7.57,2.23,1.63,1.49,2.29,3.64,2,6.48-.05.48-.15,1.08-.28,1.8-.14.72-.3,1.49-.5,2.3l-2.36,10c-.15.6-.26,1.08-.33,1.44s-.12.66-.15.88c-.07.51-.07,1.02,0,1.53.07.43.22.84.44,1.22l-.08.74-8.54-.02ZM58.39,39.81c-.94.35-2.14.73-3.6,1.12-2.39.63-3.67,1.71-3.84,3.26-.11.59.05,1.2.43,1.67.39.42.94.66,1.52.64,1.39,0,2.71-.65,3.54-1.76,1.07-1.44,1.74-3.14,1.94-4.92h0ZM32.23,37.9h9.25c-.91,4.29-3.07,8.22-6.21,11.29-2.79,2.67-6.51,4.13-10.37,4.08-4.57,0-7.98-1.61-10.24-4.84-2.26-3.23-3.07-7.65-2.44-13.27.3-2.76.97-5.47,2-8.05.98-2.48,2.33-4.81,4-6.89,1.6-2.03,3.61-3.7,5.9-4.9,2.19-1.11,4.61-1.69,7.07-1.67,4.15,0,7.23,1.31,9.25,3.93s2.9,6.42,2.64,11.41h-9c.24-1.54-.03-3.11-.78-4.47-.69-1.07-1.91-1.69-3.18-1.61-2.09,0-3.91,1.19-5.47,3.58-1.72,2.86-2.75,6.08-3,9.41-.29,2.67-.1,4.67.57,6,.63,1.31,1.99,2.1,3.43,2,1.41-.01,2.76-.57,3.76-1.56,1.28-1.23,2.25-2.76,2.82-4.44Z"/>
      <rect class="cls-3" y="73.22" width="697.75" height="9.9"/>
      <rect class="cls-1" y="81.35" width="697.75" height="11.65"/>
    </g>
  </g>
</svg>