<?xml version="1.0" encoding="UTF-8"?>
<svg id="Layer_2" data-name="Layer 2" xmlns="http://www.w3.org/2000/svg" viewBox="0 0 269.71 68.75">
  <defs>
    <style>
      .cls-1 {
        fill: #176fc1;
      }

      .cls-2 {
        fill: #fff;
      }

      .cls-3 {
        fill: #ce0f3e;
      }
    </style>
  </defs>
  <g id="Layer_1-2" data-name="Layer 1">
    <g>
      <path id="path5579" class="cls-1" d="M0,68.75h68.24V0H0v68.75h0Z"/>
      <path id="path5583" class="cls-1" d="M70,68.75h199.71V.14H70v68.61Z"/>
      <g id="g5585">
        <path id="path5587" class="cls-2" d="M252.9,49.47v.21s-.05.22-.05.22l-.04.21-.07.21-.06.2-.09.2-.11.18-.1.18-.14.16-.14.16-.15.13-.17.12-.07.07-.1.05-.09.03-.07.04-.11.02-.09.05h-.11s-.1.04-.1.04h-.03s-.17.03-.17.03h-.22s-.1,0-.1,0l-.21-.02-.09-.02-.09-.02h-.09s-.09-.05-.09-.05l-.07-.03-.09-.04-.07-.03-.06-.05-.06-.07-.07-.06-.05-.07-.04-.07-.06-.06-.09-.16-.07-.16-.06-.18-.02-.18v-.19s-.01-.2-.01-.2v-.22s.04-.21.04-.21l.06-.22.04-.21.09-.19.1-.18.09-.19.12-.19.14-.14.14-.17.15-.16.16-.12.09-.04.09-.06.1-.04.09-.05.09-.03.11-.04.09-.04.11-.02h.02l.17-.03h.22s.1,0,.1,0h.1l.11.02h.09s.1.03.1.03l.06.03.1.04.08.03.09.03.07.06.07.04.05.06.08.07.05.05.05.09.05.07.09.15.07.17.04.18.04.19v.19s.01.19.01.19ZM253.63,45.2l-.16.92-.09-.13-.09-.14-.09-.1-.1-.12-.12-.09-.1-.1-.12-.08-.15-.08-.14-.07-.12-.08-.14-.04-.15-.06-.14-.04-.15-.03-.15-.02-.16-.02h-.06s-.47,0-.47,0h-.21s-.22.05-.22.05l-.21.03-.22.05-.19.07-.22.08-.2.09-.21.08-.17.11-.21.14-.17.12-.2.14-.17.16-.19.17-.16.18-.2.18-.14.19-.16.21-.15.2-.14.21-.14.21-.14.21-.1.21-.11.23-.09.21-.1.23-.1.24-.05.23-.08.25-.07.23-.04.26-.04.23-.04.25-.03.24v.24s-.01.23-.01.23v.23s.01.22.01.22l.05.21.02.23.06.21.04.2.07.22.09.21.06.18.1.19.11.19.1.18.12.16.14.16.14.15.14.13.15.13.16.1.16.11.17.08.17.08.17.06.2.06.19.03.24.03.21.02.22.02h.12l.06-.02h.06s.16-.02.16-.02l.17-.03.16-.03.15-.04.17-.04.17-.05.17-.08.15-.08.07-.04.09-.05.16-.1.15-.1.14-.12.14-.12.14-.14.14-.16.1-.15h.05l-.2,1.04h2.88l1.73-9.35h-2.88ZM246.22,42.49l.09-.17.09-.16.07-.17.05-.19.05-.18v-.18s.03-.18.03-.18v-.35s-.05-.15-.05-.15l-.06-.16-.06-.14-.09-.13-.11-.14-.09-.11-.12-.1-.12-.07-.14-.08-.14-.04-.15-.03h-.16s-.16,0-.16,0l-.17.03-.16.04-.15.06-.15.09-.16.09-.15.11-.15.13-.14.14-.11.13-.12.17-.07.16-.1.17-.06.18-.07.17-.03.19-.02.18v.19s-.01.17-.01.17l.03.16.03.17.06.15.06.15.1.15.1.13.09.11.14.1.11.07.15.07.14.04.14.02h.19s.16,0,.16,0l.15-.02.16-.04.15-.07.16-.07.16-.1.14-.11.14-.13.15-.15.12-.15.11-.15ZM241.14,54.55l1.71-9.35h2.9l-1.74,9.35h-2.88ZM237.45,49.47v.21s-.04.22-.04.22l-.06.21-.06.21-.06.2-.09.2-.11.18-.12.18-.11.16-.14.16-.17.13-.15.12-.1.07-.06.05-.1.03-.1.04-.09.02-.1.05h-.09s-.11.04-.11.04h-.04s-.16.03-.16.03h-.22s-.11,0-.11,0h-.09s-.09-.02-.09-.02l-.12-.02-.1-.02h-.07s-.1-.05-.1-.05l-.06-.03-.09-.04-.06-.03-.07-.05-.05-.07-.07-.06-.06-.07-.04-.07-.05-.06-.09-.16-.09-.16-.05-.18-.04-.18-.03-.19v-.2l.03-.22.04-.21.05-.22.05-.21.09-.19.09-.18.1-.19.11-.19.14-.14.14-.17.16-.16.17-.12.09-.04.09-.06.07-.04.09-.05.1-.03.1-.04.11-.04.08-.02h.04l.17-.03h.22s.1,0,.1,0h.11l.1.02h.1s.09.03.09.03l.1.03.09.04.07.03.08.03.07.06.05.04.07.06.05.07.07.05.05.09.04.07.09.15.07.17.05.18.03.19.03.19v.19ZM239.24,39.42l-1.23,6.71-.07-.13-.09-.14-.09-.1-.11-.12-.22-.19-.12-.08-.14-.08-.14-.07-.12-.08-.15-.04-.14-.06-.15-.04-.3-.06-.14-.02h-.08s-.46,0-.46,0h-.22s-.24.05-.24.05l-.2.03-.22.05-.21.07-.2.08-.2.09-.21.08-.19.11-.2.14-.2.12-.16.14-.2.16-.17.17-.19.18-.16.18-.17.19-.14.21-.16.2-.14.21-.14.21-.11.21-.11.21-.11.23-.11.21-.08.23-.1.24-.06.23-.08.25-.06.23-.04.26-.05.23-.04.25v.24s-.02.24-.02.24v.46s.02.22.02.22v.21s.06.23.06.23l.05.21.05.2.07.22.06.21.09.18.09.19.11.19.12.18.12.16.11.16.14.15.15.13.15.13.15.1.16.11.17.08.17.08.2.06.19.06.2.03.21.03.22.02.2.02h.15l.05-.02h.06s.17-.02.17-.02l.15-.03.17-.03.17-.04.16-.04.16-.05.16-.08.19-.08.05-.04.11-.05.14-.1.16-.1.12-.12.15-.12.12-.14.12-.16.14-.15h.04l-.2,1.04h2.89l2.78-15.13h-2.89ZM229.61,47.04v.18s.02.17.02.17v.57s-.05.41-.05.41l-.03.21-.04.21-1.07,5.75h-2.88l.83-4.56v-.04l.02-.04v-.11s.04-.08.04-.08v-.09s.02-.09.02-.09l.03-.1v-.09s.01-.07.01-.07l.03-.19.02-.14v-.4l-.02-.12-.03-.13-.02-.12-.04-.12-.02-.05v-.07s-.05-.04-.05-.04l-.04-.05-.05-.05-.04-.05h-.06s-.06-.05-.06-.05l-.11-.06-.14-.03-.16-.03h-.48s-.11.04-.11.04l-.08.02-.1.03-.09.03-.07.05-.09.03-.06.05-.07.05-.09.06-.05.07-.07.07-.06.07-.05.08-.1.16-.1.18-.09.17-.09.19-.07.19-.06.19-.04.22-.04.21-.89,4.84h-2.89l1.71-9.35h2.89l-.24,1.19h.04l.17-.2.17-.17.16-.18.16-.15.17-.14.17-.13.16-.11.17-.09.17-.07.17-.06.19-.06.19-.04.2-.04.19-.03h.21s.41-.01.41-.01h.19s.2.03.2.03l.17.02.15.04.17.05.14.06.15.05.11.09.12.07.11.1.21.2.09.12.06.12.06.12.07.14.05.13.05.16.05.15.02.16.04.17v.16h.01ZM217.38,40.81l-2.56,13.74h3.12l2.52-13.74h-3.08ZM210.86,39.42l-.14-.05-.14-.04-.16-.04-.14-.03h-.16s-.37-.01-.37-.01l-.21.03-.2.02-.2.03-.21.08-.19.05-.22.07-.2.09-.2.11-.19.11-.2.12-.19.12-.17.15-.19.15-.17.18-.16.18-.09.07-.08.09-.06.09-.06.07-.06.09-.06.08-.06.09-.05.07-.11.16-.09.14-.09.15-.07.16-.07.16-.05.15-.06.15-.05.16-.09.33-.09.34-.07.36-.06.37-.22,1.19h-1l-.51,2.73h1l-1.23,6.61h2.89l1.23-6.61h2l.51-2.73h-2l.26-1.5.05-.2.03-.17.05-.18.06-.16.06-.13.06-.13.07-.13.05-.1.09-.1.07-.06.1-.07.1-.04.12-.05.1-.02.14-.03h.14s.09,0,.09,0h.1s.09.04.09.04l.09.02.09.02.07.04.09.04.09.04.06.03.07.02.06.04h.06s.52-2.83.52-2.83l-.12-.06-.15-.09h0ZM199.79,49.47l-.03.21-.04.22-.05.21-.05.21-.09.2-.09.2-.1.18-.11.18-.26.32-.16.13-.17.12-.07.07-.09.05-.09.03-.1.04-.09.02-.1.05h-.09s-.11.04-.11.04h-.04s-.17.03-.17.03h-.21s-.1,0-.1,0h-.12s-.07-.02-.07-.02l-.1-.02-.1-.02h-.09s-.09-.05-.09-.05l-.09-.03-.07-.04-.06-.03-.07-.05-.06-.07-.06-.06-.05-.07-.11-.13-.1-.16-.06-.16-.05-.18-.03-.18-.02-.19v-.41s.05-.21.05-.21l.05-.22.06-.21.07-.19.07-.18.1-.19.12-.19.14-.14.14-.17.16-.16.16-.12.09-.04.07-.06.1-.04.1-.05.09-.03.1-.04.09-.04.1-.02h.04l.19-.03h.21s.11,0,.11,0h.1l.1.02h.1s.09.03.09.03l.09.03.08.04.09.03.07.03.09.06.06.04.08.06.05.07.05.05.06.09.05.07.07.15.06.17.06.18.04.19.03.19v.19h0ZM202.87,48.25l-.04-.24-.05-.24-.05-.22-.06-.22-.09-.21-.1-.2-.09-.18-.14-.19-.14-.17-.15-.18-.15-.14-.16-.16-.16-.14-.17-.13-.36-.21-.2-.11-.2-.08-.2-.08-.21-.07-.21-.06-.22-.04-.21-.04-.24-.03h-.23s-.25-.02-.25-.02v.02h-.5s-.24.04-.24.04l-.19.02h-.04s-.25.05-.25.05l-.22.06-.24.06-.24.08-.46.19-.21.1-.22.12-.21.12-.24.14-.21.16-.22.14-.2.18-.19.17-.2.19-.19.18-.16.2-.16.21-.15.22-.29.46-.1.24-.11.27-.1.24-.1.28-.07.28-.06.27-.06.31-.04.29-.04.29-.04.27v.53l.03.25v.25s.06.24.06.24l.06.22.07.22.08.19.1.2.11.2.11.18.14.17.15.17.15.15.16.15.17.14.19.13.17.11.17.11.21.08.2.1.19.07.21.07.2.04.22.05.24.04.24.03h.24s.24.02.24.02l.25-.02h.24s.24-.03.24-.03l.19-.02h.04s.25-.06.25-.06l.24-.05.22-.07.23-.08.22-.09.24-.08.21-.11.45-.23.21-.15.24-.15.2-.15.41-.33.19-.19.19-.18.16-.21.16-.21.15-.2.14-.24.12-.22.12-.25.12-.25.09-.25.09-.28.09-.25.06-.31.11-.59.04-.27.03-.28v-.28s0-.24,0-.24v-.27h-.01ZM184.69,45.15l-3.6,3.38,1.68-9.16h-2.89l-2.77,15.13h2.86l.71-3.81,2.44,3.81h4.03l-3.39-5.04,4.86-4.3h-3.95ZM176.35,46.99l-.02-.16-.02-.17-.04-.15-.04-.15-.05-.16-.05-.13-.06-.13-.06-.14-.08-.12-.08-.12-.1-.1-.1-.1-.1-.09-.13-.07-.13-.09-.14-.06-.16-.05-.15-.04-.15-.04-.18-.03-.18-.02-.2-.02h-.41l-.2.02-.2.03-.18.04-.19.04-.18.05-.36.15-.17.09-.17.11-.16.12-.17.13-.16.15-.17.18-.17.18-.15.19h-.05l.24-1.19h-2.89l-1.71,9.34h2.88l.89-4.84.04-.2.06-.21.05-.2.08-.19.07-.18.09-.17.08-.18.12-.17.05-.08.12-.14.07-.06.07-.07.07-.05.07-.04.09-.05.09-.04.08-.03.09-.04.09-.02.1-.02h.1s.12,0,.12,0h.28l.15.02.14.03.13.06.05.03.05.03.05.04.04.05.03.04.04.06.03.06.03.06.02.12.03.13.03.13.02.13v.13s0,.14,0,.14v.14s-.03.13-.03.13v.09s-.03.1-.03.1v.08s-.03.1-.03.1v.07s-.02.1-.02.1v.08s-.03.1-.03.1v.04s-.02.05-.02.05v.06s-.03.04-.03.04l-.83,4.55h2.88l1.07-5.77.03-.2.04-.21.02-.2.02-.21v-.18l.02-.2v-.18l-.02-.18-.02-.17h0ZM162.85,49.42v.2s-.03.22-.03.22l-.05.22-.06.21-.07.2-.09.2-.1.18-.12.17-.13.15-.14.17-.16.13-.15.13-.09.06-.08.06-.1.02-.09.04-.1.04-.08.04-.1.02-.1.03h-.04l-.17.02-.21.02h-.11l-.2-.03-.09-.02-.1-.03-.07-.02-.09-.03-.08-.04-.09-.04-.07-.02-.06-.06-.07-.06-.06-.06-.07-.07-.06-.06-.03-.07-.09-.14-.07-.18-.05-.17-.03-.18-.03-.18v-.22l.03-.2.03-.22.04-.21.06-.2.08-.19.1-.19.1-.18.1-.19.14-.16.14-.16.15-.16.17-.12.08-.06.08-.05.09-.04.09-.04.1-.04.1-.04.1-.03h.1s.02-.02.02-.02l.18-.04h.21s.11,0,.11,0h.1l.11.02h.09l.09.03.09.03.09.03.08.05.08.03.06.05.08.06.06.06.07.06.06.06.04.08.05.06.09.17.07.16.05.17.04.19v.2s0,.19,0,.19h0ZM163.42,46.07l-.08-.13-.09-.13-.08-.1-.11-.11-.09-.11-.13-.1-.12-.08-.14-.08-.13-.07-.14-.06-.13-.06-.15-.04-.14-.04-.15-.03-.15-.03-.14-.02-.09-.02h-.45l-.23.02-.21.04-.21.04-.22.04-.2.06-.21.08-.2.09-.2.09-.19.11-.2.13-.19.13-.19.14-.18.16-.18.17-.18.17-.17.19-.16.19-.15.21-.16.2-.14.2-.13.21-.12.22-.12.21-.11.23-.09.22-.1.23-.08.23-.08.24-.06.24-.06.25-.04.25-.04.24-.03.26-.02.23v.23s-.01.24-.01.24v.24s.03.21.03.21l.03.22.02.23.05.21.05.2.07.21.06.21.09.18.1.19.11.19.1.19.25.32.13.14.14.13.16.13.16.11.16.11.17.07.17.08.18.06.2.05.2.04.2.03.23.03h.23s.12,0,.12,0h.08s.05-.01.05-.01l.17-.03.17-.02.16-.03.17-.04.16-.05.17-.05.15-.07.16-.09.07-.04.11-.03.16-.11.13-.11.16-.12.14-.12.13-.14.13-.15.12-.16h.04l-.19,1.04h2.88l1.71-9.34h-2.88l-.16.92ZM152.15,44.64l-.03.19-.05.2-.04.19-.08.16-.07.14-.04.08-.06.05-.04.06-.06.05-.06.04-.05.04-.08.04-.06.02-.14.06-.14.06-.13.04-.14.04-.14.03-.14.02h-.14s-.04,0-.04,0l-.12.02h-.07v-.02h-.38l.5-2.66h.65s.14.02.14.02l.12.03h.13s.11.05.11.05l.12.05.11.05.12.05.05.04.04.02.04.06.04.05.03.03.02.07.02.07.02.05.02.16.02.16-.02.19ZM151.99,49.89v.2s-.04.23-.04.23l-.04.19-.05.18-.06.16-.08.14-.1.13-.11.11-.11.1-.13.08-.13.06-.15.07-.13.06-.3.08-.14.05h-.15s-.14.04-.14.04h-.11s-.12,0-.12,0h-.1s-.54,0-.54,0h-.03s-.02-.01-.02-.01h-.39l.55-2.96h1.3s.14.03.14.03l.15.02.15.03.13.04.13.05.14.05.12.06.04.04.06.04.05.06.04.05.04.06.03.07.03.06.03.08v.07s.03.09.03.09v.08s0,.1,0,.1h0ZM155.13,42.66l-.03-.17-.05-.17-.05-.15-.06-.14-.07-.13-.08-.12-.09-.12-.1-.1-.11-.09-.11-.1-.12-.09-.11-.08-.14-.07-.14-.07-.14-.06-.15-.05-.16-.05-.16-.04-.17-.02-.18-.03-.17-.03-.19-.02h-.19s-4.62,0-4.62,0l-2.54,13.73h4.99s.21-.02.21-.02h.19s.21-.04.21-.04l.2-.02.19-.05.2-.04.2-.05.19-.06.2-.05.19-.08.2-.07.19-.07.19-.08.2-.1.18-.1.17-.11.17-.12.17-.13.17-.14.14-.15.14-.16.12-.17.13-.19.12-.18.1-.21.1-.21.08-.23.1-.24.07-.24.05-.26.05-.26.06-.35.03-.34.03-.31v-.31s-.03-.15-.03-.15l-.02-.15v-.14s-.06-.13-.06-.13l-.05-.26-.1-.24-.05-.12-.06-.1-.06-.11-.07-.09-.08-.1-.1-.07-.09-.08-.11-.08-.11-.08-.11-.05-.13-.05-.12-.07-.13-.04-.13-.04-.15-.03-.17-.03h0s.21-.13.21-.13l.18-.12.18-.12.15-.14.16-.15.12-.17.14-.15.11-.18.1-.2.1-.18.08-.19.08-.21.09-.21.05-.21.05-.22.05-.23.04-.24.03-.23.02-.22.02-.21v-.41l-.02-.18-.02-.18h0ZM134.96,54.49h2.87l2.77-15.13h-2.86l-2.78,15.13ZM131.16,49.42v.2s-.05.22-.05.22l-.1.42-.08.2-.09.2-.1.18-.11.17-.12.15-.14.17-.16.13-.16.13-.09.06-.08.06-.09.02-.09.04-.09.04-.09.04-.1.02-.11.03h-.02l-.18.02-.21.02h-.11l-.2-.03-.1-.02-.09-.03-.08-.02-.09-.03-.07-.04-.08-.04-.08-.02-.07-.06-.07-.06-.05-.06-.06-.07-.06-.06-.04-.07-.1-.14-.07-.18-.06-.17-.03-.18-.02-.18v-.22l.02-.2.03-.22.05-.21.06-.2.08-.19.08-.19.11-.18.11-.19.14-.16.13-.16.16-.16.15-.12.1-.06.08-.05.08-.04.09-.04.09-.04.1-.04.1-.03h.1s.03-.02.03-.02l.17-.04h.21s.12,0,.12,0h.1l.1.02h.1l.08.03.1.03.09.03.08.05.08.03.06.05.07.06.07.06.12.12.05.08.05.06.08.17.07.16.04.17.04.19.02.2v.19h0ZM131.72,46.07l-.09-.13-.07-.13-.1-.1-.09-.11-.11-.11-.11-.1-.13-.08-.14-.08-.12-.07-.16-.06-.13-.06-.15-.04-.14-.04-.29-.07-.16-.02-.08-.02h-.46l-.22.02-.22.04-.2.04-.22.04-.21.06-.2.08-.21.09-.2.09-.19.11-.19.13-.19.13-.19.14-.18.16-.18.17-.17.17-.17.19-.16.19-.17.21-.14.2-.14.2-.13.21-.13.22-.1.21-.12.23-.1.22-.1.23-.07.23-.08.24-.07.24-.07.25-.05.25-.03.24-.04.26-.02.23v.23s0,.47,0,.47v.21s.04.22.04.22l.04.23.05.21.07.2.05.21.08.21.18.37.11.19.12.19.11.15.14.16.13.14.14.13.16.13.16.11.17.11.17.07.17.08.19.06.19.05.2.04.21.03.21.03h.22s.14,0,.14,0h.05s.07-.01.07-.01l.17-.03.16-.02.16-.03.17-.04.16-.05.16-.05.17-.07.16-.09.07-.04.08-.03.16-.11.16-.11.14-.12.12-.12.15-.14.12-.15.12-.16h.04l-.18,1.04h2.86l1.72-9.34h-2.87l-.17.92h0ZM124.28,45.03h.56s-.59,3.16-.59,3.16h-.06s-.04-.04-.04-.04l-.1-.05-.12-.05-.11-.05-.11-.03-.1-.02-.13-.02h-.12s-.13-.03-.13-.03h-.14l-.29.03h-.13s-.13.02-.13.02l-.12.04-.13.03-.12.05-.11.04-.1.07-.12.06-.09.06-.09.08-.09.08-.09.08-.07.1-.07.09-.14.21-.12.22-.11.24-.1.23-.09.27-.07.26-.08.29-.04.28-.71,3.76h-2.86l1.73-9.34h2.87l-.28,1.52h.04l.14-.19.14-.19.16-.17.17-.18.17-.14.19-.14.18-.11.37-.2.19-.09.2-.07.2-.05.2-.04.19-.04.21-.03h.21ZM117.8,45.15h-1.62l.52-2.82h-2.89l-.51,2.82h-.93l-.5,2.74h.93l-1.21,6.6h2.88l1.21-6.6h1.62l.5-2.74ZM110.57,46.99l-.02-.16-.04-.17-.02-.15-.05-.15-.04-.16-.06-.13-.06-.13-.07-.14-.07-.12-.09-.12-.09-.1-.11-.1-.11-.09-.12-.07-.13-.09-.13-.06-.15-.05-.15-.04-.18-.04-.17-.03-.17-.02-.19-.02h-.41l-.2.02-.21.03-.19.04-.18.04-.18.05-.36.15-.17.09-.16.11-.18.12-.17.13-.17.15-.16.18-.16.18-.17.19h-.02l.23-1.19h-2.89l-1.73,9.34h2.89l.89-4.84.04-.2.06-.21.07-.2.07-.19.08-.18.08-.17.1-.18.1-.17.05-.08.06-.06.07-.07.06-.06.08-.07.05-.05.08-.04.07-.05.1-.04.18-.06.08-.02.1-.02h.11s.1,0,.1,0h.27l.18.02.12.03.13.06.06.03.04.03.05.04.05.05.04.04.03.06.05.06v.06s.05.12.05.12l.03.13.02.13.02.13v.13s0,.14,0,.14v.14s-.02.13-.02.13v.09s-.02.1-.02.1v.08s-.03.1-.03.1v.07s-.04.1-.04.1v.08s0,.1,0,.1l-.02.04v.05s-.02.06-.02.06v.04s-.85,4.55-.85,4.55h2.88l1.07-5.77.06-.41.02-.2v-.21s.02-.18.02-.18v-.2s0-.18,0-.18v-.18s-.02-.17-.02-.17ZM94.64,48.47h3.34v-.16s-.02-.16-.02-.16l-.03-.15-.04-.12-.05-.13-.07-.13-.08-.11-.1-.12-.11-.08-.09-.08-.12-.07-.12-.05-.12-.05-.13-.03-.14-.02h-.3l-.14.02h-.01l-.16.03-.14.03-.15.06-.15.05-.12.09-.14.08-.13.09-.13.12-.11.13-.12.12-.08.14-.09.15-.08.16-.07.19h0ZM100.49,48.14v.26s.01.26.01.26v.25s-.02.28-.02.28l-.02.28-.05.29-.04.29h0s-.07.33-.07.33h-6.05l-.03.26-.02.22v.22s0,.21,0,.21l.03.18.05.17.07.16.04.08.04.06.05.09.05.04.05.05.07.04.06.05.06.05.08.04.07.03.09.04.07.03.09.02.09.02.21.03h.56l.09-.03.1-.03.1-.04.03-.02.08-.02.09-.05.1-.06.08-.06.09-.07.09-.07.08-.09.09-.1.08-.09.07-.12h2.78l-.09.21-.1.19-.09.18-.1.2-.11.17-.1.17-.12.16-.12.16-.12.15-.13.14-.14.14-.15.12-.14.12-.31.23-.16.09-.17.1-.18.07-.16.08-.17.08-.16.07-.18.07-.16.06-.18.04-.17.04-.13.04h-.03s-.17.03-.17.03l-.17.04h-.17s-.17.03-.17.03h-.16s-.19.01-.19.01h-.24s-.24-.01-.24-.01l-.23-.03-.23-.04-.23-.04-.21-.05-.21-.08-.2-.06-.18-.07-.37-.21-.18-.12-.31-.26-.17-.15-.12-.14-.14-.18-.13-.16-.1-.19-.09-.19-.09-.2-.07-.21-.06-.23-.04-.22-.03-.24-.03-.24v-.26s0-.26,0-.26v-.27s.04-.28.04-.28l.04-.29.04-.3.05-.28.07-.28.08-.28.07-.25.09-.26.1-.25.11-.24.12-.23.13-.23.13-.22.13-.21.15-.2.16-.2.17-.17.17-.18.19-.17.19-.17.19-.16.21-.13.19-.14.2-.12.21-.11.21-.08.22-.09.21-.08.23-.08.23-.04.23-.05.24-.04.17-.02.06-.02.24-.02h.52l.24.02.25.04.23.03.22.05.2.05.22.07.19.1.18.08.17.11.17.12.15.12.14.15.14.15.12.15.12.16.11.19.1.19.08.18.08.21.07.21.05.21.05.23.03.23.02.23h0ZM91.81,41.09l-.31-.14-.32-.14-.32-.13-.33-.1-.17-.02-.18-.04-.17-.04-.36-.03-.18-.03h-.17l-.2-.02h-.14l-.31.02-.31.04-.31.05-.31.06-.31.09-.32.12-.31.12-.32.13-.32.15-.3.18-.3.18-.29.18-.28.21-.28.23-.27.22-.26.24-.49.52-.23.29-.24.27-.2.3-.21.3-.19.31-.18.34-.17.33-.15.33-.15.32-.13.35-.1.34-.1.35-.08.34-.08.35-.06.38-.04.37-.03.36-.03.37v.35l.03.35.03.33.04.34.07.32.08.32.1.3.12.31.13.27.17.29.17.27.19.26.19.24.21.21.21.21.22.2.23.17.24.17.25.15.26.12.27.12.28.11.27.09.27.07.3.07.3.03.3.02.32.02h.15l.16-.02h.14s.15-.02.15-.02l.15-.03.15-.03.15-.03.15-.03.19-.04.2-.07.2-.06.2-.04.21-.07.21-.07.22-.08.22-.06.78-4.28-.16.17-.16.15-.16.16-.16.13-.18.13-.18.11-.18.13-.21.09-.19.11-.21.07-.2.07-.18.04-.21.05-.18.03-.2.02h-.54s-.17-.02-.17-.02l-.15-.04-.16-.04-.15-.04-.14-.06-.14-.06-.14-.08-.12-.08-.12-.07-.12-.11-.1-.11-.12-.11-.08-.12-.17-.26-.07-.14-.08-.15-.05-.15-.05-.15-.06-.17-.02-.15-.04-.16v-.17s-.03-.17-.03-.17v-.56s.03-.19.03-.19l.03-.18.03-.21.04-.2.05-.18.04-.2.05-.19.07-.18.07-.17.07-.17.17-.34.09-.17.12-.15.09-.16.12-.16.13-.14.13-.14.13-.15.13-.13.14-.12.14-.12.14-.1.15-.09.15-.09.16-.08.16-.08.17-.07.15-.06.17-.04.16-.04.17-.03.16-.02.17-.02h.38l.18.02.2.04.16.03.18.06.18.06.16.09.17.09.17.11.13.11.15.12.13.14.12.15.11.15.1.17.08.17.8-4.29h-.01Z"/>
      </g>
      <g id="g5589">
        <path id="path5591" class="cls-2" d="M248.12,25.22l.37-3.91h-2.28l.1.14.11.15.07.17.06.17.04.17.04.19v.42s-.04.14-.04.14l-.03.15-.04.15-.05.14-.06.13-.05.12-.09.14-.17.21-.1.13-.12.09-.05.04-.07.06-.14.1-.14.09-.15.08-.16.07-.22.1-.24.07-.24.07-.25.07-.25.04-.26.05h-.25s-.27.03-.27.03v.24l.03.23.04.21.05.2.06.19.09.15.1.16.11.14.06.05.06.06.08.05.07.05.15.09.19.07.2.06.2.03.21.02h.25s.2,0,.2,0l.21-.02.21-.03.07-.03.12-.03.2-.07.21-.07.19-.09.19-.11.19-.11.19-.13.19-.16.16-.14.17-.17.17-.19.15-.19.16-.22ZM234.34,18.72v-.5s-.05-.15-.05-.15l-.05-.13-.05-.12-.07-.12-.09-.09-.07-.09-.11-.08-.12-.09-.12-.06-.14-.06-.16-.05-.16-.06-.16-.04-.2-.04-.19-.03-.22-.02-.22-.02h-.25s-.25-.03-.25-.03h-.25l-.27.02-.52.02-.46.05-.45.04-.42.06-.38.09-.33.08-.17.06-.16.05-.15.04-.12.07-.15.06-.12.06-.11.07-.11.08-.1.06-.09.08-.09.09-.09.08-.06.09-.06.09-.04.1-.06.09-.04.1-.02.11-.03.1-.02.11v.57l.05.12v.06l.04.04.03.04.02.04.04.03.04.03h.07s.05,0,.05,0l.05-.02v-.06h6.59l-.09-.09.15-.09.12-.09.11-.12.1-.11.07-.12.06-.12.04-.15.04-.15h0ZM236.55,19.77h21.84l-.16,1.54h-1.48l-.82,8.73h-2.82l.82-8.73h-2.63l-.81,8.73h-2.83l.19-1.99-.21.15-.21.13-.19.13-.2.1-.22.11-.21.1-.2.07-.21.09-.21.08-.15.03-.06.02-.21.06-.42.07h-.21s-.21.04-.21.04h-.57s-.35-.04-.35-.04l-.32-.04-.31-.05-.14-.05-.16-.04-.12-.05-.15-.05-.14-.07-.12-.07-.12-.07-.12-.08-.12-.06-.11-.09-.11-.08-.1-.1-.11-.08-.1-.11-.09-.11-.11-.11-.05-.12-.11-.12-.08-.12-.07-.14-.14-.27-.14-.29-.09-.26-.09-.29-.08-.29-.04-.31-.05-.34-.02-.35v-.35s-.01-.38-.01-.38l.45-.22v.02s.02.02.02.02h.26s.2.03.2.03l.21-.02h.2s.2,0,.2,0l.19-.04.2-.03.16-.03.19-.07.16-.05.21-.09.17-.09.16-.11.09-.07.04-.06.06-.06.05-.08.05-.06.04-.08.03-.07.04-.08.02-.09v-.08s.02-.13.02-.13v-.35s-.04-.13-.04-.13l-.03-.1-.02-.1-.04-.1-.06-.1-.04-.09-.07-.08-.05-.07-.09-.08-.09-.07-.09-.07-.09-.07h-5.04l-.21,2.37h-5.05s-.11.03-.11.03l-.07.03-.06.02-.04.02-.05.03-.09.07-.02.06v.06s-.04.06-.04.06l-.03.05v.05s-.03.07-.03.07v.25l.03.07.03.08.02.05.04.05.06.04.05.05.06.04.07.03.17.04.1.02h.1s2.95,0,2.95,0h.11s.27.04.27.04l.12.02.12.05.12.03.12.05.12.05.1.05.22.15.11.07.11.07.1.09.11.1.09.09.09.11.1.11.07.08.06.13.05.11.05.12.05.13.04.11.04.13.04.13v.14s.03.13.03.13v.14s.01.14.01.14v.16s-.04.18-.04.18l-.02.21-.05.18-.04.18-.05.18-.05.17-.07.17-.09.17-.08.15-.09.16-.21.28-.12.15-.12.14-.12.12-.14.14-.32.25-.15.1-.17.1-.16.1-.21.09-.17.06-.21.09-.19.05-.24.06-.2.05-.45.06-.22.04h-.87l-.4-.04-.38-.05-.41-.07-.55-.11-.52-.13-.47-.12-.45-.14-.41-.14-.36-.15-.19-.08-.16-.07-.17-.1-.12-.07-.12-.07-.1-.08-.11-.1-.12-.09-.11-.09-.11-.11-.12-.13-.11-.12.96-2.33v.06s.02.04.02.04l.05.05.1.08.12.12.17.12.21.14.26.14.3.17.34.17.36.18.33.13.33.14.35.12.33.08.33.07.31.06.22.03h.21s.21.03.21.03h.2s.19,0,.19,0l.19-.02h.17s.16-.03.16-.03l.12-.04.17-.03.11-.06.12-.05.1-.05.1-.08.07-.07.09-.09.06-.09.05-.1.04-.12.04-.11.02-.09v-.09l-.02-.08-.04-.07-.04-.08-.05-.07-.06-.07-.09-.07-.09-.07-.07-.06-.09-.04-.08-.05-.11-.02-.11-.02-.17-.02h-2.52l-.12-.02-.15-.02-.26-.04-.14-.03-.11-.03-.12-.06-.12-.06-.25-.11-.12-.06-.11-.09-.11-.07-.12-.08-.11-.09-.1-.1-.12-.1-.1-.1-.09-.11-.06-.11-.09-.11-.06-.11-.06-.1-.05-.12-.04-.13-.04-.12-.04-.11v-.25s-.01-.26-.01-.26v-.13s.05-.13.05-.13v-.13s.06-.12.06-.12l.02-.13.06-.12.05-.1.09-.11.06-.12.09-.1.09-.1.1-.1.11-.1.11-.11.1-.09.14-.09.22-.14.25-.12.26-.12.26-.1.26-.06.26-.04.27-.03.29-.02h2.73l.07-.74h-7.99l-.83,8.73h-2.82l.82-8.73h-1.48l.16-1.54h1.1l-.04-.09-.04-.09v-.09s-.04-.12-.04-.12v-.11s-.02-.12-.02-.12v-.11s.01-.13.01-.13l.04-.25.05-.24.05-.25.06-.24.08-.23.1-.21.11-.21.1-.19.14-.18.14-.19.15-.16.17-.17.17-.16.19-.15.2-.14.21-.13.22-.12.24-.11.25-.12.27-.1.26-.09.3-.08.29-.08.31-.07.32-.05.32-.05.35-.04.37-.03.37-.03.37-.02h.82l.44.02.42.02.41.02.4.03.36.05.37.06.33.06.32.07.31.08.3.09.26.1.26.11.22.11.22.12.2.13.17.14.12.12.14.12.11.14.1.14.09.15.1.14.06.17.06.17.09.33.04.2v.18s.04.21.04.21v.21l-.02.22v.21s-.01.12-.01.12l-.02.1v.12s-.05.1-.05.1l-.04.09-.04.08-.04.08-.05.07-.15.17-.09.09ZM223.23,18.62l.15-.14.12-.15.12-.14.09-.16.09-.17.05-.18.06-.19.02-.19v-.21s0-.18,0-.18v-.19s-.06-.16-.06-.16l-.06-.17-.09-.16-.1-.15-.12-.14-.12-.12-.15-.11-.15-.11-.15-.07-.17-.07-.17-.04-.17-.03h-.19s-.21,0-.21,0h-.2s-.19.06-.19.06l-.19.07-.19.06-.17.11-.16.09-.19.13-.16.14-.12.15-.12.16-.11.17-.09.17-.06.2-.05.19-.03.21v.19s0,.19,0,.19v.09s.03.09.03.09l.02.09.05.09v.08s.05.09.05.09l.05.07.05.07.12.16.12.13.15.12.16.11.14.09.19.07.17.06.19.04.19.02h.19s.19,0,.19,0l.2-.03.17-.04.17-.05.17-.08.16-.08.16-.12.15-.12ZM210.46,21.31h7.57l-.09.83h-3.73l-.29.03-.26.04-.26.05-.25.07-.25.09-.22.1-.23.11-.12.06-.11.07-.11.09-.11.08-.1.09-.09.1-.09.09-.07.09-.06.11-.05.12-.06.11-.06.11-.04.25-.04.11v.13s-.01.25-.01.25v.12s.05.12.05.12v.12s.04.1.04.1l.05.1.05.11.07.1.05.08.09.1.09.09.09.08.11.08.1.07.11.09.22.12.22.11.23.09.24.07.24.04.27.05.29.02h.27s2.46,0,2.46,0l.12.02h.11s.04.02.04.02l.04.03.05.03.02.04.03.03.04.03v.05s.03.04.03.04v.11s.01.13.01.13l-.03.12-.04.12-.05.1-.06.09-.07.07-.09.06-.11.05-.14.03-.16.03h-.25s-.36,0-.36,0h-.47s-.45,0-.45,0l-.42-.02-.41-.04-.37-.04-.35-.07-.32-.08-.31-.1-.27-.1-.31-.15-.3-.13-.32-.15-.3-.14-.35,1.8.25.15.24.13.26.11.25.08.16.46.16.41.16.38.15.32.07.15.09.13.09.12.16.23.09.09.06.09.09.05.11.1.14.1.17.07.16.09.19.07.2.06.22.05.22.06.26.03.26.05.29.04.31.02.31.02.34.02h.33s.37.02.37.02h.29s.2-.02.2-.02l.15-.02.06-.02.22-1.75h-.67s-.58-.03-.58-.03l-.25-.03-.24-.03-.21-.02-.19-.04-.15-.05-.15-.04-.12-.04-.1-.06-.08-.05-.04-.07-.02-.03v-.04s-.01-.11-.01-.11l.04-.03v-.05s.04-.04.04-.04h1.11s.3-.03.3-.03h.57s.29-.03.29-.03h.31s.29-.06.29-.06l.27-.05.25-.06.24-.07.2-.08.19-.1.19-.09.1-.07.09-.08.09-.08.1-.08.15-.17.06-.11.07-.09.07-.12.04-.1.05-.11.04-.13.04-.14.04-.13.04-.13v-.15s.05-.16.05-.16v-.57s-.04-.14-.04-.14l-.07-.25-.05-.13-.05-.1-.06-.12-.07-.09-.07-.1-.09-.1-.09-.08-.1-.1-.09-.08-.11-.05-.1-.08-.09-.04-.22-.1-.22-.08-.25-.07-.26-.04-.26-.04h-3.21s-.16,0-.16,0h-.14s-.09-.04-.09-.04l-.06-.02-.06-.03-.04-.03-.05-.05-.02-.04v-.07s-.04-.07-.04-.07v-.06l.02-.14.05-.1.07-.1.07-.07.09-.05.1-.04.11-.02h.15s5.63-.01,5.63-.01l.24-2.45h1.64l.15-1.54h-11.92l-.15,1.54ZM194.3,29.3l.02.12.03.12v.3l-.03.15-.02.12-.04.13-.06.13-.09.12-.07.12-.09.1-.11.11-.11.08-.12.07-.12.08-.12.04-.12.05-.15.03-.12.02h-.15s-.14.01-.14.01l-.15-.03-.25-.07-.11-.05-.12-.07-.11-.08-.11-.09-.09-.1-.09-.09-.06-.11-.05-.13-.04-.12-.03-.14v-.29l.03-.15.04-.15.11-.27.07-.12.09-.13.1-.1.11-.1.12-.09.12-.08.12-.07.12-.07.14-.04.15-.02.12-.02h.3l.12.02.14.04.12.04.11.06.1.07.12.07.1.09.06.11.09.11.08.1.04.14ZM192.96,24.59v-.18s.03-.18.03-.18l.05-.54.04-.47.04-.45.05-.38.04-.34.03-.29v-.23s.04-.2.04-.2h2.77l-.35,3.75-.1.11-.1.07-.1.09-.1.08-.11.08-.11.05-.1.05-.11.06-.12.05-.11.04-.12.02-.11.03h-.11s-.12.02-.12.02h-.12s-.14,0-.14,0h-.14l-.11-.05-.12-.03-.09-.04-.1-.06-.09-.07-.07-.08-.06-.1-.06-.1v-.12s-.05-.13-.05-.13l-.03-.16v-.31h0ZM189.73,21.31h.78v.14s-.04.22-.04.22l-.03.3-.04.36-.04.46-.04.53-.05.61-.08.68v.18s-.01.18-.01.18v.17s.01.17.01.17l.03.16.03.15.05.17.04.17.06.15.05.13.09.16.09.15.08.14.1.14.1.13.11.14.1.12.12.13.12.1.12.1.14.09.12.09.14.08.15.08.15.07.14.06.15.05.32.06.16.02.16.02h.17s.31,0,.31,0h.32s.27-.04.27-.04l.27-.04h.01s.25-.05.25-.05l.24-.08.25-.1.2-.12-.2,2.3h2.82l.45-4.71.08-.1.1-.1.1-.08.09-.07.1-.08.11-.05.1-.07.1-.04.11-.04.1-.04.11-.04.12-.03h.11s.11-.04.11-.04h.25s.2,0,.2,0l.19.02h.17s.15.05.15.05l.14.05.12.05.11.07.11.08.07.08.08.1.06.12.05.11.04.13v.12s.01.32.01.32v.13s-.05.13-.05.13l-.05.11-.04.12-.06.1-.09.09-.09.09-.1.08-.11.05-.11.08-.14.04-.14.04-.15.03-.17.02-.17.02h-.19s-.22,0-.22,0l-.22-.02-.1-.02-.1-.03-.09-.04-.07-.04-.21,2.03.06.06.05.04.08.05.06.04.09.04.09.02.09.03.09.03.21.03.24.03h.26s.27,0,.27,0h.2s.19-.04.19-.04l.19-.02.17-.03.19-.03.16-.05.16-.05.17-.04.15-.04.16-.07.14-.07.16-.06.12-.08.15-.08.14-.1.12-.09.14-.1.12-.13.14-.13.11-.11.11-.14.11-.13.09-.15.09-.15.09-.15.06-.17.07-.16.1-.35.05-.18.04-.2.02-.19v-.21s.03-.2.03-.2v-.36s-.03-.18-.03-.18l-.06-.36-.05-.16-.05-.17-.07-.16-.06-.14-.09-.17-.09-.13-.1-.14-.12-.14-.11-.11-.12-.12-.11-.11-.15-.09-.12-.1-.15-.08-.14-.09-.17-.05-.15-.08-.16-.05-.17-.04-.17-.04-.17-.03-.2-.04-.19-.02-.2-.02h-.55l-.32.04-.31.05-.31.05-.3.09-.29.09-.26.12-.26.14.15-1.59h6.58l.15-1.54h-15.7l-.15,1.54h0ZM190.04,19.19l.17-.07.17-.09.17-.11.16-.1.22-.15.21-.17.21-.18.17-.2.17-.22.16-.21.14-.24.15-.26.14-.29.11-.3.11-.28.14-.29h-3.04l-.02.13-.03.14-.06.14-.07.11-.07.11-.09.1-.1.1-.12.08-.14.08-.14.06-.16.05-.19.06-.2.03-.19.03-.22.03-.22.03h-.25l-.21-.03-.21-.03-.19-.04-.09-.03-.07-.05-.1-.04-.07-.04-.07-.07-.06-.05-.06-.06-.07-.07-.1-.08-.05-.1-.09-.11-.05-.09-.02-.1-.02-.11v-.11s0-.09,0-.09h-3l.06.29.07.28.06.3.09.29.1.25.1.23.14.22.12.21.16.2.17.18.17.17.2.16.15.09.14.1.17.09.15.09.17.06.17.09.2.05.19.05.2.07.21.02.21.05.22.02.24.03h.24s.24.02.24.02h.24s.26,0,.26,0h.25s.26-.02.26-.02l.22-.02.22-.03.24-.04.21-.03.42-.11.21-.06.19-.06.19-.09h0ZM177.74,21.27l.15-1.5h11.41l-.15,1.54h-1.48l-.82,8.73h-2.83l.83-8.73h-1.48v-.04h-1.11l-.83,8.77h-2.82l.41-4.39h-2.17l.11-1.15.09-.81h2.16l.24-2.41h-1.72ZM177.03,26.58l-.03-.2-.03-.07-.03-.11-.06-.18-.07-.16-.09-.17-.11-.16-.1-.15-.14-.16-.14-.15-.16-.12-.18-.15-.17-.13-.21-.12.17-.07.16-.1.28-.17.13-.11.12-.1.12-.11.1-.12.09-.13.07-.13.08-.13.11-.3.02-.08.03-.08.03-.15.05-.16v-.37s0-.18,0-.18l-.02-.16-.04-.17-.05-.15-.07-.15-.06-.14-.08-.14-.1-.14-.12-.13-.11-.12-.14-.12-.14-.11-.16-.11-.17-.1-.14-.08-.16-.06-.15-.06-.16-.07-.17-.04-.17-.05-.17-.05-.17-.03-.37-.05-.38-.04-.38-.02h-.41s-.25.02-.25.02l-.27.03-.25.04-.27.05-.27.06-.26.08-.27.08-.27.1-.28.12-.29.15-.28.11-.29.12.79,1.99.29-.15.28-.13.3-.1.28-.08.29-.07.3-.05.6-.04h.31s.14.01.14.01l.13.03.13.03.1.04.09.04.1.04.06.05.07.07.05.08.05.07.03.08v.09s.03.11.03.11v.11s-.03.09-.03.09l-.02.1-.02.08-.03.07-.04.08-.04.06-.05.06-.06.06-.06.04-.06.04-.08.04-.09.02h-.09s-.09.02-.09.02h-2.22l-.16,1.76h1.98l.13.02.13.03.13.03.11.04.11.03.08.05.08.06.14.13.05.09.05.06.02.1.02.09.02.1v.23l-.03.18-.04.18-.06.16-.06.17-.08.13-.08.1-.1.1-.13.08-.1.07-.12.04-.13.05-.15.03-.16.04-.19.02h-.2s-.2.03-.2.03h-.13l-.14-.02h-.13l-.27-.05-.13-.04-.13-.04-.14-.05-.13-.07-.14-.06-.12-.08-.14-.08-.14-.08-.12-.11-.12-.1-.13-.11-.17-.13-.16-.14-.14-.14-.13-.14-.13-.16-.12-.16-.12-.16-.11-.17-1.49,1.94.09.17.14.16.14.16.14.17.17.18.37.33.21.15.19.15.18.13.21.14.19.12.2.12.2.09.2.1.21.08.21.08.21.07.23.06.21.05.23.05.23.03h.25s.23.05.23.05h.16s.17,0,.17,0l.17.02h.16l.24-.02h.24l.23-.02.23-.02.22-.02.21-.05.2-.04.18-.04.18-.06.18-.07.17-.07.17-.06.16-.08.13-.09.15-.1.15-.09.12-.11.13-.1.11-.11.1-.14.11-.14.08-.12.08-.16.08-.15.07-.16.06-.15.05-.18.07-.17.03-.19v-.05s.03-.13.03-.13l.03-.21.02-.2.02-.21-.02-.2-.02-.18h0ZM147.64,21.31h6.45l-.43,4.6-.1.08-.09.1-.09.08-.1.09-.1.07-.22.14-.13.04-.11.06-.14.04-.12.02-.15.04h-.14s-.15.05-.15.05h-.14s-.15.02-.15.02h-.25s-.11-.03-.11-.03l-.11-.04-.1-.04-.1-.04-.1-.07-.08-.05-.07-.09-.06-.09-.06-.09-.04-.11-.03-.13v-.43l.03-.14.04-.15.04-.12.04-.13.07-.1.07-.11.08-.08.09-.08.1-.09.1-.05.14-.06.11-.05.14-.04.15-.03.16-.02h.16s.18-.01.18-.01l.16.03.17.03.15.05.15.08.14.1.15.12.13.13.2-2.16-.09-.08-.08-.07-.11-.06-.11-.06-.11-.07-.11-.03-.13-.05-.11-.05-.14-.03-.13-.04-.15-.02-.15-.03-.32-.03-.35-.02-.17.02-.19.02h-.16s-.18.04-.18.04l-.18.03-.15.04-.17.06-.14.06-.17.06-.13.08-.15.08-.14.09-.13.09-.15.12-.11.1-.13.11-.12.15-.11.13-.12.13-.1.14-.1.14-.09.15-.08.15-.07.16-.08.17-.06.18-.06.16-.05.18-.04.17-.03.19-.02.19-.02.21-.02.19v.54l.02.17.02.16.04.16.03.17.04.15.11.28.08.13.07.14.08.12.08.13.11.11.1.12.11.11.12.09.12.08.12.08.13.08.14.07.13.07.14.05.15.05.14.04.15.02.15.02.17.03h.16s.18.01.18.01l.35-.03.34-.02.34-.05.34-.08.35-.1.34-.11.35-.15.33-.16-.16,1.7h2.82l.45-4.71.1-.12.1-.11.11-.11.1-.1.1-.08.12-.08.1-.07.1-.08.1-.05.12-.04.1-.05.1-.04.12-.04h.09s.21-.03.21-.03l.22.02h.17s.17.03.17.03l.15.02.14.04.11.05.1.05.09.08.06.06.07.09.05.09.02.1.05.24v.15s0,.16,0,.16v.16s-.02.16-.02.16l-.02.15-.03.13-.05.11-.07.13-.07.09-.08.11-.07.07-.1.06-.11.08-.1.05-.15.04-.13.03h-.15s-.15.03-.15.03l-.12-.02h-.11s-.1-.01-.1-.01l-.13-.05-.12-.03-.12-.03-.12-.07-.11-.05-.24,2.56.09.11.09.07.07.05.07.04.09.03.11.02.13.03h.29s.56.01.56.01h.19s.18-.03.18-.03l.18-.02.18-.03.17-.04.17-.04.16-.06.16-.05.15-.07.16-.05.15-.09.14-.08.15-.09.14-.1.13-.11.14-.1.14-.14.13-.11.13-.14.12-.15.11-.14.1-.15.09-.15.09-.15.09-.16.06-.17.14-.35.04-.18.06-.2.06-.38v-.2s.03-.21.03-.21v-.39l-.03-.19-.02-.17-.04-.18-.04-.18-.06-.17-.07-.16-.15-.32-.1-.15-.1-.14-.1-.15-.13-.14-.13-.12-.13-.12-.12-.13-.15-.1-.14-.09-.15-.11-.16-.06-.16-.08-.16-.09-.17-.05-.18-.04-.18-.04-.19-.03-.19-.02h-.19s-.33-.01-.33-.01h-.14s-.15.03-.15.03l-.14.03-.28.05-.3.08-.3.1-.31.13-.31.17-.32.16.15-1.57h7.49l.15-1.54h-16.77l-.14,1.54h0ZM147.96,19.16l-.19-.02-.18-.04-.17-.06-.16-.07-.16-.09-.15-.11-.15-.12-.13-.13-.11-.16-.05-.07-.04-.07-.05-.09-.03-.08-.02-.09-.03-.09v-.09s-.02-.09-.02-.09l-.02-.19.02-.19.02-.21.05-.19.07-.2.08-.17.1-.17.13-.16.14-.15.16-.14.17-.13.18-.09.17-.11.18-.06.19-.07.19-.04h.2s.19-.01.19-.01h.19s.19.04.19.04l.16.04.17.07.17.07.15.11.15.11.13.12.12.14.09.15.09.16.06.17.04.16.02.19v.39s-.05.19-.05.19l-.05.19-.06.18-.09.17-.09.16-.12.14-.11.15-.15.14-.16.12-.17.12-.16.08-.17.08-.17.05-.17.04-.19.03h-.2s-.2,0-.2,0h0ZM139.71,26.38l-.28.09-.15.03-.12.02h-.11s-.11.02-.11.02h-.21s-.19,0-.19,0h-.16s-.16-.03-.16-.03l-.14-.02-.13-.04-.11-.04-.08-.03-.11-.06-.08-.09-.07-.1-.06-.11-.04-.14-.02-.14v-.32s.04-.13.04-.13l.03-.13.02-.1.04-.1.02-.09.04-.08.05-.07.04-.05.09-.08.09-.08.09-.07.09-.07.71.65,1.32,1.22-.32.1ZM146.84,19.77h-.71l-.06-.17-.13-.3-.12-.27-.14-.29-.13-.29-.16-.28-.15-.26-.16-.27-.18-.27-.17-.25-.19-.26-.19-.26-.19-.25-.21-.25-.19-.23-.19-.19-.2-.22-.17-.18-.19-.19-.19-.17-.21-.18-.2-.16-.19-.17-1.99,1.64.27.17.28.18.27.2.24.2.25.21.25.23.23.23.23.25.23.27.21.27.2.29.2.29.19.31.17.32.14.26h-.94l-.05-.09-.17-.26-.2-.29-.2-.28-.24-.27-.27-.29-.3-.29-.26-.26-.29-.25-.29-.24-.33-.24-1.3,1.82h.12s.12.04.12.04l.11.03.11.04.09.04.11.07.1.07.1.07.09.09.18.21.15.24.03.03h-5.51l-.15,1.54h7.6l-.4,4.22-.16.09-.1.05-.11.06-.1.03-.07.05-.06.04-2.01-1.91.2-.03.18-.04h.31s.18,0,.18,0l.2.04.23.04.26.08.23.06.19.06.15.03.1.02.22-1.75-.05-.05-.08-.04-.07-.03-.1-.04-.23-.05-.28-.04-.34-.05-.39-.02-.45-.02h-.5s-.21-.01-.21-.01h-.04s-.17.01-.17.01l-.2.02-.19.02-.38.06-.18.04-.19.04-.18.05-.16.07-.18.06-.16.06-.16.07-.16.09-.15.09-.15.09-.18.13-.15.12-.17.12-.12.13-.13.14-.13.14-.11.16-.11.15-.08.18-.07.16-.09.19-.06.18-.05.19-.05.2-.03.2-.02.2v.21s-.01.19-.01.19v.18s.03.18.03.18l.02.18.05.17.05.17.05.17.06.16.08.14.09.16.11.13.12.14.12.13.13.13.15.12.13.09.13.09.13.09.15.08.13.07.16.06.14.07.14.04.16.05.15.04.17.03.16.02.17.02.17.02h.34l.49-.03.21-.02h.02l.24-.02.22-.04.22-.03.22-.05.2-.04.21-.07.21-.05.2-.07.2-.06.19-.08.19-.08.18-.09.17-.08-.18,2.04h2.79l.83-8.73h1.83l.13-1.13.04-.41h0ZM95.49,19.77h36.19l-.15,1.54h-2.65l-.19,1.82.15.14.11.13.21.29.08.17.07.16.06.2.06.18.05.21.03.2.03.23.02.23v.24s0,.23,0,.23l-.02.26-.02.28v.23s-.06.23-.06.23l-.06.21-.04.21-.06.22-.06.2-.08.2-.09.21-.09.18-.11.19-.09.18-.13.18-.13.17-.13.17-.15.16-.14.15-.15.15-.16.15-.17.12-.17.12-.15.12-.17.11-.17.09-.16.08-.17.07-.18.07-.18.07-.18.04-.18.04-.19.02-.37.03h-.47l-.41-.03-.35-.03-.31-.04-.15-.03-.12-.02-.11-.05h-.1s-.07-.07-.07-.07l-.08-.02-.06-.05-.05-.05.2-2.15.06.05.11.07.19.05.25.07.27.06.24.04h.23s.22.01.22.01h.16s.16-.05.16-.05l.14-.05.13-.05.27-.19.11-.1.11-.14.1-.14.09-.16.08-.17.07-.2.06-.2.06-.23.05-.24.04-.26.03-.23.02-.21v-.21l-.02-.18v-.18s-.06-.16-.06-.16l-.03-.14-.05-.13-.04-.07-.05-.07-.05-.05-.04-.07-.06-.05-.06-.05-.06-.04-.06-.03-.07-.03-.08-.03-.06-.02-.08-.02h-.17s-.18-.01-.18-.01h-.16l-.14.03-.14.04-.13.07-.12.08-.13.09-.12.12-.11.13-.11.18-.1.16-.05.18-.07.14-.09.94h-2.65l.11-1.12-.02-.13-.03-.12-.03-.11-.06-.09-.09-.1-.08-.08-.12-.06-.11-.07-.14-.04-.14-.02-.16-.03h-.17s-.19,0-.19,0l-.18.03h-.08s-.07.05-.07.05h-.08s-.07.05-.07.05l-.08.05-.07.04-.06.05-.06.06-.06.06-.06.07-.05.07-.05.07-.07.12-.05.15-.06.16-.06.18-.05.2-.04.21-.05.24-.03.25v.25s-.03.23-.03.23v.21s.04.21.04.21l.05.19.07.17.04.08.04.09.05.07.05.08.11.12.11.1.11.09.12.07.13.04.12.05h.15s.14,0,.14,0l.14-.02.16-.04.17-.05.18-.06.19-.07.19-.09.21-.1.24-.12-.23,2.33-.06.05-.06.04-.08.04-.08.03-.22.07-.23.05-.31.05-.32.02-.38.02h-.41s-.37-.02-.37-.02h-.18s-.17-.05-.17-.05l-.17-.05-.16-.04-.17-.07-.31-.15-.16-.1-.14-.11-.15-.11-.13-.12-.12-.14-.16-.15-.25-.29-.11-.18-.1-.17-.1-.17-.09-.19-.07-.18-.07-.19-.06-.21-.04-.2-.04-.2-.03-.21v-.21s-.02-.21-.02-.21l-.02-.22.02-.24.02-.22v-.24s.05-.24.05-.24l.05-.23.06-.22.07-.21.07-.21.09-.19.08-.19.2-.38.12-.18.12-.16.14-.17.14-.16.15-.15.16-.16.16-.13.14-.11.16-.1.15-.11.16-.1.16-.09.17-.09.18-.05.17-.06.17-.05.18-.05.19-.05.17-.03.19-.02h.2s.19-.03.19-.03l.25.02h.24s.23.03.23.03l.2.03.21.05.21.08.2.06.19.09.16.1.18.11.16.13.16.15.14.12.15.17.12.17.12.19.16-.2.2-.24.24-.26.3-.3.2-.12.19-.09.19-.08.17-.08.18-.05.17-.04h.16s.16-.03.16-.03l.19.02h.2s.2.03.2.03l.23.03.1-1.02h-12.25l-.28,2.85h-3.56l-.24.07-.22.07-.19.09-.2.09-.17.11-.15.11-.15.1-.13.13-.1.14-.13.14-.09.17-.07.16-.06.17-.05.19-.03.16v.2s-.01.29-.01.29v.09s.03.09.03.09l.02.08.04.07.04.08.04.08.04.08.06.06.05.08.07.06.07.06.06.07.09.06.15.08.16.08.18.09.18.05.19.05.2.02h.21s.24.03.24.03l.17-.02h.36s.18-.04.18-.04l.18-.04.18-.03.16-.05.18-.04.18-.07.17-.04.17-.08.18-.08.16-.07.17-.09.16-.09.16-.1.24-.14.2-.14.17-.12.16-.11.11-.12.1-.09.04-.09.05-.07.69,2.59-.34.25-.37.22-.39.24-.4.2-.4.17-.39.16-.4.12-.42.13-.4.08-.13.03,2.96,3.57-2.03,1.64-2.42-3.21-2.81,2.69-1.76-1.7,3.45-2.92-.13-.03-.43-.12-.2-.06-.2-.08-.19-.09-.2-.11-.18-.09-.18-.13-.18-.12-.18-.13-.18-.18-.18-.15-.14-.17-.14-.19-.12-.18-.1-.19-.1-.21-.07-.21-.07-.22-.05-.22-.04-.23-.02-.23v-.26s0-.24,0-.24l.02-.27.02-.28.05-.26.06-.25.07-.25.09-.25.09-.23.11-.21.14-.23.14-.2.14-.2.16-.19.19-.18.19-.18.21-.17.21-.17.23-.13.31-.18.3-.16.33-.13.29-.1.3-.08.3-.07h.14s.15-.04.15-.04h.28s1.35-.01,1.35-.01l.08-.84h-16.49l-.82,8.73h-2.81l.32-3.46h-2.7l.18-2.03h2.72l.31-3.24h-3.21l.08.08.06.12.06.1.05.1.06.1.04.12.03.1.03.13.02.12.03.14.02.12v.27s0,.13,0,.13v.14s-.02.15-.02.15l-.04.19-.03.23-.03.19-.04.18-.07.19-.06.18-.08.16-.08.17-.08.17-.08.16-.1.14-.1.13-.1.13-.13.14-.12.12-.15.11-.12.09-.14.09-.14.09-.13.08-.15.06-.14.07-.17.06-.16.05-.16.05-.18.03-.17.04h-.18s-.19.03-.19.03h-.57s-.02.17-.02.17v.17l.02.17.04.18.06.17.07.16.1.15.11.17.1.08.12.08.15.05.17.05.17.04.2.03h.21s.23.03.23.03h.34s.36-.04.36-.04l.39-.06.41-.07.33-.05.24-.03.13-.04h.05s-.21,2.15-.21,2.15l.03.02h0s-.03.02-.03.02l-.07.03-.24.05-.37.07-.24.05-.24.02-.23.02-.23.04-.22.02h-.24s-.24.01-.24.01h-.24s-.37,0-.37,0l-.37-.03-.33-.04-.32-.04-.31-.06-.28-.07-.27-.1-.23-.1-.12-.08-.11-.06-.11-.06-.1-.05-.09-.1-.08-.07-.09-.08-.08-.08-.16-.17-.05-.11-.06-.09-.07-.1-.05-.11-.05-.11-.03-.12-.11-.32-.09-.33-.06-.32-.02-.32-.03-.35.02-.33.02-.34.05-.33h-.97l.18-1.84h2.24l.16.02.14.02.15.02h.15l.36-.03.16-.02.16-.05.13-.05.13-.07.12-.08.11-.09.11-.1.09-.1.08-.13.06-.15.06-.14.05-.17.03-.18.03-.19v-.18s0-.18,0-.18l-.02-.16-.05-.16-.03-.07-.04-.07-.04-.05-.04-.06-.11-.1-.06-.06-.07-.05-.15-.09-.15-.07h-.08l-.05-.02-.08-.02h-3.75l.15-1.54h11.11l-.06-.14-.13-.26-.14-.25-.14-.24-.15-.23-.16-.21-.18-.22-.19-.22-.2-.18-.42-.37-.23-.16-.25-.17-.25-.14-.26-.15-.26-.13,1.82-1.64.17.07.18.1.19.1.17.1.17.13.17.12.18.13.17.13.2.18.2.2.19.18.2.21.17.22.19.23.16.22.19.25.33.51.15.28.17.28.15.27.15.3.14.32.08.15ZM103.69,24.67l-.03-.14-.05-.14-.04-.1-.04-.11-.05-.09-.06-.08-.05-.04-.06-.05h-2.39l.08.05.05.04.07.06.05.07.04.08.03.09.04.09.03.08.03.12v.1s.01.11.01.11l.02.12-.02.28-.04.29v.09s-.04.09-.04.09l-.03.1-.04.09-.05.08-.05.07-.06.05-.06.07-.16.1-.09.03-.09.03-.1.03-.22.02h-.12s-.08,0-.08,0h-.09s-.08-.02-.08-.02l-.06-.06-.08-.03-.07-.06-.07-.07-.05-.07-.06-.08-.05-.08-.04-.08-.03-.1-.04-.08v-.09s-.04-.07-.04-.07v-.28l.03-.17.03-.16.04-.16.05-.15.06-.12.08-.12.08-.11.1-.09.11-.07.13-.06.13-.07.15-.04.15-.02.17-.02h5.32l.15-1.59h-6.19s-.22.03-.22.03l-.22.03-.21.03-.21.05-.19.05-.19.07-.19.08-.2.1-.19.12-.2.11-.16.13-.16.15-.16.14-.14.17-.14.17-.12.19-.1.19-.09.2-.09.23-.08.22-.06.23-.05.25-.05.25v.16s-.03.17-.03.17v.17s0,.15,0,.15l.02.15.02.17.04.14.04.13.05.14.06.14.07.14.07.13.08.13.09.12.1.12.12.12.11.14.12.1.14.12.13.08.14.09.16.08.15.08.17.06.16.06.18.06.18.04.18.03.19.03.21.03h.21s.21.01.21.01h.38s.18-.01.18-.01l.17-.04h.18s.17-.07.17-.07l.17-.04.17-.05.15-.07.17-.07.16-.08.15-.08.14-.1.15-.1.14-.1.15-.1.14-.12.12-.13.11-.11.12-.13.1-.14.09-.13.1-.14.09-.12.07-.15.07-.13.05-.15.05-.15.06-.15.03-.15.02-.15.03-.18v-.23s.01-.26.01-.26l-.02-.22-.04-.25h0Z"/>
      </g>
      <path id="path5593" class="cls-2" d="M6.35,62.35h55.54V6.4H6.35v55.95Z"/>
      <g id="g5595">
        <path id="path5597" class="cls-3" d="M52.51,34.01l-10.99-10.78-2.64.02h-4.39v-1.29l4.39-.03,2.69-.04,11.78,11.99-.85.12ZM48.92,34.08l-7.39-7.18h-2.64l-4.38.02v-1.29s4.38-.04,4.38-.04l2.7-.03,8.19,8.4-.85.12ZM38.89,49.94l-4.05,4.03-.13-.86,4.18-4.3,6.54-6.75v-7.08h1.26l.06,7.14-7.86,7.81ZM38.89,45.09l2.9-3.03v-7.08h1.27l.06,7.14-4.23,4.17-4.12,4.06-.12-.85,4.24-4.41ZM29.76,36.75l-2.33-2.46,2.33-2.3,4.78-4.7,4.35,4.6,2.51,2.65-2.51,2.48-4.61,4.52-4.52-4.8ZM29.76,47.25l-2.7.02-11.78-11.98.85-.12,10.99,10.77h7.02s0,1.27,0,1.27l-4.38.05ZM19.71,35.1l7.4,7.17h2.65s4.38-.01,4.38-.01v1.29l-4.38.05-2.71.03-8.18-8.4.84-.12ZM33.98,19.68l-4.22,4.41-2.9,3.02v7.07h-1.27l-.06-7.12,4.23-4.18,4.11-4.06.11.86ZM29.76,19.23l4.06-4.02.12.85-4.17,4.31-6.54,6.74v7.07h-1.27l-.05-7.12,7.86-7.82ZM41.82,19.72v-7.78l-7.81.03-4.25,4.49-9.94,10.54h-7.47v7.64l14.43,15.03v7.39h7.35l4.76-4.79,9.78-9.86h7.22v-8.38l-14.07-14.29Z"/>
      </g>
    </g>
  </g>
</svg>