<?xml version="1.0" encoding="UTF-8"?>
<svg id="Layer_2" data-name="Layer 2" xmlns="http://www.w3.org/2000/svg" viewBox="0 0 170.83 44.49">
  <defs>
    <style>
      .cls-1 {
        fill: #004685;
      }

      .cls-1, .cls-2 {
        fill-rule: evenodd;
      }

      .cls-2 {
        fill: #ed1c2e;
      }
    </style>
  </defs>
  <g id="Layer_1-2" data-name="Layer 1">
    <g>
      <path class="cls-1" d="M21.01,35.83l-.12.12c-1.99,2.03-4.29,3.1-6.67,3.1-4.95,0-8.55-3.72-8.55-8.84s3.6-8.84,8.55-8.84c2.37,0,4.68,1.08,6.67,3.11l.12.12,3.18-3.85-.09-.1c-2.65-3.13-5.83-4.65-9.74-4.65s-7.51,1.32-10.09,3.7C1.48,22.27,0,25.91,0,30.21s1.48,7.95,4.29,10.53c2.58,2.39,6.17,3.7,10.09,3.7s7.09-1.52,9.74-4.65l.09-.1-3.18-3.86h0Z"/>
      <polygon class="cls-1" points="27.42 43.91 33.05 43.91 33.05 16.44 27.42 16.44 27.42 43.91 27.42 43.91"/>
      <path class="cls-1" d="M55.09,37.94c-1.5.91-2.9,1.38-4.16,1.38-1.82,0-2.64-.96-2.64-3.1v-14.58h5.73v-5.17h-5.73V7.92l-5.52,2.95v5.6h-4.76v5.17h4.76v15.51c0,4.22,2.5,7.11,6.24,7.19,2.54.05,4.06-.71,4.99-1.26l.06-.04,1.35-5.3-.33.2h0Z"/>
      <polygon class="cls-1" points="59.75 43.91 65.38 43.91 65.38 16.44 59.75 16.44 59.75 43.91 59.75 43.91"/>
      <path class="cls-2" d="M68.66,11.63C63.52,4.34,54.99,0,46.3,0s-17.22,4.34-22.36,11.63l-.26.37h6.47l.07-.08c4.41-4.54,10.16-6.95,16.08-6.95s11.66,2.41,16.08,6.95l.08.08h6.47l-.26-.37h0Z"/>
      <path class="cls-1" d="M76.13,22.97l-.08.1v14.21l.05.09c1.77,2.74,4.66,4.38,7.73,4.38,4.74,0,7.15-4,7.15-11.88,0-7.05-2.66-11.08-7.31-11.08-2.82,0-5.36,1.41-7.55,4.18h0ZM170.83,43.82v.1h-3.4c-.19-.39-7.12-15.06-7.12-15.06l-5.17,7.25v7.81h-3.21V7.82c.28-.16,2.45-1.41,3.21-1.83v26.2l1.75-2.73s7.87-11.4,8.88-12.85h3.52c-.75,1-6.94,9.53-6.94,9.53,0,0,7.68,16.02,8.49,17.67h0ZM106.82,44.49h-1.36c-2.77-.16-7.75-1.44-7.75-8.59,0-6.35,5.24-8.61,10.15-8.61,2.47,0,4.9.57,6.67,1.56l.53.29v-3.92c0-4.34-2.12-6.54-6.32-6.54-2.59,0-4.92.65-7.31,2-.21-.48-.96-2.13-1.16-2.59,2.5-1.32,5.59-2.06,8.73-2.06,6.23,0,9.27,2.85,9.27,8.71v19.17h-3.21v-3.98l-.62.69c-2.2,2.42-4.69,3.69-7.62,3.86h0ZM84.74,44.49h-1.27c-2.66-.16-4.83-1.32-6.8-3.59l-.62-.73v3.75h-3.21V7.82c.27-.16,2.45-1.41,3.21-1.83v14.6l.62-.68c2.37-2.61,4.99-3.88,8-3.88,6.03,0,9.48,5.02,9.48,13.78s-3.67,14.31-9.41,14.68h0ZM100.85,35.63c0,4.08,2.11,6.33,5.96,6.33,3.27,0,6.17-1.55,8.19-4.35l.06-.1v-5.98l-.18-.1c-2.05-1.17-4.15-1.64-7.24-1.64-4.25,0-6.79,2.19-6.79,5.85h0ZM128.75,19.87c1.66-2.48,4.25-3.84,7.29-3.84,6.06,0,9.27,3.86,9.27,11.17v16.71h-3.22v-16.02c0-6.22-2.16-9.11-6.84-9.11s-7.15,3.41-7.15,9.11v16.02h-3.21v-27.29h3.21v4.23l.65-.98h0Z"/>
    </g>
  </g>
</svg>