<?xml version="1.0" encoding="UTF-8"?>
<svg id="Layer_2" data-name="Layer 2" xmlns="http://www.w3.org/2000/svg" viewBox="0 0 63.85 13.99">
  <defs>
    <style>
      .cls-1 {
        fill: #eb2967;
      }

      .cls-1, .cls-2, .cls-3, .cls-4, .cls-5, .cls-6 {
        fill-rule: evenodd;
      }

      .cls-2 {
        fill: #254a9f;
      }

      .cls-3 {
        fill: #284ba0;
      }

      .cls-4 {
        fill: #234ba0;
      }

      .cls-7 {
        fill: #fff;
      }

      .cls-5 {
        fill: #ec008c;
      }

      .cls-8, .cls-6 {
        fill: #2e3192;
      }
    </style>
  </defs>
  <g id="Layer_1-2" data-name="Layer 1">
    <g>
      <polygon class="cls-6" points="13.2 0 63.85 0 63.85 9.3 13.2 9.3 13.2 0 13.2 0"/>
      <polygon class="cls-5" points="13.2 13.99 63.85 13.99 63.85 9.85 13.2 9.85 13.2 13.99 13.2 13.99"/>
      <path class="cls-1" d="M10.47,10.29h-1.61v-.45h1.67c.29,0,.28.45-.06.45h0ZM10.47,9.23h-1.61v-.45h1.62c.28,0,.25.45-.01.45h0ZM8.03,10.97h2.57c.76,0,1.06-.13,1.06-.88,0-.17-.05-.3-.12-.4-.06-.08-.14-.12-.23-.16-.05-.02-.07,0-.1-.04.06,0,.13-.06.16-.09.15-.15.18-.42.18-.65,0-.5-.39-.64-.89-.64h-2.64v2.87h0Z"/>
      <path class="cls-1" d="M0,8.84v1.35c0,.2.11.46.25.58.03.02.03.02.06.05.06.05.12.09.19.12.11.04.21.07.35.07h1.94c.26,0,.46-.11.62-.28.21-.22.22-.51.22-.81,0-.03,0-.04-.04-.04h-.84c0,.2.02.24-.09.34-.05.05-.12.07-.22.07h-1.26c-.17,0-.3-.11-.3-.28v-.93c0-.13.12-.26.26-.26h1.36c.12,0,.24.11.24.24,0,.06-.02.13.04.13h.8c.05,0,.04-.04.04-.14,0-.26-.02-.5-.2-.69-.02-.02-.03-.04-.05-.06l-.19-.14c-.09-.05-.22-.1-.35-.1H.77c-.39,0-.77.39-.77.78h0Z"/>
      <path class="cls-1" d="M3.92,10.16c0,.13.04.25.08.34.03.07.07.14.12.19l.03.03s0,0,0,0h.01c.14.16.34.27.62.27h1.97c.13,0,.25-.02.35-.06.29-.12.54-.4.54-.72v-2.11h-.89v1.89c0,.15-.13.26-.28.26h-1.38c-.15,0-.27-.14-.27-.3v-1.85h-.91v2.06h0Z"/>
      <path class="cls-3" d="M4.18,4.83v-.94c.22,0,.42-.31.42-.53.06.07.12.13.21.17.06.03.09.02.17.03.17.02.33-.14.34-.15.05-.02,0,.09.11.33.12.28.24.47.51.65.04.03.07.05.11.08.02.01.04.02.06.03l.07.03c0,.13.03.54-.08.54h-1.83c-.06,0-.1-.17-.1-.24h0ZM7.22,4.45c0-.21-.04-.39-.24-.49-.05-.03-.12-.06-.18-.06v-.36h-.1v.35c-.13,0-.28.04-.38.12-.1.08-.13.2-.13.38-.15-.03-.39-.29-.47-.39-.24-.33-.28-.68-.21-1.07.01-.06.04-.11.06-.17.02-.07.04-.09.07-.14.04-.06.05-.09.09-.14.02-.03.03-.03.05-.05l.08-.09s.02-.02.03-.03c.03-.03.03-.03.06-.05.06-.05.21-.16.29-.17.08.14.26.24.42.24.15,0,.22,0,.35-.08.04-.03.06-.05.08-.08.03-.03.06-.06.06-.12.17,0,.49.26.6.41.11.15.22.32.25.51.03.19.03.11.03.33,0,.32-.15.66-.37.88-.01.01-.02.02-.03.03,0,0-.01,0-.01.01h-.01c-.2.18-.23.17-.41.26h0ZM4.13,3.77c-.24,0-.39-.22-.39-.41,0-.21-.03-.8.03-.97.04-.13.16-.25.32-.25.09,0,.14,0,.21.06.04.03.07.07.1.12.12.2.08.69.08.98,0,.07-.02.11-.03.17-.01.05,0,.04-.02.08,0,0-.02.03-.02.03v.02s0-.02-.02.01l-.06.07s-.01,0-.01.01c-.01.01-.02.01-.03.02-.05.03-.07.06-.15.06h0ZM4.62,2.97v-.71c0-.12.04-.23.09-.31l.09-.1c.08-.06.23-.07.33-.02.29.14.21.53.21.79s.07.52-.12.71c-.03.03-.04.04-.08.06-.32.15-.51-.18-.51-.42h0ZM5.48,2.58c0-.21-.02-.46.02-.62.02-.09.05-.16.11-.21.12-.12.14-.12.29-.12.12,0,.25.15.28.3-.29.15-.45.26-.64.55-.03.04-.04.08-.07.11h0ZM6.33,1.88v-.48c0-.18.21-.3.33-.3.16,0,.27.01.36.18.06.1.03.42.03.58,0,.08-.05.18-.11.23-.19.16-.63.07-.63-.22h0ZM6.19,1.63s-.03-.03-.06-.05c-.41-.28-.73.12-.74.29-.02-.01-.25-.36-.63-.16-.07.04-.07.05-.12.1,0,0-.01.01-.02.02-.04.04-.07.09-.09.15l-.06.2s-.26-.35-.63-.11c-.3.2-.26.65-.26.99,0,.08.01.1.01.17,0,.17,0,.18.04.32.05.16.23.35.38.35,0,.13.01.23.01.37,0,.22-.06.95.24.95h1.85c.12,0,.17-.18.18-.26.02-.24-.02-.72.07-.83.03-.03.02-.03.06-.05l.03-.02s.01,0,.04-.02c.13-.05.4-.03.5.12.06.09.04.25.04.41,0,.16.01.28.01.44v.99h.14v-1.42c.22-.05.54-.28.68-.48.3-.41.39-.87.22-1.36-.1-.29-.4-.66-.7-.78-.07-.03-.12-.07-.21-.09,0-.28.06-.68-.2-.83-.17-.1-.37-.12-.55-.03-.29.14-.27.36-.27.62h0Z"/>
      <path class="cls-4" d="M5.71.37c.45,0,.59,0,1.05.11.27.07.39.13.62.23.35.15.72.44.99.71.25.25.38.44.55.72.45.76.58,1.74.36,2.61-.03.12-.06.21-.1.33-.04.12-.08.2-.13.31-.04.1-.1.19-.15.28-.06.1-.11.18-.17.27-.14.18-.22.3-.39.47-.04.04-.06.06-.11.1-.19.15-.24.22-.48.38-.16.1-.39.23-.57.29-.05.02-.1.04-.16.06-1.01.34-2.01.24-2.93-.27-.54-.3-.99-.78-1.3-1.31-.16-.27-.3-.63-.37-.93-.07-.3-.08-.48-.1-.77l.02-.4c.03-.32.13-.76.27-1.04.15-.3.31-.62.54-.87l.1-.12c.05-.05.07-.09.16-.17.14-.11.16-.15.36-.3.17-.13.35-.23.54-.33.32-.16.9-.35,1.39-.35h0ZM2.17,3.9c0,1.1.49,2.01,1.05,2.56.08.08.14.16.23.22.33.25.36.31.81.54.4.2.98.36,1.45.36.52,0,.91-.03,1.39-.21.55-.21.95-.45,1.36-.86.37-.37.67-.83.86-1.34.33-.92.3-1.98-.13-2.84-.17-.34-.34-.6-.58-.88l-.17-.17c-.23-.23-.49-.42-.77-.58-.05-.03-.1-.05-.15-.08-.05-.03-.11-.05-.16-.07-.56-.28-1.3-.36-1.91-.29-.3.03-.64.12-.93.23-.05.02-.1.05-.16.07-.27.11-.7.39-.92.59l-.18.17c-.08.08-.14.15-.21.24-.07.09-.14.17-.2.26-.41.62-.67,1.26-.67,2.11h0Z"/>
      <path class="cls-4" d="M6.66,6.06h-.31v-.21c.12,0,.25-.01.36.01,0,.02.05.19-.05.19h0ZM6.36,5.49h.3s.05.06.05.1v.08h-.35v-.18h0ZM6.03,5.36v.85s0,.04.04.04h.69c.29,0,.24-.15.24-.36,0-.09-.06-.08-.08-.14.13-.03.07-.34.04-.39-.02-.03-.08-.04-.14-.04h-.76s-.04,0-.04.04h0Z"/>
      <path class="cls-3" d="M4.76,6.08c0,.12.07.17.19.17h.66c.08,0,.14-.06.15-.13v-.56c0-.26.13-.23-.31-.23v.73h-.37c0-.13-.01-.21-.01-.35v-.39h-.31v.76h0Z"/>
      <path class="cls-4" d="M3.54,5.58v.42c0,.14.04.24.18.24s.6.02.7-.02c.06-.02.07-.04.08-.07.02-.05.03-.22.03-.29h-.31v.19h-.36v-.55h.36v.15h.31c0-.08-.03-.26-.05-.31-.04-.04-.67-.03-.77-.03-.15,0-.17.11-.17.26h0Z"/>
      <path class="cls-4" d="M6.43,2.94l.32.46.3-.46-.04-.05c-.06-.09-.22-.37-.28-.41-.02.06-.11.18-.14.23l-.15.23h0Z"/>
      <path class="cls-2" d="M6.79,3.51h.53c.05-.07.08-.15.13-.23.03-.05.12-.19.13-.23h-.54c-.02.07-.22.37-.24.46h0Z"/>
      <path class="cls-2" d="M6.16,3.51h.53c-.02-.08-.22-.38-.24-.46h-.54s.16.29.19.35c.02.04.04.08.07.11h0Z"/>
      <path class="cls-8" d="M1.14,11.7h-.25v.77h-.09v-.77h-.25v-.09h.59v.09h0ZM1.47,11.96s-.04-.02-.07-.02c-.04,0-.08.02-.11.06s-.04.09-.04.16v.31h-.09v-.61h.09v.13h0s.04-.08.06-.1c.03-.02.06-.04.1-.04.03,0,.05,0,.06,0v.1h0ZM2.07,12.47h-.09v-.1h0c-.04.07-.1.11-.19.11-.15,0-.22-.09-.22-.26v-.37h.09v.35c0,.13.05.2.15.2.05,0,.09-.02.12-.05.03-.04.05-.08.05-.14v-.35h.09v.61h0ZM2.23,12.35c.05.04.11.06.18.06.09,0,.13-.03.13-.09,0-.03,0-.05-.03-.06-.02-.02-.06-.03-.11-.06-.07-.03-.11-.05-.13-.08-.02-.03-.03-.06-.03-.1,0-.05.02-.09.07-.13.04-.03.1-.05.17-.05.05,0,.1,0,.14.03v.1s-.1-.04-.16-.04c-.04,0-.07,0-.09.02-.02.02-.03.04-.03.06s0,.05.02.06c.02.01.05.03.11.05.07.03.12.05.14.08.02.03.04.06.04.1,0,.05-.02.1-.07.13-.04.03-.1.05-.17.05-.06,0-.12-.01-.16-.04v-.1h0ZM3.06,12.47s-.05.02-.09.02c-.1,0-.16-.06-.16-.18v-.37h-.11v-.08h.11v-.15l.09-.03v.18h.15v.08h-.15v.35s0,.07.02.09.04.03.07.03c.03,0,.05,0,.06-.02v.08h0ZM3.49,11.91c.06-.04.13-.06.21-.06.14,0,.21.08.21.23v.4h-.09v-.1h0c-.04.07-.1.11-.19.11-.06,0-.11-.02-.14-.05-.04-.03-.05-.07-.05-.13,0-.11.07-.18.2-.2l.18-.03c0-.11-.04-.16-.13-.16-.07,0-.14.03-.2.08v-.1h0ZM3.67,12.18c-.05,0-.09.02-.11.04-.02.02-.03.05-.03.08,0,.03.01.05.03.07.02.02.05.03.09.03.05,0,.09-.02.12-.05.03-.04.05-.08.05-.13v-.06l-.15.02h0ZM4.6,12.47h-.09v-.35c0-.13-.05-.2-.14-.2-.05,0-.09.02-.12.06-.03.04-.05.08-.05.14v.35h-.09v-.61h.09v.1h0c.05-.08.11-.12.2-.12.07,0,.12.02.15.06.04.04.05.11.05.19v.37h0ZM5.3,12.47h-.09v-.11h0c-.05.08-.12.12-.21.12-.08,0-.14-.03-.18-.08-.05-.06-.07-.13-.07-.22,0-.1.03-.18.08-.24.05-.06.12-.09.2-.09s.15.03.18.1h0v-.38h.09v.9h0ZM5.21,12.11c0-.05-.02-.09-.05-.13-.03-.03-.08-.05-.13-.05-.06,0-.11.02-.14.07-.03.05-.05.11-.05.18,0,.07.02.13.05.17.03.04.08.06.13.06s.1-.02.13-.06c.04-.04.05-.09.05-.15v-.09h0ZM6.24,12.47h-.45v-.86h.43v.09h-.34v.29h.31v.09h-.31v.31h.36v.09h0ZM6.84,11.86l-.21.31.2.3h-.11l-.12-.2s-.02-.03-.03-.05h0s0,.02-.03.05l-.12.2h-.11l.21-.3-.2-.31h.11l.15.26h0s0-.01.01-.02l.14-.24h.1ZM7.36,12.44s-.1.04-.17.04c-.09,0-.16-.03-.21-.08-.05-.06-.08-.13-.08-.22,0-.1.03-.18.09-.24.06-.06.13-.09.23-.09.05,0,.1,0,.14.03v.1s-.09-.05-.15-.05c-.06,0-.11.02-.16.07-.04.05-.06.11-.06.18s.02.13.06.17c.04.04.09.06.15.06.05,0,.1-.02.15-.05v.09h0ZM7.99,12.19h-.43c0,.07.02.12.06.16.04.04.08.06.15.06.07,0,.13-.02.19-.07v.09c-.05.04-.12.06-.21.06s-.15-.03-.2-.08c-.05-.06-.07-.13-.07-.23,0-.09.03-.17.08-.23.05-.06.12-.09.2-.09s.14.03.18.08c.04.05.07.12.07.22v.05h0ZM7.9,12.11c0-.06-.01-.1-.04-.13-.03-.03-.07-.05-.11-.05-.04,0-.08.02-.12.05-.03.03-.06.08-.06.13h.34ZM8.14,12.47v-.9h.09v.9h-.09ZM8.44,12.47v-.9h.09v.9h-.09ZM9.22,12.19h-.43c0,.07.02.12.06.16.04.04.08.06.15.06.07,0,.13-.02.19-.07v.09c-.05.04-.12.06-.21.06s-.15-.03-.2-.08c-.05-.06-.07-.13-.07-.23,0-.09.03-.17.08-.23.05-.06.12-.09.2-.09s.14.03.18.08c.04.05.07.12.07.22v.05h0ZM9.12,12.11c0-.06-.01-.1-.04-.13-.03-.03-.07-.05-.11-.05-.04,0-.08.02-.12.05s-.06.08-.06.13h.34ZM9.87,12.47h-.09v-.35c0-.13-.05-.2-.14-.2-.05,0-.09.02-.12.06-.03.04-.05.08-.05.14v.35h-.09v-.61h.09v.1h0c.05-.08.11-.12.2-.12.07,0,.12.02.15.06.04.04.05.11.05.19v.37h0ZM10.47,12.44s-.1.04-.17.04c-.09,0-.16-.03-.21-.08-.05-.06-.08-.13-.08-.22,0-.1.03-.18.09-.24.06-.06.13-.09.23-.09.05,0,.1,0,.14.03v.1s-.09-.05-.15-.05c-.06,0-.11.02-.16.07-.04.05-.06.11-.06.18s.02.13.06.17c.04.04.09.06.15.06.05,0,.1-.02.15-.05v.09h0ZM11.11,12.19h-.43c0,.07.02.12.06.16.04.04.08.06.15.06.07,0,.13-.02.19-.07v.09c-.05.04-.12.06-.21.06s-.15-.03-.2-.08c-.05-.06-.07-.13-.07-.23,0-.09.03-.17.08-.23.05-.06.12-.09.2-.09s.14.03.18.08c.04.05.07.12.07.22v.05h0ZM11.01,12.11c0-.06-.01-.1-.04-.13-.03-.03-.07-.05-.11-.05-.04,0-.08.02-.12.05-.03.03-.06.08-.06.13h.34ZM2.84,13.83s.06.04.1.05c.05.01.09.02.13.02.12,0,.19-.05.19-.14,0-.03,0-.05-.02-.07-.01-.02-.03-.04-.05-.05-.02-.01-.07-.04-.13-.07-.09-.05-.15-.09-.18-.12-.02-.04-.04-.08-.04-.12,0-.07.03-.12.08-.17.06-.04.13-.06.21-.06s.15.01.18.03v.11s-.11-.05-.19-.05c-.05,0-.1.01-.13.03-.03.02-.05.06-.05.1,0,.03,0,.05.02.07.01.02.03.04.05.05.02.01.06.04.12.07.08.04.14.08.18.12.03.04.05.08.05.13,0,.07-.03.13-.08.17-.05.04-.13.06-.22.06-.03,0-.07,0-.11-.01-.05,0-.08-.02-.1-.03v-.11h0ZM3.7,13.2h-.08v.69h.08v.08h-.26v-.08h.08v-.69h-.08v-.08h.26v.08h0ZM4.53,13.98h-.12l-.45-.69s-.02-.03-.03-.05h0s0,.06,0,.12v.63h-.09v-.86h.12l.43.68s.03.05.03.06h0s0-.07,0-.13v-.61h.09v.86h0ZM5.34,13.94c-.06.03-.14.05-.24.05-.12,0-.22-.04-.29-.12-.07-.08-.11-.18-.11-.31s.04-.24.12-.33c.08-.09.19-.13.31-.13.08,0,.15.01.2.04v.1c-.06-.03-.13-.05-.2-.05-.1,0-.18.03-.24.1-.06.07-.09.16-.09.26,0,.1.03.19.08.25.06.06.13.1.23.1.09,0,.16-.02.22-.06v.09h0ZM5.96,13.98h-.45v-.86h.43v.09h-.34v.29h.31v.09h-.31v.31h.36v.09h0ZM6.88,13.98h-.48v-.08h.19v-.67l-.2.06v-.09l.29-.09v.79h.19v.08h0ZM7.06,13.87s.1.04.15.04c.08,0,.14-.03.18-.1.04-.06.07-.15.07-.27,0,0,0,0,0,0-.04.07-.1.11-.19.11-.07,0-.13-.03-.18-.08-.05-.05-.07-.11-.07-.19,0-.08.02-.15.07-.2.05-.05.12-.08.2-.08.09,0,.15.03.2.1s.07.16.07.29c0,.16-.03.28-.09.36-.06.09-.15.13-.26.13-.06,0-.11,0-.15-.03v-.09h0ZM7.1,13.38c0,.06.02.11.05.14.03.04.07.05.13.05.05,0,.09-.02.12-.05.03-.03.05-.07.05-.12,0-.06-.02-.12-.05-.16-.03-.04-.07-.06-.13-.06-.05,0-.09.02-.12.06-.03.04-.05.08-.05.14h0ZM7.66,13.57c0-.15.02-.27.07-.34.05-.08.12-.12.21-.12.18,0,.27.15.27.44,0,.14-.02.25-.07.33-.05.08-.12.12-.21.12-.09,0-.15-.04-.2-.11-.05-.07-.07-.18-.07-.31h0ZM7.75,13.56c0,.23.06.35.18.35s.18-.12.18-.36-.06-.37-.18-.37c-.13,0-.19.13-.19.38h0ZM8.88,13.75h-.11v.23h-.09v-.23h-.4v-.06l.38-.57h.11v.55h.11v.08h0ZM8.68,13.67v-.38s0-.06,0-.09h0s-.01.03-.03.07l-.27.4h.3Z"/>
      <path class="cls-7" d="M16.37,5.89h-1.37v1.86h1.37v-.63l.51.14v.35c0,.27-.04.45-.11.55-.07.1-.22.15-.43.15h-1.3c-.21,0-.35-.05-.43-.15-.07-.1-.11-.28-.11-.55v-1.55c0-.27.04-.45.11-.55.07-.1.22-.15.43-.15h1.3c.21,0,.35.05.43.15.08.1.11.28.11.55v.28l-.51.11v-.55h0ZM17.66,8.3v-2.4h.43v2.4h-.43ZM19.85,6.32v1.97h-.44v-1.97h-.86v-.43h2.16v.43h-.86ZM21.84,8.3v-1.08l-.98-1.32h.59l.64.9.65-.9h.51l-.97,1.31v1.09h-.43ZM25.87,5.36v2.38h1.45v-2.38h.51v2.24c0,.27-.04.45-.11.55-.07.1-.22.15-.43.15h-1.38c-.21,0-.35-.05-.43-.15-.08-.1-.11-.28-.11-.55v-2.24h.51ZM28.68,8.3v-2.4h.3l1.52,1.59v-1.59h.39v2.4h-.3l-1.51-1.62v1.62h-.4ZM31.58,8.3v-2.4h.43v2.4h-.43ZM33.1,7.84h1.44v-1.5h-1.44v1.5h0ZM32.66,6.46c0-.22.03-.37.1-.45.06-.08.19-.12.37-.12h1.38c.18,0,.31.04.37.12.06.08.09.23.09.45v1.27c0,.22-.03.37-.1.45-.06.08-.19.12-.37.12h-1.38c-.18,0-.31-.04-.37-.12-.06-.08-.1-.23-.1-.45v-1.27h0ZM35.62,8.3v-2.4h.3l1.52,1.59v-1.59h.39v2.4h-.3l-1.51-1.62v1.62h-.4ZM41.97,5.84h-1.16v.7h1.16c.09,0,.15-.02.18-.05.03-.03.05-.09.05-.16v-.28c0-.08-.02-.13-.05-.16-.03-.03-.09-.05-.18-.05h0ZM41.97,7.02h-1.16v.75h1.16c.1,0,.16-.02.19-.06.03-.04.05-.11.05-.2v-.22c0-.1-.02-.17-.05-.2-.03-.04-.1-.06-.19-.06h0ZM40.32,8.3v-2.93h1.87c.17,0,.3.05.37.14.08.09.12.23.12.43v.36c0,.14-.03.25-.1.34-.06.08-.16.14-.28.16.13.02.22.08.29.18.07.1.1.23.1.38v.37c0,.19-.05.34-.16.43-.11.09-.27.14-.48.14h-1.73ZM43.14,8.3l1.06-2.4h.42l1.08,2.4h-.49l-.23-.53h-1.18l-.23.53h-.44ZM43.98,7.33h.82l-.42-1-.4,1h0ZM46.03,8.3v-2.4h.3l1.52,1.59v-1.59h.39v2.4h-.3l-1.51-1.62v1.62h-.4ZM48.94,8.3v-2.4h.44v.97l1.04-.97h.63l-1.24,1.11,1.37,1.29h-.69l-1.12-1.08v1.08h-.44ZM53.25,8.3v-2.93h.51v2.38h1.64v.55h-2.14ZM56.94,6.32v1.97h-.44v-1.97h-.86v-.43h2.16v.43h-.86ZM58.7,7.85h.56c.31,0,.52-.06.64-.18.12-.12.18-.32.18-.61,0-.25-.05-.43-.15-.55-.1-.12-.26-.18-.47-.18h-.77v1.52h0ZM58.26,8.3v-2.4h1.2c.35,0,.61.1.8.31.19.21.28.5.28.88,0,.4-.1.71-.29.91-.2.2-.49.3-.89.3h-1.09Z"/>
    </g>
  </g>
</svg>