<?xml version="1.0" encoding="UTF-8"?>
<!DOCTYPE svg PUBLIC "-//W3C//DTD SVG 1.1//EN" "http://www.w3.org/Graphics/SVG/1.1/DTD/svg11.dtd">
<!-- Creator: CorelDRAW X7 -->
<svg xmlns="http://www.w3.org/2000/svg" xml:space="preserve" width="20cm" height="10cm" version="1.1" style="shape-rendering:geometricPrecision; text-rendering:geometricPrecision; image-rendering:optimizeQuality; fill-rule:evenodd; clip-rule:evenodd"
viewBox="0 0 20000 10000"
 xmlns:xlink="http://www.w3.org/1999/xlink">
 <defs>
  <style type="text/css">
   <![CDATA[
    .fil1 {fill:black}
    .fil0 {fill:#EB1B23}
    .fil2 {fill:#FEFEFE}
   ]]>
  </style>
 </defs>
 <g id="Layer_x0020_1">
  <metadata id="CorelCorpID_0Corel-Layer"/>
  <g id="_663428104">
   <path class="fil0" d="M5578 6360c7,32 64,73 95,127 -30,-19 -59,-47 -88,-72 -130,-108 -1093,-920 -1163,-963 -310,-193 -475,-8 -673,151 -92,73 -1042,875 -1065,882 10,-9 21,-26 35,-42 121,-135 292,-347 413,-491l299 -354c49,-62 101,-116 150,-177 76,-94 229,-237 227,-424 -2,-196 -152,-319 -230,-421 -47,-62 -100,-117 -150,-178l-449 -531c-51,-59 -98,-122 -149,-178 -26,-29 -51,-62 -75,-89 -17,-19 -61,-77 -77,-85 41,8 637,523 714,585l357 298c97,77 235,229 424,233 170,3 311,-122 431,-227l356 -298c122,-97 235,-199 357,-298l356 -295c-21,40 -103,125 -136,167 -45,59 -95,112 -143,170 -96,113 -190,226 -286,340 -50,59 -95,109 -143,169 -49,60 -95,109 -144,169 -98,122 -210,224 -254,371 -75,248 144,436 289,616l288 338c24,29 44,55 71,85l338 402c13,13 11,11 25,20zm985 -2856c-4,-64 -51,-125 -84,-166 -99,-122 -271,-190 -433,-137 -35,11 -61,25 -95,33 101,-190 60,-364 -87,-510 -168,-167 -359,-113 -529,-28 -143,72 -355,162 -510,201 -259,65 -366,74 -645,74 -459,0 -746,-71 -1154,-275 -202,-101 -346,-127 -530,27 -131,110 -176,291 -114,453 9,23 22,39 28,65 -76,-40 -175,-74 -291,-49 -88,18 -174,72 -227,129 -100,109 -138,257 -86,402 76,210 161,282 260,630 101,357 102,902 3,1283 -28,107 -99,289 -145,389 -65,140 -141,244 -140,400 1,222 233,430 491,384 61,-11 92,-33 142,-50 -108,152 -72,391 75,515 278,235 458,48 774,-78 82,-33 175,-69 264,-91 263,-66 362,-76 643,-76 352,0 583,31 906,161l251 112c123,61 266,124 420,52 227,-107 321,-361 201,-588 97,23 256,123 456,-34 109,-86 199,-246 167,-374 -10,-38 2,-16 -19,-32 15,-39 -35,-128 -52,-161 -147,-294 -222,-491 -271,-831 -18,-128 -11,-295 -11,-437 0,-396 106,-709 275,-1047 26,-51 50,-99 65,-155 9,-31 31,-174 2,-191z"/>
   <path class="fil1" d="M12792 4890l277 28c686,95 1081,441 1081,1145 0,147 -28,309 -70,413 -233,574 -800,481 -1288,482 -98,0 -192,-6 -259,-40 -82,-41 -76,-107 -76,-223 0,-99 0,-199 0,-298 0,-102 7,-185 7,-292 0,-99 1,-199 0,-298 0,-58 8,-85 8,-142 -2,-341 14,-689 14,-1031l7 -441c0,-49 7,-84 7,-142 0,-203 8,-385 7,-590 0,-57 8,-84 7,-142 0,-49 0,-100 0,-149 1,-114 51,-135 164,-135 232,0 521,-18 725,64 286,114 421,319 472,630 36,224 23,422 -81,621 -48,93 -123,178 -206,242 -171,130 -378,205 -593,238 -169,26 -202,-2 -203,60zm-1415 -1983c0,27 30,23 56,28 187,41 228,210 228,398 0,339 0,678 0,1017 0,630 -11,1264 -7,1898 0,51 -8,71 -7,120 1,253 48,588 -211,678 -39,14 -62,17 -102,26l0 50 2510 0c166,0 345,-41 468,-87 169,-62 225,-111 351,-211 80,-63 184,-233 223,-331 117,-288 121,-640 -16,-923 -161,-336 -426,-513 -756,-645 -39,-15 -174,-62 -220,-63l0 -15c24,-5 47,-20 75,-31 141,-58 348,-211 456,-319 23,-22 30,-34 50,-56l95 -126c51,-86 75,-131 103,-231 81,-284 7,-657 -184,-863 -133,-144 -305,-235 -498,-283 -141,-34 -296,-59 -467,-59l-2147 0 0 28z"/>
   <path class="fil1" d="M8916 6965c-160,0 -468,11 -551,-110 -65,-96 -22,-478 -42,-612 -18,-116 3,-2081 3,-2348 0,-112 5,-624 19,-720 21,-145 56,-133 230,-133 760,0 1279,170 1619,848 124,249 178,493 224,764 36,214 41,402 41,620 0,427 -138,894 -387,1226 -112,150 -259,289 -456,354 -206,68 -430,111 -700,111zm-1678 -4037c118,10 232,94 267,216 16,53 25,263 24,339 0,48 8,65 8,113 -1,164 7,309 7,477 0,84 7,146 7,234l-18 2235c-9,59 -6,141 -11,202 -4,58 -8,141 -35,179 -27,39 -72,71 -117,96 -33,18 -118,49 -160,53l0 50 2282 0c152,0 309,-35 426,-72 58,-19 126,-42 181,-68 61,-30 114,-53 170,-86 81,-50 147,-89 220,-149 240,-198 424,-410 563,-689 101,-203 180,-448 213,-676 9,-63 22,-151 26,-222 2,-40 -3,-87 1,-127 7,-55 -8,-306 -14,-350 -53,-422 -170,-740 -431,-1069 -180,-228 -453,-426 -715,-544 -119,-53 -232,-95 -374,-130 -127,-32 -290,-61 -444,-61l-2076 0 0 49z"/>
   <path class="fil1" d="M15117 4044c0,222 81,433 199,590 112,149 261,277 429,360 210,105 357,151 580,217 238,70 620,137 797,262 43,30 105,86 135,128 120,168 135,285 135,497 0,128 -49,292 -92,377 -55,109 -115,196 -207,269 -76,60 -61,47 -140,95 -177,107 -436,133 -656,133 -360,0 -600,-101 -838,-278 -164,-121 -199,-208 -250,-425 -31,-1 -22,-5 -50,-7 0,140 5,287 1,426l-8 206c0,66 -14,192 22,192 82,0 23,-99 170,-99l252 61c162,40 356,73 527,98 348,50 819,32 1135,-66 650,-201 959,-599 959,-1273 0,-635 -409,-1002 -977,-1163 -263,-74 -576,-118 -841,-225 -185,-74 -363,-173 -432,-372 -110,-316 9,-669 273,-856 454,-320 1443,-203 1646,396 21,63 3,66 68,66 0,-138 -7,-260 -7,-391 0,-63 3,-136 0,-199 -2,-34 -8,-48 -7,-92 0,-23 8,-85 -14,-85 -42,0 -46,30 -81,47 -100,52 -235,6 -324,-12 -105,-21 -325,-59 -434,-64 -127,-5 -197,-21 -349,-21 -48,0 -77,-4 -114,-7l-234 14c-110,5 -313,46 -419,79 -261,83 -447,193 -604,385 -156,190 -250,476 -250,737z"/>
   <path class="fil2" d="M5578 6360c-14,-9 -12,-7 -25,-20l-338 -402c-27,-30 -47,-56 -71,-85l-288 -338c-145,-180 -364,-368 -289,-616 44,-147 156,-249 254,-371 49,-60 95,-109 144,-169 48,-60 93,-110 143,-169 96,-114 190,-227 286,-340 48,-58 98,-111 143,-170 33,-42 115,-127 136,-167l-356 295c-122,99 -235,201 -357,298l-356 298c-120,105 -261,230 -431,227 -189,-4 -327,-156 -424,-233l-357 -298c-77,-62 -673,-577 -714,-585 16,8 60,66 77,85 24,27 49,60 75,89 51,56 98,119 149,178l449 531c50,61 103,116 150,178 78,102 228,225 230,421 2,187 -151,330 -227,424 -49,61 -101,115 -150,177l-299 354c-121,144 -292,356 -413,491 -14,16 -25,33 -35,42 23,-7 973,-809 1065,-882 198,-159 363,-344 673,-151 70,43 1033,855 1163,963 29,25 58,53 88,72 -31,-54 -88,-95 -95,-127z"/>
  </g>
 </g>
</svg>
