<?xml version="1.0" encoding="UTF-8"?>
<svg id="Layer_2" data-name="Layer 2" xmlns="http://www.w3.org/2000/svg" viewBox="0 0 53.65 24.48">
  <defs>
    <style>
      .cls-1 {
        fill: #353893;
        fill-rule: evenodd;
      }
    </style>
  </defs>
  <g id="Layer_1-2" data-name="Layer 1">
    <g>
      <path class="cls-1" d="M20.04,0h13.58v13.58h-13.58V0h0ZM21.93,1.87v9.81h9.78V1.87h-9.78Z"/>
      <polygon class="cls-1" points="23.08 10.26 27.98 3.05 30.62 2.99 25.57 10.26 23.08 10.26 23.08 10.26"/>
      <path class="cls-1" d="M0,24.4v-5.51h2.35c.75,0,1.31.29,1.74.88.35.51.53,1.12.53,1.87s-.19,1.37-.59,1.9c-.43.56-.99.86-1.68.86H0ZM1.15,19.88v3.53h1.07c.43,0,.72-.18.94-.53.19-.32.27-.72.27-1.23,0-.43-.08-.83-.27-1.15-.21-.43-.53-.62-.94-.62h-1.07ZM7.94,23.11h1.07c-.08.45-.32.78-.69,1.04-.32.22-.72.32-1.2.32-.56,0-1.01-.21-1.36-.62-.37-.4-.56-.91-.56-1.55,0-.56.19-1.04.54-1.42.37-.37.83-.59,1.39-.59.8,0,1.34.29,1.63.86.11.18.19.43.24.67.05.27.08.53.08.83h-2.78c0,.21.08.4.21.59.19.21.38.32.62.32.19,0,.38-.05.51-.11.16-.08.27-.19.32-.35h0ZM6.28,21.96h1.66c0-.19-.08-.37-.24-.51-.19-.16-.37-.24-.59-.24s-.4.08-.56.24c-.19.13-.27.32-.27.51h0ZM9.73,20.39h1.07v2.65c0,.13.08.27.19.37.13.11.29.16.46.16.21,0,.4-.05.56-.18.16-.16.24-.32.24-.51v-2.49h1.04v4.01h-1.04v-.51c-.32.4-.72.59-1.2.59-.35,0-.64-.11-.88-.27-.27-.19-.43-.46-.43-.78v-3.05h0ZM15.4,19.24v1.15h.61v.75h-.61v2.06c0,.08.05.16.11.21.05.05.13.08.24.08h.16c.05-.03.08-.03.11-.03v.94c-.13.03-.27.05-.35.05-.11.03-.24.03-.43.03-.27,0-.45-.08-.64-.27-.16-.16-.24-.35-.24-.59v-2.49h-.53v-.75h.53v-.53l1.04-.62h0ZM16.47,23.03h1.07c0,.19.05.35.21.46.13.11.32.16.53.16.19,0,.35-.03.45-.08.13-.05.22-.18.22-.34,0-.22-.19-.38-.62-.48-.69-.19-1.1-.29-1.15-.35-.43-.18-.64-.45-.64-.83s.16-.67.45-.91c.29-.24.69-.35,1.18-.35s.85.11,1.18.32c.35.24.54.56.54,1.01h-.99c-.03-.16-.11-.29-.24-.37-.13-.08-.29-.13-.48-.13-.16,0-.29.05-.4.11-.11.08-.16.16-.16.29,0,.16.21.29.62.38.62.11,1.02.18,1.15.27.43.19.64.51.64.96s-.19.8-.56,1.02c-.32.22-.69.32-1.18.32-.53,0-.96-.13-1.31-.4-.34-.24-.51-.59-.51-1.04h0ZM22.51,24.48c-.56,0-1.02-.21-1.39-.62-.34-.4-.53-.91-.53-1.55,0-.54.19-1.02.56-1.42.37-.37.83-.59,1.36-.59.48,0,.91.16,1.25.45.38.27.56.64.56,1.07h-1.07c0-.19-.08-.32-.22-.43-.16-.13-.32-.19-.53-.19-.27,0-.46.11-.62.32-.13.19-.22.45-.22.78,0,.37.08.67.22.91.16.21.35.34.62.34.19,0,.37-.08.51-.21.16-.13.24-.27.24-.45h1.07c0,.45-.18.85-.56,1.15-.37.27-.77.43-1.25.43h0ZM25.02,18.89h1.07v1.93c.14-.19.32-.32.54-.4.21-.05.45-.11.69-.11.35,0,.67.11.94.32.27.19.4.48.4.8v2.97h-1.04v-2.51c0-.21-.08-.38-.19-.48-.11-.11-.27-.16-.45-.16-.21,0-.43.06-.61.19-.16.13-.27.29-.27.51v2.46h-1.07v-5.51h0ZM32.1,23.11h1.04c-.08.45-.32.78-.7,1.04-.32.22-.72.32-1.18.32-.56,0-1.02-.21-1.39-.62-.38-.4-.54-.91-.54-1.55,0-.56.16-1.04.54-1.42.35-.37.83-.59,1.39-.59.78,0,1.31.29,1.6.86.14.18.22.43.27.67.05.27.05.53.05.83h-2.78c0,.21.08.4.24.59.16.21.38.32.61.32.19,0,.35-.05.51-.11.13-.08.24-.19.32-.35h0ZM30.42,21.96h1.69c0-.19-.11-.37-.27-.51-.16-.16-.35-.24-.56-.24s-.43.08-.59.24c-.16.13-.27.32-.27.51h0ZM35.84,24.4v-5.51h2.81c.4,0,.75.13,1.02.43.29.29.45.64.45,1.07,0,.24-.05.45-.16.67-.13.22-.32.38-.53.48.27.1.48.29.67.51.16.24.24.48.24.75,0,.45-.16.83-.45,1.12-.29.32-.62.48-1.04.48h-3ZM36.97,19.88v1.18h1.36c.19,0,.35-.05.48-.16.13-.11.19-.24.19-.4,0-.19-.05-.32-.19-.45-.13-.11-.27-.16-.45-.16h-1.39ZM36.97,22.05v1.36h1.44c.21,0,.37-.05.53-.21.13-.13.21-.29.21-.48s-.08-.35-.21-.48c-.16-.13-.32-.18-.53-.18h-1.44ZM42.21,21.59h-1.07c0-.43.19-.75.54-.99.32-.19.69-.29,1.15-.29.62,0,1.07.11,1.36.29.24.19.37.4.37.7v2.46c0,.24.08.46.24.64h-1.1c-.05-.08-.11-.13-.13-.22-.03-.05-.05-.13-.08-.24-.13.19-.32.32-.53.4-.19.08-.43.13-.72.13-.38,0-.67-.13-.88-.35-.24-.24-.38-.54-.38-.86s.11-.61.29-.83c.19-.22.45-.35.8-.4.62-.11.91-.16.94-.16.32-.08.48-.19.48-.29,0-.16-.05-.29-.18-.35-.11-.08-.27-.11-.48-.11-.19,0-.32.05-.45.11-.11.08-.16.19-.16.35h0ZM43.49,23.03v-.62c-.34.05-.61.13-.83.19-.4.11-.59.29-.59.53,0,.19.03.29.13.38.1.08.24.11.43.11s.38-.06.54-.16c.16-.08.27-.24.32-.43h0ZM45.5,20.39h1.07v.45c.13-.16.3-.29.51-.4.24-.08.46-.14.64-.14.37,0,.67.11.93.27.27.21.43.48.43.8v3.02h-1.07v-2.65c0-.16-.05-.29-.16-.38-.13-.11-.27-.13-.43-.13-.22,0-.38.03-.51.11-.13.11-.24.22-.35.4v2.65h-1.07v-4.01h0ZM49.93,18.89h1.07v2.94l1.23-1.44h1.28l-1.31,1.53,1.45,2.49h-1.26l-.91-1.71-.48.51v1.2h-1.07v-5.51h0Z"/>
    </g>
  </g>
</svg>