<?xml version="1.0" encoding="UTF-8"?>
<svg id="Layer_2" data-name="Layer 2" xmlns="http://www.w3.org/2000/svg" viewBox="0 0 365 71.29">
  <defs>
    <style>
      .cls-1 {
        fill: #504;
      }
    </style>
  </defs>
  <g id="Layer_1-2" data-name="Layer 1">
    <g>
      <path class="cls-1" d="M0,17.94h7.31c4.71,0,8.2.58,10.5,1.75,2.28,1.16,4.17,3.07,5.66,5.69,1.47,2.63,2.22,5.7,2.22,9.2,0,2.49-.42,4.78-1.25,6.88-.82,2.09-1.97,3.83-3.42,5.2-1.47,1.38-3.05,2.33-4.74,2.86-1.7.52-4.65.79-8.84.79H0V17.94ZM6.14,23.88v20.43h2.85c2.81,0,4.85-.32,6.12-.97,1.28-.64,2.31-1.73,3.12-3.26.81-1.53,1.21-3.41,1.21-5.63,0-3.44-.96-6.11-2.89-8-1.73-1.7-4.51-2.56-8.34-2.56h-2.08Z"/>
      <path class="cls-1" d="M74.81,26.37h6.01v23.95h-6.01v-2.53c-1.18,1.12-2.35,1.92-3.52,2.41-1.19.49-2.46.74-3.85.74-3.09,0-5.76-1.2-8.02-3.59-2.25-2.4-3.39-5.38-3.39-8.95s1.11-6.73,3.27-9.09c2.19-2.36,4.83-3.54,7.96-3.54,1.43,0,2.79.27,4.04.82,1.26.54,2.42,1.34,3.5,2.44v-2.64ZM68.49,31.3c-1.86,0-3.39.66-4.62,1.98-1.23,1.31-1.86,2.99-1.86,5.05s.63,3.76,1.88,5.1c1.25,1.34,2.79,2.01,4.63,2.01s3.44-.66,4.67-1.97c1.26-1.32,1.89-3.05,1.89-5.18s-.62-3.76-1.89-5.06c-1.23-1.29-2.79-1.94-4.71-1.94"/>
      <path class="cls-1" d="M86.48,26.37h6.02v2.46c1.36-1.15,2.6-1.94,3.7-2.4,1.11-.45,2.24-.67,3.4-.67,2.37,0,4.39.83,6.05,2.48,1.39,1.41,2.09,3.5,2.09,6.25v15.83h-5.94v-10.49c0-2.86-.14-4.75-.39-5.69-.26-.94-.71-1.66-1.34-2.15-.64-.48-1.43-.74-2.36-.74-1.22,0-2.26.41-3.13,1.22-.86.82-1.48,1.94-1.81,3.38-.18.75-.26,2.37-.26,4.86v9.61h-6.02v-23.95Z"/>
      <path class="cls-1" d="M141.21,26.37h6.01v23.95h-6.01v-2.53c-1.17,1.12-2.35,1.92-3.52,2.41-1.18.49-2.46.74-3.84.74-3.09,0-5.77-1.2-8.03-3.59-2.26-2.4-3.39-5.38-3.39-8.95s1.1-6.73,3.27-9.09c2.2-2.36,4.84-3.54,7.97-3.54,1.42,0,2.78.27,4.04.82,1.26.54,2.41,1.34,3.5,2.44v-2.64ZM134.9,31.3c-1.86,0-3.4.66-4.64,1.98-1.22,1.31-1.84,2.99-1.84,5.05s.63,3.76,1.88,5.1c1.24,1.34,2.79,2.01,4.62,2.01s3.45-.66,4.7-1.97c1.23-1.32,1.86-3.05,1.86-5.18s-.63-3.76-1.86-5.06c-1.24-1.29-2.82-1.94-4.71-1.94"/>
      <path class="cls-1" d="M177.69,26.37h6.01v2.76c1.03-1.13,2.16-1.98,3.42-2.54,1.27-.55,2.62-.83,4.11-.83s2.85.36,4.05,1.1c1.21.72,2.19,1.79,2.92,3.21.94-1.42,2.12-2.49,3.51-3.21,1.38-.74,2.9-1.1,4.54-1.1s3.21.4,4.5,1.19c1.28.79,2.21,1.82,2.78,3.09.57,1.29.84,3.36.84,6.24v14.04h-6.04v-12.15c0-2.72-.34-4.56-1.02-5.52-.67-.96-1.68-1.44-3.03-1.44-1.02,0-1.95.3-2.76.88-.82.59-1.42,1.4-1.82,2.43-.39,1.04-.59,2.7-.59,4.99v10.81h-6.05v-11.6c0-2.14-.14-3.69-.47-4.65-.33-.97-.8-1.68-1.43-2.15-.63-.47-1.39-.7-2.3-.7-.99,0-1.91.3-2.71.89-.83.59-1.44,1.43-1.84,2.5-.4,1.07-.6,2.76-.6,5.06v10.65h-6.01v-23.95Z"/>
      <path class="cls-1" d="M222.05,16.5c1.04,0,1.95.38,2.7,1.15.76.76,1.13,1.69,1.13,2.78s-.38,1.98-1.12,2.74c-.75.75-1.64,1.14-2.68,1.14s-1.97-.4-2.72-1.16c-.75-.77-1.13-1.71-1.13-2.81s.37-1.96,1.11-2.71c.75-.75,1.65-1.13,2.71-1.13"/>
      <rect class="cls-1" x="219.04" y="26.37" width="6.02" height="23.95"/>
      <path class="cls-1" d="M238.24,65.21h-6.63c.04.39.13.75.27,1.04.13.3.34.58.6.8.25.23.54.43.86.58.35.14.71.21,1.11.21.58,0,1.11-.15,1.57-.47.47-.31.82-.72,1.02-1.25h1c-.16.45-.36.81-.59,1.1-.38.46-.83.83-1.36,1.08-.51.25-1.07.38-1.68.38-1.05,0-1.92-.36-2.67-1.09-.73-.73-1.08-1.61-1.08-2.66,0-.7.16-1.35.51-1.96.33-.6.8-1.07,1.42-1.42.6-.35,1.22-.51,1.88-.51s1.26.17,1.87.51c.59.34,1.07.82,1.41,1.43.34.61.5,1.25.5,1.91v.31M237.29,64.36c-.08-.37-.17-.69-.31-.96-.12-.25-.31-.49-.55-.73-.23-.22-.53-.42-.87-.58-.34-.14-.71-.22-1.11-.22s-.75.07-1.09.21c-.32.14-.62.33-.86.54-.24.23-.43.48-.58.76-.14.28-.25.6-.32.97h5.69Z"/>
      <path class="cls-1" d="M239.05,66.35h.93c.01.31.06.57.14.74.1.25.25.44.45.57.19.12.44.19.74.19.41,0,.74-.11.98-.35.25-.23.35-.55.35-.93,0-.33-.1-.61-.29-.83-.18-.23-.59-.45-1.18-.65-.49-.17-.82-.31-1.03-.45-.28-.19-.5-.41-.66-.66-.15-.26-.22-.56-.22-.9,0-.58.2-1.07.59-1.46.4-.39.87-.58,1.47-.58.4,0,.76.09,1.08.29.32.19.57.45.74.79.11.22.18.53.19.91h-.93c-.04-.38-.16-.66-.35-.85-.21-.2-.45-.29-.74-.29-.32,0-.58.11-.79.32-.2.21-.31.47-.31.77l.15.54.43.38c.15.08.38.17.66.28.53.18.93.34,1.15.5.33.2.57.45.74.74.16.3.23.65.23,1.1,0,.41-.08.78-.27,1.12-.18.35-.44.61-.79.79-.34.18-.73.28-1.16.28s-.77-.08-1.06-.23c-.31-.16-.56-.34-.73-.56-.18-.22-.31-.44-.38-.68-.07-.24-.12-.52-.12-.87"/>
      <polygon class="cls-1" points="245.56 68.51 245.56 62.06 244.03 62.06 244.03 61.23 245.56 61.23 245.56 58.65 246.49 58.65 246.49 61.23 248.24 61.23 248.24 62.06 246.49 62.06 246.49 68.51 245.56 68.51"/>
      <path class="cls-1" d="M255.95,61.23v7.28h-.94v-1.29h-.02c-.2.29-.39.49-.56.65-.28.23-.61.43-1,.59-.39.15-.84.23-1.35.23-.75,0-1.41-.17-2.01-.51-.58-.34-1.04-.82-1.35-1.42-.33-.61-.49-1.23-.49-1.89s.17-1.31.51-1.92c.35-.61.81-1.07,1.43-1.41.6-.34,1.27-.5,1.97-.5.46,0,.89.07,1.27.21.38.14.72.33,1,.58.19.17.39.39.58.67h.02v-1.27h.94ZM249.17,64.88c0,.52.11,1.03.37,1.48.24.46.59.83,1.06,1.09.46.26.96.39,1.5.39s1.03-.12,1.5-.38c.45-.26.82-.62,1.08-1.08.26-.46.38-.97.38-1.49s-.12-1.05-.38-1.52c-.27-.48-.63-.84-1.08-1.1-.46-.27-.95-.4-1.47-.4-.29,0-.57.04-.8.11-.26.07-.52.17-.74.31-.24.13-.46.31-.68.55-.22.24-.41.54-.53.89-.14.36-.2.74-.2,1.15"/>
      <path class="cls-1" d="M257.62,68.51v-9.86h.93v3.85h.03c.2-.27.4-.47.58-.64.18-.16.4-.31.65-.44.26-.13.53-.22.79-.29.29-.07.57-.1.87-.1.53,0,1.04.1,1.51.3.47.21.87.47,1.2.79.33.32.58.68.77,1.07.26.52.38,1.09.38,1.67,0,.67-.17,1.3-.5,1.91-.34.61-.81,1.07-1.42,1.41-.6.33-1.26.51-1.95.51-.45,0-.87-.07-1.23-.2-.36-.13-.7-.3-.99-.54-.21-.17-.44-.41-.67-.72h-.03v1.29h-.93ZM258.49,64.88c0,.51.13,1.01.38,1.48.25.47.61.83,1.07,1.1.47.26.97.39,1.5.39s1.02-.12,1.5-.37c.47-.25.83-.61,1.08-1.08.25-.47.37-.98.37-1.52s-.13-1.05-.39-1.53c-.26-.46-.62-.82-1.09-1.07-.47-.26-.96-.39-1.48-.39s-1.04.13-1.5.4c-.46.27-.82.64-1.07,1.11-.26.47-.38.97-.38,1.5"/>
      <rect class="cls-1" x="266.6" y="58.65" width=".93" height="9.87"/>
      <path class="cls-1" d="M269.21,58.65h.92v1.68h-.92v-1.68ZM269.21,61.23h.92v7.28h-.92v-7.28Z"/>
      <path class="cls-1" d="M271.26,66.35h.92c.03.31.07.57.14.74.1.25.26.44.46.57.19.12.44.19.73.19.43,0,.75-.11.98-.35.25-.23.36-.55.36-.93,0-.33-.09-.61-.29-.83-.18-.23-.57-.45-1.19-.65-.48-.17-.81-.31-1.01-.45-.3-.19-.51-.41-.66-.66-.16-.26-.22-.56-.22-.9,0-.58.18-1.07.57-1.46.4-.39.87-.58,1.46-.58.4,0,.77.09,1.07.29.33.19.59.45.75.79.11.22.18.53.21.91h-.94c-.04-.38-.15-.66-.36-.85-.2-.2-.45-.29-.75-.29s-.57.11-.78.32c-.21.21-.32.47-.32.77l.16.54.44.38c.14.08.36.17.67.28.53.18.91.34,1.14.5.33.2.57.45.74.74.16.3.25.65.25,1.1,0,.41-.1.78-.28,1.12-.18.35-.44.61-.79.79-.34.18-.73.28-1.16.28s-.78-.08-1.08-.23c-.3-.16-.55-.34-.72-.56-.18-.22-.31-.44-.38-.68-.08-.24-.11-.52-.11-.87"/>
      <path class="cls-1" d="M276.86,68.51v-9.86h.92v3.5h.05c.25-.34.56-.62.92-.81.37-.2.82-.3,1.38-.3.48,0,.93.09,1.32.27.4.17.75.44,1.06.78.2.22.34.5.48.81.19.5.28,1.03.28,1.61v4h-.94v-4c0-.83-.22-1.48-.64-1.95-.43-.46-.99-.68-1.65-.68-.4,0-.74.09-1.05.26-.31.17-.56.38-.75.63-.13.18-.24.42-.32.71-.09.31-.15.65-.15,1.03v4h-.92Z"/>
      <path class="cls-1" d="M291.92,65.21h-6.64c.04.39.12.75.26,1.04.14.3.35.58.6.8.26.23.55.43.89.58.33.14.68.21,1.07.21.59,0,1.12-.15,1.59-.47.47-.31.81-.72,1.02-1.25h.99c-.16.45-.36.81-.58,1.1-.39.46-.83.83-1.36,1.08-.52.25-1.08.38-1.69.38-1.04,0-1.92-.36-2.66-1.09-.72-.73-1.09-1.61-1.09-2.66,0-.7.17-1.35.5-1.96.35-.6.82-1.07,1.43-1.42.6-.35,1.22-.51,1.87-.51s1.26.17,1.87.51c.6.34,1.07.82,1.42,1.43.34.61.5,1.25.5,1.91v.31M290.97,64.36c-.07-.37-.17-.69-.31-.96-.13-.25-.32-.49-.56-.73-.24-.22-.52-.42-.87-.58-.35-.14-.72-.22-1.11-.22s-.76.07-1.08.21c-.34.14-.63.33-.87.54-.26.23-.44.48-.58.76-.15.28-.26.6-.33.97h5.7Z"/>
      <path class="cls-1" d="M300.63,58.65v9.87h-.92v-1.28h-.03c-.21.28-.4.5-.58.65-.3.24-.65.44-1.03.59-.4.14-.8.21-1.27.21-1.09,0-2-.37-2.75-1.11-.76-.74-1.13-1.62-1.13-2.66,0-.71.16-1.36.51-1.96.34-.61.8-1.08,1.42-1.42.61-.34,1.25-.51,1.95-.51.66,0,1.25.15,1.79.45.4.22.76.55,1.09.99h.03v-3.82h.92ZM299.77,64.86c0-.48-.13-.97-.37-1.44-.24-.48-.6-.85-1.05-1.13-.47-.29-.98-.42-1.54-.42s-1.03.13-1.49.39c-.46.26-.8.61-1.07,1.08-.26.47-.38.99-.38,1.53s.13,1.05.38,1.51c.26.46.62.82,1.07,1.07.47.25.96.39,1.5.39s1.04-.14,1.49-.4c.47-.26.82-.62,1.08-1.1.26-.47.39-.96.39-1.49"/>
      <polygon class="cls-1" points="306.45 68.51 306.45 59.54 304.75 59.54 304.75 58.65 307.45 58.65 307.45 68.51 306.45 68.51"/>
      <path class="cls-1" d="M312.18,68.51h-1.13l2.29-3.35h-.03c-.29.12-.6.2-.93.2-.46,0-.88-.08-1.28-.25-.4-.18-.76-.4-1.02-.68-.28-.29-.5-.61-.67-.94-.23-.49-.34-1-.34-1.54,0-.62.15-1.2.44-1.75.3-.55.7-.97,1.22-1.27.52-.3,1.09-.44,1.72-.44s1.22.15,1.74.46c.53.3.92.73,1.21,1.28.27.56.42,1.13.42,1.71,0,.43-.08.85-.22,1.25-.15.39-.47.95-.98,1.69l-2.44,3.62ZM314.81,61.9c0-.4-.09-.8-.28-1.2-.2-.41-.47-.72-.85-.96-.37-.23-.79-.35-1.24-.35-.43,0-.83.11-1.19.33-.38.21-.67.52-.88.92-.21.4-.31.83-.31,1.29s.11.9.31,1.31c.22.4.51.7.88.92.37.22.77.33,1.19.33.35,0,.68-.08.97-.22.29-.14.54-.33.76-.55.19-.22.36-.49.48-.81.13-.32.17-.64.17-1.01"/>
      <path class="cls-1" d="M316.68,68.51v-.9l3.45-3.32c.54-.52.93-.92,1.18-1.2.23-.29.41-.55.52-.82.11-.27.17-.54.17-.81,0-.34-.09-.68-.27-1.01-.19-.34-.44-.61-.77-.79-.33-.2-.68-.29-1.07-.29-.3,0-.56.04-.79.14-.24.09-.43.21-.6.35l-.42.49c-.11.21-.19.42-.25.65-.06.23-.08.51-.1.84h-.98c.01-.49.06-.87.15-1.15.11-.43.31-.81.58-1.13.28-.33.62-.6,1.05-.79.43-.2.89-.29,1.39-.29.98,0,1.78.36,2.38,1.11.46.57.7,1.22.7,1.92,0,.29-.04.56-.12.79-.07.24-.16.46-.27.64l-.38.51c-.35.42-.7.8-1.06,1.14l-3.16,3.01h4.92v.9h-6.25Z"/>
      <polygon class="cls-1" points="324.65 68.51 328.71 59.54 324.03 59.54 324.03 58.65 329.73 58.65 329.73 59.54 325.69 68.51 324.65 68.51"/>
      <path class="cls-1" d="M238.69,31.63c1.86,0,3.3-.22,4.25-.75,2.46-1.41,2.91-3.26,2.94-5.44,0-2.67-1.49-4.58-2.94-5.22-.81-.46-1.83-.83-4.55-.87h-4.88v12.29h5.18ZM239.66,47.88c1.62,0,3.17-.21,4.34-.64,2.23-.99,3.8-2.78,3.87-6.11,0-2.99-1.53-5.24-3.96-6.32-1.64-.69-2.6-.72-5.23-.72h-5.18v13.8h6.16ZM238.39,16.89c2.8,0,4.59.45,5.95,1.25,3.23,1.71,4.13,4.96,4.11,7.47.02.8-.02,4.64-3.58,6.92,5.12,2.16,5.61,7.1,5.6,8.6-.03,4.17-2.16,7-5.53,8.42-1.48.5-3.24.76-5.33.76h-8.68V16.89h7.46"/>
      <path class="cls-1" d="M255.32,38.17c.08,4.96,3.35,10.31,10.4,10.32,5.99-.01,10.12-4.67,10.14-10.31-.02-5.98-4.43-10.31-10.27-10.32-5.67.01-10.26,4.18-10.27,10.31M265.59,50.9c-3.95,0-7.17-1.54-9.36-3.91-2.21-2.38-3.4-5.55-3.4-8.8s1.23-6.52,3.45-8.86c2.22-2.35,5.43-3.87,9.31-3.87,4.63,0,8.23,2.24,10.15,4.8v-4.23h2.49v24.3h-2.49v-4.27c-2.27,3.04-5.83,4.84-10.11,4.84h-.04Z"/>
      <path class="cls-1" d="M303.62,50.32v-12.8c0-3.89-1.04-6.23-2.61-7.65-1.62-1.46-3.84-2.01-6.09-2.01-5.54.14-8.66,3.09-8.71,8.58v13.89h-2.5v-24.3h2.5v2.99c1.99-2.38,5.37-3.55,8.43-3.56h.27c3.06,0,5.65.82,7.63,2.45,2.44,2.09,3.57,5.4,3.56,9.62v12.8h-2.49Z"/>
      <path class="cls-1" d="M30.51,17.12c5.56-.38,5.87,3.36,5.87,3.79v7.88c1.17-1.02,2.45-1.77,3.64-2.28,1.2-.51,2.4-.77,3.62-.77,2.37,0,4.38.83,6.01,2.47,1.39,1.43,2.08,3.52,2.08,6.27v15.83h-5.92v-10.5c0-2.77-.13-4.66-.39-5.63-.26-.99-.71-1.71-1.36-2.2-.64-.48-1.41-.73-2.36-.73-1.21,0-2.26.41-3.13,1.22-.88.8-1.48,1.9-1.82,3.29-.17.73-.27,2.37-.27,4.94v9.61h-5.96V17.12"/>
      <path class="cls-1" d="M175.07,50.32l-9.19-12.68,8.13-11.27s-5.93-1-8.22,2.04c-1.82,2.3-3.35,4.49-3.35,4.49l-4.73-6.53h-6.97l8.23,11.35-9.27,12.6s5.97,1.01,8.29-2.04c1.41-1.78,1.04-1.26,4.43-5.79l5.68,7.83h6.97Z"/>
      <path class="cls-1" d="M118.43,20.97c0-.44-.3-4.24-5.95-3.86v33.2h5.97l-.02-29.34Z"/>
      <path class="cls-1" d="M319.97,37.91l9-11.88h-3.21l-11.69,15.56v-23.08c0-.19-.14-1.77-2.5-1.61v33.43h2.5v-4.63l4.32-5.77,8.1,10.4h3.24l-9.76-12.42Z"/>
      <path class="cls-1" d="M356.13,23.31l.13.26.07.16c2.29,4.72.76,8.52-.04,10.97l-.03.25c-.49,1.89-.73,3.75-.79,5.52.03,3.84.87,7.38,1.79,10.11l-.08.13.06.16.02.05c-.45.75-.82,1.68-1.02,2.85l-.07.7-3.62-7.96-.07.06v-.06s-3.58,8.19-3.58,8.19l-.09-.93c-.2-1.17-.57-2.1-1.03-2.85l.03-.05c1.53-3.85,2.4-8.96,1.31-14.5,1.44-1.71,4.46-7.68,7.02-13.06"/>
      <path class="cls-1" d="M362.94,7.48s-.05,0-.32.42c-.28.42-.77.21-.77.21.26-.09.24-.19.47-.45.23-.27.62-.18.62-.18M363.43,5.56l.43.88s.39.89-.43.89-.45-.86-.45-.86l.45-.9ZM363.43,8.52l-.4-.48s-.34-.5.4-.5.39.48.39.48l-.39.5ZM364.97,5.53c-.25.16-.07,1.02-.36,1.4-.2.25-.61.28-.61.28.25-.41.05-.53.11-1.04.14-.69.86-.64.86-.64M361.83,5.53s.75-.04.87.64c.07.5-.12.62.12,1.04,0,0-.43-.04-.62-.28-.29-.37-.1-1.24-.37-1.4M363.9,7.48s.4-.09.63.18c.23.26.21.36.47.45,0,0-.52.21-.76-.21-.29-.42-.34-.42-.34-.42"/>
      <path class="cls-1" d="M352.51,49.29l-3,6.83s-2.26,6.58,3,6.58,2.89-6.71,2.89-6.71l-2.89-6.7Z"/>
      <path class="cls-1" d="M352.48,71.29l2.71-3.86s2.06-3.72-2.71-3.72-2.62,3.8-2.62,3.8l2.62,3.78Z"/>
      <path class="cls-1" d="M362.83,48.99s-4.89-.26-5.77,4.94c-.43,3.81.87,4.76-.75,8.02,0,0,2.79-.34,4.09-2.21,1.99-2.85.77-9.47,2.43-10.74"/>
      <path class="cls-1" d="M342.07,48.99s4.87-.26,5.75,4.94c.43,3.81-.87,4.76.75,8.02,0,0-2.77-.34-4.06-2.21-2.01-2.85-.79-9.47-2.44-10.74"/>
      <path class="cls-1" d="M355.7,63.28s2.57-.63,4.13,1.39c1.55,2,1.42,2.75,3.11,3.49,0,0-3.24,1.51-5.05-1.68-1.82-3.2-2.19-3.2-2.19-3.2"/>
      <path class="cls-1" d="M349.37,63.28s-2.55-.63-4.12,1.39c-1.57,2-1.44,2.75-3.13,3.49,0,0,3.26,1.51,5.07-1.68,1.82-3.2,2.18-3.2,2.18-3.2"/>
      <path class="cls-1" d="M353.59,1.97c1.77.46,1.93,2.15,1.95,2.46-.57-.32-1.38-.52-2.28-.52-.96,0-1.79.13-2.36.47l-.17.1c.25-2,1.99-2.56,1.99-2.56V.22c.51-.5.88,0,.88,0v1.75Z"/>
      <path class="cls-1" d="M352.96,4.77s1.79-.27,2.19,1.17c.44,1.46.09,1.52,1.33,2.98,1.25,1.45.63,2.43.28,2.35-.35-.06-1.31-1.24-1.78-.96-.47.27-.98,1.31-2.01,1.24-1.04-.07-1.75-1.46-2.22-1.33-.49.15-1.36.93-1.52.99-.26.1-1.38-.36-.49-1.8.9-1.46,1.09-.35,1.92-2.35.85-2.01,1.06-2.22,2.31-2.29"/>
      <path class="cls-1" d="M341.2,7.48s-.05,0-.31.42c-.28.42-.78.21-.78.21.26-.09.23-.19.48-.45.23-.27.61-.18.61-.18M341.67,5.56l.43.88s.38.89-.43.89-.45-.86-.45-.86l.45-.9ZM341.67,8.52l-.39-.48s-.34-.5.39-.5.4.48.4.48l-.4.5ZM343.22,5.53c-.25.16-.07,1.02-.37,1.4-.2.25-.62.28-.62.28.26-.41.06-.53.11-1.04.14-.69.87-.64.87-.64M340.08,5.53s.75-.04.88.64c.07.5-.13.62.12,1.04,0,0-.42-.04-.62-.28-.29-.37-.12-1.24-.38-1.4M342.15,7.48s.39-.09.63.18c.23.26.2.36.47.45,0,0-.5.21-.77-.21-.28-.42-.33-.42-.33-.42"/>
      <path class="cls-1" d="M348.78,34.79v-.09c-.81-2.45-2.36-6.25-.06-10.97l.06-.16c.23-.45.46-.93.69-1.5.31-.8-.25-1.82-.64-2.47l7-6.79,3.29,1.16-.15.43c-2.06,4.62-7.83,17.31-10.19,20.38"/>
      <path class="cls-1" d="M364.96,10.53c-.25-1.05-1.45-1.77-1.69-1.38,0,0-.57.56-.39,1.38.2.81.45,2,.07,2.62-.33.59-2.12,2.15-3.11,2.78l-.33.18c-.44.98-1.02,2.21-1.66,3.58l.23.7.1.3.03.09c.2-.06,1.04-.32,2.11-.84l-.07-.33c-.11-.4-.12-.58-.21-1.06l.14-.08c.36-.13.74-.33,1.07-.62,1.21-1.02,2.59-3.08,3.27-5.33.36-1.23.36-1.09.36-1.09,0-.04.16-.5.08-.92M360.51,20.81c-.72.37-1.85.76-2.07.83l.29,1.05c0,.41.05.85.15,1.3.5,1.99,2.44,4.31,2.61,5.63.16,1.32.44,3.01.89,3.39.45.38.95-1.75.99-2.45.06-.69.56.25.73-.31v-.09c.13-.56-1.72-1.27-2.28-3.88-.41-2.05-1.08-4.6-1.3-5.47"/>
      <path class="cls-1" d="M346.2,20.77l-.08.4h0s-.12.66-.12.66c-.11.32-.19.57-.19.57-.69,1.12-2.93,4.56-3.65,4.65-.88.13-1.76-.99-1.76-.99-1.74-.95-3.38.45-3.68.94-.31.51.68.51,1.8.74,1.14.26,2.14,1.13,4.15.32,1.65-.68,3.61-2.64,4.56-3.84.14-.09.27-.3.37-.55.06-.17.26-1.05.4-1.67l.08-.4c-.93-.37-1.87-.84-1.87-.84M354.64,12.42c-2.87-.28-5.88.48-6.95,1.96-.23.3-.52,1.36-.78,2.47-.91-.44-1.65-.96-1.65-.96-.97-.64-2.76-2.2-3.1-2.78-.38-.62-.12-1.82.06-2.62.17-.83-.38-1.38-.38-1.38-.23-.4-1.43.32-1.69,1.38-.1.41.08.86.08.91,0,0-.01-.14.36,1.09.69,2.25,2.05,4.31,3.26,5.32.26.23,1.09.75,2.6,1.29-.07.4-.12.7-.15.86.42.27,1.92.83,1.92.83.14-.79.37-2.09.41-2.36v-.06s6.12-5.95,6.12-5.95h-.11Z"/>
    </g>
  </g>
</svg>