<?xml version="1.0" encoding="UTF-8" standalone="no"?>
<!-- Created with Inkscape (http://www.inkscape.org/) -->

<svg
   width="375.65302mm"
   height="62.255718mm"
   viewBox="0 0 375.65472 62.256"
   version="1.1"
   id="svg1"
   inkscape:version="1.4.3 (0d15f75, 2025-12-25)"
   sodipodi:docname="fed.svg"
   xmlns:inkscape="http://www.inkscape.org/namespaces/inkscape"
   xmlns:sodipodi="http://sodipodi.sourceforge.net/DTD/sodipodi-0.dtd"
   xmlns="http://www.w3.org/2000/svg"
   xmlns:svg="http://www.w3.org/2000/svg">
  <sodipodi:namedview
     id="namedview1"
     pagecolor="#ffffff"
     bordercolor="#000000"
     borderopacity="0.25"
     inkscape:showpageshadow="2"
     inkscape:pageopacity="0.0"
     inkscape:pagecheckerboard="0"
     inkscape:deskcolor="#d1d1d1"
     inkscape:document-units="mm"
     inkscape:zoom="0.44809905"
     inkscape:cx="668.37902"
     inkscape:cy="123.85655"
     inkscape:window-width="1366"
     inkscape:window-height="705"
     inkscape:window-x="-8"
     inkscape:window-y="-8"
     inkscape:window-maximized="1"
     inkscape:current-layer="layer1" />
  <defs
     id="defs1" />
  <g
     inkscape:label="Layer 1"
     inkscape:groupmode="layer"
     id="layer1"
     transform="translate(-0.37985687,-115.46149)">
    <path
       id="path2"
       d="m 368.88634,177.54428 1.16429,-5.94466 H 1.5441493 l -1.16429243,5.94466 z"
       style="fill:#ff9c00;fill-opacity:1;fill-rule:nonzero;stroke:none;stroke-width:0.354195" />
    <path
       id="path3"
       d="m 20.39396,126.89019 h 18.310224 l 1.758244,-8.91681 H 22.126452 17.102543 11.953752 L 3.4137079,161.92949 H 13.586408 l 3.196166,-16.45215 H 32.42474 l 1.757891,-8.91681 H 18.515066 Z"
       style="fill:#004cbe;fill-opacity:1;fill-rule:nonzero;stroke:none;stroke-width:0.352778" />
    <path
       id="path4"
       d="m 49.661462,137.1569 c 1.234369,-0.98319 2.563636,-1.47567 3.987447,-1.47567 0.962378,0 1.726847,0.26211 2.291997,0.78493 0.56515,0.52388 0.847725,1.20403 0.847725,2.04082 0,1.25589 -0.523875,2.2606 -1.569861,3.01413 -1.046692,0.75354 -2.511778,1.1303 -4.395611,1.1303 -1.1303,0 -2.291997,-0.0628 -3.485091,-0.18838 -0.329848,-0.0346 -0.662517,-0.0773 -0.997303,-0.12453 0.111478,-0.35525 0.231775,-0.70344 0.369358,-1.03717 0.731661,-1.7787 1.716264,-3.16018 2.951339,-4.14443 m 1.287286,12.4647 c 5.023555,0 8.759825,-1.06751 11.208808,-3.20252 2.448983,-2.13501 3.673475,-4.83517 3.673475,-8.10048 0,-2.76296 -1.047045,-5.08635 -3.139722,-6.97019 -2.093736,-1.88383 -5.003095,-2.82575 -8.728428,-2.82575 -2.511777,0 -4.866569,0.49248 -7.064374,1.47567 -2.197806,0.98425 -4.12362,2.3548 -5.777089,4.11304 -1.654175,1.75824 -2.951339,3.82058 -3.893256,6.18525 -0.941916,2.36573 -1.412874,4.92937 -1.412874,7.69232 0,3.05647 0.659341,5.6829 1.978024,7.8807 1.318684,2.19781 3.097389,3.88338 5.337528,5.05496 2.238728,1.17157 4.761442,1.75824 7.56673,1.75824 2.050697,0 3.95605,-0.16757 5.714294,-0.50236 1.758245,-0.33443 3.306586,-0.77399 4.646789,-1.31868 l 1.632656,-8.41445 c -1.674636,0.67027 -3.233914,1.17263 -4.678186,1.50706 -1.444272,0.33549 -2.899128,0.50236 -4.364214,0.50236 -2.973211,0 -5.054953,-0.49142 -6.248047,-1.47567 -0.937683,-0.77258 -1.501069,-2.06446 -1.7018,-3.85868 0.513292,0.0931 1.036461,0.17744 1.576211,0.248 1.27635,0.16792 2.500842,0.25118 3.673475,0.25118"
       style="fill:#004cbe;fill-opacity:1;fill-rule:nonzero;stroke:none;stroke-width:0.352778" />
    <path
       id="path5"
       d="m 86.960303,152.57301 c -0.98425,0.83785 -2.145947,1.25589 -3.485091,1.25589 h -0.753534 c -1.423458,0 -2.596091,-0.44944 -3.516488,-1.35008 -0.921103,-0.89958 -1.381478,-2.25002 -1.381478,-4.05024 0,-3.59975 0.774347,-6.41491 2.323747,-8.44586 1.547989,-2.02988 3.641725,-3.04553 6.279091,-3.04553 1.1303,0 2.250017,0.15699 3.359503,0.47096 0.432505,0.12242 0.846314,0.28434 1.250244,0.46708 l -1.92405,9.86896 c -0.461786,2.38866 -1.17863,4.00015 -2.151944,4.82882 m 8.445852,-37.11151 -2.774597,14.23211 c -0.678039,-0.24201 -1.395236,-0.45508 -2.154766,-0.63712 -1.486253,-0.35525 -3.024717,-0.53375 -4.615392,-0.53375 -3.516488,0 -6.646333,0.86924 -9.387769,2.60597 -2.742494,1.73778 -4.897966,4.12362 -6.467827,7.15856 -1.569861,3.03566 -2.354792,6.49923 -2.354792,10.39248 0,2.97286 0.533753,5.5051 1.601259,7.59813 1.067505,2.09374 2.490258,3.68406 4.270022,4.77238 1.779058,1.08797 3.757083,1.63266 5.934074,1.63266 1.883834,0 3.620558,-0.4819 5.211939,-1.44428 1.376891,-0.83326 2.611614,-2.13148 3.706989,-3.89043 l -0.881239,4.58117 h 8.91681 l 9.042404,-46.46788 z"
       style="fill:#004cbe;fill-opacity:1;fill-rule:nonzero;stroke:none;stroke-width:0.352778" />
    <path
       id="path6"
       d="m 118.10568,137.1569 c 1.23437,-0.98319 2.56399,-1.47567 3.98744,-1.47567 0.96273,0 1.72685,0.26211 2.292,0.78493 0.56515,0.52388 0.84773,1.20403 0.84773,2.04082 0,1.25589 -0.52388,2.2606 -1.56987,3.01413 -1.04669,0.75354 -2.51177,1.1303 -4.39561,1.1303 -1.1303,0 -2.29199,-0.0628 -3.48509,-0.18838 -0.32985,-0.0346 -0.66251,-0.0773 -0.9973,-0.12453 0.11148,-0.35525 0.23213,-0.70344 0.36936,-1.03717 0.73201,-1.7787 1.71626,-3.16018 2.95134,-4.14443 m 1.28728,12.4647 c 5.02356,0 8.75983,-1.06751 11.20881,-3.20252 2.44898,-2.13501 3.67347,-4.83517 3.67347,-8.10048 0,-2.76296 -1.04669,-5.08635 -3.13972,-6.97019 -2.09373,-1.88383 -5.00309,-2.82575 -8.72842,-2.82575 -2.51178,0 -4.86657,0.49248 -7.06438,1.47567 -2.1978,0.98425 -4.12362,2.3548 -5.77709,4.11304 -1.65417,1.75824 -2.95134,3.82058 -3.89325,6.18525 -0.94192,2.36573 -1.41288,4.92937 -1.41288,7.69232 0,3.05647 0.65934,5.6829 1.97803,7.8807 1.31868,2.19781 3.09774,3.88338 5.33752,5.05496 2.23909,1.17157 4.76145,1.75824 7.56673,1.75824 2.0507,0 3.95605,-0.16757 5.7143,-0.50236 1.75824,-0.33443 3.30658,-0.77399 4.64679,-1.31868 l 1.63265,-8.41445 c -1.67463,0.67027 -3.23391,1.17263 -4.67818,1.50706 -1.44427,0.33549 -2.89913,0.50236 -4.36422,0.50236 -2.97285,0 -5.05495,-0.49142 -6.24804,-1.47567 -0.93733,-0.77258 -1.50107,-2.06446 -1.7018,-3.85868 0.51329,0.0931 1.03681,0.17744 1.57621,0.248 1.27635,0.16792 2.50119,0.25118 3.67347,0.25118"
       style="fill:#004cbe;fill-opacity:1;fill-rule:nonzero;stroke:none;stroke-width:0.352778" />
    <path
       id="path7"
       d="m 159.76895,128.58549 c -0.29351,-0.0413 -0.62794,-0.0628 -1.00471,-0.0628 -1.46579,0 -2.97286,0.39828 -4.5212,1.19309 -1.5494,0.79587 -2.91994,1.93675 -4.11304,3.4223 -0.25541,0.3182 -0.4893,0.65581 -0.70943,1.00541 l 0.92921,-4.86727 h -9.10519 l -6.34224,32.65311 h 9.92152 l 3.78919,-19.41901 c 0.44838,-1.72896 1.05763,-2.92982 1.83092,-3.59515 0.89958,-0.774 2.18722,-1.1617 3.86185,-1.1617 h 4.70959 l 1.75824,-8.97961 c -0.37677,-0.0832 -0.71226,-0.14605 -1.00471,-0.18838"
       style="fill:#004cbe;fill-opacity:1;fill-rule:nonzero;stroke:none;stroke-width:0.352778" />
    <path
       id="path8"
       d="m 174.39737,153.82893 h -0.75353 c -1.38148,0 -2.45992,-0.44944 -3.23392,-1.35008 -0.77505,-0.89958 -1.16169,-2.25002 -1.16169,-4.05024 0,-3.59975 0.74259,-6.41491 2.2292,-8.44585 1.48555,-2.02989 3.5059,-3.04553 6.05966,-3.04553 1.1303,0 2.19781,0.15698 3.20252,0.47095 0.37288,0.11642 0.73766,0.26953 1.0989,0.44098 l -1.92758,9.88448 c -0.46108,2.39465 -1.15711,4.00932 -2.09126,4.8394 -0.94192,0.83785 -2.08316,1.25589 -3.4223,1.25589 m 7.09577,-24.77241 c -1.3402,-0.35524 -2.84762,-0.53375 -4.5212,-0.53375 -3.43323,0 -6.49922,0.86924 -9.19938,2.60597 -2.70016,1.73778 -4.82565,4.12362 -6.37364,7.15857 -1.5494,3.03565 -2.32339,6.49922 -2.32339,10.39248 0,2.97285 0.51223,5.50509 1.53846,7.59812 1.02517,2.09374 2.39607,3.68406 4.11304,4.77238 1.71626,1.08797 3.59974,1.63266 5.6515,1.63266 1.88383,0 3.61068,-0.4819 5.18054,-1.44428 1.33526,-0.81879 2.53259,-2.08915 3.59551,-3.80153 l -0.86395,4.49227 h 8.85401 l 6.40503,-32.90428 -9.01347,1.10595 c -0.96237,-0.43038 -1.97485,-0.79057 -3.04306,-1.07456"
       style="fill:#004cbe;fill-opacity:1;fill-rule:nonzero;stroke:none;stroke-width:0.352778" />
    <path
       id="path9"
       d="m 193.74,161.92938 h 10.04711 l 9.0424,-46.46789 H 202.7824 Z"
       style="fill:#004cbe;fill-opacity:1;fill-rule:nonzero;stroke:none;stroke-width:0.352778" />
    <path
       id="path10"
       d="m 250.72529,151.66249 c -1.02623,0.94192 -2.58551,1.41287 -4.67819,1.41287 h -8.95491 l 1.69581,-8.72842 h 8.32661 c 3.43217,0 5.14914,1.25589 5.14914,3.76766 0,1.42382 -0.51329,2.60597 -1.53846,3.54789 m -1.91523,-24.8352 c 3.3909,0 5.08635,1.27741 5.08635,3.83046 0,1.42381 -0.51329,2.59609 -1.53846,3.51649 -1.02624,0.92145 -2.56505,1.38148 -4.6154,1.38148 h -7.24676 l 1.69616,-8.72843 z m 13.34382,8.13188 c 1.31868,-1.9043 1.97802,-4.05024 1.97802,-6.43643 0,-2.34386 -0.61842,-4.30142 -1.85243,-5.87128 -1.23543,-1.56986 -2.87867,-2.74144 -4.92937,-3.51649 -2.05175,-0.77399 -4.29189,-1.1617 -6.71935,-1.1617 h -6.71866 -4.96076 -5.14914 l -8.54005,43.95611 h 5.14915 4.96076 9.73314 c 3.59974,0 6.69748,-0.57503 9.29357,-1.72685 2.59504,-1.15076 4.59388,-2.75202 5.99687,-4.80377 1.40194,-2.0507 2.10362,-4.37409 2.10362,-6.97018 0,-3.47451 -1.40335,-5.99687 -4.20723,-7.56673 -0.8061,-0.45121 -1.68875,-0.83503 -2.64336,-1.15676 0.22401,-0.0833 0.44979,-0.16475 0.66534,-0.25612 2.57457,-1.08797 4.5212,-2.58445 5.83988,-4.4898"
       style="fill:#004cbe;fill-opacity:1;fill-rule:nonzero;stroke:none;stroke-width:0.352778" />
    <path
       id="path11"
       d="m 281.08586,153.82893 h -0.75353 c -1.38148,0 -2.45957,-0.44944 -3.23392,-1.35008 -0.77505,-0.89958 -1.16169,-2.25002 -1.16169,-4.05024 0,-3.59975 0.74259,-6.41491 2.2292,-8.44585 1.48555,-2.02989 3.50555,-3.04553 6.05966,-3.04553 1.1303,0 2.19781,0.15698 3.20252,0.47095 0.37253,0.11642 0.73766,0.26953 1.0989,0.44098 l -1.92863,9.88977 c -0.46144,2.39183 -1.15676,4.00473 -2.09021,4.83411 -0.94192,0.83785 -2.08316,1.25589 -3.4223,1.25589 m 7.09577,-24.77241 c -1.34055,-0.35524 -2.84727,-0.53375 -4.5212,-0.53375 -3.43323,0 -6.49922,0.86924 -9.19938,2.60597 -2.70016,1.73778 -4.8253,4.12362 -6.37364,7.15857 -1.54905,3.03565 -2.32339,6.49922 -2.32339,10.39248 0,2.97285 0.51223,5.50509 1.53846,7.59812 1.02517,2.09374 2.39607,3.68406 4.11304,4.77238 1.71626,1.08797 3.59974,1.63266 5.6515,1.63266 1.88383,0 3.61068,-0.4819 5.18054,-1.44428 1.33526,-0.81879 2.53259,-2.08915 3.59551,-3.80153 l -0.86395,4.49227 h 8.85401 l 6.40503,-32.90428 -9.01347,1.10595 c -0.96202,-0.43038 -1.97485,-0.79057 -3.04306,-1.07456"
       style="fill:#004cbe;fill-opacity:1;fill-rule:nonzero;stroke:none;stroke-width:0.352778" />
    <path
       id="path12"
       d="m 331.13434,130.28102 c -1.67499,-1.17157 -3.68441,-1.75824 -6.02827,-1.75824 -1.96814,0 -3.85198,0.48154 -5.6515,1.44427 -1.51059,0.80856 -2.85714,2.04964 -4.04283,3.71193 l 0.84032,-4.40267 h -9.23079 l -6.34223,32.65311 h 10.04711 l 3.7913,-19.42994 c 0.44591,-1.72579 1.04422,-2.93405 1.7974,-3.61562 0.87912,-0.79481 2.09268,-1.1931 3.64208,-1.1931 h 0.94192 c 1.46473,0 2.55305,0.49248 3.26531,1.47567 0.7112,0.98425 0.89958,2.39678 0.56515,4.23863 l -3.57929,18.52436 h 10.04711 l 3.70488,-19.02672 c 0.58561,-2.9718 0.52317,-5.52591 -0.18839,-7.66092 -0.71226,-2.13501 -1.90535,-3.78813 -3.57928,-4.96076"
       style="fill:#004cbe;fill-opacity:1;fill-rule:nonzero;stroke:none;stroke-width:0.352778" />
    <path
       id="path13"
       d="m 374.98942,129.27627 h -11.2402 l -12.35322,12.23504 5.06906,-26.04982 h -10.04711 l -9.0424,46.46789 h 10.04711 l 1.53599,-7.89376 4.97523,-5.07435 4.6034,12.96811 h 10.42387 l -7.1822,-19.4945 z"
       style="fill:#004cbe;fill-opacity:1;fill-rule:nonzero;stroke:none;stroke-width:0.352778" />
  </g>
</svg>
