<?xml version="1.0" encoding="UTF-8"?>
<svg id="Layer_2" data-name="Layer 2" xmlns="http://www.w3.org/2000/svg" viewBox="0 0 44 38.71">
  <defs>
    <style>
      .cls-1 {
        fill: #00b899;
      }
    </style>
  </defs>
  <g id="Layer_1-2" data-name="Layer 1">
    <path class="cls-1" d="M27.33,5.82C27.33,2.62,30.03.03,33.35.03s6.03,2.6,6.03,5.8-2.7,5.8-6.03,5.8-6.02-2.59-6.02-5.8ZM44,28.66h-1.35c-2.76,0-4.16-1.96-4.16-5.05v-5.8h-10.21v8.22c0,8.93,5.92,12.67,11.65,12.67h4.07v-10.05ZM10.23,31.42c0-2.99,1.65-4.34,5.01-4.34h8.32v-9.28h-13.33v-3.83c0-3.03,2.62-4.68,5.74-4.68h7.58V0h-10.18C5.36,0,0,4.23,0,13.11v25.58h10.23v-7.27Z"/>
  </g>
</svg>