<?xml version="1.0" encoding="UTF-8"?>
<svg id="Layer_2" data-name="Layer 2" xmlns="http://www.w3.org/2000/svg" viewBox="0 0 1052.53 820.68">
  <defs>
    <style>
      .cls-1 {
        fill: #fff;
      }

      .cls-2 {
        fill: #dc1826;
      }

      .cls-3 {
        fill: #044c8c;
      }
    </style>
  </defs>
  <g id="Layer_1-2" data-name="Layer 1">
    <g>
      <polygon class="cls-2" points="709.54 261.8 709.48 104.29 552.03 104.24 552 0 813.7 .04 813.75 261.78 709.54 261.8"/>
      <polygon class="cls-2" points="552.13 576.82 551.96 472.61 709.5 472.55 709.49 315.36 813.71 315.3 813.71 576.75 552.13 576.82"/>
      <polygon class="cls-2" points="342.98 104.31 342.99 261.74 238.74 261.82 238.76 .05 498.47 0 498.52 104.23 342.98 104.31"/>
      <polygon class="cls-2" points="498.48 472.56 498.51 576.81 238.79 576.77 238.74 315.34 342.97 315.33 342.99 472.57 498.48 472.56"/>
      <rect class="cls-3" x="436.73" y="198.78" width="179" height="179.5"/>
      <polygon class="cls-1" points="891.49 774.6 866.74 774.67 835.49 729.13 835.15 774.67 810.51 774.67 810.48 689.93 835.17 689.89 866.29 735.34 866.79 689.91 891.5 689.8 891.49 774.6"/>
      <polygon class="cls-1" points="998.75 774.47 966.41 774.78 948.57 740.16 935.36 753.9 935.15 774.65 908.77 774.7 908.72 689.93 935.11 689.81 935.45 721.16 962.35 689.8 997.25 690.05 966.68 721.89 998.75 774.47"/>
      <polygon class="cls-1" points="309.26 774.58 282.84 774.74 282.66 740.68 254.33 740.68 254.15 774.72 227.98 774.62 227.97 689.95 254.22 689.84 254.29 719.22 282.57 719.32 282.82 689.87 309.25 689.9 309.26 774.58"/>
      <path class="cls-1" d="M402.57,750.65c-4.81,14.21-16.51,23.61-31.43,23.72l-44.62.31-.03-84.89,44.96.29c14.64.09,26.14,9.46,30.52,23.02,3.62,12.2,3.69,24.64.61,37.54Z"/>
      <path class="cls-3" d="M376.71,719.87c-2.69-11.13-15.05-11.01-23.71-9.98l.05,45.26c5.21.1,9.43.02,14.14-.55,13.43-1.63,11.82-25.21,9.52-34.73Z"/>
      <path class="cls-3" d="M142.66,788.57l.12-47.72,31.33-.09.14-15.86-31.51-.29-.04-47.55-47.66-.08.05-31.65,78.66.33,878.73.03.05,174.99-876.55-.03-80.88-.43-.07-31.66h47.63ZM547.38,752.28c-6.88,6.56-19.92,5.16-23.91-3.51-4.23-9.2-3.84-20.36-1.2-29.68,2.01-7.12,8.44-10.73,15.18-10.69,7.54.04,13.02,4.27,14.95,11.83l23.38-5.17c-3.39-10.9-9.96-20.07-20.47-23.75-21.02-7.36-51.73-2.59-59.11,23.88-5.61,20.11-1.72,45.64,18.2,56.47,7.81,4.25,16.38,4.14,25.06,4.49,18.49.74,33.67-10.75,36.9-29.5l-22.76-6.83c-1.63,4.4-2.56,8.96-6.23,12.45ZM309.26,774.58v-84.68s-26.44-.04-26.44-.04l-.25,29.45-28.28-.1-.07-29.38-26.25.11v84.67s26.18.1,26.18.1l.18-34.04h28.33s.18,34.06.18,34.06l26.42-.16ZM402.57,750.65c3.08-12.9,3.01-25.34-.61-37.54-4.38-13.57-15.88-22.93-30.52-23.02l-44.96-.29.03,84.89,44.62-.31c14.93-.11,26.63-9.51,31.43-23.72ZM477.51,722.84l-32.73-.02v-14.22s38.39-.06,38.39-.06l.05-18.71-64.98.06.04,84.76,26.38.03.13-34.57,32.68-.08.03-17.19ZM706.95,749.61c-.22-10.27-6.45-17.51-16.78-20,3.77-2.02,7.36-4.02,9.56-7.44,4.24-6.6,4.49-14.61.53-21.56-3.09-5.44-10.08-10.49-17.86-10.53l-53.91-.28.03,84.92,49.94-.1c2.18,0,5.62-.88,7.86-1.09,12.48-1.16,20.91-11.22,20.64-23.91ZM770.47,760.89l4.12,13.82,27.65-.11-31.79-84.75h-28.88s-31.78,84.76-31.78,84.76l26.98.06,4.27-13.89,29.44.11ZM891.49,774.6v-84.8s-24.7.11-24.7.11l-.5,45.43-31.12-45.46-24.68.04.03,84.74h24.64s.34-45.54.34-45.54l31.25,45.54,24.75-.07ZM998.75,774.47l-32.07-52.58,30.57-31.85-34.9-.25-26.9,31.36-.34-31.35-26.39.12.05,84.77,26.38-.05.2-20.75,13.22-13.74,17.83,34.62,32.34-.31Z"/>
      <path class="cls-1" d="M547.38,752.28c3.67-3.49,4.59-8.05,6.23-12.45l22.76,6.83c-3.23,18.74-18.41,30.24-36.9,29.5-8.68-.35-17.25-.24-25.06-4.49-19.92-10.83-23.8-36.36-18.2-56.47,7.38-26.48,38.08-31.24,59.11-23.88,10.51,3.68,17.08,12.85,20.47,23.75l-23.38,5.17c-1.93-7.56-7.41-11.79-14.95-11.83-6.74-.04-13.16,3.57-15.18,10.69-2.64,9.32-3.03,20.48,1.2,29.68,3.99,8.68,17.03,10.07,23.91,3.51Z"/>
      <polygon class="cls-1" points="477.51 722.84 477.48 740.03 444.8 740.11 444.66 774.68 418.28 774.65 418.24 689.89 483.21 689.83 483.16 708.53 444.77 708.6 444.77 722.82 477.51 722.84"/>
      <path class="cls-1" d="M706.95,749.61c.28,12.69-8.16,22.74-20.64,23.91-2.24.21-5.67,1.09-7.86,1.09l-49.94.1-.03-84.92,53.91.28c7.78.04,14.76,5.09,17.86,10.53,3.95,6.95,3.7,14.96-.53,21.56-2.2,3.43-5.79,5.42-9.56,7.44,10.34,2.49,16.56,9.74,16.78,20Z"/>
      <path class="cls-3" d="M669.49,722.89c4.07-.06,7.16-3.35,7.49-6.64s-1.23-8.31-5.64-8.42l-16.25-.4v15.66s14.4-.2,14.4-.2Z"/>
      <path class="cls-3" d="M674.48,755.47c4.43-.76,6.33-5.77,5.93-8.92-.43-3.43-3.9-6.77-7.87-6.83l-17.48-.24.02,16.7c6.92.15,12.88.41,19.39-.72Z"/>
      <polygon class="cls-1" points="770.47 760.89 741.03 760.78 736.76 774.67 709.79 774.61 741.57 689.86 770.45 689.85 802.24 774.6 774.59 774.71 770.47 760.89"/>
      <polygon class="cls-3" points="764.8 741.9 755.75 713 746.75 742 764.8 741.9"/>
      <polygon class="cls-2" points="31.78 677.04 31.7 724.79 0 724.77 .14 645.3 78.93 645.35 78.95 677.01 31.78 677.04"/>
      <polygon class="cls-2" points="78.87 788.54 78.94 820.27 .01 820.24 .02 740.79 31.68 740.79 31.82 788.55 78.87 788.54"/>
      <rect class="cls-3" x="60.01" y="705.56" width="54.49" height="54.5"/>
      <rect class="cls-2" x="95.09" y="645.33" width="79.1" height="31.58"/>
      <rect class="cls-2" x="95.09" y="788.5" width="79.1" height="31.8"/>
      <rect class="cls-2" x="125.4" y="676.17" width="66.09" height="31.49" transform="translate(850.36 533.48) rotate(90)"/>
      <rect class="cls-2" x="125.5" y="757.99" width="65.89" height="31.49" transform="translate(932.17 615.29) rotate(90)"/>
    </g>
  </g>
</svg>