<?xml version="1.0" encoding="UTF-8"?>
<svg id="Layer_2" data-name="Layer 2" xmlns="http://www.w3.org/2000/svg" viewBox="0 0 180 48.49">
  <defs>
    <style>
      .cls-1 {
        fill: #da000a;
        fill-rule: evenodd;
      }
    </style>
  </defs>
  <g id="Layer_1-2" data-name="Layer 1">
    <g>
      <polygon class="cls-1" points="24.37 0 24.37 24.25 24.37 48.49 0 24.25 24.37 0 24.37 0"/>
      <polygon class="cls-1" points="24.37 0 48.47 0 72.75 0 48.47 24.36 24.28 .09 24.37 0 24.37 0"/>
      <polygon class="cls-1" points="72.68 48.49 72.68 24.25 72.68 0 97.05 24.25 72.68 48.49 72.68 48.49"/>
      <polygon class="cls-1" points="72.68 48.49 48.58 48.49 24.3 48.49 48.58 24.13 72.77 48.4 72.68 48.49 72.68 48.49"/>
      <polygon points="104.88 34.26 109.36 34.26 109.36 25.74 118.02 25.74 118.02 34.26 122.5 34.26 122.5 13.96 118.02 13.96 118.02 22.23 109.36 22.23 109.36 13.96 104.88 13.96 104.88 34.26 104.88 34.26"/>
      <path d="M124.93,27.96c.03,4.89,3.76,6.75,7.99,6.75,5.35,0,8.74-2.64,8.74-6.37,0-4.61-4.5-5.4-6.05-5.86-4.9-1.46-5.6-1.73-5.6-3.3,0-1.71,1.69-2.47,3.07-2.47,1.96,0,3.18.87,3.37,2.93h4.48c.06-4.39-3.2-6.06-7.66-6.06-3.9,0-7.91,1.88-7.91,6.03,0,3.81,3.18,4.96,6.08,5.86,3.18.99,5.41,1.01,5.41,3.2,0,1.99-2.16,2.75-3.68,2.75-2.19,0-3.59-.99-3.72-3.45h-4.52Z"/>
      <path d="M148.34,25.39h3.67c1.92,0,3.48.82,3.48,2.9s-1.75,2.84-3.56,2.84h-3.58v-5.74h0ZM143.96,34.26h8.5c3.89,0,7.79-1.39,7.79-5.72,0-2.53-1.65-4.27-4.6-4.78,2.72-.85,3.86-2.45,3.86-4.44,0-3.78-3.24-5.37-6.87-5.37h-8.67v20.31h0ZM148.34,17.17h3.26c1.55,0,3.34.65,3.34,2.59,0,1.71-1.48,2.64-3.01,2.64h-3.59v-5.23h0Z"/>
      <path d="M180,20.07c-.2-4.1-3.51-6.54-8.17-6.54-6.28,0-9.84,4.24-9.84,10.66,0,6.88,3.27,10.52,9.84,10.52,4.63,0,7.92-2.51,8.12-6.53h-4.61c-.44,2.13-1.77,3.08-3.71,3.08-3.75,0-5.01-3.64-5.01-7.02,0-3.55,1.45-7.25,5.26-7.25,1.95,0,3.22,1.44,3.35,3.07h4.76Z"/>
    </g>
  </g>
</svg>