<svg version="1.2" xmlns="http://www.w3.org/2000/svg" viewBox="0 0 1543 323" width="1543" height="323"><style>.a{fill:#00866d}.b{fill:#fff}.c{fill:#ff6a20}</style><path class="a" d="m0.4 322.1h1542.3v-320.5h-1542.3z"/><path fill-rule="evenodd" class="b" d="m227.5 323c-89.2 0-161.4-72-161.4-161.1 0-89.1 72.2-161.1 161.4-161.1 89.2 0 161.3 72 161.3 161.1 0 89.1-72.1 161.1-161.3 161.1zm217.4-105.1v-0.9-0.8-0.9-0.9-0.9-0.8-0.9-0.9-0.9-0.8-0.9-0.9-0.9-0.8-0.9-0.9-0.9-0.8-0.9-0.9-0.9-0.8-0.9-0.9-0.9-0.8-0.9-0.9-0.9-0.9-0.8-0.9-0.9-0.9-0.8-0.9-0.9-0.9-0.8-0.9-0.9-0.9-0.8-0.9-1.8-0.8-0.9-0.9-0.9-0.8-0.9-0.9-0.9-0.8-0.9-0.9-0.9-1.7-0.9-0.9-0.8-0.9-0.9-0.9-0.9-0.8-0.9-1.8-0.8-0.9-0.9-0.9-0.8-0.9-0.9-0.9-1.7-0.9-0.9-0.8-0.9-0.9-0.9-0.8-0.9-0.9-0.9-0.8-0.9-0.9-0.9-0.8-1.8-0.9-1.7-0.9-1.8-1.7-0.9-0.9-0.8-1.8-0.9-0.8-0.9-0.9-0.9-0.8-0.9-0.9-0.9-0.8-0.9-0.9-0.9-0.8-0.9-0.9-0.9-1.7-0.9h-0.8v-0.9-0.8-0.9-0.9-0.9-0.8-0.9-0.9-0.9-0.9-0.8-0.9-0.9-0.9-0.8-0.9-0.9-0.9-0.8-0.9-0.9-0.9-0.8-0.9-0.9-0.9h-0.9v-0.8-0.9-0.9-0.9-0.8-0.9-0.9-0.9-0.8h0.9 0.8 0.9 0.9 0.9 0.8 0.9 0.9 0.9 0.9 0.8 0.9 0.9 0.9 0.8 0.9 0.9 0.9 0.8 0.9 0.9 0.9 0.9 0.8 0.9 0.9 0.9 0.8 0.9 0.9 0.9 0.8 0.9 0.9 0.9 0.9 0.8 0.9 0.9 0.9 0.8 0.9 0.9 0.9 0.8 0.9 0.9v0.8 0.9 0.9 0.9 0.8 0.9 0.9 0.9 0.8 0.9 0.9 0.9 0.8 0.9 0.9 0.9h-0.9v0.8 0.9 0.9 0.9 0.8 0.9 0.9 0.9 0.8 0.9 0.9 0.9 0.9 0.8 0.9 0.9 0.9 0.8 0.9 0.9 1.7 0.9 0.9 0.9 0.8 0.9 0.9 0.9 0.8 0.9 0.9 0.9 0.8 0.9 0.9 0.9 1.7 0.9 1.7 0.9 0.9 1.7 0.9l-0.9 0.9v0.9 0.9 0.8 0.9 0.9 0.9 0.8 0.9 0.9 0.9 0.8 0.9 0.9 0.9 0.8 0.9 0.9 0.9 0.8 0.9 0.9 1.7 0.9 0.9 0.9 0.8 0.9 0.9 0.9 0.8 0.9 0.9 1.7 0.9 0.9 0.9 0.9 0.8 0.9 0.9 1.7 0.9 0.9 0.9 0.8 0.9 0.9 0.9 0.8 0.9 0.9 0.9 0.8 1.8 0.9 0.8 0.9 0.9 0.9 0.8 0.9 0.9 0.9 0.8 0.9 0.9 0.9 0.8 0.9 0.9l0.9 0.9v0.9 0.8 0.9 0.9 0.9 0.8 0.9 0.9 0.9 0.8 0.9 0.9 0.9 0.8 0.9 0.9 0.9 0.8 1.8 0.9 0.8 0.9 0.9 0.9 0.8 0.9 0.9 0.9 0.8 0.9 0.9 0.9 0.8 0.9 0.9 0.9 0.9 0.8 0.9 0.9 0.9 0.8 0.9 0.9 0.9l0.9 0.8v0.9 0.9 0.9 0.8 0.9 0.9 0.9 0.8 0.9 0.9 0.9 0.8 0.9 0.9 0.9 0.8h-0.9-0.9-0.8-0.9-0.9-0.9-0.8-0.9-0.9-0.9-0.8-0.9-0.9-0.9-0.9-0.8v-0.8h-0.9-0.9-0.9-0.8-0.9-0.9-0.9-0.8-0.9-0.9-0.9-0.9-0.8-0.9-0.9v0.8h-0.9-0.8-0.9-0.9-0.9-0.8-0.9-0.9-0.9-0.9-0.8-0.9-0.9-0.9-0.8-0.9v-0.8-0.9-0.9-0.9-0.8-0.9-0.9-0.9-0.8h0.9v-0.9-0.9-0.9-0.8-0.9-0.9-0.9-0.8-0.9-0.9-0.9-0.8-0.9-0.9-0.9-0.8-0.9-0.9-0.9-0.9-0.8-0.9-0.9-0.9-0.8-0.9zm71 1.7v-0.8-0.9-0.9-0.9-0.8-0.9-0.9-0.9-0.8-0.9-0.9-0.9-0.8-0.9-0.9-0.9-0.8-0.9-0.9-0.9-0.8-0.9-0.9-0.9-0.8-0.9-0.9-0.9-0.8-0.9-0.9-0.9-0.9-0.8-0.9-0.9-0.9-0.8-0.9-0.9-0.9-0.8-1.8-0.9-0.8-0.9-0.9-0.9-0.8-0.9-0.9-1.7-0.9-0.9-0.9-0.8l0.9-0.9v-0.9-0.9-1.7-1.8-0.8-0.9-0.9-0.9-1.7-0.9-0.9l-0.9-0.9v-0.8-0.9-0.9-0.9-0.8-0.9-1.8-0.8-0.9-0.9-0.9-0.8-0.9-0.9-0.9-0.8-0.9-1.8-0.8-0.9-0.9-0.9-0.8-0.9-0.9-0.9-0.8-0.9-0.9-0.9-0.9-0.8-0.9-0.9-0.9-0.8-0.9-0.9-0.9-0.8-0.9-0.9-0.9-0.8-0.9-0.9-0.9-0.8-0.9-0.9-0.9-0.8-0.9-0.9-0.9-0.8-0.9-0.9-0.9-0.8-0.9-0.9-0.9-0.8-0.9-0.9-0.9-0.9-0.8-0.9-0.9l-0.9-0.9v-0.8-0.9-0.9-0.9-0.8-0.9-0.9-0.9-0.8-0.9-0.9-0.9-0.8-0.9-0.9-0.9-0.8h-0.9v-0.9-0.9-0.9h0.9 0.9 0.9 0.8v0.9h0.9 0.9 0.9 0.8 0.9 0.9 0.9 0.9l0.8 0.9h0.9 0.9 0.9 0.8 0.9 0.9 0.9 0.8 0.9 0.9 0.9 0.9 0.8 0.9 0.9 0.9v0.9h0.8 0.9 0.9 0.9 0.8 0.9 0.9 0.9 0.9 0.8 0.9 0.9l0.9-0.9h0.8 0.9 0.9 0.9 0.8 0.9 0.9 0.9 0.9 0.8 0.9 0.9 0.9 0.8 0.9 0.9v-0.9h0.9 0.8 0.9 0.9 0.9 0.9 0.8 0.9 0.9 0.9 0.8 0.9 0.9 0.9 0.8 0.9 0.9 0.9 0.8v-0.9h0.9 0.9 0.9 0.9 0.8 0.9 0.9 0.9 0.8 0.9 0.9 0.9 0.8 0.9 0.9 1.8 0.8 1.8 0.9 0.8 1.8 0.9 1.7 0.9l0.9 0.9h1.7 0.9 0.9 1.7 0.9l0.9 0.9h1.7 0.9 0.9 0.9l1.7 0.9h0.9 0.9l0.9 0.8h1.7 0.9l0.9 0.9h0.8 0.9l0.9 0.9h0.9 1.7l0.9 0.9h0.9l0.9 0.8h0.8 0.9l0.9 0.9h0.9l0.8 0.9h0.9l0.9 0.9h0.9l0.9 0.8h0.8l0.9 0.9 0.9 0.9h0.9l0.8 0.9 0.9 0.8h0.9l0.9 0.9h0.8l0.9 0.9 0.9 0.9h0.9v0.8l0.9 0.9 0.8 0.9h0.9l0.9 0.9v0.8l0.9 0.9h0.8l0.9 0.9 0.9 0.9v0.9l0.9 0.8 0.8 0.9h0.9v0.9l0.9 0.9 0.9 0.8v0.9l0.8 0.9 0.9 0.9 0.9 0.8 0.9 1.8 0.9 0.9v0.8l0.8 0.9v0.9l0.9 0.9v0.8l0.9 0.9v0.9l0.9 0.9 0.8 0.8v0.9 1.8l0.9 0.8v0.9l0.9 0.9v0.9 0.8l0.9 0.9v1.8 0.8l0.8 0.9v0.9 0.9l0.9 0.9v1.7 0.9l0.9 0.9v0.8 1.8 0.9l0.9 0.8v1.8 0.9 0.8 0.9 1.8 0.8 1.8l0.9 0.9v0.8 1.8 0.9 1.7 0.9 0.9 1.7 0.9 1.7 0.9 1.8 0.9 1.7 0.9 1.7 1.8 0.9 1.7l-0.9 0.9v1.7 0.9 1.8 0.8 1.8 0.9l-0.9 0.8v0.9 1.8 0.8l-0.9 1.8v0.9l-0.9 1.7v0.9 0.9 1.7l-0.8 0.9v0.9l-0.9 0.9v1.7 0.9l-0.9 0.9v0.8l-0.9 1.8v0.9l-0.8 0.8v0.9l-0.9 0.9v0.9l-0.9 1.7v0.9l-0.9 0.9-0.8 0.8v0.9l-0.9 0.9v0.9l-0.9 0.8-0.9 0.9v0.9l-0.9 0.9-0.8 0.8v0.9l-0.9 0.9-0.9 0.9-0.9 0.8v0.9l-0.8 0.9-0.9 0.9-0.9 0.8-0.9 0.9v0.9l-0.8 0.9-0.9 0.9-0.9 0.8h-0.9l-0.8 0.9-0.9 0.9-0.9 0.9-0.9 0.8h-0.9l-0.8 0.9-0.9 0.9-0.9 0.9-0.9 0.8h-0.8l-0.9 0.9-0.9 0.9h-0.9l-0.8 0.9-0.9 0.8h-0.9l-0.9 0.9-0.9 0.9h-0.8l-0.9 0.9h-0.9l-1.7 0.8h-0.9l-0.9 0.9h-0.9l-1.7 0.9h-0.9l-0.9 0.9h-0.9l-0.8 0.8h-1.8l-0.9 0.9h-0.8l-1.8 0.9h-0.9-0.8l-0.9 0.9h-1.8-0.9l-0.8 0.8h-1.8-0.9l-1.7 0.9h-0.9-1.7-0.9l-0.9 0.9h-1.8-0.8-1.8-0.9-1.7l-0.9 0.9h-1.7-0.9-1.8-0.9-1.7-1.8-0.8-1.8-0.9-1.7-0.9-0.9-0.9-0.8-0.9-0.9-0.9-0.8-0.9-0.9-0.9-0.8-0.9-0.9-0.9-0.8-0.9-0.9-0.9-0.9l-0.8-0.9h-0.9-0.9-0.9-0.8-0.9-0.9-0.9-0.8-0.9-0.9-0.9-0.9-0.8-0.9-0.9-0.9-0.8-0.9-0.9l-0.9-0.9h-0.8-0.9-0.9-0.9-0.9-0.8-0.9-0.9-0.9-0.8-0.9-0.9-0.9-0.8-0.9-0.9-0.9-0.9-0.8-0.9-0.9-0.9-0.8-0.9-0.9v0.9h-0.9-0.8-0.9-0.9-0.9-0.9-0.8-0.9-0.9l-0.9 0.9h-0.8-0.9-0.9-0.9v-0.9-0.9-0.9h0.9v-0.8-0.9-0.9-0.9-0.8-0.9-0.9-0.9-0.8-0.9-0.9-0.9-0.8-0.9-0.9-0.9-0.8l0.9-0.9v-0.9-0.9-0.8-0.9-0.9-0.9-0.8-0.9-0.9-0.9-0.9-0.8-0.9-0.9zm38.6 13.2h0.8 0.9 0.9 0.9 0.9 0.8 0.9 0.9l0.9 0.8h0.8 0.9 0.9 0.9 0.8 0.9 0.9 0.9 0.9 0.8 0.9 0.9 0.9 0.8 0.9 0.9 0.9 0.8 0.9 0.9 0.9 0.8 0.9 0.9 0.9 0.9 0.8 0.9 0.9l0.9-0.8h0.8 0.9 0.9 0.9 0.8 0.9v-0.9h0.9 0.9 0.9 0.8l0.9-0.9h0.9 0.9v-0.9h0.8 0.9l0.9-0.8h0.9 0.8v-0.9h0.9 0.9l0.9-0.9h0.9l0.8-0.9h0.9v-0.8h0.9l0.9-0.9 0.8-0.9h0.9l0.9-0.9h0.9l0.8-0.9v-0.8h0.9v-0.9h0.9l0.9-0.9 0.9-0.9v-0.8h0.8l0.9-0.9v-0.9h0.9v-0.9h0.9v-0.8l0.8-0.9v-0.9h0.9l0.9-0.9v-0.8l0.9-0.9v-0.9l0.8-0.9v-0.8h0.9v-0.9-0.9l0.9-0.9 0.9-0.8v-0.9-0.9h0.9v-0.9-0.8l0.8-0.9v-0.9-0.9l0.9-0.8v-0.9-0.9l0.9-0.9v-0.8-0.9l0.9-0.9v-0.9-0.9-0.8l0.8-0.9v-0.9-0.9l0.9-0.8v-0.9-0.9-0.9-1.7l0.9-0.9v-0.9-0.8-0.9-0.9-0.9-1.7l0.9-0.9v-0.9-0.8-1.8-0.9-0.8-0.9-0.9-1.7-0.9-0.9-1.7-0.9-0.9-0.9-1.7-0.9-0.9-0.9-0.8-0.9-0.9-1.7-0.9-0.9-0.9-0.8-0.9-0.9-0.9-0.8l-0.9-0.9v-0.9-0.9-0.8-0.9-0.9-0.9l-0.9-0.8v-0.9-0.9-0.9-0.8l-0.9-0.9v-0.9-0.9l-0.8-0.8v-0.9l-0.9-0.9v-0.9-0.9-0.8l-0.9-0.9v-0.9l-0.9-0.9v-0.8-0.9h-0.8v-0.9l-0.9-0.9v-1.7h-0.9v-0.9l-0.9-0.9v-0.8l-0.9-0.9-0.8-0.9-0.9-0.9v-0.8h-0.9l-0.9-0.9v-0.9h-0.8v-0.9-0.8h-0.9l-0.9-0.9-0.9-0.9-0.8-0.9h-0.9v-0.8l-0.9-0.9-0.9-0.9h-0.9l-0.8-0.9h-0.9v-0.8h-0.9l-0.9-0.9-0.8-0.9h-0.9l-0.9-0.9h-0.9-0.8v-0.8h-0.9l-0.9-0.9h-0.9-0.9l-0.8-0.9h-0.9-0.9l-0.9-0.9h-0.8-0.9l-0.9-0.9h-0.9-0.8-0.9l-1.8-0.8h-0.9-0.8-0.9-0.9l-0.9-0.9h-0.8-0.9-0.9-0.9-1.7-0.9-0.9-0.9-0.8-0.9-0.9-0.9-0.8-0.9-0.9-0.9-0.8-0.9-0.9-0.9-0.8-0.9-0.9-0.9-0.9-0.8-0.9-0.9-0.9-0.8-0.9-0.9-0.9-0.8-0.9-0.9l-0.9 0.9h-0.9-0.8v0.8 0.9 0.9 0.9 0.9 1.7 0.9 0.9 0.8 0.9 0.9 0.9 0.8 0.9 1.8 0.8 0.9 0.9 0.9 0.8 1.8 0.9 0.8 0.9 0.9 1.7 0.9 0.9 0.9 1.7 0.9 0.9 0.8 1.8 0.9 0.9 1.7 0.9 0.9 0.8 1.8 0.9 0.8 1.8 0.9 1.7 0.9 0.9 1.7 0.9 0.9 0.8 1.8 0.9 1.7 0.9 0.9 1.7 0.9 1.7 0.9 0.9 1.8 0.8 1.8 0.9 1.7 0.9 0.9 1.7 0.9 1.7 0.9 0.9 1.7 0.9 0.9 1.7 0.9 1.8 0.8 0.9 1.8 0.8 0.9 1.8 0.8 0.9 0.9 1.8 0.8 0.9 1.8 0.8 0.9 1.8 0.8 0.9 0.9 1.7 0.9 0.9 0.9 0.8 1.8 0.9 0.8 0.9 0.9 1.7 0.9 0.9 0.9 0.8 0.9 0.9 1.7 0.9 0.9 0.9 0.9 0.8 0.9 0.9 0.9 1.7 0.9zm149-14.9v-0.9-0.9-0.8-0.9-0.9-0.9-0.8-0.9-0.9-0.9-0.8-0.9-0.9-1.7-0.9-0.9-0.9-0.8-0.9-0.9-0.9-0.8-0.9-0.9-0.9-0.8-0.9-0.9-0.9-0.9-0.8-0.9-0.9-0.9-0.8-0.9-0.9-1.7-0.9-0.9-0.9-0.8-0.9-0.9-0.9-0.8-0.9-0.9-0.9-0.8-1.8-0.9-0.8-0.9-0.9-0.9-0.8-0.9-0.9-0.9-0.8-0.9-1.8-0.9-0.8-0.9-0.9-0.9-0.8-1.8-0.9-0.8-0.9-0.9-0.9-0.8-0.9-0.9-0.9-0.8-0.9-0.9-0.9-0.8-1.8-0.9-0.8-0.9-0.9-0.9-0.8-0.9-0.9-0.9-0.8-0.9-0.9-0.9-0.9-0.8-0.9-0.9-0.9-0.8-0.9-0.9-0.9-0.8-0.9-0.9-0.9-0.8-0.9-0.9-0.9-0.8-0.9-0.9-0.9-0.8-0.9-0.9-0.9-0.8-0.9-0.9-0.9l-0.8-0.8v-0.9-0.9-0.9-0.8-0.9-0.9-0.9-0.9-0.8-0.9-0.9-0.9-0.8-0.9-0.9-0.9-0.8-0.9-0.9-0.9-0.8l-0.9-0.9v-0.9-0.9-0.8-0.9-0.9-0.9-0.8-0.9-0.9-0.9h0.9 0.8 0.9 0.9 0.9 0.8 0.9 0.9 0.9 0.8 0.9 0.9 0.9 0.9 0.8 0.9 0.9 0.9 0.8 0.9 0.9v0.9h0.9 0.8 0.9 0.9 0.9 0.9v-0.9h0.8 0.9 0.9 0.9 0.8 0.9 0.9 0.9 0.8 0.9 0.9 0.9 0.8 0.9 0.9 0.9 0.9 0.8 0.9 0.9 0.9 0.8 0.9 0.9 0.9 0.8 0.9 0.9 0.9 0.9 0.8 0.9 0.9 0.9 0.8 0.9 0.9 1.7 0.9 0.9 0.9 0.9 0.8 0.9 0.9 0.9 0.8 0.9 0.9 0.9 0.8 0.9 0.9 0.9 0.9l0.8 0.9h0.9 0.9 0.9 0.8 0.9l0.9 0.9h0.9 0.8 0.9 0.9l0.9 0.9h0.9 0.8 0.9v0.8h0.9 0.9 0.8 0.9l0.9 0.9h0.9l0.8 0.9h0.9 0.9l0.9 0.9h0.9v0.8h0.8 0.9l0.9 0.9 0.9 0.9h0.8l0.9 0.9h0.9l0.9 0.8h0.8v0.9h0.9l0.9 0.9 0.9 0.9h0.9v0.8h0.8v0.9l0.9 0.9h0.9v0.9h0.9v0.8l0.8 0.9v0.9h0.9v0.9h0.9v0.8 0.9h0.9v0.9h0.8v0.9 0.9h0.9v0.8 0.9l0.9 0.9v0.9 0.8l0.9 0.9v0.9 0.9 0.8 0.9 0.9h0.8v0.9 0.8 0.9 0.9 0.9 0.8 0.9 0.9 0.9 0.8l-0.8 0.9v0.9 0.9 0.8 0.9 0.9 0.9 0.8h-0.9v0.9 0.9l-0.9 0.9v0.8 0.9l-0.9 0.9v0.9h-0.8v0.9 0.8l-0.9 0.9v0.9l-0.9 0.9v0.8h-0.9v0.9h-0.8v0.9l-0.9 0.9-0.9 0.8v0.9h-0.9v0.9h-0.8v0.9h-0.9v0.8h-0.9v0.9h-0.9v0.9h-0.9l-0.8 0.9-0.9 0.8h-0.9v0.9h-0.9l-0.8 0.9h-0.9v0.9h-0.9l-0.9 0.8h-0.8v0.9h-0.9l-0.9 0.9h-0.9-0.9l-0.8 0.9h-0.9-0.9v0.8h-0.9-0.8l-0.9 0.9h-0.9-0.9-0.8v0.9h-0.9-0.9-0.9l-0.9 0.9h-0.8 0.8 0.9v0.8h0.9 0.9 0.9 0.8v0.9h0.9 0.9 0.9 0.8v0.9h0.9 0.9v0.9h0.9 0.8l0.9 0.8h0.9 0.9v0.9h0.9 0.8v0.9h0.9 0.9v0.9h0.9l0.8 0.9h0.9v0.8h0.9 0.9v0.9h0.8v0.9h0.9l0.9 0.9h0.9v0.8h0.9v0.9h0.8v0.9h0.9v0.9h0.9l0.9 0.8v0.9h0.8v0.9h0.9v0.9h0.9v0.8l0.9 0.9v0.9h0.8v0.9h0.9v0.8 0.9h0.9v0.9l0.9 0.9v0.8 0.9l0.8 0.9v0.9 0.8h0.9v0.9l0.9 0.9v0.9 0.8 0.9 0.9h0.9v0.9 0.8 0.9 0.9 0.9l0.9 0.9v0.8 0.9 0.9 0.9 0.8 0.9 0.9 0.9 0.8 0.9 0.9 0.9 0.8 0.9h-0.9v0.9 0.9 0.8 0.9 0.9 0.9h-0.9v0.8 0.9 0.9 0.9l-0.9 0.8v0.9l-0.9 0.9v0.9 0.8l-0.8 0.9v0.9 0.9h-0.9v0.8l-0.9 0.9v0.9h-0.9v0.9 0.9l-0.8 0.8-0.9 0.9-0.9 0.9v0.9h-0.9v0.8h-0.8v0.9l-0.9 0.9h-0.9v0.9h-0.9v0.8l-0.8 0.9-0.9 0.9-0.9 0.9h-0.9v0.8h-0.9l-0.8 0.9-0.9 0.9h-0.9v0.9h-0.9-0.8v0.8h-0.9l-0.9 0.9h-0.9l-0.8 0.9h-0.9v0.9h-0.9-0.9l-0.9 0.8h-0.8-0.9v0.9h-0.9-0.9-0.8v0.9h-0.9-0.9-0.9l-0.8 0.9h-0.9-0.9l-0.9 0.8h-0.9-0.8-0.9l-0.9 0.9h-0.9-0.8-0.9-0.9-0.9-0.8-0.9-0.9v0.9h-0.9-0.9-0.8-0.9-0.9-0.9-0.8-0.9-0.9-0.9-0.8-0.9-0.9-0.9-0.9-0.8-0.9-0.9-0.9-0.8-0.9-0.9-0.9-0.8-0.9-0.9-0.9-0.9-0.8-0.9-0.9-0.9-0.8-0.9-0.9-0.9-0.8-0.9-0.9-0.9l-0.9-0.9h-0.8-0.9-0.9-0.9-0.8-0.9-0.9-0.9-0.8-0.9-0.9-0.9-0.8-0.9-0.9-0.9-0.9-0.8-0.9-0.9-0.9-0.8-0.9-0.9-0.9v0.9h-0.8-0.9-0.9-0.9-0.9-0.8-0.9-0.9-0.9-0.8-0.9-0.9-0.9-0.8-0.9v-0.9-0.9-0.8-0.9-0.9-0.9-0.8-0.9-0.9-0.9h0.9v-0.8-0.9-0.9-0.9-0.8-0.9-0.9-0.9-0.8-0.9-0.9-0.9-0.8-0.9-0.9-0.9-0.8-0.9-0.9-0.9-0.9-0.8h0.8v-0.9-0.9-0.9-0.8q0 0 0-0.9zm37.7-68.3h0.9 0.9 0.9 0.8 0.9 0.9 0.9 0.8 0.9 0.9 0.9l0.9-0.9h0.8 0.9 0.9 0.9 0.8v-0.9h0.9 0.9 0.9 0.8v-0.8h0.9 0.9 0.9v-0.9h0.9 0.8l0.9-0.9h0.9v-0.9h0.9 0.8v-0.8h0.9l0.9-0.9h0.9v-0.9h0.8v-0.9h0.9v-0.8h0.9v-0.9l0.9-0.9 0.9-0.9v-0.8h0.8v-0.9l0.9-0.9v-0.9h0.9v-0.8-0.9h0.9v-0.9-0.9l0.8-0.8v-0.9-0.9-0.9h0.9v-0.9-0.8-0.9-0.9l0.9-0.9v-0.8-0.9-0.9-0.9-0.8-0.9-0.9-0.9-0.8-0.9-0.9-0.9-0.8-0.9l-0.9-0.9v-0.9-0.8-0.9l-0.9-0.9v-0.9-0.8h-0.8v-0.9-0.9h-0.9v-0.9h-0.9v-0.8-0.9h-0.9v-0.9h-0.8v-0.9h-0.9v-0.8h-0.9v-0.9h-0.9v-0.9h-0.9-0.8v-0.9h-0.9v-0.9h-0.9l-0.9-0.8h-0.8-0.9v-0.9h-0.9-0.9l-0.8-0.9h-0.9-0.9-0.9-0.9v-0.9h-0.8-0.9-0.9-0.9-0.8-0.9-0.9-0.9v-0.8h-0.8-0.9-0.9-0.9-0.9-0.8v0.8h-0.9-0.9-0.9-0.8-0.9-0.9-0.9v0.9 1.8 1.7 0.9 0.9 0.9 0.8 0.9 0.9 0.9 0.8 0.9 0.9 0.9 0.8 0.9 0.9 0.9 0.8 0.9 0.9 0.9 1.7 0.9 0.9 0.8 0.9 0.9 0.9 0.8 0.9 0.9 0.9 0.8 0.9 0.9 0.9 0.8 0.9 0.9 0.9 0.9 0.8 0.9 1.8 0.8 0.9 0.9 0.9 0.8 0.9 0.9 0.9 0.8 0.9 0.9 0.9 0.8 0.9 0.9 0.9 1.7zm0 82.3v0.9h0.9 0.9 0.9 0.8 0.9 0.9 0.9 0.8 0.9 0.9 0.9 0.9 0.8 0.9 0.9 0.9 0.8 0.9 0.9 0.9 0.8 0.9l0.9-0.9h0.9 0.9 0.8l0.9-0.8h0.9 0.9v-0.9h0.8 0.9v-0.9h0.9 0.9v-0.9h0.8l0.9-0.8h0.9v-0.9h0.9l0.9-0.9v-0.9h0.8l0.9-0.9v-0.8h0.9v-0.9h0.9v-0.9l0.8-0.9v-0.8h0.9v-0.9l0.9-0.9v-0.9-0.8h0.9v-0.9h0.8v-0.9-0.9-0.8-0.9h0.9v-0.9-0.9-0.8-0.9h0.9v-0.9-0.9-0.8-0.9-0.9-0.9-0.8-0.9-0.9l0.9-0.9v-0.8-0.9-0.9-0.9l-0.9-0.8v-0.9-0.9-0.9-0.9-0.8-0.9-0.9l-0.9-0.9v-0.8-0.9-0.9h-0.9v-0.9-0.8-0.9h-0.8v-0.9-0.9h-0.9v-0.8-0.9h-0.9v-0.9-0.9h-0.9v-0.8h-0.8v-0.9h-0.9v-0.9h-0.9v-0.9h-0.9v-0.8h-0.8v-0.9h-0.9l-0.9-0.9-0.9-0.9h-0.9l-0.8-0.8h-0.9v-0.9h-0.9-0.9l-0.8-0.9h-0.9l-0.9-0.9h-0.9-0.8-0.9l-0.9-0.8h-0.9-0.9-0.8-0.9-0.9-0.9-0.8l-0.9-0.9h-0.9-0.9-0.8-0.9-0.9-0.9-0.9-0.8-0.9-0.9-0.9-0.8-0.9-0.9-0.9v0.9 0.8 1.8 0.9 0.8 0.9 1.8 0.8 0.9 0.9 0.9 0.8 1.8 0.9 0.8 0.9 0.9 1.7 0.9 0.9 0.9 0.8 1.8 0.9 0.8 0.9 0.9 1.8 0.8 0.9 0.9 1.7 0.9 0.9 0.9 0.8 0.9 1.8 0.8 0.9 0.9 0.9 1.7 0.9 0.9 0.8 0.9 0.9 0.9 1.7 0.9 0.9 0.8 1.8 0.9 0.8 0.9 0.9 1.8 0.8 0.9 0.9 0.9zm121-14.1v-0.8-0.9-0.9-0.9-0.8-0.9-0.9-0.9-0.8-0.9-0.9-0.9-0.8-1.8-0.9-0.8-0.9-0.9-0.9-0.8-0.9-0.9-0.9-0.8-0.9-0.9-0.9-0.9-0.8-0.9-0.9-0.9-0.8-0.9-0.9-0.9-0.8-1.8-0.9-0.8-0.9-0.9-0.9-0.8-0.9-0.9-0.9-0.8-0.9-0.9-1.7-0.9-0.9-0.9-0.8-0.9-0.9-0.9-0.8-0.9-0.9-0.9-1.7-0.9-0.9-0.9-0.8-0.9-0.9-1.7-0.9-0.9-0.9-0.8-0.9-0.9-0.9-0.8-0.9-0.9-0.9-0.8-0.9-0.9-1.7-0.9-0.9-0.9-0.8-0.9-0.9-0.9-0.8-0.9-0.9-0.9-0.9-0.8-0.9-0.9-0.9-0.8-0.9-0.9-0.9-0.8-0.9-0.9-0.9-0.8-0.9-0.9-0.9-0.8-0.9-0.9-0.9-0.8-0.9-0.9-0.9-0.8-0.9-0.9-0.9-0.8-0.9-0.9-0.9-0.8-0.9-0.9-0.9h-0.8v-0.9-0.8-0.9-0.9-0.9-0.8-0.9-0.9-0.9-0.8-0.9-0.9-0.9-0.8-0.9-0.9-0.9-0.8-0.9-0.9-0.9l-0.9-0.8v-0.9-0.9-0.9-0.8-0.9h0.9 0.8 0.9 0.9 0.9 0.8 0.9 0.9 0.9 0.9 0.8 0.9 0.9 0.9 0.8 0.9v0.9h0.9 0.9 0.8 0.9 0.9 0.9 0.9 0.8 0.9 0.9 0.9 0.8 0.9 0.9 0.9l0.8-0.9h0.9 0.9 0.9 0.8 0.9 0.9 0.9 0.9 0.8 0.9 0.9 0.9 0.8 0.9 0.9 0.9v0.9h-0.9v0.8 0.9 0.9 0.9 0.8 0.9 0.9 0.9 0.8 0.9 0.9 0.9 0.8 0.9 0.9 0.9 0.8 0.9 0.9 0.9 0.8h-0.9v0.9 0.9 0.9 0.8 0.9 0.9 0.9 0.9 0.8 0.9 0.9 0.9 0.8 0.9 0.9 0.9 0.8 0.9 0.9 0.9 0.8 0.9 0.9 0.9 0.8 0.9 0.9 0.9 0.8 0.9 0.9 0.9 0.8 0.9 0.9 0.9 0.8 0.9 0.9 0.9 0.8 0.9 0.9 0.9 0.9 0.8 0.9 0.9 0.9 0.8l-0.9 0.9v0.9 1.7 0.9 0.9 0.9 0.8 0.9 0.9 0.9 0.8 0.9 0.9 0.9 0.8 0.9 0.9 0.9 1.7 0.9 0.9 0.8 0.9 0.9 0.9 0.8 0.9 1.8 0.9 0.8 0.9 0.9 0.9 0.8 0.9 0.9 0.9 1.7 0.9 0.9 0.8 0.9 0.9 0.9 0.8 0.9 0.9 0.9 0.8 1.8 0.9 0.8 0.9l0.9 0.9v0.9 0.8 0.9 0.9 0.9 0.8 0.9 0.9 0.9 0.9 0.8 0.9 0.9 0.9 0.8 0.9 0.9 0.9 0.8 0.9 0.9 0.9 0.8 1.8 0.9 0.8 0.9 0.9 0.9 0.8 0.9 0.9 0.9 0.8 0.9 0.9 0.9 0.8 0.9 0.9 0.9 0.8 0.9 0.9 0.9 0.9 0.8 0.9 0.9h0.9v0.9 0.8 0.9 0.9 0.9 0.8 0.9 0.9 0.9 0.8 0.9 0.9 0.9 0.8 0.9 0.9 0.9 0.8 0.9 0.9 0.9h0.9v0.8h-0.9-0.9-0.9-0.8-0.9-0.9-0.9-0.8l-0.9-0.8h-0.9-0.9-0.9-0.8-0.9-0.9-0.9-0.8-0.9-0.9-0.9-0.8-0.9-0.9-0.9-0.8-0.9-0.9-0.9-0.9-0.8-0.9-0.9-0.9-0.8-0.9-0.9-0.9-0.8-0.9v0.8h-0.9-0.9-0.9-0.8-0.9-0.9-0.9-0.8-0.9v-0.8-0.9-0.9-0.9-0.8-0.9h0.9v-0.9-0.9-0.8-0.9-0.9-0.9-0.8-0.9-0.9-0.9-0.8-0.9-0.9-0.9-0.8-0.9-0.9-0.9-0.8-0.9-0.9h0.8v-0.9-0.9-0.8-0.9-0.9-0.9-0.8-0.9-0.9zm171.9-40.3h0.9 0.9 0.8 0.9 0.9 0.9 0.8 0.9 0.9 0.9 0.8 0.9l0.9 0.9h0.9 0.8 0.9 0.9 0.9 0.9 0.8v0.9h0.9 0.9 0.9l0.8 0.9h0.9 0.9 0.9 0.8v0.8h0.9l0.9 0.9h0.9 0.9 0.8v0.9h0.9l0.9 0.9h0.9l0.8 0.8h0.9v0.9h0.9v0.9h0.9l0.8 0.9v0.8h0.9v0.9h0.9v0.9h0.9v0.9h0.9v0.8l0.8 0.9v0.9 0.9h0.9v0.9 0.8h0.9v0.9 0.9 0.9h0.9v0.8 0.9 0.9 0.9 0.8l0.8 0.9v0.9 0.9 0.8 0.9 0.9 0.9 0.8 0.9 0.9 0.9 0.8 0.9 0.9 0.9 0.8 0.9 0.9h-0.8v0.9 0.8 0.9 0.9 0.9h-0.9v0.8 0.9 0.9l-0.9 0.9v0.9l-0.9 0.8v0.9l-0.8 0.9v0.9l-0.9 0.8-0.9 0.9v0.9h-0.9v0.9h-0.9v0.8h-0.8v0.9l-0.9 0.9h-0.9v0.9h-0.9v0.8h-0.8v0.9h-0.9l-0.9 0.9h-0.9v0.9h-0.8-0.9v0.8h-0.9l-0.9 0.9h-0.9v0.9h-0.8-0.9-0.9v0.9h-0.9l-0.8 0.8h-0.9-0.9-0.9-0.8l-0.9 0.9h-0.9-0.9-0.9v0.9h-0.8-0.9-0.9-0.9-0.8l-0.9 0.9h-0.9-0.9-0.8-0.9-0.9-0.9-0.8-0.9-0.9-0.9-0.9-0.8-0.9-0.9-0.9-0.8-0.9-0.9-0.9-0.8-0.9-0.9-0.9-0.9-0.8-0.9-0.9-0.9-0.8-0.9-0.9-0.9-0.8-0.9-0.9-0.9-0.9-0.8-0.9-0.9-0.9-0.8-0.9-0.9-0.9-0.8-0.9-0.9-0.9-0.9-0.8-0.9-0.9-0.9-0.8-0.9-0.9-0.9-0.8-0.9-0.9-0.9-0.9-0.8-0.9-0.9-0.9v-0.9-0.9-0.9-0.8-0.9-0.9-0.9-0.8l0.9-0.9v-0.9-0.9-0.8-0.9-0.9-0.9-0.8-0.9-0.9-0.9-0.8-0.9-0.9-0.9-0.8-0.9-0.9-0.9-0.9-0.8-0.9-0.9-0.9-0.8-0.9-0.9-0.9-0.8-0.9h0.9v-0.9-0.9-0.8-0.9-0.9-0.9-0.8-0.9-0.9l-0.9-0.9v-0.8-0.9-0.9-0.9-0.8-0.9-0.9-0.9-0.8-0.9-0.9-0.9-0.8-0.9-0.9-0.9-0.9-0.8-0.9-0.9-0.9-0.8-0.9-0.9-0.9-0.8-0.9-0.9-0.9-0.8-0.9-0.9-0.9-0.8-0.9-0.9-0.9-0.8-0.9-0.9-0.9-0.8-0.9-0.9-0.9-0.8-0.9-0.9-0.9-0.8l-0.9-0.9v-0.9-0.9-0.9-0.8-0.9-0.9-0.9-0.8-0.9-0.9-0.9-0.8-0.9-0.9-0.9-0.8-0.9-0.9-0.9-0.8-0.9-0.9-0.9-0.8-0.9-0.9-0.9-0.8-0.9-0.9-0.9-0.8-0.9-0.9-0.9-0.8-0.9-0.9-0.9-0.9-0.8-0.9-0.9-0.9-0.8-0.9-0.9-0.9-0.8-0.9-0.9-0.9-0.8-0.9-0.9-0.9h0.9 0.9 1.7 0.9 0.9 1.8 0.8l0.9 0.9h0.9 0.9 0.8 1.8 1.7 0.9 0.9 0.9 0.9 0.8 0.9 0.9 0.9 0.8 0.9 0.9 0.9 0.8 0.9 0.9 0.9 0.9 0.8 0.9 0.9 0.9 0.8 0.9 0.9 0.9 0.8 0.9 0.9 0.9 0.9 0.8 0.9 0.9 0.9 0.8 0.9 0.9 0.9 0.8 0.9 0.9 0.9 0.9l0.8 0.9h0.9 0.9 0.9 0.8 0.9 0.9 0.9 0.8l0.9 0.9h0.9 0.9 0.8 0.9l0.9 0.8h0.9 0.9 0.8v0.9h0.9 0.9 0.9v0.9h0.8 0.9 0.9v0.9h0.9 0.8v0.8h0.9 0.9v0.9h0.9v0.9h0.9l0.8 0.9h0.9v0.8h0.9 0.9v0.9h0.8v0.9h0.9v0.9h0.9v0.8h0.9v0.9l0.8 0.9v0.9h0.9v0.9l0.9 0.8v0.9l0.9 0.9v0.9l0.9 0.8v0.9 0.9h0.8v0.9 0.8 0.9 0.9 0.9 0.8h0.9v0.9 0.9 0.9 0.8 0.9 0.9l-0.9 0.9v0.8 0.9 0.9 0.9 0.8 0.9h-0.8v0.9 0.9h-0.9v0.8 0.9l-0.9 0.9v0.9h-0.9v0.8 0.9h-0.9v0.9l-0.8 0.9-0.9 0.9v0.8h-0.9v0.9h-0.9v0.9h-0.8v0.9h-0.9l-0.9 0.8h-0.9v0.9h-0.8l-0.9 0.9h-0.9v0.9h-0.9l-0.9 0.8h-0.8v0.9h-0.9-0.9l-0.9 0.9h-0.8-0.9v0.9h-0.9-0.9-0.8v0.8h-0.9-0.9-0.9l-0.9 0.9h-0.8-0.9-0.9-0.9l-0.8 0.9h-0.9-0.9-0.9-0.8l-0.9 0.9h-0.9-0.9-0.8-0.9-0.9q0 0 0 0.8zm11.4-30.6v-0.9-0.9-0.8-0.9-0.9-0.9-0.8l-0.9-0.9v-0.9-0.9l-0.9-0.8v-0.9-0.9h-0.8v-0.9-0.8h-0.9v-0.9h-0.9v-0.9h-0.9v-0.9h-0.8v-0.8h-0.9v-0.9h-0.9-0.9v-0.9h-0.8-0.9v-0.9h-0.9-0.9v-0.9h-0.9-0.8-0.9l-0.9-0.8h-0.9-0.8-0.9-0.9-0.9l-0.8-0.9h-0.9-0.9-0.9-0.9-0.8-0.9-0.9-0.9-0.8-0.9-0.9v0.9 0.8 0.9 0.9 0.9 0.9 0.8 0.9 0.9 0.9 0.8 0.9 0.9 0.9l-0.9 0.8v0.9 0.9 0.9 0.8 0.9 0.9 0.9 0.8 0.9 0.9 0.9 0.8 0.9 0.9 0.9 0.8 0.9 0.9 0.9 0.8 0.9 0.9 0.9 0.8 0.9 0.9 0.9 0.9 0.8 0.9 0.9 0.9 0.8 0.9 0.9 0.9 0.8 0.9 0.9h0.9 0.9 0.9 0.8 0.9 0.9 0.9 0.8 0.9 0.9 0.9 0.9 0.8l0.9-0.9h0.9 0.9 0.8 0.9 0.9l0.9-0.9h0.8 0.9v-0.8h0.9 0.9v-0.9h0.9l0.8-0.9h0.9v-0.9h0.9v-0.8l0.9-0.9v-0.9h0.8v-0.9l0.9-0.8v-0.9l0.9-0.9v-0.9-0.9h0.9v-0.8-0.9h0.8v-0.9-0.9-0.8-0.9h0.9v-0.9-0.9-0.8-0.9h0.9v-0.9-0.9-0.8zm-30.7 89.3h0.9 0.9 0.8 0.9 0.9 0.9 0.8 0.9 0.9 0.9 0.9 0.8l0.9-0.9h0.9 0.9 0.8 0.9v-0.9h0.9 0.9 0.8 0.9v-0.8h0.9 0.9v-0.9h0.9 0.8v-0.9h0.9v-0.9h0.9 0.9v-0.8h0.8v-0.9h0.9v-0.9h0.9v-0.9l0.9-0.8v-0.9h0.8v-0.9-0.9l0.9-0.9v-0.8-0.9h0.9v-0.9-0.9-0.8l0.9-0.9v-0.9-0.9-0.8-0.9-0.9-0.9-0.8-0.9-0.9-0.9-0.8-0.9-0.9-0.9-0.8-0.9-0.9l-0.9-0.9v-0.8-0.9-0.9l-0.9-0.9v-0.8h-0.9v-0.9-0.9-0.9h-0.8v-0.8h-0.9v-0.9l-0.9-0.9-0.9-0.9v-0.9h-0.8v-0.8h-0.9-0.9v-0.9h-0.9v-0.9h-0.8-0.9v-0.9h-0.9l-0.9-0.8h-0.9-0.8v-0.9h-0.9-0.9-0.9-0.8v-0.9h-0.9-0.9-0.9-0.8-0.9v-0.9h-0.9-0.9-0.9-0.8-0.9-0.9-0.9-0.8-0.9-0.9-0.9v0.9 0.9 0.9 0.8 0.9 0.9 0.9 0.8 0.9 0.9 0.9 0.9 0.8 0.9 0.9 0.9 0.8 0.9 0.9 0.9 0.8 0.9 0.9 0.9 0.8 0.9 0.9 0.9 0.8 0.9 0.9 0.9 0.8 0.9 0.9 0.9 0.8 0.9 0.9 0.9 0.8 0.9 0.9 0.9 0.8 0.9 0.9 0.9 0.9 0.8 0.9 0.9h0.9v0.9 0.8 0.9 0.9 0.9 0.8 0.9zm197.3 11.4h-0.9-0.9-0.8-0.9-0.9-0.9-0.8-0.9-0.9-0.9-0.9-0.8-0.9-0.9-0.9-0.8-0.9-0.9-0.9-0.8-0.9-0.9-0.9-0.8-0.9-0.9-0.9-0.9-0.8-0.9-0.9-0.9-0.8-0.9-0.9-0.9-0.8-0.9-0.9v-0.9h-0.9v-0.9-0.8-0.9h-0.9v-0.9-0.9-0.8-0.9h-0.8v-0.9-0.9-0.8h-0.9v-0.9-0.9-0.9h-0.9v-0.8-0.9l-0.9-0.9v-0.9-0.8l-0.8-0.9v-0.9-0.9-0.8h-0.9v-0.9-0.9-0.9h-0.9v-0.9-0.8-0.9-0.9h-0.9v-0.9-0.8-0.9h-0.8v-0.9-0.9-0.8h-0.9v-0.9-0.9-0.9h-0.9v-0.8-0.9-0.9l-0.9-0.9v-0.8h-0.9v-0.9h-0.8-0.9-0.9-0.9-0.8-0.9-0.9-0.9-0.8-0.9-0.9-0.9-0.9-0.8-0.9-0.9-0.9-0.8-0.9-0.9-0.9-0.8-0.9-0.9-0.9-0.9-0.8-0.9-0.9-0.9-0.8-0.9-0.9-0.9-0.8-0.9-0.9-0.9-0.9-0.8-0.9-0.9-0.9-0.8-0.9-0.9-0.9-0.8-0.9-0.9-0.9-0.8-0.9v0.9l-0.9 0.8v0.9 0.9l-0.9 0.9v0.8 0.9 0.9h-0.9v0.9 0.8 0.9l-0.8 0.9v0.9h-0.9v0.8 0.9l-0.9 0.9v0.9 0.8 0.9h-0.9v0.9 0.9l-0.8 0.9v0.8 0.9l-0.9 0.9v0.9 0.8l-0.9 0.9v0.9 0.9 0.8h-0.9v0.9 0.9 0.9l-0.8 0.8v0.9l-0.9 0.9v0.9l-0.9 0.8v0.9 0.9 0.9l-0.9 0.8v0.9 0.9h-0.9-0.8-0.9-0.9-0.9-0.8-0.9-0.9-0.9-0.8-0.9-0.9-0.9-0.9-0.8-0.9-0.9-0.9-0.8-0.9-0.9 0.9v-0.9-0.9-0.8h0.9v-0.9-0.9h0.8v-0.9-0.8-0.9h0.9v-0.9-0.9h0.9v-0.8-0.9l0.9-0.9v-0.9-0.8h0.8v-0.9-0.9l0.9-0.9v-0.8-0.9h0.9v-0.9-0.9l0.9-0.8v-0.9l0.9-0.9v-0.9l0.8-1.7v-1.8l0.9-0.9 0.9-0.8v-1.8l0.9-0.9v-1.7l0.8-0.9v-0.9l0.9-0.8v-1.8l0.9-0.9v-0.8l0.9-0.9v-0.9l0.8-1.7v-0.9l0.9-0.9v-0.9l0.9-0.8v-0.9-0.9l0.9-0.9v-0.8l0.9-0.9v-0.9l0.8-0.9v-0.8-0.9l0.9-0.9v-0.9-0.9l0.9-0.8v-0.9l0.9-0.9v-0.9-0.8h0.8v-0.9-0.9-0.9h0.9v-0.8-0.9h0.9v-0.9-0.9-0.8h0.9v-0.9-0.9h0.8v-0.9-0.8h0.9v-0.9-0.9-0.9l0.9-0.8v-0.9l0.9-1.8v-0.8l0.9-0.9v-0.9l0.8-0.9v-0.8l0.9-0.9v-1.8l0.9-0.8v-0.9-0.9l0.9-0.9 0.8-0.9v-1.7l0.9-0.9v-0.9l0.9-0.8v-0.9-0.9l0.9-0.9v-1.7l0.8-0.9v-0.9-0.8l0.9-0.9v-1.8l0.9-0.8v-0.9l0.9-0.9v-0.9l0.8-0.8v-1.8l0.9-0.9v-0.8l0.9-0.9v-0.9l0.9-0.9v-1.7l0.9-0.9v-0.9-0.8l0.8-0.9v-1.8l0.9-0.9v-0.8l0.9-0.9v-0.9l0.9-1.7v-0.9-0.9l0.8-0.9v-0.8l0.9-1.8v-0.9l0.9-0.8 0.9-0.9v-0.9-1.7l0.8-0.9v-0.9h0.9 0.9v0.9h0.9 0.9 0.8 0.9 0.9 0.9 0.8 0.9 0.9 0.9 0.8 0.9 0.9v-0.9h0.9 0.9 0.8l0.9 2.6 0.9 2.7 0.9 2.6 0.8 1.7 0.9 2.7 0.9 2.6 0.9 1.7 0.8 2.7 0.9 1.7 0.9 2.7 0.9 1.7 0.9 2.6 0.8 1.8 0.9 2.6 0.9 1.8v1.7l0.9 1.8 0.8 1.7 0.9 1.8 0.9 1.7 0.9 2.6 0.8 1.8v0.9l0.9 1.7 0.9 1.8v1.7l0.9 1.8 0.9 0.9v1.7l0.8 1.8 0.9 0.8v1.8l0.9 0.9 0.9 1.7v0.9l0.8 1.7v0.9l0.9 0.9v1.7l0.9 0.9v0.9 0.9l0.9 0.8v0.9l0.8 0.9v0.9 0.8l0.9 0.9v0.9 0.9h0.9v0.8 0.9l0.9 0.9v0.9 0.9h0.9v0.8 0.9h0.8v0.9 0.9l0.9 0.8v0.9l0.9 0.9v0.9 0.8l0.9 0.9v0.9 0.9h0.8v0.8 0.9l0.9 0.9v0.9l0.9 0.8v0.9 0.9 0.9h0.9v0.8 0.9h0.8v0.9 0.9l0.9 0.8v0.9l0.9 0.9v0.9l0.9 0.8v0.9 0.9l0.8 0.9v0.8 0.9h0.9v0.9 0.9l0.9 0.9v0.8 0.9 0.9h0.9v0.9l0.9 0.8v0.9 0.9 0.9h0.8v0.8 0.9h0.9v0.9 0.9l0.9 0.8v0.9h0.9v0.9 0.9h0.8v0.8 0.9 0.9h0.9v0.9 0.8 0.9h0.9zm-52.6-51.6v-0.9h-0.9v-0.9-0.9-0.9l-0.9-0.8v-0.9-0.9h-0.8v-0.9-0.8l-0.9-0.9v-0.9l-0.9-0.9v-0.8-0.9-0.9h-0.9v-0.9-0.8h-0.9v-0.9-0.9-0.9-0.8h-0.8v-0.9-0.9l-0.9-0.9v-0.8-0.9h-0.9v-0.9-0.9-0.8l-0.9-0.9v-0.9-0.9h-0.8v-0.8-0.9l-0.9-0.9v-0.9h-0.9v-0.8-0.9h-0.9v-0.9-0.9-0.9h-0.8v-0.8-0.9-0.9h-0.9v-0.9-0.8h-0.9v-0.9-0.9-0.9h-0.9v-0.8-0.9l-0.9-0.9v0.9h-0.8v0.9 0.8 0.9h-0.9v0.9h-0.9v0.9 0.8l-0.9 0.9v0.9l-0.8 0.9v0.8 0.9h-0.9v0.9 0.9l-0.9 0.9v0.8 0.9h-0.9v0.9 0.9l-0.8 0.8v0.9 0.9h-0.9v0.9 0.8 0.9h-0.9v0.9 0.9 0.8h-0.9v0.9 0.9h-0.9v0.9 0.8 0.9l-0.8 0.9v0.9l-0.9 0.8v0.9 0.9l-0.9 0.9v0.8 0.9h-0.9v0.9 0.9l-0.8 0.8v0.9 0.9 0.9h-0.9v0.8 0.9 0.9l-0.9 0.9v0.9h0.9 0.9 0.8 0.9 0.9 0.9 0.8 0.9 0.9 0.9 0.9 0.8 0.9 0.9 0.9 0.8 0.9 0.9 0.9 0.8 0.9 0.9 0.9 0.9 0.8 0.9 0.9 0.9 0.8 0.9 0.9 0.9 0.8 0.9 0.9 0.9 0.9 0.8 0.9 0.9zm185-83.2v0.8 0.9 0.9h-0.9v0.9 0.8 0.9 0.9 0.9 0.8 0.9 0.9 0.9 0.8 0.9 0.9 0.9h-0.9v0.8 0.9 0.9 0.9 0.9 0.8 0.9 0.9 0.9 0.8 0.9 0.9 0.9 0.8 0.9 0.9 0.9 0.8 0.9 0.9 0.9l-0.8 0.8v0.9 0.9 0.9 0.8 0.9 0.9 0.9 0.8 0.9 0.9 0.9 0.8 0.9 0.9 0.9 0.8 0.9 0.9 0.9 0.9 0.8 0.9 0.9 0.9 0.8 0.9 0.9 0.9 0.8 0.9 0.9 0.9 0.8 0.9 0.9 0.9 0.8 0.9 0.9 0.9 0.8 0.9 0.9 0.9 0.8 0.9 0.9 0.9 0.8 0.9 0.9 0.9 0.8 0.9 0.9 0.9 0.9 0.8 0.9 0.9 0.9 0.8 0.9 0.9 0.9 0.8 0.9l0.8 0.9v0.9 0.8 0.9 0.9 0.9 0.8 0.9 0.9 0.9 0.8 0.9 0.9 0.9 0.8 0.9 0.9 0.9 0.8 0.9 0.9 0.9 0.8 0.9 0.9 0.9 0.9l0.9 0.8v0.9 0.9 0.9 0.8 0.9 0.9 0.9 0.8 0.9 0.9 0.9 0.8 0.9 0.9 0.9 0.8 0.9 0.9 0.9 0.8 0.9 0.9h-0.9-0.8-0.9-0.9-0.9-0.8v-0.9h-0.9-0.9-0.9-0.8-0.9-0.9-0.9-0.9-0.8l-0.9 0.9h-0.9-0.9-0.8-0.9v-0.9h-0.9v-0.9h-0.9v-0.8h-0.8v-0.9l-0.9-0.9-0.9-0.9v-0.8h-0.9v-0.9h-0.9v-0.9h-0.8v-0.9h-0.9v-0.8h-0.9v-0.9h-0.9v-0.9h-0.8v-0.9l-0.9-0.8-0.9-0.9v-0.9h-0.9v-0.9h-0.8v-0.8h-0.9v-0.9h-0.9v-0.9h-0.9v-0.9l-0.9-0.8v-0.9h-0.8v-0.9h-0.9v-0.9h-0.9v-0.9l-0.9-0.8h-0.8v-0.9h-0.9v-0.9l-0.9-0.9-0.9-0.8-0.8-0.9-0.9-0.9v-0.9h-0.9v-0.8l-0.9-0.9h-0.9v-0.9h-0.8v-0.9l-0.9-0.8-0.9-0.9-0.9-0.9-0.8-0.9-0.9-0.8-0.9-0.9v-0.9h-0.9v-0.9h-0.8v-0.8h-0.9v-0.9l-0.9-0.9-0.9-0.9-0.9-0.8-0.8-0.9-0.9-0.9-0.9-0.9v-0.8h-0.9v-0.9h-0.8v-0.9h-0.9v-0.9l-0.9-0.8h-0.9v-0.9h-0.8v-0.9l-0.9-0.9h-0.9v-0.9h-0.9v-0.8l-0.8-0.9-0.9-0.9-0.9-0.9v-0.8h-0.9v-0.9h-0.9v-0.9l-0.8-0.9h-0.9l-0.9-0.8v-0.9l-0.9-0.9-0.8-0.9-0.9-0.8-0.9-0.9v-0.9h-0.9l-0.8-0.9v-0.8l-0.9-0.9-0.9-0.9h-0.9l-0.9-0.9v-0.8h-0.8l-0.9-0.9v-0.9h-0.9v-0.9l-0.9-0.8-0.8-0.9-0.9-0.9v-0.9h-0.9l-0.9-0.8-0.8-0.9-0.9-0.9-0.9-0.9-0.9-0.8-0.9-0.9-0.8-0.9v-0.9h-0.9v-0.9l-0.9-0.8-0.9-0.9-0.8-0.9-0.9-0.9h-0.9v-0.8l-0.9-0.9-0.8-0.9v1.8 0.8 1.8 1.7 0.9 1.8 0.9 1.7 0.9 1.7 1.8 0.9 1.7 0.9 0.9 1.7 0.9 1.7 0.9 1.8 0.8 0.9 1.8 0.8 0.9 1.8 0.8 0.9 0.9 1.7 0.9 0.9 0.9 0.9 0.8 1.8 0.9 0.8 0.9 0.9 0.9 0.8 0.9 0.9 0.9 0.8 0.9 0.9 0.9 0.8 0.9 0.9 0.9 0.8 0.9 0.9 0.9 0.8 0.9 0.9 0.9 0.8 0.9 0.9 0.9 0.8 0.9 0.9 0.9 0.9 0.8 0.9 0.9l0.8 0.9v0.8 0.9 0.9 0.9 0.8 0.9 0.9 0.9 0.8 0.9 0.9 0.9 0.8 0.9 0.9 0.9 0.8 0.9 0.9h-0.8-0.9-0.9-0.9-0.9v-0.9h-0.8-0.9-0.9-0.9-0.8-0.9-0.9-0.9v0.9h-0.8-0.9-0.9-0.9-0.9-0.8-0.9v-1.8-2.6-1.7-1.8-2.6-1.8-2.6-1.7-2.7-1.7-2.7-1.7-2.6-1.8-1.7-2.7-1.7-2.6-1.8-1.7-2.7-1.7-1.8-2.6-1.7-2.7-1.7-2.7-1.7-1.8-2.6-1.7-2.7-1.7-2.6-1.8-2.6-1.8-1.7-2.6-1.8-2.6-1.8-1.7-2.7-1.7-2.6-1.8-2.6-1.8-1.7-2.6-1.8-1.7-2.7-1.7-2.7-1.7-2.6-1.8-2.6-1.8-1.7-2.6h0.9 0.8 0.9 0.9 0.9 0.9 0.8 0.9v0.8h0.9 0.9 0.8 0.9 0.9 0.9 0.8 0.9 0.9 0.9 0.9 0.8 0.9 0.9 0.9l0.8-0.8h0.9 0.9l0.9 1.7 0.8 0.9 1.8 1.7 0.9 1.8 1.7 0.9 1.8 1.7 0.9 0.9 0.8 1.7 1.8 1.8 0.9 0.9 0.8 1.7 1.8 1.8 1.8 0.9 0.8 1.7 0.9 1.8 1.8 0.8 0.8 1.8 1.8 1.7 1.7 0.9 0.9 1.8 0.9 0.8 1.8 1.8 0.8 1.7 1.8 0.9 0.9 1.8 1.7 1.7 0.9 0.9 0.9 1.7 1.7 0.9 0.9 1.8 1.7 1.7 0.9 0.9 1.8 1.7 0.9 1.8 1.7 0.9 0.9 1.7 1.7 0.9 0.9 1.8 1.8 0.8 0.8 1.8 1.8 1.7 0.9 0.9 1.7 1.8 0.9 1.7 1.8 0.9 0.8 1.7 1.8 1.8 0.9 0.9 0.8 1.7 1.8 1.8 0.9 0.8 1.7 1.8 0.9 0.9 1.8 1.7 0.8 1.8 1.8 0.8 0.9 1.8 1.7 1.8 0.9 0.8 1.8 1.8 0.8 0.9 0.9 1.7 1.8 1.8 0.8 0.8v-0.8-1.8-0.9-1.7-1.8-0.8-1.8-1.8-0.8-1.8-1.7-0.9-1.8-0.8-1.8-1.7-0.9-1.8-1.7-0.9-1.7-0.9-1.8-1.7-0.9-1.7-1.8-0.9-1.7-0.9-1.8-1.7-0.9-1.7-1.8-0.9-1.7-0.9-1.7-0.9-1.8-1.7-0.9-1.7-0.9-1.8-1.7-1.8-0.8-1.8-0.9-1.7-1.8-0.9l-0.8-1.7v-1.8-0.8-1.8-0.9-1.7-1.8-0.8-1.8-0.9h0.8 0.9 0.9 0.9 0.8 0.9 0.9 0.9 0.9 0.8 0.9 0.9 0.9 0.8 0.9 0.9 0.9 0.8 0.9v-0.8zm140.3 135.7h-0.9-0.8-0.9-0.9-0.9-0.8-0.9-0.9-0.9-0.9-0.8-0.9-0.9-0.9-0.8-0.9-0.9-0.9-0.8-0.9-0.9-0.9-0.9-0.8-0.9-0.9-0.9-0.8-0.9-0.9-0.9-0.8-0.9-0.9-0.9-0.9-0.8-0.9-0.9-0.9-0.8-0.9-0.9-0.9v-0.9l-0.8-0.9-0.9-0.8-0.9-0.9v-0.9l-0.9-0.9v-0.8l-0.9-0.9-0.8-0.9v-0.9l-0.9-0.8-0.9-0.9v-0.9l-0.9-0.9-0.8-0.8v-0.9l-0.9-0.9v-0.9l-0.9-0.8-0.9-0.9-0.8-0.9v-0.9l-0.9-0.8v-0.9l-0.9-0.9-0.9-0.9v-0.9l-0.8-0.8-0.9-0.9v-0.9l-0.9-0.9-0.9-0.8v-0.9l-0.9-0.9v-0.9h-0.8v-0.8l-0.9-0.9v-0.9h-0.9v-0.9l-0.9-0.8v-0.9h-0.8v-0.9-0.9h-0.9v-0.8h-0.9v-0.9l-0.9-0.9v-0.9h-0.8v-0.8l-0.9-0.9v-0.9h-0.9v-0.9h-0.9v-0.8-0.9h-0.9v-0.9h-0.8v-0.9l-0.9-0.8v-0.9h-0.9v-0.9l-0.9-0.9v-0.8h-0.8v-0.9h-0.9v-0.9-0.9h-0.9v-0.9h-0.9v-0.8l-0.8-0.9v-0.9h-0.9v-0.9l-0.9-0.8v0.8 0.9 0.9 0.9 1.7 0.9 0.9 0.9 0.8 0.9 0.9 0.9 0.8 0.9 0.9 0.9 0.8 0.9 0.9 0.9 0.8 0.9 0.9 0.9 0.8 0.9 0.9 0.9 0.8 0.9 0.9 0.9 0.8 0.9 0.9 0.9 0.8 0.9 0.9 0.9 0.8 0.9 0.9 0.9 0.9 0.8 0.9 0.9 0.9 0.8 0.9l0.9 0.9v0.9 0.8 0.9 0.9 0.9 0.8 0.9 0.9 0.9 0.8 0.9 0.9 0.9 0.8 0.9h0.9v0.9h-0.9-0.9-0.9-0.9-0.8-0.9-0.9-0.9-0.8-0.9-0.9v-0.9h-0.9-0.8-0.9-0.9-0.9-0.9-0.8-0.9-0.9-0.9-0.8-0.9-0.9-0.9-0.8-0.9-0.9-0.9-0.9-0.8v0.9h-0.9-0.9-0.9-0.8-0.9-0.9-0.9v-0.9-0.9-0.8-0.9-0.9-0.9-0.8-0.9-0.9-0.9-0.8-0.9-0.9-0.9-0.8-0.9-0.9-0.9-0.8-0.9-0.9-0.9-0.8-0.9-0.9-0.9-0.9-0.8-0.9-0.9-0.9-0.8-0.9-0.9-0.9-0.8-0.9-0.9-1.7-1.8l0.9-1.7v-1.8-1.7-2.7-0.8-1.8-1.7-1.8-1.7-1.8-1.8-0.8-1.8-1.7-1.8-0.9-1.7-0.9-1.7-0.9-1.8-0.8-1.8-0.9-0.8-1.8-0.9-0.8-0.9-0.9-1.7-1.8-0.9-0.8-0.9-0.9-0.9-0.9-0.8-0.9-0.9-0.9-0.8-0.9-0.9-0.9-0.8-0.9-0.9-0.9-0.8-0.9-0.9-0.9-0.8-0.9-0.9-0.9-0.8-0.9-0.9-0.9-0.8-0.9-0.9-0.9-0.8-0.9-0.9-0.9-0.8-0.9-0.9-0.9-0.9-0.8-0.9-0.9-0.9-0.8-0.9-0.9-0.9-0.8-0.9-0.9-0.9-0.8h-0.9v-0.9-0.9-0.9-0.8h0.9 0.9 0.9v0.8h0.8 0.9 0.9 0.9 0.8 0.9 0.9 0.9 0.9 0.8 0.9v0.9h0.9 0.9 0.8 0.9 0.9 0.9 0.8 0.9 0.9 0.9 0.9 0.8 0.9 0.9v-0.9h0.9 0.8 0.9 0.9 0.9 0.8 0.9 0.9 0.9 0.9v0.9 0.9 0.9 0.8 0.9h-0.9v0.9 0.9 0.8 0.9 0.9 0.9 0.8 0.9 0.9 0.9 0.8 0.9 0.9 0.9 0.9 0.8 0.9 0.9 0.9 0.8 0.9 0.9 0.9 0.8 0.9 0.9 0.9 0.8l-0.9 0.9v0.9 0.9 0.8 0.9 0.9 0.9 0.8 0.9 0.9 0.9 0.8 0.9 0.9 0.9 0.8 0.9 0.9 0.9 0.8 0.9 0.9 0.9 0.9 0.8 0.9 0.9 0.9 0.8 0.9 0.9 0.9 0.8 0.9 0.9 0.9 0.8l0.9-0.8 0.9-0.9v-0.9h0.8v-0.9h0.9l0.9-0.8v-0.9h0.9v-0.9l0.8-0.9 0.9-0.8 0.9-0.9 0.9-0.9v-0.9h0.8v-0.8h0.9v-0.9h0.9v-0.9l0.9-0.9 0.9-0.9 0.8-0.8v-0.9h0.9v-0.9h0.9v-0.9h0.9v-0.8h0.8v-0.9-0.9h0.9v-0.9h0.9l0.9-0.8v-0.9h0.8v-0.9l0.9-0.9 0.9-0.8v-0.9h0.9v-0.9l0.9-0.9 0.8-0.8 0.9-0.9 0.9-0.9v-0.9l0.9-0.8h0.8v-0.9h0.9v-0.9l0.9-0.9v-0.8h0.9v-0.9l0.8-0.9h0.9v-0.9-0.8h0.9l0.9-0.9v-0.9l0.8-0.9h0.9v-0.8-0.9h0.9v-0.9h0.9v-0.9l0.9-0.9 0.8-0.8v-0.9h0.9v-0.9h0.9v-0.9l0.9-0.8 0.8-0.9v-0.9h0.9v-0.9l0.9-0.8 0.9-0.9v-0.9l0.8-0.9 0.9-0.8 0.9-0.9v-0.9l0.9-0.9h0.9 0.8 0.9 0.9 0.9 0.8 0.9 0.9 0.9 0.8 0.9 0.9 0.9 0.9 0.8 0.9 0.9 0.9 0.8 0.9 0.9 0.9 0.8 0.9 0.9 0.9 0.9 0.8l-0.8 1.8h-0.9l-0.9 1.7-0.9 0.9-0.9 0.9-0.8 0.9-0.9 0.8-0.9 0.9-0.9 0.9-0.8 0.9-0.9 0.8v0.9l-1.8 0.9v0.9l-0.8 0.8-0.9 0.9-0.9 0.9-0.9 0.9-0.9 0.9-0.8 0.8-0.9 0.9-0.9 0.9-0.9 0.9-0.8 0.8v0.9l-1.8 0.9v0.9l-0.9 0.8-0.8 0.9-0.9 0.9-0.9 0.9-0.9 0.8-0.9 0.9-0.8 0.9-0.9 0.9-0.9 0.8-0.9 0.9-0.8 0.9-0.9 0.9v0.8l-0.9 0.9-0.9 0.9-0.8 0.9-0.9 0.8-0.9 0.9-0.9 0.9-0.9 0.9-0.8 0.8-0.9 0.9-0.9 0.9-0.9 0.9-0.8 0.8-0.9 0.9-0.9 0.9-0.9 0.9v0.9l-0.8 0.8-0.9 0.9-0.9 0.9-0.9 0.9-0.8 0.8-0.9 0.9-0.9 0.9 0.9 1.7 0.9 0.9 0.8 0.9 0.9 1.7 0.9 0.9 0.9 0.9 0.8 1.7 0.9 0.9 0.9 1.8 0.9 0.8 0.8 1.8 0.9 0.9 0.9 1.7 0.9 0.9 0.8 0.9 0.9 1.7 0.9 0.9 0.9 1.7 0.9 0.9 0.8 0.9 0.9 1.8 0.9 0.8 0.9 1.8 0.8 0.9 0.9 0.8 0.9 1.8 0.9 0.9 0.8 1.7 0.9 0.9 0.9 0.9 0.9 1.7 0.9 0.9 0.8 0.9 0.9 1.7 0.9 0.9 0.9 1.7 0.8 0.9 0.9 0.9 0.9 1.7 0.9 0.9 0.8 1.8 0.9 0.8 0.9 1.8 0.9 0.9 0.9 0.8 0.8 1.8 0.9 0.9 0.9 1.7v0.9l1.7 0.9 0.9 1.7 0.9 0.9 0.9 1.8 0.8 0.8 0.9 1.8 0.9 0.9v0.8l1.8 1.8 0.8 0.9 0.9 1.7 0.9 0.9v0.9l1.7 1.7z"/><path fill-rule="evenodd" class="c" d="m217.8 282.7l-2.6-0.9h-3.5l-2.6-0.8h-1.8l-3.5-1.8h-2.6l-3.5-1.7h-1.8l-2.6-1.8h-1.8l-3.5-1.7-1.7-1.8-7-3.5-0.9-1.7-3.5-1.8-1.8-1.7-1.7-0.9-0.9-1.8-1.8-0.8-4.3-4.4-0.9-1.8-4.4-4.4-2.6-5.2-2.7-2.6-0.8-2.7-0.9-0.8-0.9-2.7-3.5-7v-1.7l-0.9-1.8-0.9-2.6-0.8-1.8v-1.7l-0.9-2.6v-3.5l-0.9-2.7v-6.1l-0.9-1.7v-3.5l0.9-1.8v-8.8l0.9-1.7v-2.6l0.9-1.8v-2.6l0.8-0.9v-3.5l0.9-0.9v-1.7l0.9-0.9v-1.7l0.9-0.9 0.8-1.8v-0.8l0.9-1.8 0.9-0.9v-1.7l0.9-0.9 0.9-1.8v-0.8l0.8-0.9 1.8-3.5 0.9-0.9v-0.9l0.8-0.8 0.9-1.8 1.8-1.7 0.8-1.8 1.8-1.7 0.9-1.8 5.2-5.2 1.8-0.9v-1.8l1.7-0.8 1.8-1.8 1.8-0.9 1.7-1.7h0.9l0.9-0.9 1.7-0.9 1.8-1.7 1.7-0.9 0.9-0.9h0.9v-0.9h0.9l0.8-0.8h0.9v-0.9h0.9l0.9-0.9h0.8v-0.9h0.9v-0.8h0.9l0.9-0.9h1.7v-0.9h1.8l0.8-0.9h3.6l0.8 0.9h0.9l2.6 2.6v0.9l0.9 0.9v1.7l0.9 0.9v4.4l0.9 1.8v131.3h0.8v0.9h0.9v0.9h0.9v0.8h0.9v0.9h1.7v0.9h2.7v0.9h2.6l0.9 0.8h3.5v0.9h4.4v-0.9h3.5l0.8-0.8h1.8l0.9-0.9h1.7v-0.9h1.8v-0.9h0.9l0.8-0.8h0.9v-0.9l0.9-0.9v-5.3l0.9-1.7v-127.9l0.8-0.8v-2.7l0.9-0.8v-0.9l1.8-1.8v-0.8l0.9-0.9h0.8v-0.9h6.2l0.8 0.9h0.9l0.9 0.9h1.8v0.8h0.8l0.9 0.9h0.9v0.9h0.9v0.9h1.7v0.8h0.9l0.9 0.9h0.8l1.8 1.8 1.7 0.8 2.7 2.7h1.7l1.8 1.7 1.7 0.9 2.7 2.6 0.8 1.8 1.8 1.7 1.8 0.9 2.6 2.6 0.9 1.8 2.6 2.6 0.9 1.8 1.7 1.7v1.8l1.8 1.7 0.9 1.8 0.8 0.8v1.8l1.8 1.7 0.9 1.8v0.9l0.8 1.7 0.9 0.9v1.8l0.9 0.8v1.8l0.9 0.9 0.8 1.7v0.9l0.9 1.7v0.9l0.9 1.8v2.6l0.9 1.7v2.7l0.9 1.7v4.4l0.8 0.9v17.5l-0.8 1.7v4.4l-0.9 2.6v1.8l-1.8 3.5v2.6l-2.6 5.3v1.7l-1.8 3.5-0.8 2.7-0.9 1.7-1.8 1.8-0.8 1.7-0.9 0.9-1.8 3.5-1.7 1.7-0.9 1.8-4.4 4.4-0.9 1.7-1.7 0.9-0.9 1.8-1.8 0.8-4.3 4.4-3.5 1.8-1.8 1.7-7 3.5-0.9 1.8-2.6 0.8-1.8 0.9h-1.7l-1.8 1.8h-1.7l-1.8 0.8-2.6 0.9h-1.8l-3.5 1.8h-2.6l-1.8 0.8h-4.3l-1.8 0.9zm5.3-186.5v-0.9h-2.7v-0.9h-2.6v-0.8h-0.9l-0.9-0.9h-0.8v-0.9h-0.9l-1.8-1.7h-0.8v-1.8h-0.9v-0.9h-0.9v-0.8l-0.9-0.9v-0.9l-0.8-0.9v-2.6h-0.9v-8.7h0.9v-2.7l0.8-0.8v-0.9l0.9-0.9v-0.9h0.9v-0.8h0.9v-0.9l0.8-0.9v-0.9h0.9l0.9-0.9h0.9v-0.8h0.8l0.9-0.9h0.9v-0.9h2.6v-0.9h4.4v-0.8h1.8l0.8 0.8h4.4v0.9h1.8l0.9 0.9h0.8v0.9h1.8v0.8h0.9v0.9h0.8v0.9h0.9v0.9h0.9v0.9h0.9v1.7h0.9v0.9l0.8 0.9v1.7h0.9v12.3h-0.9v1.7h-0.8v1.8h-0.9v0.8l-0.9 0.9v0.9h-0.9v0.9h-0.9v0.8h-0.8v0.9h-0.9v0.9h-1.8v0.9h-0.8l-0.9 0.8h-1.8v0.9h-2.6v0.9z"/><path fill-rule="evenodd" class="c" d="m265.2 65.6v1.7l-0.9 0.9-0.9 1.7v1.8l-0.8 0.9v3.5l-0.9 0.8v8.8l0.9 1.7v2.7l0.8 0.8v0.9l0.9 0.9v0.9l1.8 1.7v0.9l1.7 1.8v0.8l2.6 2.7h0.9l0.9 0.8v0.9l1.8 1.8 1.7 0.8v0.9l0.9 0.9h1.7l10.6 10.5 1.7 0.9 0.9 1.7 2.6 2.6 0.9 1.8 3.5 3.5v0.9l0.9 0.9v0.8h0.9v0.9l1.7 1.8v0.8l0.9 0.9v0.9l0.9 0.9h0.8v1.7l1.8 1.8v0.8l0.9 0.9v0.9l0.9 0.9v0.8l0.8 0.9v0.9l0.9 0.9v1.7l0.9 1.8v0.8l0.9 0.9v0.9l0.8 0.9v1.7l0.9 0.9v1.7l0.9 0.9v2.7l0.9 0.8v2.7l0.8 0.8v3.5l0.9 0.9v5.3l0.9 0.8v19.3l-0.9 1.8v2.6l-0.9 2.6v1.8l-0.8 2.6v1.7l-0.9 2.7-0.9 1.7v2.6l-0.9 2.7-1.7 3.5-0.9 2.6-1.7 3.5-0.9 2.6-1.8 1.8-0.9 1.7-0.8 2.7-0.9 1.7-1.8 1.8-0.8 2.6-1.8 1.7-0.9 1.8-1.7 0.9-1.8 2.6-6.1 6.1-0.9 1.8-1.7 0.9-3.6 3.5-1.7 0.8-1.8 1.8-2.6 0.9-1.7 1.7-1.8 0.9-1.8 1.7-3.5 1.8-2.6 0.9-3.5 1.7-2.6 0.9-1.8 0.9-2.6 0.8-1.8 0.9h-2.6l-1.7 0.9-2.7 0.9h-1.7l-2.7 0.8h3.5l2.7-0.8 3.5-0.9h2.6l15.8-5.3 2.6-1.7 5.3-1.8 2.6-1.7 2.6-0.9 2.7-1.7 2.6-0.9 1.8-1.8 2.6-1.7 1.7-1.8 2.7-1.7 1.7-1.8 2.7-1.7 3.5-3.5 2.6-1.8 1.8-1.7 1.7-2.7 2.6-1.7 1.8-1.8 0.9-2.6 2.6-1.7 0.9-2.7 1.7-1.7 3.5-5.3 0.9-2.6 1.8-1.8 0.8-2.6 3.6-5.2 3.5-10.5 1.7-2.7v-2.6l1.8-5.2 0.8-3.6 0.9-2.6v-2.6l0.9-2.6v-3.5l0.9-2.7v-25.4l-0.9-0.8v-4.4l-0.9-0.9v-4.4l-0.9-0.8v-3.5l-0.8-0.9v-1.8l-0.9-0.8v-1.8l-0.9-0.9v-2.6l-0.9-1.8v-0.8l-0.8-1.8-0.9-0.9v-1.7l-0.9-0.9-0.9-1.7v-0.9l-0.8-1.8v-0.8l-1.8-1.8v-0.9l-0.9-1.7-0.9-0.9-0.8-1.7-0.9-0.9v-1.8l-1.8-1.7-0.8-1.8-0.9-0.8-0.9-1.8-1.7-1.7-0.9-1.8-4.4-4.4-0.9-1.7-7-7-0.9-1.8-1.7-0.9-2.7-2.6-0.8-1.7-0.9-0.9-1.8-0.9v-0.9l-1.7-0.8-1.8-1.8v-0.9l-2.6-2.6h-0.9l-6.1-6.1h-0.9l-1.8-1.8h-0.8v-0.9h-0.9v-0.8h-1.8v-0.9h-2.6v-0.9h-1.7v0.9h-2.7v0.9h-0.9v0.8h-0.8v0.9h-0.9v0.9h-0.9v0.9l-0.9 0.8zm-27.1 216.3l-2.7 0.9h0.9zm-26.3 0h-0.9l3.5 0.9zm-4.4-0.9h-2.6l3.5 0.9h0.9zm-5.3-0.9l-1.7-0.9-2.6-0.8-1.8-0.9h-2.6l-1.8-1.8-2.6-0.8-1.8-0.9-2.6-0.9-1.7-0.9-1.8-1.7-3.5-1.8-2.6-1.7-1.8-0.9-1.7-1.7-1.8-0.9-1.8-1.8-1.7-0.8-3.5-3.6-0.9-1.7-3.5-3.5-1.8-0.9-0.8-2.6-1.8-1.8-0.9-1.7-1.7-1.8-0.9-1.7-1.7-1.8-0.9-1.7-0.9-2.6-1.8-1.8-0.8-1.7-0.9-2.7-1.8-3.5-0.8-2.6-0.9-1.8-0.9-2.6-0.9-1.7-0.8-2.7v-1.7l-0.9-2.6v-1.8l-0.9-2.6v-1.8l-0.9-2.6v-5.2l-0.9-1.8v-14.9l0.9-1.7v-6.2l0.9-0.8v-2.7l0.9-0.8v-3.5l0.9-0.9v-1.8l0.8-0.9v-1.7l0.9-0.9v-1.7h0.9v-2.7l0.9-0.8v-1.8l1.7-1.7v-1.8l1.8-1.7v-0.9l0.8-0.9v-0.9l0.9-0.8 0.9-1.8v-0.9l0.9-0.8v-0.9l2.6-2.6v-0.9l0.9-0.9 0.9-1.7v-0.9l3.5-3.5 0.8-1.8v-0.9l1.8-0.8 0.9-0.9v-0.9l0.9-0.9 1.7-0.8 1.8-1.8 0.8-1.7 0.9-0.9h0.9l7.9-7.9 1.7-0.9h0.9l1.8-1.7v-0.9l5.2-5.2 0.9-1.8 0.9-0.9h0.9v-1.7l0.8-0.9v-0.9l0.9-0.9v-0.8l0.9-0.9v-0.9l0.9-0.9v-3.5l0.8-0.8v-4.4l-0.8-0.9v-2.6l-0.9-0.9v-3.5l-0.9-0.9-0.9-1.7v-1.8l-0.8-1.7-0.9-0.9-0.9-1.8v-0.8l-0.9-0.9v-0.9l-3.5-3.5h-1.7v-0.9h-1.8l-0.9 0.9h-1.7v0.9h-1.8v0.9h-1.7v0.8h-0.9l-1.8 1.8h-0.8v0.9l-0.9 0.8h-0.9l-6.1 6.2v0.9h-0.9l-7 7-0.9 1.7-2.6 2.6-1.8 0.9-1.7 1.8-0.9 1.7-0.9 0.9-1.7 0.9-1.8 1.7-0.9 1.8-1.7 1.7-0.9 1.8-1.8 1.7-0.8 1.8-1.8 1.7-0.9 1.8-2.6 2.6-0.9 1.8-0.8 0.8-0.9 1.8v0.9l-0.9 0.8-0.9 1.8-0.9 0.9v1.7l-1.7 1.8-0.9 1.7v0.9l-0.9 1.7v0.9l-0.8 1.8-0.9 0.8v1.8l-0.9 0.9v1.7l-0.9 0.9v1.8l-0.8 1.7v0.9l-0.9 1.7v0.9l-0.9 1.8v2.6l-0.9 1.7v4.4l-0.9 0.9v6.1l-0.8 1.8v19.2l0.8 2.7v6.1l0.9 2.6v2.6l1.8 5.3 0.9 3.5 6.1 18.4 1.7 1.7 0.9 2.7 1.8 2.6 0.9 2.6 1.7 2.7 1.8 1.7 1.7 2.6 0.9 2.7 1.7 1.7 1.8 2.6 1.8 1.8 1.7 2.6 9.7 9.6 2.6 1.8 1.7 1.7 2.7 1.8 1.7 1.8 5.3 3.5 1.7 1.7 2.7 0.9 2.6 1.7 2.6 0.9 2.7 1.8 5.2 1.7 2.7 1.8 13.1 4.3 3.5 0.9 2.6 0.9h2.7zm30.7 2.6h-1.8zm-1.7 0h-1.8 0.9zm-7 0h-1.8 0.9zm-3.5 0h-0.9 1.8 1.7z"/></svg>