<?xml version="1.0" encoding="UTF-8"?>
<svg id="Layer_2" data-name="Layer 2" xmlns="http://www.w3.org/2000/svg" viewBox="0 0 198.24 58.1">
  <defs>
    <style>
      .cls-1 {
        fill: #fff;
      }

      .cls-1, .cls-2, .cls-3 {
        fill-rule: evenodd;
      }

      .cls-2 {
        fill: #0066b3;
      }

      .cls-3 {
        fill: #f2b757;
      }
    </style>
  </defs>
  <g id="Layer_1-2" data-name="Layer 1">
    <g>
      <path class="cls-2" d="M183.06,24.88l.66,1.08-.27,19.3c-.53.48-.67.83-.39,1.07l5.81-.12c.12-.23-.14-.48-.4-.71l.13-3.81.27-.12,2.37,3.81-.26.95h7.26s-.53-.83-1.32-1.07c-.79-1.19-5.54-9.17-5.54-9.17,0-.48,1.98-4.05,3.04-4.89.93-.36,1.19-.36,1.32-.71h-3.96l-.27.12s1.32.83.8,1.55c-.66.59-3.17,5.24-3.17,5.24,0,0-.66.24-.53-.72,0-.83-.26-11.32-.26-11.32,0,0-.4-1.9-2.12-1.31-1.71.72-3.16.83-3.16.83h0Z"/>
      <path class="cls-2" d="M136.19,24.16v.36s.79.71.92,1.08c.27.36.13,19.42.13,19.42,0,0-1.46,1.31-.93,1.31h10.69c.26,0,2.64-.71,3.83-2.62,1.45-2.26,1.98-5.83-2.37-8.81,1.84-1.67,5.93-8.34-3.7-10.73h-8.58ZM141.87,25.24l.26,9.17s3.96.36,4.09-4.17c.27-4.65-2.65-4.65-3.96-4.89-1.19-.24-.39-.12-.39-.12h0ZM142,35.49v9.41c.92.12,4.75-.12,5.28-3.22,1.06-6.08-4.49-6.2-5.28-6.2h0Z"/>
      <path class="cls-2" d="M172.89,31.2l.4.95c.66-.47.92-.47,1.59-.95.66-.36,1.45-.59,2.11-.59.93,0,1.72.36,2.37.95.53.48.53.95.79,1.79.13.59.13,1.78.13,3.57v5.96c0,.59-.26,2.98.66,3.1v.23l-5.94.12v-.35c.92-.95.66-1.67.66-3.1v-6.79c0-1.31.13-2.62,0-2.98-.27-.36-.39-.36-1.32-.36s-1.06.71-1.18,1.31l-.13,8.82c-.14,1.19.13,2.03.13,2.38s.12.72.65.83v.24h-6.33l.13-.35c1.05-.12.79-1.67.79-3.1v-8.7c0-1.19-.13-1.9-.27-2.14-.26-.24-.26-.36.27-.48l3.43-.71c.53-.24,1.06-.12,1.06.36h0Z"/>
      <path class="cls-2" d="M154.15,33.46c1.45-.24,3.31-.84,4.62.12,1.32,1.07,1.19,1.07,1.19,1.91s-1.58,1.55-3.17,2.03c-1.45.47-4.49,1.67-4.09,4.76.39,3.1,2.77,5.01,7,2.98.26-.24.8-.59,1.19,0,.54.6,3.56,2.15,5.55-.35-.8,0-1.32.12-1.32-1.43.13-1.42-.13-8.94-.13-8.94,0,0,.13-3.33-4.1-4.05-4.49.36-6.2,2.62-6.73,2.98h0ZM160.08,38.46v5.48s-1.32,1.31-1.98.36c-1.19-1.55-.92-8.1,1.98-5.84h0Z"/>
      <path class="cls-2" d="M102.8,33.46c1.32-.24,3.17-.84,4.49.12,1.31,1.07,1.18,1.07,1.18,1.91s-1.58,1.55-3.04,2.03c-1.59.47-4.62,1.67-4.22,4.76.53,3.1,2.77,5.01,6.87,2.98.39-.24.93-.59,1.31,0,.53.6,3.57,2.15,5.55-.35-.79,0-1.32.12-1.32-1.43.13-1.42-.13-9.17-.13-9.17,0,0,.13-3.34-4.09-4.05-4.49.36-6.2,2.86-6.6,3.21h0ZM108.47,38.35l.13,5.35s-.92,1.32-1.71.36c-1.32-1.79-1.32-4.64.53-6.08.39-.36,1.05.36,1.05.36h0Z"/>
      <path class="cls-2" d="M63.6,45.85v.47h-6.47v-.47c.8-.24.8-1.19.8-3.33v-14.66c0-1.32-.14-3.34-1.06-3.34v-.36h6.99v.24c-1.06.6-1.06,1.79-1.06,3.46v14.66c0,1.18-.13,2.85.8,3.33h0Z"/>
      <path class="cls-2" d="M69.4,30.84c.26-.12.79-.12,1.06,0,.27.24-.13.95.52,1.19.4.24.92-.48,1.46-.84.65-.36,1.84-.59,2.51-.59.79,0,1.45.24,1.97.83.53.48.93.72,1.06,1.55v11.56c.13.83.13.95.66,1.43v.35h-5.93v-.35c.79-.12.66-2.15.66-2.75v-6.67c.13-1.2,0-2.62,0-2.86-.13-.36-.27-.6-.39-.72-.14-.24-.4-.24-.53-.24-.8,0-1.06-.36-1.59.96l-.13,11.44c0,.36.26.71.53.84v.35h-6.08v-.47c.53-.24.79-.48.66-1.43l.13-11.2c0-.6,0-.95-.13-1.07-.4-.24-.4-.6-.13-.6l3.69-.71h0Z"/>
      <path class="cls-2" d="M88.14,32.62c-1.31-1.07-2.64-.23-3.03,1.55-.66,2.5-.93,5.36-.4,7.98.53,2.15,2.24,3.1,3.43,2.15v-11.68h0ZM93.03,25v16.56c0,1.07-.13,1.66-.13,1.9.26.72-.13.84.53,1.43l.14.47c-1.18.24-1.72.48-2.91.71-.53,0-.66.12-1.19,0-1.05-.83-1.98-.71-2.77-.24-.53.24-1.19.47-1.85.47-1.72,0-3.04-.83-4.09-2.39-.79-1.42-1.19-2.97-1.19-5,0-1.55.4-2.98.79-4.17.53-1.19,1.32-2.15,2.11-2.73.92-.72,2.38-1.79,5.54-1.19v-2.27c0-.71,0-1.31-.13-2.38l-.79-1.19,4.49-.96c.8,0,1.06.6,1.45.96h0Z"/>
      <path class="cls-2" d="M100.55,31.68v12.74c0,.72,0,1.19.66,1.56v.35h-6.33v-.35c.66-.24.66-1.2.66-2.75v-10.84c-.26-.24-.4-.48-.4-.71l3.17-.83c1.32-.36,1.98.12,2.24.83h0ZM97.78,24.76c.79,0,1.45.24,1.98.71.4.48.66,1.07.66,1.79s-.26,1.31-.66,1.79c-.53.47-1.19.71-1.98.71-.66,0-1.32-.24-1.85-.71-.53-.48-.66-1.07-.66-1.79s.13-1.31.66-1.79c.53-.48,1.19-.71,1.85-.71h0Z"/>
      <path class="cls-2" d="M121.41,31.2l.39.95c.79-.47.93-.47,1.59-.95.66-.36,1.45-.59,2.24-.59s1.59.36,2.25.95c.53.48.66.95.79,1.79.14.59.14,1.78.14,3.57v5.96c0,.59-.27,2.98.66,3.1v.23l-5.94.12v-.35c.93-.95.66-1.67.66-3.1v-6.79c0-1.31.13-2.62,0-2.98-.27-.36-.4-.36-1.32-.36-.79,0-1.06.71-1.19,1.31l-.13,8.82c-.13,1.19.13,2.03.13,2.38s.13.72.66.83v.24h-6.34l.13-.35c1.06-.12.79-1.67.79-3.1v-8.7c0-1.19,0-1.9-.26-2.14-.13-.24-.27-.36.39-.48l3.3-.71c.52-.24,1.06-.12,1.06.36h0Z"/>
      <path class="cls-2" d="M149.79,7.96c.13,0,.26.24.4,0l.13-1.67h-8.98c-.14.6,0,.6-.14,1.31,0,0-.13,0,0,3.7,0,1.67-.13,5.48.14,6.08.13.36,1.32.95.92.95h-6.87c-.13,0,0-.24,0-.24.66-.72.92-1.31.66-2.62-1.19.83-3.16,1.43-4.75.83-5.01-1.79-4.23-8.46,1.19-9.29,1.72-.24,3.82,1.19,3.96.71.14-.24-.14-.96,0-1.55l-8.71.12v-1.31h.39c.92,0,5.81,0,5.94-.12-.39-.96-2.38-2.86-3.43-3.34-.26-.12-.66-.24-.4-.36,6.73-.71,6.21,2.98,7.92,3.46l1.06.36c0-.12.13-.12.13-.24-.4-1.19-1.72-2.5-3.04-3.22-.39-.12-.66,0-.52-.24,1.46-.47,5.15,0,5.81.83.53.96,1.32,2.63,2.63,2.63,6.08.12,12.68.12,18.75.12v1.43h-7.66l-.13,1.79c1.72-1.32,7.13-2.15,7.92,2.86.4,2.14-.66,5-3.7,5.36-1.45.12-1.97-.24-3.16-.83-.14-.12-.14-.24-.14-.24,2.25-.83,2.25-3.93,1.06-5.72-.14-.24-.27-.35-.53-.35-.8-.12-1.46,0-1.46.71l-.13,6.79c0,1.31.53,1.07.93,1.43,0,.11.13.35.13.35-.4.12-.93,0-1.32,0-.66,0-5.42.12-5.55,0-.13-.12-.26,0-.13-.12,1.33-.6.8-.72.92-2.74-1.19.71-1.57.83-2.24.95-2.77.6-5.54-1.55-5.8-4.05-.13-1.79.13-2.86,1.58-4.06,2.12-1.55,3.7-1.78,6.21-.48h0ZM57.12,8.32c1.59-1.66,4.36-2.03,6.6-1.19l-.13-.95h-7.53v-1.19h14.65c.92-2.03.79-2.87,3.03-3.94,1.05-.35,2.24-.59,3.3-.83,3.7-.48,10.56-.48,12.28,3.34.13.35.26.95.13,1.43h33.8v1.19h-1.98v11.08l.92.95h-6.46c-.27,0,.79-.24.79-.6v-6.55c-.66-.23-.92-.11-1.45-.11-.13.47.27.47.39.59,1.19,3.1-.13,5.96-3.83,6.44-3.16.48-5.28-1.55-5.14-4.53.13-2.39,1.59-3.58,4.23-4.05,1.19-.23,3.43,0,4.88,0,.26-.12.66,0,.92-.12v-2.98c-.92,0-11.22-.23-11.22,0l-.13,10.84c0,.48.66.72,1.05.96v.11l-6.6.12c-.13,0,0-.24,0-.24.66-.48,1.06-.84.66-2.03-1.05.24-1.84.48-2.64.48-5.27.24-7.13-2.38-6.6-6.91,1.2-.36,2.11,0,2.91-.95,1.06-1.19.53-2.14-.39-2.5h-4.23v2.14c0,.12.13.36,0,.48-1.05.36-3.03,0-4.22.12-.27,0-.4,0-.53-.12-.13-.36-.13-.48-.4-.6-1.46-.36-3.04.96-1.85,2.03,1.32,1.19,4.22.72,6.21,1.67,1.45.72,2.24,2.03,1.45,3.46-1.19,2.75-5.54,3.7-8.45,2.98-1.45-.36-3.44-1.55-4.23-2.03.4-1.08,1.06-1.79,1.45-2.62.79,1.43,3.17,5.12,6.34,2.85,1.31-.95,1.31-2.62,0-3.69-2.11-2.03-6.34.36-7.53-2.74-1.19-3.09,4.35-4.05,6.86-2.86.39,0-.14-.72,0-.96v-.12h-8.58l-.13,11.08c0,.36.79.71,1.06.84v.24h-3.3c-1.59,0-3.17.12-3.3-.12.4-.24.66-.47.79-.95V6.17h-2.63l-.13,2.74-4.62-.12c.13-1.07-1.06-1.07-1.72-.48-.39.48-.66,1.31-.26,1.79,1.98,2.62,7.65-1.31,8.31,3.81.53,3.34-3.83,4.18-3.83,4.18.13,1.9,1.85,3.1,3.3,2.86.26.24-.52.59-.66.72-2.37,1.07-4.22.72-5.54-.24-1.98-1.19-3.17-3.45-5.28-4.76-.4-.24-.8-.36-1.32-.48,0-.12-.27-.12-.13-.24l1.19-1.19c.4.95.53.95,1.19,1.43,1.84,1.43,3.96,2.02,5.81.24,1.18-1.2.92-3.46-1.06-3.81-2.25-.47-4.62.95-6.21-.83-.93-.95-1.19-2.38-.27-3.46h0ZM66.49.09c1.32,0,2.38.96,2.38,2.03,0,1.2-1.06,2.15-2.38,2.15-1.18,0-2.24-.95-2.24-2.15,0-1.07,1.06-2.03,2.24-2.03h0ZM145.3.93c.92,0,1.71.72,1.71,1.55s-.79,1.55-1.71,1.55-1.72-.71-1.72-1.55.79-1.55,1.72-1.55h0ZM110.85,15.71c-2.25-.24-2.51-2.98-.26-3.45h1.18c.14.24.27.24.54.36,1.05,1.19.92,2.26-.54,3.1h-.92ZM100.55,6.17c0,.84-.13,1.79-.13,2.62v5.6c-1.19,1.07-2.9,1.2-3.69.59-.27-.23-.53-.48-.66-.59-.27-.95-.53-1.9-.14-2.98,1.58-.36,2.38-.71,3.3-1.91.4-.96.53-1.79-.13-3.34h1.45ZM84.45,4.86h-8.71c-.13-.12-.13-.24-.27-.24-.13-.95-.13-1.67.39-2.26,1.85-2.03,6.99-2.03,8.85.11.53.96.26,1.67-.26,2.39h0ZM132.62,10.22l2.38,4.53c-3.17.95-2.9-3.34-2.38-4.53h0ZM150.18,9.98l-.13,3.93c-2.37,1.91-3.3-.83-2.77-3.09.27-1.31,1.46-3.22,2.91-.84h0ZM136.19,13.09c-1.06-1.31-1.85-2.86-2.64-4.29.13-.12.13-.24.13-.36,3.04,0,2.77,2.39,2.64,4.53,0,0-.13,0-.13.12h0Z"/>
      <path class="cls-1" d="M28.24,26.44c1.34,1.51,2.23,3.02,2.74,4.51l1.03-1.1,3.54,3.44c4.81-4.45-.64-11.27-7.31-6.85h0ZM19.92,25.03l4.41,2.63-1.3,1.15-3.9-.11c.35,5.8,9.29,5.96,8.99-2.19,0,0,0,0,0,0-3.29.06-6.01-.5-8.2-1.49h0ZM28.11,26.28s.06.07.08.11c12.66-18.38,35.07-1.1,16.8,15.84l3.43,3.21-1.18,1.16-15.83-1.27-.36-8.53c-3.05,9.38-20.97,13.37-25.4-5.47l-4.72.92,7.32-12.39,1.07-1.15,8,4.78C7.59,15.96,14.94-2.47,35.67,4.94l.59-2.52,1.07-1.04,8.15,13.77-1.18,1.26-15.24,5.73,1.78-4.82c-6.49-2.41-9.33,4.93-2.71,9.18,0,0,0,0,0-.01,0-.07,0-.15,0-.22h0Z"/>
      <path class="cls-3" d="M27.3,27.69c13.3,16.74-16.56,30.14-22.46,5.02l-4.84.81,8.27-13.66,14.76,9.06-5.08,1.03c1.29,6.3,9.07,5.39,9.33-2.25-.03.02-.08.05-.12.07-23.39.46-18.43-30.87,7.68-21.58l1.3-3.55,8.03,13.77-16.06,7,1.88-4.82c-6.61-2.41-9.45,4.93-2.83,9.18,11.81-19.28,35.44-1.15,17.01,15.84l2.84,2.99-16.42.11.35-15.6,3.66,3.56c4.93-4.57-.63-11.38-7.31-6.97h0Z"/>
      <path class="cls-2" d="M192,54.34c-.3.1-.74.19-1.33.27-.34.04-.57.09-.71.14-.14.05-.24.13-.32.23-.07.09-.12.21-.12.33,0,.19.08.34.25.47.16.12.4.19.72.19s.6-.06.84-.17c.24-.12.42-.29.54-.49.08-.16.13-.39.13-.7v-.26h0ZM192.07,55.91c-.3.22-.59.38-.87.46-.28.09-.58.14-.9.14-.53,0-.93-.11-1.21-.33-.29-.22-.43-.51-.43-.85,0-.21.05-.38.16-.56.11-.17.25-.29.42-.4.17-.1.37-.18.58-.23.16-.03.4-.07.72-.11.65-.06,1.14-.14,1.45-.24v-.18c0-.28-.08-.49-.23-.6-.2-.16-.52-.23-.93-.23-.38,0-.67.05-.85.17-.18.11-.32.32-.41.61l-.79-.09c.07-.3.19-.53.36-.72.17-.18.41-.32.72-.42.32-.09.67-.15,1.09-.15s.74.04.99.13c.26.08.45.19.57.31.11.13.2.28.25.48.03.12.04.33.04.65v.93c0,.65.02,1.06.05,1.24.04.17.11.34.21.5h-.84c-.09-.15-.15-.32-.17-.51h0ZM181.32,56.42v-5.71h1.31l1.57,4.05c.14.37.25.65.31.84.07-.21.19-.52.36-.92l1.57-3.97h1.18v5.71h-.84v-4.78l-1.92,4.78h-.79l-1.92-4.87v4.87h-.84ZM173.54,56.42v-4.14h.73v.59c.35-.45.86-.68,1.52-.68.29,0,.55.05.8.14.24.09.42.21.54.36.12.14.21.31.25.52.03.13.04.35.04.68v2.54h-.81v-2.52c0-.28-.03-.5-.09-.64-.06-.14-.18-.26-.34-.33-.16-.09-.35-.13-.56-.13-.35,0-.64.1-.89.28-.25.19-.38.55-.38,1.08v2.26h-.81ZM168.93,54.34c0,.53.14.93.4,1.19.27.27.61.4,1.01.4s.74-.14,1-.41c.27-.26.41-.66.41-1.21,0-.51-.14-.9-.41-1.16-.27-.26-.61-.39-1-.39s-.75.13-1.01.39c-.26.26-.4.65-.4,1.18h0ZM168.09,54.34c0-.77.25-1.33.74-1.7.42-.3.92-.46,1.51-.46.66,0,1.19.19,1.61.56.42.37.62.89.62,1.54,0,.53-.1.95-.27,1.26-.19.3-.46.54-.81.71-.36.17-.74.25-1.16.25-.67,0-1.21-.18-1.63-.55-.41-.38-.62-.91-.62-1.61h0ZM160.7,56.42v-4.14h.72v.58c.15-.2.35-.36.61-.49.24-.13.53-.19.85-.19.36,0,.65.06.87.19.23.13.39.3.48.53.38-.48.87-.72,1.48-.72.48,0,.85.11,1.11.35.25.22.38.57.38,1.05v2.84h-.81v-2.6c0-.28-.03-.49-.08-.61-.05-.12-.15-.22-.29-.3-.13-.08-.3-.11-.48-.11-.33,0-.62.1-.84.29-.22.2-.33.5-.33.93v2.41h-.82v-2.69c0-.31-.07-.55-.2-.69-.13-.16-.35-.24-.64-.24-.23,0-.44.05-.63.16-.19.1-.34.25-.43.46-.09.2-.13.49-.13.87v2.14h-.81ZM153.01,56.42v-4.14h.72v.58c.15-.2.35-.36.6-.49.25-.13.54-.19.85-.19.36,0,.65.06.87.19.23.13.38.3.48.53.38-.48.87-.72,1.48-.72.48,0,.84.11,1.1.35.25.22.38.57.38,1.05v2.84h-.81v-2.6c0-.28-.03-.49-.08-.61-.06-.12-.15-.22-.29-.3-.14-.08-.3-.11-.49-.11-.33,0-.61.1-.83.29-.23.2-.34.5-.34.93v2.41h-.81v-2.69c0-.31-.07-.55-.2-.69-.14-.16-.35-.24-.65-.24-.23,0-.44.05-.63.16-.2.1-.34.25-.42.46-.09.2-.13.49-.13.87v2.14h-.81ZM148.4,54.34c0,.53.13.93.4,1.19.27.27.6.4,1.01.4s.74-.14,1.01-.41c.27-.26.4-.66.4-1.21,0-.51-.13-.9-.4-1.16-.27-.26-.6-.39-1.01-.39s-.74.13-1.01.39c-.27.26-.4.65-.4,1.18h0ZM147.57,54.34c0-.77.24-1.33.74-1.7.41-.3.92-.46,1.51-.46.66,0,1.2.19,1.61.56.42.37.63.89.63,1.54,0,.53-.09.95-.28,1.26-.19.3-.45.54-.81.71-.36.17-.74.25-1.16.25-.67,0-1.22-.18-1.63-.55-.41-.38-.62-.91-.62-1.61h0ZM146.02,54.42l.87.19c-.18.62-.51,1.09-.98,1.42-.49.33-1.06.49-1.75.49s-1.3-.12-1.74-.37c-.45-.25-.79-.61-1.02-1.09-.23-.47-.35-.98-.35-1.53,0-.59.13-1.11.39-1.55.27-.44.64-.78,1.13-1.01.48-.23,1.02-.34,1.6-.34.67,0,1.22.14,1.67.44.46.29.76.7.94,1.22l-.86.18c-.16-.42-.38-.72-.67-.91-.3-.19-.66-.29-1.1-.29-.51,0-.94.11-1.28.32-.34.21-.58.49-.71.84-.15.36-.22.72-.22,1.1,0,.49.08.91.25,1.28.17.36.42.63.77.81.35.18.72.27,1.13.27.49,0,.9-.12,1.24-.37.34-.24.57-.61.69-1.09h0ZM134.1,53.95h2.67c-.03-.35-.14-.61-.3-.78-.26-.27-.59-.41-1.01-.41-.37,0-.68.1-.94.33-.26.21-.39.5-.42.86h0ZM136.77,55.08l.84.09c-.13.43-.38.75-.73.98-.36.23-.82.35-1.37.35-.7,0-1.26-.18-1.66-.55-.41-.38-.62-.9-.62-1.57s.21-1.24.62-1.62c.42-.38.95-.58,1.61-.58s1.17.19,1.57.57c.41.38.62.9.62,1.59v.19h-3.57c.03.45.17.8.44,1.04.28.24.6.37,1,.37.3,0,.54-.07.76-.21.21-.14.38-.35.5-.65h0ZM128.35,56.42v-5.71h.81v2.05c.38-.38.86-.57,1.44-.57.35,0,.65.06.92.19.26.12.44.29.56.49.11.21.17.52.17.93v2.62h-.81v-2.62c0-.35-.09-.6-.27-.76-.17-.16-.43-.25-.74-.25-.24,0-.46.06-.69.17-.21.11-.36.25-.44.44-.09.18-.13.44-.13.76v2.27h-.81ZM127.56,55.79l.11.62c-.22.04-.43.06-.61.06-.3,0-.53-.04-.69-.12-.16-.08-.27-.18-.34-.31-.06-.14-.1-.41-.1-.83v-2.38h-.6v-.54h.6v-1.03l.81-.42v1.44h.81v.54h-.81v2.43c0,.2.01.33.04.39.03.05.07.1.14.13.06.04.15.05.27.05.09,0,.21,0,.36-.03h0ZM118.61,54.34c0,.53.14.93.4,1.19.27.27.61.4,1.02.4s.74-.14,1.01-.41c.26-.26.39-.66.39-1.21,0-.51-.13-.9-.4-1.16-.27-.26-.61-.39-1.01-.39s-.75.13-1.02.39c-.26.26-.4.65-.4,1.18h0ZM117.78,54.34c0-.77.25-1.33.74-1.7.41-.3.91-.46,1.51-.46.66,0,1.2.19,1.61.56.42.37.63.89.63,1.54,0,.53-.09.95-.28,1.26-.18.3-.46.54-.81.71-.36.17-.74.25-1.16.25-.67,0-1.21-.18-1.63-.55-.41-.38-.62-.91-.62-1.61h0ZM117.29,55.79l.12.62c-.22.04-.44.06-.61.06-.3,0-.53-.04-.69-.12-.16-.08-.27-.18-.34-.31-.07-.14-.1-.41-.1-.83v-2.38h-.59v-.54h.59v-1.03l.8-.42v1.44h.82v.54h-.82v2.43c0,.2.02.33.04.39.04.05.09.1.15.13.06.04.15.05.28.05.09,0,.2,0,.36-.03h0ZM108.29,58.01l-.1-.65c.19.04.34.06.47.06.19,0,.32-.03.43-.08.11-.05.19-.12.26-.22.06-.07.14-.24.25-.52.02-.04.05-.1.08-.17l-1.82-4.14h.87l1,2.39c.13.31.25.62.34.96.09-.32.21-.63.34-.95l1.03-2.41h.81l-1.82,4.21c-.19.45-.35.77-.45.94-.15.23-.31.4-.5.51-.19.11-.41.17-.67.17-.15,0-.33-.03-.52-.09h0ZM103.71,54.27c0,.54.12.94.37,1.19.25.26.56.38.94.38s.69-.12.94-.37.38-.63.38-1.17-.13-.89-.39-1.14c-.26-.25-.58-.38-.94-.38s-.67.12-.92.37c-.25.26-.38.63-.38,1.13h0ZM103.04,56.76l.79.1c.03.21.13.36.27.46.2.13.48.2.82.2.38,0,.67-.07.88-.2.21-.13.34-.31.41-.54.04-.14.06-.44.06-.9-.35.36-.79.54-1.33.54-.66,0-1.17-.21-1.53-.62-.35-.41-.54-.9-.54-1.48,0-.39.08-.77.25-1.1.16-.33.4-.58.72-.77.31-.18.68-.27,1.11-.27.56,0,1.03.2,1.39.6v-.5h.75v3.58c0,.64-.09,1.1-.23,1.37-.16.27-.39.48-.72.64-.33.16-.74.23-1.22.23-.57,0-1.04-.11-1.39-.33-.35-.22-.52-.56-.51-1h0ZM98.58,54.34c0,.53.13.93.4,1.19.26.27.61.4,1.01.4s.73-.14,1-.41c.26-.26.4-.66.4-1.21,0-.51-.14-.9-.4-1.16-.27-.26-.6-.39-1-.39s-.75.13-1.01.39c-.27.26-.4.65-.4,1.18h0ZM97.75,54.34c0-.77.25-1.33.74-1.7.42-.3.91-.46,1.51-.46.65,0,1.19.19,1.61.56.42.37.63.89.63,1.54,0,.53-.09.95-.28,1.26-.19.3-.46.54-.8.71-.36.17-.75.25-1.16.25-.67,0-1.22-.18-1.63-.55-.42-.38-.62-.91-.62-1.61h0ZM95.98,56.42v-5.71h.81v5.71h-.81ZM91.39,54.34c0,.53.14.93.4,1.19.27.27.6.4,1.01.4s.74-.14,1.01-.41c.27-.26.4-.66.4-1.21,0-.51-.14-.9-.41-1.16-.27-.26-.6-.39-1-.39s-.74.13-1.01.39c-.27.26-.4.65-.4,1.18h0ZM90.55,54.34c0-.77.25-1.33.75-1.7.41-.3.91-.46,1.5-.46.66,0,1.2.19,1.62.56.42.37.63.89.63,1.54,0,.53-.09.95-.27,1.26-.19.3-.46.54-.81.71-.36.17-.74.25-1.16.25-.67,0-1.21-.18-1.62-.55-.42-.38-.62-.91-.62-1.61h0ZM85.72,56.42v-4.14h.73v.59c.35-.45.86-.68,1.52-.68.29,0,.56.05.8.14.24.09.42.21.54.36.12.14.21.31.26.52.02.13.04.35.04.68v2.54h-.81v-2.52c0-.28-.04-.5-.1-.64-.06-.14-.17-.26-.33-.33-.17-.09-.35-.13-.57-.13-.34,0-.64.1-.9.28-.25.19-.37.55-.37,1.08v2.26h-.81ZM80.58,56.42v-5.71h.81v2.05c.38-.38.85-.57,1.43-.57.36,0,.66.06.93.19.26.12.45.29.56.49.11.21.17.52.17.93v2.62h-.81v-2.62c0-.35-.09-.6-.26-.76-.18-.16-.42-.25-.75-.25-.23,0-.46.06-.67.17-.22.11-.37.25-.46.44-.09.18-.13.44-.13.76v2.27h-.81ZM79.09,54.91l.79.09c-.08.47-.31.85-.67,1.12-.36.27-.8.4-1.32.4-.66,0-1.19-.18-1.59-.55-.4-.37-.6-.9-.6-1.59,0-.45.09-.84.26-1.17.17-.34.42-.59.78-.76.35-.17.73-.26,1.14-.26.51,0,.94.11,1.27.35.33.22.55.54.63.96l-.78.11c-.07-.28-.21-.49-.4-.63-.19-.14-.42-.21-.69-.21-.42,0-.74.13-1,.38-.25.25-.39.65-.39,1.2s.13.96.37,1.21c.25.25.57.38.96.38.32,0,.58-.09.8-.26.21-.17.35-.43.41-.78h0ZM71.44,53.95h2.67c-.03-.35-.14-.61-.3-.78-.26-.27-.6-.41-1.01-.41-.37,0-.69.1-.94.33-.25.21-.4.5-.43.86h0ZM74.1,55.08l.84.09c-.13.43-.38.75-.74.98-.36.23-.81.35-1.37.35-.7,0-1.26-.18-1.67-.55-.41-.38-.62-.9-.62-1.57s.21-1.24.62-1.62c.41-.38.95-.58,1.62-.58s1.16.19,1.57.57c.41.38.61.9.61,1.59,0,.04,0,.1,0,.19h-3.57c.03.45.17.8.44,1.04.27.24.6.37,1,.37.3,0,.56-.07.77-.21.21-.14.38-.35.5-.65h0ZM67.99,56.42v-5.04h-2.18v-.67h5.25v.67h-2.19v5.04h-.87ZM59.19,54.27c0,.54.13.94.37,1.19.25.26.56.38.94.38s.69-.12.94-.37c.25-.25.37-.63.37-1.17s-.12-.89-.38-1.14c-.26-.25-.58-.38-.94-.38s-.67.12-.92.37c-.25.26-.38.63-.38,1.13h0ZM58.52,56.76l.79.1c.03.21.13.36.28.46.21.13.48.2.82.2.38,0,.66-.07.88-.2.2-.13.34-.31.41-.54.04-.14.06-.44.06-.9-.35.36-.8.54-1.33.54-.66,0-1.17-.21-1.52-.62-.37-.41-.55-.9-.55-1.48,0-.39.08-.77.25-1.1.17-.33.4-.58.72-.77.31-.18.68-.27,1.1-.27.57,0,1.04.2,1.4.6v-.5h.75v3.58c0,.64-.07,1.1-.23,1.37-.15.27-.39.48-.72.64-.33.16-.73.23-1.22.23-.57,0-1.03-.11-1.38-.33-.35-.22-.52-.56-.51-1h0ZM53.52,56.42v-4.14h.73v.59c.36-.45.86-.68,1.53-.68.28,0,.55.05.79.14.24.09.43.21.54.36.12.14.2.31.25.52.03.13.04.35.04.68v2.54h-.81v-2.52c0-.28-.03-.5-.1-.64-.06-.14-.17-.26-.33-.33-.17-.09-.35-.13-.57-.13-.35,0-.64.1-.9.28-.25.19-.37.55-.37,1.08v2.26h-.81ZM51.48,56.42v-4.14h.81v4.14h-.81ZM51.48,51.51v-.81h.81v.81h-.81ZM46.85,56.42v-5.71h.82v3.26l1.93-1.68h1.04l-1.83,1.53,2.01,2.6h-1l-1.58-2.11-.58.47v1.64h-.82ZM41.71,56.42v-4.14h.73v.59c.35-.45.86-.68,1.52-.68.29,0,.55.05.8.14.24.09.42.21.54.36.12.14.21.31.25.52.04.13.05.35.05.68v2.54h-.81v-2.52c0-.28-.03-.5-.1-.64-.06-.14-.17-.26-.33-.33-.16-.09-.35-.13-.57-.13-.35,0-.64.1-.9.28-.25.19-.38.55-.38,1.08v2.26h-.81ZM39.63,54.34c-.3.1-.74.19-1.33.27-.33.04-.57.09-.71.14-.14.05-.25.13-.33.23-.07.09-.11.21-.11.33,0,.19.08.34.25.47.16.12.4.19.72.19s.59-.06.83-.17c.25-.12.42-.29.54-.49.09-.16.13-.39.13-.7v-.26h0ZM39.7,55.91c-.3.22-.59.38-.87.46-.27.09-.57.14-.89.14-.52,0-.93-.11-1.21-.33-.29-.22-.43-.51-.43-.85,0-.21.06-.38.16-.56.11-.17.25-.29.42-.4.17-.1.37-.18.59-.23.16-.03.4-.07.72-.11.66-.06,1.14-.14,1.45-.24,0-.09,0-.15,0-.18,0-.28-.08-.49-.23-.6-.21-.16-.51-.23-.92-.23-.38,0-.66.05-.84.17-.18.11-.32.32-.41.61l-.79-.09c.07-.3.19-.53.36-.72.16-.18.4-.32.71-.42.32-.09.68-.15,1.09-.15s.74.04,1,.13c.25.08.44.19.56.31.12.13.21.28.25.48.03.12.05.33.05.65v.93c0,.65,0,1.06.05,1.24.04.17.1.34.21.5h-.85c-.08-.15-.13-.32-.16-.51h0ZM31.35,55.74h1.65c.28,0,.49-.01.6-.03.2-.03.37-.08.5-.16.14-.07.25-.18.34-.32.09-.14.13-.3.13-.48,0-.21-.06-.39-.2-.55-.12-.16-.3-.27-.52-.33-.22-.06-.55-.1-.97-.1h-1.53v1.96h0ZM31.35,53.1h1.44c.38,0,.66-.02.83-.07.22-.05.39-.15.5-.29.11-.13.16-.3.16-.5,0-.19-.05-.35-.15-.49-.11-.15-.26-.25-.45-.3-.2-.05-.54-.08-1.01-.08h-1.32v1.72h0ZM30.48,56.42v-5.71h2.48c.5,0,.9.06,1.21.17.31.12.55.3.72.53.17.25.26.49.26.76,0,.25-.07.47-.23.69-.15.22-.38.39-.69.52.4.1.7.28.92.52.21.25.32.53.32.86,0,.27-.07.52-.2.75-.13.23-.29.41-.49.54-.19.12-.43.21-.72.28-.29.06-.65.1-1.07.1h-2.52ZM23.23,54.27c0,.54.13.94.38,1.19.25.26.56.38.93.38s.69-.12.94-.37c.26-.25.38-.63.38-1.17s-.13-.89-.39-1.14c-.26-.25-.58-.38-.94-.38s-.66.12-.92.37c-.25.26-.38.63-.38,1.13h0ZM22.56,56.76l.79.1c.03.21.13.36.28.46.2.13.48.2.82.2.37,0,.67-.07.87-.2.2-.13.34-.31.42-.54.04-.14.06-.44.06-.9-.35.36-.8.54-1.33.54-.65,0-1.17-.21-1.53-.62-.36-.41-.54-.9-.54-1.48,0-.39.08-.77.25-1.1.16-.33.4-.58.72-.77.31-.18.68-.27,1.1-.27.57,0,1.03.2,1.4.6v-.5h.75v3.58c0,.64-.08,1.1-.23,1.37-.16.27-.4.48-.72.64-.33.16-.73.23-1.21.23-.57,0-1.04-.11-1.39-.33-.35-.22-.52-.56-.5-1h0ZM17.57,56.42v-4.14h.73v.59c.35-.45.86-.68,1.52-.68.29,0,.55.05.8.14.24.09.42.21.54.36.12.14.21.31.26.52.02.13.04.35.04.68v2.54h-.81v-2.52c0-.28-.03-.5-.09-.64-.06-.14-.18-.26-.34-.33-.16-.09-.35-.13-.57-.13-.35,0-.64.1-.89.28-.25.19-.38.55-.38,1.08v2.26h-.81ZM15.52,56.42v-4.14h.82v4.14h-.82ZM15.52,51.51v-.81h.82v.81h-.82ZM10.9,56.42v-5.71h.81v3.26l1.92-1.68h1.05l-1.83,1.53,2.02,2.6h-1l-1.59-2.11-.57.47v1.64h-.81ZM8.81,54.34c-.29.1-.73.19-1.32.27-.33.04-.57.09-.71.14-.14.05-.25.13-.32.23-.07.09-.11.21-.11.33,0,.19.08.34.25.47.16.12.4.19.71.19s.6-.06.84-.17c.24-.12.42-.29.53-.49.09-.16.13-.39.13-.7v-.26h0ZM8.89,55.91c-.3.22-.59.38-.87.46-.28.09-.58.14-.9.14-.53,0-.93-.11-1.21-.33-.29-.22-.43-.51-.43-.85,0-.21.06-.38.16-.56.11-.17.25-.29.42-.4.17-.1.37-.18.59-.23.16-.03.39-.07.72-.11.66-.06,1.14-.14,1.45-.24.01-.09.01-.15.01-.18,0-.28-.08-.49-.23-.6-.2-.16-.51-.23-.92-.23-.38,0-.66.05-.85.17-.18.11-.32.32-.41.61l-.79-.09c.08-.3.19-.53.35-.72.16-.18.41-.32.72-.42.31-.09.67-.15,1.08-.15s.74.04.99.13c.26.08.45.19.57.31.12.13.2.28.25.48.03.12.04.33.04.65v.93c0,.65.02,1.06.05,1.24.03.17.11.34.21.5h-.85c-.08-.15-.14-.32-.16-.51h0ZM2.93,56.42v-5.04H.75v-.67h5.23v.67h-2.18v5.04h-.88Z"/>
      <path class="cls-2" d="M194.08,56.42v-4.14h.73v.59c.35-.45.86-.68,1.53-.68.29,0,.56.05.79.14.25.09.42.21.54.36.12.14.21.31.26.52.03.13.04.35.04.68v2.54h-.81v-2.52c0-.28-.03-.5-.1-.64-.06-.14-.17-.26-.33-.33-.16-.09-.35-.13-.56-.13-.35,0-.64.1-.9.28-.25.19-.37.55-.37,1.08v2.26h-.81Z"/>
    </g>
  </g>
</svg>