<?xml version="1.0" encoding="UTF-8"?>
<svg id="Layer_2" data-name="Layer 2" xmlns="http://www.w3.org/2000/svg" viewBox="0 0 812.75 189.45">
  <defs>
    <style>
      .cls-1 {
        fill: #ffe600;
      }

      .cls-2, .cls-3 {
        fill: #c9252d;
      }

      .cls-3 {
        stroke: #c9252d;
        stroke-miterlimit: 2.61;
        stroke-width: 1px;
      }

      .cls-4 {
        fill: #c9252c;
      }
    </style>
  </defs>
  <g id="Layer_1-2" data-name="Layer 1">
    <g>
      <path class="cls-4" d="M218.74,117.69c0,39.64-32.12,71.76-71.76,71.76s-71.74-32.12-71.74-71.76,32.13-71.74,71.74-71.74,71.76,32.13,71.76,71.74h0Z"/>
      <path class="cls-1" d="M123.07,150.71c-18.69,3.92-32.16-5.74-42.98-13.5l-2.33-1.65c-10.52-7.51-19.65-8.62-22.66-8.98-.24-.03-.43-.06-.59-.08-11.84-1.66-30.07-2.16-51.58,12.58l-2.95-4.32c23-15.76,42.56-15.21,55.25-13.43l.51.06c8.92,1.08,17.34,4.42,25.06,9.91l2.33,1.66c9.98,7.17,22.42,16.1,38.88,12.63,8.17-1.72,16.88-6.2,27.41-14.08l.32-.24c.47-.39,12.5-9.82,29.47-29.1,2.94-3.37,6.36-7.27,10.08-11.53,10.4-11.93,36.53-41.64,54.35-59.65,16.57-16.76,34.19-27.2,52.34-31.01l1.08,5.1c-17.14,3.6-33.87,13.55-49.72,29.57-17.69,17.9-43.75,47.5-54.11,59.41-3.73,4.27-7.14,8.19-10.11,11.55-17.28,19.63-29.68,29.38-30.19,29.77l-.35.27c-11.19,8.38-20.56,13.16-29.52,15.03h0Z"/>
      <path class="cls-1" d="M120.94,140.48c-13.18,2.78-22.73-3.1-34.76-11.74l-2.32-1.68c-13.77-9.82-27.85-10.93-28.45-10.99-4.82-.34-14.67-.71-26.51.87l-.71-5.16c12.3-1.67,22.57-1.28,27.6-.9.65.04,16.13,1.27,31.08,11.92l2.34,1.68c11.29,8.09,19.51,13.22,30.65,10.88,6.54-1.38,14.16-5.36,23.3-12.2l.14-.13c.47-.36,11.82-9.31,28.04-27.76,2.97-3.35,6.38-7.25,10.07-11.5,16.19-18.56,38.85-44.07,54.91-60.24,5.59-5.63,15.52-14.13,23.69-19.54l2.87,4.37c-7.78,5.13-17.59,13.54-22.85,18.85-15.97,16.05-38.56,41.5-54.69,60-3.71,4.25-7.11,8.16-10.06,11.51-16.56,18.82-28.3,28.05-28.78,28.44l-.19.14c-9.93,7.44-17.98,11.63-25.39,13.17h0Z"/>
      <path class="cls-1" d="M118.85,130.34c-9.68,2.04-16.37-2.77-26.58-10.09l-2.37-1.69c-16.66-11.89-33.76-12.89-33.93-12.89l.27-5.22c.74.03,18.74,1.05,36.7,13.85l2.36,1.71c15.7,11.25,20.43,14.66,41.61-1.21.06-.05,10.99-8.67,26.62-26.41,2.94-3.34,6.32-7.22,10-11.44,16.47-18.88,39.02-44.75,55.53-60.89l3.64,3.73c-16.35,15.99-38.82,41.77-55.25,60.6-3.69,4.24-7.07,8.12-10.01,11.46-15.97,18.16-26.9,26.75-27.37,27.1-8.93,6.71-15.59,10.22-21.23,11.4h0Z"/>
      <line class="cls-3" x1="497.99" y1="73.1" x2="497.99" y2="162.52"/>
      <path class="cls-2" d="M541.13,150.94h-3.34v-20.06c0-1.11-.16-2.01-.47-2.69-.31-.68-1.02-1.02-2.13-1.02h-.75v-.74h9.66c.8,0,1.72.07,2.79.22,1.06.15,2.08.48,3.04.98.97.51,1.78,1.26,2.45,2.25.67.99,1,2.32,1,3.97,0,1.07-.15,1.98-.46,2.73-.31.76-.71,1.39-1.21,1.91-.49.52-1.05.94-1.65,1.26-.61.32-1.22.56-1.82.73-.61.16-1.17.27-1.71.33-.53.06-.97.09-1.32.09h-4.09v10.03h0ZM543.92,139.6h0c.52,0,1.11-.1,1.76-.3.66-.2,1.28-.53,1.88-1,.6-.47,1.1-1.08,1.51-1.84.41-.76.61-1.69.61-2.8s-.21-2.05-.61-2.81c-.41-.76-.91-1.37-1.51-1.84-.59-.47-1.22-.8-1.88-1-.66-.2-1.25-.3-1.76-.3-.47,0-.96.04-1.47.11-.51.08-.95.17-1.32.26v11.15c.37.1.81.19,1.32.26.51.07,1,.11,1.47.11h0Z"/>
      <path class="cls-2" d="M567.7,150.94l-1.3-1.67h-.19c-.37.48-.98.93-1.82,1.38-.85.44-1.98.67-3.39.67-.52,0-1.09-.08-1.71-.24-.62-.16-1.2-.44-1.75-.84-.55-.39-1-.93-1.38-1.6-.37-.67-.56-1.51-.56-2.53s.26-1.86.78-2.53c.52-.67,1.22-1.2,2.08-1.59.87-.4,1.87-.67,3.01-.84,1.13-.16,2.34-.24,3.6-.24h1.11c0-1.29-.1-2.35-.3-3.18-.19-.83-.47-1.47-.82-1.93-.34-.46-.76-.77-1.24-.95-.48-.17-1-.26-1.54-.26-1.04,0-1.91.22-2.62.67-.71.45-1.19,1.28-1.47,2.49h-1.67c0-.64.03-1.24.11-1.8.07-.56.35-1.07.82-1.54.22-.22.54-.42.95-.59.41-.18.86-.31,1.36-.41.5-.1,1.02-.18,1.58-.22.55-.05,1.12-.08,1.69-.08.84,0,1.65.1,2.43.28.78.19,1.47.56,2.08,1.12.61.56,1.09,1.35,1.45,2.38.36,1.03.54,2.37.54,4.03v10.03h-1.86ZM566.21,142.39h-1.11c-1.86,0-3.31.34-4.36,1.03-1.05.68-1.58,1.58-1.58,2.69,0,.6.1,1.12.29,1.56.2.45.46.82.78,1.11.32.3.7.52,1.12.65.42.14.86.2,1.33.2.92,0,1.64-.23,2.18-.69.53-.46.99-.97,1.36-1.54v-5.02h0Z"/>
      <path class="cls-2" d="M581.34,151.31l-5.95-14.49c-.37-.94-.91-1.64-1.61-2.12-.71-.47-1.53-.75-2.47-.85v-.74h3.16c1.11,0,2.04.26,2.77.78.73.52,1.29,1.25,1.69,2.19l4.23,10.29,4.68-12.89h1.86l-7.24,19.88c-.37,1.01-.76,1.85-1.17,2.5-.41.66-.85,1.17-1.3,1.54-.46.37-.96.63-1.51.76-.54.13-1.14.2-1.79.2h-1.11v-1.12c.55,0,1.06-.06,1.56-.17.5-.11.95-.31,1.36-.59.4-.29.78-.68,1.13-1.19.35-.51.67-1.16.97-1.95l.74-2.04h0Z"/>
      <path class="cls-2" d="M597.35,134.96c.47-.47,1.12-.9,1.93-1.28.82-.38,1.79-.58,2.9-.58.94,0,1.8.17,2.58.52.78.35,1.4,1.04,1.88,2.08.64-.84,1.48-1.49,2.49-1.93,1.02-.45,2.04-.67,3.09-.67.69,0,1.35.09,1.98.28.63.18,1.18.53,1.65,1.04.47.51.85,1.2,1.13,2.07.29.87.43,1.97.43,3.3v11.15h-3.34v-11.15c0-1.86-.26-3.16-.78-3.9-.52-.74-1.25-1.12-2.19-1.12-.37,0-.75.08-1.13.22-.38.15-.75.34-1.09.58-.35.23-.67.49-.97.78-.29.29-.53.56-.7.83.1.28.16.68.17,1.23.01.54.02,1,.02,1.37v11.15h-3.34v-11.15c0-1.86-.26-3.16-.78-3.9-.52-.74-1.25-1.12-2.19-1.12-.75,0-1.43.2-2.06.6-.64.39-1.18.85-1.66,1.37v14.19h-3.34v-13c0-1.12-.16-2.01-.47-2.69-.31-.68-1.02-1.02-2.14-1.02h-.74v-.75h3.35c.94,0,1.65.13,2.14.39.48.26.82.63,1.02,1.09h.18Z"/>
      <path class="cls-2" d="M636.39,142.76h-11.26c0,1.02.11,1.96.33,2.82.22.87.55,1.62.99,2.25.43.63.96,1.12,1.58,1.46.62.35,1.32.52,2.12.52,1.21,0,2.22-.26,3.02-.78.8-.52,1.53-1.25,2.17-2.19l.74.56c-.84,1.41-1.82,2.41-2.92,3.01-1.1.6-2.36.89-3.77.89-1.32,0-2.45-.24-3.42-.73-.97-.48-1.78-1.13-2.44-1.95-.65-.82-1.14-1.77-1.46-2.88-.33-1.1-.48-2.29-.48-3.55s.17-2.44.5-3.55c.34-1.1.82-2.06,1.47-2.88.64-.82,1.43-1.46,2.34-1.95.92-.48,1.96-.72,3.12-.72,2.53,0,4.39.71,5.61,2.12,1.21,1.41,1.82,3.43,1.82,6.06l-.07,1.49h0ZM632.94,141.28h0c0-2.15-.32-3.81-.97-4.96-.64-1.15-1.62-1.73-2.93-1.73-.57,0-1.09.17-1.56.5-.47.33-.88.8-1.22,1.39-.35.59-.62,1.3-.82,2.11-.2.82-.29,1.71-.29,2.68h7.8Z"/>
      <path class="cls-2" d="M641.3,137.93c0-1.11-.16-2.01-.47-2.69-.31-.68-1.02-1.02-2.14-1.02h-.74v-.74h3.34c.94,0,1.65.13,2.13.39.49.26.83.62,1.02,1.09h.18c.47-.47,1.12-.9,1.93-1.28.81-.38,1.78-.58,2.9-.58.79,0,1.57.09,2.32.28.76.19,1.43.53,2.02,1.04.59.51,1.07,1.2,1.43,2.06.36.87.54,1.97.54,3.3v11.15h-3.34v-11.15c0-.91-.11-1.69-.35-2.34-.24-.64-.54-1.16-.93-1.56-.39-.39-.82-.68-1.3-.85-.48-.17-.98-.26-1.51-.26-.74,0-1.43.2-2.06.6-.63.39-1.18.85-1.66,1.37v14.19h-3.34v-13h0Z"/>
      <path class="cls-2" d="M661.66,134.96h-2.6v-1.49h2.6v-3.34l1.86-2.23h1.49v5.57h4.46v1.49h-4.46v11.52c0,2.23.87,3.34,2.6,3.34.64,0,1.18-.07,1.6-.22.42-.15.82-.32,1.19-.52l.37.74c-.2.15-.43.31-.69.48-.26.17-.57.34-.95.48-.37.15-.8.27-1.3.37-.5.1-1.07.15-1.71.15-1.31,0-2.38-.39-3.21-1.16-.83-.76-1.25-1.99-1.25-3.68v-11.52h0Z"/>
      <path class="cls-2" d="M685.84,146.48c0,.79-.17,1.49-.5,2.08-.33.59-.79,1.1-1.35,1.51-.58.41-1.26.72-2.06.93-.81.21-1.66.32-2.58.32-1.48,0-2.7-.13-3.64-.39-.94-.26-1.65-.62-2.12-1.1-.47-.47-.74-1-.81-1.6-.07-.6-.11-1.37-.11-2.3h.74c.2,1.21.72,2.17,1.56,2.86.84.7,2.05,1.04,3.64,1.04,1.41,0,2.45-.25,3.1-.74.66-.5.99-1.11.99-1.86s-.28-1.37-.84-1.87c-.56-.51-1.4-1-2.51-1.47l-2.23-.93c-1.41-.57-2.51-1.24-3.29-2.03-.78-.78-1.17-1.78-1.17-2.99,0-.79.15-1.48.46-2.08.31-.59.74-1.09,1.28-1.5.54-.41,1.19-.72,1.93-.93.74-.21,1.56-.32,2.45-.32,1.41,0,2.58.13,3.49.39.91.26,1.61.63,2.08,1.1.47.47.74,1,.82,1.6.07.59.11,1.36.11,2.3h-.75c-.19-1.21-.71-2.17-1.54-2.86-.83-.69-1.99-1.04-3.48-1.04-1.21,0-2.14.25-2.77.74-.63.49-.95,1.12-.95,1.86,0,.64.26,1.23.78,1.76.52.53,1.25,1,2.19,1.39l2.23.93c1.59.65,2.79,1.35,3.61,2.12.82.77,1.23,1.79,1.23,3.08h0Z"/>
      <path class="cls-2" d="M694.44,133.66c0-1.67-.23-3.01-.69-4.04-.46-1.02-1.53-1.53-3.21-1.53h-.56v-1.67h15.04c1.75,0,3.58.1,5.52.28,1.93.18,3.7.61,5.32,1.28,1.61.67,2.95,1.65,4.01,2.95,1.06,1.3,1.58,3.04,1.58,5.24,0,.78-.16,1.58-.47,2.39-.32.82-.8,1.59-1.45,2.31-.65.73-1.45,1.38-2.42,1.95-.97.58-2.1,1.03-3.4,1.37,1.82.18,3.33.55,4.54,1.08,1.21.54,2.17,1.2,2.9,1.98.72.78,1.24,1.66,1.53,2.65.29.99.45,2.02.45,3.09,0,2.12-.48,3.84-1.45,5.18-.96,1.34-2.23,2.38-3.79,3.12-1.56.74-3.33,1.24-5.29,1.51-1.97.26-3.94.39-5.91.39h-12.25v-29.52h0ZM705.02,128.64h0c-.45,0-.88.02-1.28.06-.41.04-.76.09-1.05.17-.37.07-.71.13-1,.16v14.04h4.17c2.26,0,4.13-.54,5.6-1.61,1.47-1.08,2.2-2.93,2.2-5.57,0-1.37-.25-2.53-.75-3.45-.5-.93-1.15-1.67-1.95-2.23-.8-.56-1.72-.96-2.75-1.2-1.04-.24-2.1-.37-3.18-.37h0ZM705.86,160.95h0c3.08,0,5.43-.67,7.05-2,1.61-1.34,2.42-3.23,2.42-5.68,0-5.12-3.16-7.68-9.47-7.68h-4.17v14.82c.33.11.7.2,1.11.28.74.19,1.67.28,2.78.28h.28Z"/>
      <path class="cls-2" d="M738.33,136.44c3.64,0,6.45.97,8.44,2.9,1.98,1.93,2.98,4.86,2.98,8.8v15.04h-4.74l-1.95-2.5h-.28c-.41.59-.93,1.11-1.56,1.56-.52.41-1.21.76-2.06,1.06-.86.29-1.88.44-3.06.44-3.08,0-5.43-.7-7.05-2.09-1.62-1.39-2.42-3.21-2.42-5.43,0-1.34.22-2.52.67-3.54.44-1.02,1.23-1.89,2.36-2.62,1.14-.73,2.67-1.27,4.6-1.64,1.93-.38,4.41-.56,7.41-.56h.84c0-3.34-.47-5.66-1.39-6.96-.93-1.3-2.23-1.95-3.9-1.95-.63,0-1.23.07-1.81.19-.58.13-1.1.38-1.59.75-.48.37-.91.88-1.28,1.53-.37.65-.67,1.49-.89,2.53h-3.06c0-.97.06-1.95.2-2.95.13-1,.53-1.88,1.2-2.62.67-.74,1.77-1.26,3.32-1.53,1.54-.28,3.22-.42,5.04-.42h0ZM742.51,150.37h-.84c-2.67,0-4.6.49-5.77,1.47-1.17.98-1.76,2.46-1.76,4.45,0,1.57.33,2.77.98,3.57.65.81,1.53,1.21,2.64,1.21.86,0,1.57-.19,2.15-.56.57-.38,1.07-.79,1.47-1.24.45-.53.82-1.14,1.12-1.86v-7.04h0Z"/>
      <path class="cls-2" d="M769.08,139.11c-1.19,0-2.22.17-3.09.51-.87.34-1.55.75-2.03,1.23.04.22.09.48.17.78.07.26.13.58.17.95.04.37.06.78.06,1.23v19.36h-7.24v-18.94c0-.82-.05-1.57-.14-2.25-.1-.69-.27-1.28-.53-1.78-.26-.5-.65-.88-1.17-1.14-.52-.26-1.18-.39-2-.39h-.56v-1.67h5.52c1.26,0,2.26.16,2.98.48.73.32,1.29.85,1.7,1.59.33-.3.73-.61,1.2-.92.46-.31,1.02-.6,1.67-.84.65-.24,1.4-.45,2.26-.61.85-.17,1.85-.25,3-.25,3.49,0,6.13.81,7.91,2.42,1.78,1.62,2.67,4.23,2.67,7.83v16.49h-7.24v-16.62c0-2.72-.5-4.64-1.51-5.76-1-1.12-2.26-1.68-3.79-1.68h0Z"/>
      <path class="cls-2" d="M795.26,152.26v10.92h-7.25v-29.52c0-1.67-.23-3.02-.69-4.04-.46-1.02-1.53-1.53-3.2-1.53h-.56v-1.67h6.68c.97,0,1.77.12,2.42.36.65.24,1.17.64,1.56,1.2.39.56.66,1.3.81,2.23.15.93.22,2.08.22,3.45v15.87l6.74-8.24c.55-.67,1.1-1.27,1.64-1.81.54-.54,1.12-.99,1.73-1.37.61-.37,1.3-.65,2.06-.83.76-.19,1.63-.28,2.59-.28h1.12v1.45c-1.12,0-2.11.23-3.01.67-.89.44-1.75,1.15-2.56,2.12l-5.4,6.58,7.41,9.8c.96,1.3,1.87,2.28,2.73,2.95.86.67,1.67,1.1,2.45,1.28v1.34c-.3.15-.83.28-1.62.39-.78.11-1.53.17-2.23.17-1.56,0-3.03-.33-4.4-.97-1.37-.65-2.67-1.81-3.9-3.48l-5.35-7.02h0Z"/>
      <path class="cls-2" d="M640.5,73.1c.74,0,1.59.03,2.57.1.97.07,1.96.23,2.97.48,1,.25,1.99.6,2.94,1.03.96.44,1.82,1.03,2.59,1.79.77.75,1.39,1.68,1.84,2.77.45,1.09.68,2.4.68,3.95,0,1.44-.23,2.69-.68,3.72-.45,1.04-1.05,1.92-1.78,2.64-.74.72-1.56,1.3-2.47,1.74-.9.44-1.8.77-2.69,1.01-.89.23-1.73.38-2.51.45-.79.06-1.44.1-1.94.1h-4.78v13.43h-6.54v-26.66c0-1.51-.2-2.73-.62-3.65-.42-.92-1.38-1.38-2.9-1.38h-.5v-1.51h13.83ZM640.5,75.11h0c-.4,0-.81.02-1.21.05-.4.03-.76.08-1.06.15-.37.07-.7.12-1.01.15v15.4h3.02c.84,0,1.67-.12,2.49-.35.82-.23,1.55-.65,2.19-1.26.64-.6,1.15-1.41,1.53-2.44.39-1.02.58-2.31.58-3.85s-.19-2.82-.58-3.82c-.39-1.01-.89-1.81-1.51-2.42-.62-.6-1.32-1.02-2.09-1.26-.77-.23-1.56-.35-2.36-.35h0Z"/>
      <path class="cls-2" d="M656.15,94.48c0-1.71.28-3.32.83-4.83.55-1.51,1.35-2.82,2.39-3.92,1.04-1.11,2.3-1.98,3.8-2.62,1.49-.64,3.18-.96,5.05-.96s3.57.32,5.06.96c1.49.63,2.76,1.51,3.8,2.62,1.04,1.1,1.83,2.41,2.39,3.92.55,1.51.83,3.12.83,4.83s-.28,3.32-.83,4.83c-.56,1.51-1.35,2.82-2.39,3.92-1.04,1.11-2.31,1.98-3.8,2.62-1.49.64-3.18.96-5.06.96s-3.56-.32-5.05-.96c-1.5-.64-2.76-1.51-3.8-2.62-1.04-1.1-1.84-2.41-2.39-3.92-.55-1.51-.83-3.12-.83-4.83h0ZM673.5,94.48h0c0-1.44-.11-2.78-.33-4-.22-1.23-.55-2.29-.98-3.2-.44-.9-.99-1.61-1.66-2.11-.67-.5-1.44-.76-2.31-.76s-1.64.25-2.31.76c-.67.5-1.22,1.21-1.66,2.11-.44.91-.76,1.97-.98,3.2-.22,1.22-.33,2.56-.33,4s.11,2.78.33,4c.22,1.23.54,2.29.98,3.19.44.91.99,1.61,1.66,2.12.67.5,1.44.75,2.31.75s1.64-.25,2.31-.75c.67-.51,1.23-1.21,1.66-2.12.43-.91.76-1.97.98-3.19.22-1.22.33-2.56.33-4h0Z"/>
      <path class="cls-2" d="M692.62,104.54c1.88,0,3.18-.33,3.92-.98.74-.65,1.11-1.47,1.11-2.44s-.44-1.75-1.31-2.34c-.88-.58-1.95-1.16-3.22-1.73l-2.62-1.11c-2.01-.87-3.59-1.87-4.73-2.97-1.14-1.11-1.71-2.48-1.71-4.12,0-1.11.23-2.07.7-2.89.48-.82,1.14-1.52,1.99-2.09.85-.57,1.87-1,3.05-1.28,1.18-.29,2.45-.43,3.82-.43,2.08,0,3.78.18,5.11.55,1.32.37,2.32.87,2.99,1.51.61.57.96,1.39,1.06,2.46.1,1.08.16,2.25.16,3.52h-1.76c-.27-1.61-.92-2.98-1.96-4.1-1.04-1.12-2.57-1.69-4.58-1.69-1.51,0-2.6.33-3.27.98-.67.65-1.01,1.47-1.01,2.44,0,.91.32,1.63.96,2.19.64.55,1.51,1.06,2.62,1.53l3.02,1.26c2.32.97,4.06,1.99,5.24,3.04,1.17,1.06,1.76,2.48,1.76,4.25,0,1.11-.26,2.07-.78,2.89-.52.82-1.24,1.52-2.14,2.09-.91.57-1.99,1-3.25,1.28-1.26.29-2.64.43-4.15.43-2.08,0-3.78-.19-5.1-.55-1.33-.37-2.33-.87-3-1.51-.6-.57-.96-1.39-1.05-2.46-.1-1.07-.15-2.24-.15-3.52h1.76c.27,1.61.92,2.98,1.96,4.1,1.04,1.12,2.57,1.69,4.58,1.69h0Z"/>
      <path class="cls-2" d="M716.27,82.66h5.53v2.26h-5.53v14.84c0,1.88.22,3.15.68,3.8.45.65,1.1.98,1.94.98.54,0,1.05-.07,1.54-.2.49-.13.91-.29,1.28-.45.41-.2.79-.44,1.16-.71l.7,1.41c-.44.41-.96.77-1.56,1.11-.54.27-1.22.52-2.04.75-.82.23-1.8.35-2.94.35-2.28,0-4.07-.62-5.36-1.86-1.29-1.24-1.94-3.07-1.94-5.49v-14.54h-3.01v-2.26h3.01v-4.53l2.52-3.02h4.03v7.54h0Z"/>
      <path class="cls-2" d="M566.53,94.56c0-1-.14-1.81-.42-2.43-.28-.61-.92-.92-1.92-.92h-.66v-.67h3.01c.85,0,1.49.12,1.93.35.44.23.74.57.92.99h.17c.42-.42,1-.81,1.74-1.16.73-.35,1.6-.52,2.61-.52.71,0,1.41.08,2.09.25.68.17,1.29.48,1.83.94.54.46.96,1.08,1.29,1.86.32.78.48,1.78.48,2.98v10.05h-3.01v-10.05c0-.83-.1-1.53-.32-2.11-.21-.58-.49-1.05-.83-1.41-.35-.35-.74-.61-1.17-.77-.44-.16-.89-.23-1.36-.23-.67,0-1.29.18-1.86.54-.57.36-1.06.77-1.49,1.24v12.8h-3.01v-11.72h0Z"/>
      <path class="cls-2" d="M596.98,106.29h-1.68l-1.17-1.5h-.16c-.18.2-.38.41-.62.64-.23.22-.53.42-.89.6-.35.18-.78.32-1.27.44-.49.11-1.07.17-1.74.17-1.01,0-1.89-.22-2.65-.65-.76-.44-1.39-1.02-1.89-1.76-.5-.74-.87-1.6-1.12-2.6-.25-.99-.37-2.06-.37-3.2s.13-2.21.39-3.2c.26-1,.65-1.86,1.17-2.6.53-.74,1.19-1.32,1.98-1.76.8-.44,1.74-.65,2.83-.65.94,0,1.75.1,2.41.32.67.22,1.26.44,1.78.69v-3.01c0-1.01-.14-1.82-.42-2.43-.28-.61-.92-.92-1.92-.92h-.67v-.67h3.02c.58,0,1.06.05,1.46.15.39.1.7.3.94.61.23.3.4.71.49,1.24.09.53.13,1.2.13,2.03v18.09h0ZM593.96,92.55h0c-.51-.25-1.04-.48-1.59-.69-.55-.21-1.08-.32-1.6-.32-.76,0-1.4.18-1.93.53-.52.36-.96.85-1.29,1.46-.34.62-.58,1.34-.74,2.18-.16.84-.23,1.74-.23,2.7s.07,1.86.22,2.7c.15.83.38,1.56.7,2.18.32.61.72,1.1,1.2,1.46.48.36,1.06.54,1.73.54.49,0,.92-.06,1.29-.17.37-.11.69-.26.97-.45.28-.19.51-.41.7-.65.19-.25.38-.49.55-.73v-10.72h0Z"/>
      <path class="cls-2" d="M605.32,106.29h-3.02v-11.72c0-1-.14-1.81-.41-2.43-.28-.61-.93-.92-1.93-.92h-.67v-.67h3.01c.58,0,1.06.05,1.46.15.39.1.7.3.94.61.23.3.4.71.49,1.24.09.52.14,1.2.14,2.02v11.72h0ZM605.11,87.03h0c0,.47-.14.84-.42,1.1-.28.27-.65.4-1.12.4-.51,0-.96-.21-1.32-.64-.36-.43-.55-.93-.55-1.51,0-.47.14-.84.42-1.1.28-.27.65-.4,1.12-.4.51,0,.95.21,1.32.63.37.43.55.93.55,1.51h0Z"/>
      <path class="cls-2" d="M619.82,106.29l-1.17-1.5h-.17c-.33.42-.88.83-1.64,1.24-.76.4-1.78.61-3.05.61-.47,0-.98-.07-1.54-.22-.56-.15-1.08-.4-1.58-.76-.49-.35-.9-.84-1.24-1.44-.33-.6-.5-1.36-.5-2.28s.24-1.68.71-2.28c.47-.61,1.09-1.09,1.88-1.44.78-.35,1.69-.61,2.71-.75,1.03-.14,2.11-.22,3.25-.22h1c0-1.16-.09-2.11-.27-2.86-.18-.75-.42-1.33-.74-1.74-.31-.41-.69-.7-1.12-.85-.43-.16-.9-.23-1.39-.23-.94,0-1.73.2-2.36.6-.64.4-1.08,1.15-1.32,2.24h-1.51c0-.58.04-1.12.1-1.62.07-.5.31-.97.74-1.39.2-.2.49-.38.86-.54.37-.15.77-.28,1.22-.37.45-.09.92-.16,1.42-.2.51-.04,1.01-.07,1.53-.07.76,0,1.49.08,2.19.25.7.17,1.33.5,1.88,1.01.55.5.98,1.22,1.31,2.14.32.93.49,2.14.49,3.63v9.04h-1.68ZM618.48,98.58h-1c-1.68,0-2.99.31-3.93.92-.95.61-1.43,1.42-1.43,2.43,0,.53.09,1,.27,1.41.18.4.41.73.7,1.01.29.27.63.47,1,.59.38.12.78.18,1.21.18.83,0,1.48-.2,1.96-.62.48-.41.89-.88,1.22-1.39v-4.52h0Z"/>
      <path class="cls-2" d="M560.06,106.29h-3.01v-18.09c0-1-.14-1.81-.42-2.43-.28-.62-.92-.92-1.93-.92h-.67v-.67h3.02c.58,0,1.06.05,1.45.15.39.1.7.31.94.61.24.3.4.71.49,1.22.09.52.13,1.2.13,2.04v18.09h0Z"/>
      <path class="cls-2" d="M266.47,109.58c-1.02,0-2.18-.48-3.56-1.47-1.34-.96-2.74-2.3-4.18-4.01l-1.28-1.55c-.72-.89-1.06-1.11-1.19-1.16-.24-.07-.46-.24-.61-.51-.14-.23-.21-.51-.21-.83,0-.26.13-.49.37-.67.22-.17.48-.25.77-.25.11,0,.23.04.34.11l.24.15c1,.82,2.18,1.45,3.55,1.88,1.36.43,2.86.65,4.48.65,1.38,0,2.56-.28,3.52-.84.92-.54,1.36-1.16,1.36-1.89s-.26-1.39-.8-1.93c-.54-.54-1.17-.8-1.93-.8h-4.74c-1.43,0-2.67-.38-3.67-1.13-1.03-.77-1.55-1.71-1.55-2.8s.46-2.03,1.36-2.8c.9-.76,1.98-1.14,3.22-1.14h6.17v-2.24h-14.03v-2.28h20.27v2.28h-3.96v4.52h-8.46c-.66,0-1.2.16-1.66.51-.43.32-.64.69-.64,1.15s.26.81.81,1.14c.58.34,1.3.51,2.14.51h4.74c1.39,0,2.59.49,3.56,1.46.96.97,1.46,2.16,1.46,3.55s-.72,2.62-2.14,3.59c-1.39.95-3.08,1.42-5.02,1.42-.79,0-1.6-.07-2.42-.22-.48-.08-.96-.2-1.44-.33.94,1.05,1.83,1.89,2.66,2.52.99.75,1.83,1.13,2.48,1.13.68,0,1.38-.09,2.06-.27.68-.18,1.32-.44,1.89-.77l.06-.03.22-.04c.12,0,.26.04.39.11.19.11.37.26.54.46.16.19.24.41.24.65,0,.33-.16.52-.29.61-.58.5-1.33.89-2.21,1.16-.87.26-1.84.4-2.9.4h0Z"/>
      <path class="cls-2" d="M274.09,84.35v1.72h-3.96v4.51h-8.18c-.72,0-1.33.19-1.83.56-.5.38-.75.83-.75,1.38s.32,1,.95,1.38c.63.37,1.39.55,2.28.55h4.73c1.32,0,2.44.46,3.36,1.38.92.92,1.38,2.04,1.38,3.36s-.68,2.44-2.02,3.35c-1.35.92-2.97,1.38-4.86,1.38-.77,0-1.56-.07-2.37-.21-.8-.14-1.59-.36-2.36-.65,1.21,1.44,2.33,2.54,3.38,3.33,1.05.79,1.93,1.18,2.65,1.18s1.43-.1,2.13-.28c.7-.19,1.35-.45,1.96-.8.12-.06.25-.04.41.04.16.08.31.22.45.39.12.14.17.3.17.47s-.06.3-.17.39c-.57.49-1.28.86-2.13,1.12-.85.26-1.78.39-2.82.39-.95,0-2.08-.48-3.4-1.42-1.32-.95-2.7-2.27-4.13-3.96-.26-.32-.68-.83-1.27-1.55-.59-.71-1.02-1.13-1.31-1.25-.2-.06-.36-.19-.48-.39-.11-.2-.17-.43-.17-.69,0-.17.09-.32.26-.45.17-.13.37-.19.6-.19.06,0,.12.02.19.07.07.04.16.09.24.15,1,.83,2.21,1.47,3.61,1.92,1.4.45,2.92.67,4.56.67,1.44,0,2.66-.29,3.66-.88,1-.59,1.5-1.3,1.5-2.13s-.29-1.54-.88-2.13c-.59-.59-1.3-.89-2.13-.89h-4.73c-1.38,0-2.55-.35-3.51-1.07-.96-.72-1.44-1.58-1.44-2.58s.42-1.86,1.27-2.58c.84-.72,1.86-1.08,3.03-1.08h6.46v-2.79h-14.03v-1.72h19.71Z"/>
      <path class="cls-2" d="M268.44,80.54c-.73,0-1.36-.26-1.88-.77-.51-.51-.77-1.14-.77-1.88s.26-1.36.76-1.88c.52-.51,1.15-.77,1.88-.77s1.37.26,1.88.77c.51.51.77,1.14.77,1.88s-.26,1.38-.77,1.88c-.51.51-1.14.77-1.88.77h0Z"/>
      <path class="cls-2" d="M270.11,76.22c.47.46.69,1.01.69,1.68s-.22,1.22-.69,1.68c-.46.46-1.02.69-1.67.69s-1.22-.23-1.68-.69c-.46-.46-.68-1.02-.68-1.68s.23-1.22.68-1.68c.46-.46,1.02-.69,1.68-.69s1.22.23,1.67.69h0Z"/>
      <path class="cls-2" d="M275.82,106.14c-.3,0-.58-.12-.8-.34-.23-.22-.34-.49-.34-.8s.12-.58.34-.8c.22-.22.5-.34.8-.34h1.66v-17.51h-4.13v-2.29h3.76c-.22-.29-.41-.64-.56-1.04-.24-.63-.36-1.34-.36-2.12,0-1.98,1.05-3.7,3.12-5.09,2.03-1.37,4.51-2.07,7.36-2.07,3.71,0,6.91.93,9.54,2.76,2.65,1.85,3.99,4.13,3.99,6.77v.28h-2.28v-.28c0-1.98-1.07-3.64-3.27-5.08-2.21-1.44-4.93-2.17-8.06-2.17-2.26,0-4.21.49-5.79,1.47-1.56.95-2.32,2.07-2.32,3.41,0,.67.16,1.3.48,1.86.31.57.76,1.02,1.31,1.34l3.63-.04v2.29h-4.13v17.51h1.44c.3,0,.58.12.8.35.22.22.34.49.34.8s-.12.57-.34.8c-.22.22-.49.34-.8.34h-5.38Z"/>
      <path class="cls-2" d="M277.76,84.35c-.4-.34-.72-.82-.94-1.42-.23-.6-.35-1.28-.35-2.02,0-1.89,1-3.51,2.99-4.86,1.99-1.35,4.39-2.02,7.21-2.02,3.67,0,6.79.91,9.38,2.71,2.58,1.81,3.88,3.99,3.88,6.54h-1.72c0-2.06-1.13-3.83-3.4-5.31-2.27-1.47-5-2.21-8.22-2.21-2.33,0-4.3.5-5.94,1.51-1.63,1.01-2.45,2.23-2.45,3.66,0,.72.17,1.39.52,2,.34.62.82,1.1,1.42,1.44h3.48v1.72h-4.13v18.07h1.72c.23,0,.43.08.6.26.17.17.26.37.26.6s-.09.43-.26.6c-.17.17-.37.26-.6.26h-5.38c-.23,0-.43-.09-.6-.26-.17-.17-.26-.37-.26-.6s.09-.43.26-.6c.17-.17.38-.26.6-.26h1.94v-18.07h-4.13v-1.72h4.13Z"/>
      <path class="cls-2" d="M292.67,106.14c-2.28,0-4.42-.63-6.34-1.87-1.97-1.27-2.97-2.69-2.97-4.22,0-.29.08-.54.24-.77.23-.31.5-.37.68-.37.28,0,.55.12.8.38.23.23.41.52.54.88.4,1.1,1.25,2,2.51,2.67,1.29.67,2.81,1.02,4.54,1.02,1.6,0,2.99-.35,4.11-1.04,1.1-.67,1.63-1.43,1.63-2.34s-.51-1.67-1.57-2.34c-1.08-.68-2.41-1.03-3.96-1.03-2.1,0-3.94-.46-5.46-1.37-1.56-.94-2.35-2.09-2.35-3.42,0-1.03.49-1.93,1.44-2.66.93-.71,2.06-1.06,3.35-1.06h6.81v-2.23h-14.88v-2.29h20.96v2.29h-3.79v4.52h-9.1c-.73,0-1.33.15-1.84.45-.46.28-.68.6-.68.99,0,.65.54,1.23,1.6,1.72,1.13.53,2.52.79,4.14.79,2.06,0,3.85.55,5.33,1.63,1.51,1.09,2.27,2.45,2.27,4.03s-.8,2.94-2.38,4.04c-1.55,1.07-3.45,1.62-5.65,1.62h0Z"/>
      <path class="cls-2" d="M282.09,84.35h20.39v1.72h-3.78v4.51h-8.82c-.78,0-1.43.17-1.98.49-.55.33-.82.74-.82,1.23,0,.77.58,1.43,1.77,1.98,1.17.54,2.59.82,4.25.82,2.01,0,3.73.52,5.17,1.57,1.43,1.05,2.15,2.32,2.15,3.8s-.75,2.76-2.26,3.81c-1.51,1.04-3.33,1.56-5.49,1.56s-4.3-.61-6.19-1.83c-1.89-1.22-2.84-2.55-2.84-3.98,0-.23.07-.43.19-.6s.28-.26.45-.26c.2,0,.4.1.6.3.2.2.36.46.47.77.43,1.18,1.31,2.11,2.64,2.82,1.34.71,2.89,1.06,4.67,1.06,1.67,0,3.09-.36,4.26-1.08,1.17-.72,1.77-1.58,1.77-2.58s-.57-1.86-1.7-2.58c-1.14-.72-2.5-1.08-4.11-1.08-2.07,0-3.84-.44-5.31-1.33-1.48-.89-2.21-1.95-2.21-3.18,0-.95.45-1.76,1.34-2.44.89-.67,1.95-1.01,3.18-1.01h7.1v-2.79h-14.88v-1.72h0Z"/>
      <path class="cls-2" d="M315.4,106.14c-.3,0-.57-.11-.8-.34-.23-.22-.34-.49-.34-.8s.12-.58.34-.8c.22-.22.49-.34.8-.34h1.66v-4.35c-1.03,1.12-2.15,2.02-3.33,2.68-1.39.77-2.78,1.15-4.14,1.15-2.13,0-3.99-.81-5.52-2.41-1.52-1.6-2.29-3.56-2.29-5.83,0-.56.19-1.04.58-1.43.38-.38.86-.58,1.42-.58,1.42,0,2.65-.39,3.64-1.14.97-.74,1.46-1.64,1.46-2.66,0-.54-.18-1.09-.53-1.63-.36-.55-.86-1-1.48-1.35l-6.85.04v-2.28h23.45v2.28h-4.12v17.51h1.43c.31,0,.57.12.8.34.22.22.34.49.34.8s-.11.58-.34.8c-.22.23-.49.34-.8.34h-5.38ZM304.07,95.38h0c.06,1.53.6,2.85,1.62,3.94,1.09,1.17,2.36,1.74,3.9,1.74,1.38,0,2.75-.47,4.08-1.4,1.35-.93,2.5-2.22,3.43-3.84l-.04-9.47h-7.19c.33.35.6.72.81,1.11.32.59.48,1.21.48,1.83,0,1.69-.74,3.15-2.19,4.33-1.37,1.12-3.02,1.7-4.91,1.76h0Z"/>
      <path class="cls-2" d="M323.19,84.35v1.72h-4.13v18.07h1.72c.23,0,.43.09.6.26.17.17.26.37.26.6s-.08.43-.26.6c-.17.17-.37.26-.6.26h-5.38c-.23,0-.43-.09-.6-.26-.17-.17-.26-.37-.26-.6s.09-.43.26-.6c.17-.17.37-.26.6-.26h1.94v-5.38c-1.15,1.38-2.4,2.44-3.74,3.19-1.35.74-2.68,1.12-4,1.12-2.07,0-3.84-.77-5.32-2.33-1.47-1.55-2.21-3.43-2.21-5.63,0-.48.17-.89.5-1.23.32-.33.74-.49,1.22-.49,1.49,0,2.76-.4,3.81-1.2,1.05-.8,1.57-1.77,1.57-2.89,0-.6-.19-1.19-.58-1.78-.39-.58-.91-1.07-1.57-1.44h-6.71v-1.72h22.89ZM310.43,87.6h0c.3.56.45,1.13.45,1.7,0,1.61-.69,2.98-2.08,4.11-1.39,1.13-3.06,1.7-5.01,1.7,0,1.72.56,3.19,1.7,4.41,1.13,1.22,2.5,1.83,4.11,1.83,1.43,0,2.84-.48,4.24-1.44,1.39-.96,2.56-2.27,3.51-3.94v-9.89h-8.18c.55.46.97.97,1.27,1.53h0Z"/>
      <path class="cls-2" d="M324.07,106.14c-.3,0-.58-.12-.8-.34-.22-.22-.34-.49-.34-.8s.12-.57.34-.8c.22-.22.5-.34.8-.34h1.44v-17.51h-4.13v-2.29h10.55v2.29h-4.14v17.51h1.66c.31,0,.58.12.8.34.23.22.34.49.34.8s-.12.58-.35.8c-.22.23-.49.34-.8.34h-5.38Z"/>
      <path class="cls-2" d="M321.66,84.35h9.98v1.72h-4.13v18.07h1.94c.23,0,.43.08.6.26.18.17.26.37.26.6s-.08.43-.26.6c-.17.17-.37.26-.6.26h-5.38c-.23,0-.43-.09-.61-.26-.17-.17-.26-.37-.26-.6s.09-.43.26-.6c.17-.17.37-.26.61-.26h1.72v-18.07h-4.13v-1.72h0Z"/>
      <path class="cls-2" d="M371.1,73.82v2.53h-6.08v26.55h2.85c.34,0,.63.13.88.38.26.25.38.54.38.88s-.12.63-.38.88c-.25.25-.54.38-.88.38h-7.9c-.34,0-.63-.13-.88-.38-.26-.25-.38-.55-.38-.88s.12-.63.38-.88c.25-.25.54-.38.88-.38h2.53v-7.9c-1.26,1.52-2.73,2.69-4.4,3.51-1.66.82-3.36,1.23-5.09,1.23-2.78,0-5.16-.96-7.14-2.88-1.98-1.92-2.97-4.22-2.97-6.92v-13.59h-4.55v-2.53h32.75ZM345.44,89.94h0c0,2.02.74,3.75,2.21,5.15,1.48,1.41,3.26,2.11,5.37,2.11s4.03-.61,5.79-1.83c1.75-1.22,2.98-2.82,3.7-4.8v-14.22h-17.07v13.59h0Z"/>
      <path class="cls-2" d="M367.87,106.16h-7.9c-.53,0-1.01-.2-1.4-.59-.38-.37-.59-.86-.59-1.4s.2-1.02.6-1.41c.38-.38.86-.59,1.39-.59h1.8v-5.34c-1.02.95-2.13,1.73-3.35,2.33-1.75.87-3.57,1.31-5.41,1.31-2.96,0-5.53-1.03-7.65-3.08-2.12-2.05-3.19-4.55-3.19-7.44v-12.86h-4.55v-3.99h34.2v3.99h-6.07v25.09h2.12c.53,0,1.01.21,1.4.6.39.38.59.85.59,1.4s-.21,1.02-.6,1.41c-.38.38-.86.58-1.39.58h0ZM359.98,103.63h0c-.1,0-.22.02-.37.17-.12.12-.17.23-.17.37s.05.25.16.36c.16.16.28.18.38.18h7.9c.14,0,.25-.05.37-.16.13-.12.17-.23.17-.37s-.05-.25-.16-.36c-.12-.12-.23-.18-.37-.18h-3.57v-28h6.07v-1.07h-31.29v1.07h4.55v14.32c0,2.52.9,4.61,2.75,6.39,1.86,1.8,4.03,2.67,6.64,2.67,1.61,0,3.21-.39,4.76-1.15,1.57-.77,2.97-1.89,4.16-3.33l1.28-1.54v10.64h-3.26ZM353.02,97.94h0c-2.29,0-4.27-.78-5.87-2.32-1.62-1.54-2.44-3.46-2.44-5.68v-14.32h18.52l-.04,15.2c-.77,2.12-2.1,3.85-3.97,5.15-1.86,1.3-3.95,1.96-6.2,1.96h0ZM346.17,77.08h0v12.86c0,1.83.65,3.35,1.99,4.63,1.34,1.29,2.93,1.91,4.86,1.91s3.73-.56,5.37-1.7c1.58-1.1,2.72-2.56,3.39-4.34v-13.36h-15.61Z"/>
      <path class="cls-2" d="M368.86,73.83h14.66v2.53h-6.06v26.55h2.84c.33,0,.63.13.88.38.25.26.38.55.38.89s-.13.63-.38.89c-.25.25-.55.38-.88.38h-7.9c-.34,0-.63-.13-.89-.38-.25-.25-.38-.55-.38-.89s.13-.63.38-.89c.26-.25.55-.38.89-.38h2.53v-26.55h-6.07v-2.53h0Z"/>
      <path class="cls-2" d="M380.3,106.16h-7.9c-.53,0-1.01-.2-1.4-.59-.39-.39-.59-.87-.59-1.4s.2-1.01.59-1.4c.39-.39.87-.6,1.4-.6h1.8v-25.09h-6.07v-3.99h16.12v3.99h-6.07v25.09h2.12c.53,0,1.01.21,1.4.6.39.39.59.87.59,1.4s-.2,1.02-.59,1.4c-.38.39-.87.59-1.4.59h0ZM372.4,103.63h0c-.1,0-.22.02-.37.17-.15.15-.17.27-.17.37,0,.14.05.25.17.37.15.15.28.17.37.17h7.9c.14,0,.25-.05.37-.17.12-.12.17-.23.17-.37,0-.1-.02-.22-.17-.37-.12-.11-.23-.17-.37-.17h-3.57v-28h6.07v-1.07h-13.21v1.07h6.07v28h-3.26Z"/>
      <path class="cls-2" d="M361.51,60.56c.93,0,1.84.26,2.75.76.91.5,1.68,1.2,2.31,2.08l5.38,8.22c.5.68,1.01,1.21,1.52,1.61.51.4.95.6,1.33.6h1.58c.33,0,.63.13.88.38.25.25.38.55.38.88,0,.25-.13.48-.38.66-.25.19-.55.28-.88.28h-1.58c-.85,0-1.65-.22-2.44-.66-.78-.44-1.44-1.06-1.99-1.87l-5.68-8.85c-.34-.5-.78-.89-1.33-1.17-.55-.27-1.16-.41-1.83-.41h-2.84c-.33,0-.63-.12-.88-.38-.25-.25-.38-.54-.38-.88s.13-.64.38-.88c.25-.25.55-.38.88-.38h2.84Z"/>
      <path class="cls-2" d="M376.36,76.77h-1.58c-.96,0-1.9-.25-2.79-.75-.87-.5-1.62-1.2-2.23-2.09l-5.7-8.86c-.26-.39-.61-.7-1.04-.91-.45-.22-.95-.33-1.51-.33h-2.84c-.53,0-1.02-.21-1.4-.6-.39-.39-.59-.87-.59-1.39s.21-1.02.6-1.4c.38-.38.86-.59,1.39-.59h2.84c1.05,0,2.09.29,3.1.86,1,.55,1.86,1.33,2.55,2.3l5.39,8.24c.43.57.89,1.07,1.36,1.44.49.39.76.44.88.44h1.58c.52,0,1.01.21,1.4.59.39.39.59.88.59,1.4,0,.34-.11.83-.67,1.24-.37.29-.83.43-1.32.43h0ZM358.66,61.29h0c-.09,0-.22.02-.37.16-.12.12-.17.23-.17.37,0,.1.02.22.17.37.12.12.22.17.37.17h2.84c.78,0,1.51.16,2.16.48.66.33,1.2.8,1.61,1.41l5.69,8.86c.48.7,1.05,1.24,1.74,1.63.68.38,1.36.57,2.08.57h1.58c.18,0,.32-.05.45-.14.09-.18.07-.31-.08-.45-.15-.15-.27-.17-.37-.17h-1.58c-.55,0-1.13-.25-1.78-.75-.57-.45-1.13-1.05-1.65-1.76l-5.4-8.25c-.55-.77-1.24-1.4-2.05-1.85-.79-.44-1.6-.67-2.4-.67h-2.84Z"/>
      <path class="cls-2" d="M411.86,73.83v2.53h-10.74c1.47.84,2.63,1.94,3.47,3.28.84,1.35,1.27,2.78,1.27,4.3,0,.26-.03.6-.1,1.02-.06.42-.13.93-.22,1.51.46.3.99.53,1.58.7.59.17,1.22.25,1.9.25.59,0,1.18-.08,1.77-.25.59-.17,1.16-.4,1.71-.7v2.53c-.88.34-1.61.58-2.18.73-.57.15-1,.22-1.29.22-.84,0-1.66-.11-2.47-.32-.8-.21-1.55-.53-2.27-.95-.93,1.1-2.11,1.95-3.54,2.56-1.44.61-2.99.92-4.68.92h-6.33c.59.34,1.32,1.07,2.18,2.21.86,1.14,1.82,2.61,2.88,4.42.71,1.26,1.64,2.26,2.78,3,1.14.74,2.32,1.11,3.55,1.11.46,0,1.09-.21,1.89-.63.8-.42,1.43-.63,1.89-.63.26,0,.48.13.67.38.19.25.28.55.28.88,0,.55-.53,1.11-1.58,1.67-1.05.57-2.11.86-3.15.86-1.69,0-3.29-.49-4.81-1.45-1.52-.97-2.76-2.28-3.73-3.92-1.26-2.15-2.43-3.88-3.51-5.18-1.07-1.31-2.01-2.11-2.81-2.4-.47-.17-.84-.37-1.15-.6-.29-.23-.44-.45-.44-.67v-2.84c0-.25.13-.48.39-.66.25-.19.54-.29.88-.29s.63.1.88.29c.25.19.38.41.38.66,0,.34.19.63.57.88.38.25.82.38,1.33.38h6.95c2.02,0,3.74-.56,5.15-1.67,1.41-1.12,2.11-2.45,2.11-4.02,0-1.89-.81-3.57-2.43-5.02-1.62-1.45-3.66-2.31-6.1-2.56h-11.95v-2.53h29.01Z"/>
      <path class="cls-2" d="M401.12,106.16c-1.82,0-3.57-.53-5.2-1.57-1.6-1.02-2.94-2.43-3.96-4.16-1.25-2.12-2.41-3.84-3.44-5.09-1.23-1.49-2.04-2.01-2.5-2.18-.53-.18-.97-.42-1.34-.71-.48-.37-.72-.79-.72-1.23v-2.85c0-.35.12-.84.68-1.25.72-.56,1.87-.57,2.64.01.55.41.67.9.67,1.24,0,.09.13.2.24.28.26.17.56.26.92.26h6.95c1.85,0,3.43-.51,4.7-1.52,1.23-.98,1.84-2.11,1.84-3.45,0-1.7-.71-3.16-2.19-4.48-1.5-1.34-3.41-2.14-5.69-2.38h-12.6s0-3.98,0-3.98h30.47v3.99h-9.21c.71.64,1.33,1.36,1.83,2.17.91,1.47,1.37,3.04,1.37,4.68,0,.28-.03.66-.1,1.12l-.15,1.02c.3.15.63.28.99.38.97.27,2.13.32,3.27,0,.53-.16,1.06-.37,1.56-.64l1.07-.58v4.25l-.46.18c-.92.35-1.66.6-2.27.75-.61.16-1.1.24-1.47.24-.9,0-1.79-.12-2.65-.34-.66-.17-1.31-.42-1.94-.74-.93.97-2.07,1.74-3.41,2.32-1.52.65-3.19.98-4.96.98h-4.41c.27.31.55.65.85,1.04.88,1.16,1.86,2.68,2.92,4.5.65,1.16,1.51,2.08,2.55,2.76,1.01.66,2.07.99,3.15.99.19,0,.65-.07,1.55-.55.91-.48,1.64-.72,2.24-.72.33,0,.82.12,1.25.67.28.39.43.83.43,1.33,0,.85-.64,1.6-1.96,2.31-1.16.63-2.34.94-3.5.94h0ZM385.41,91.17h0s.06.05.15.13c.25.19.56.36.94.49.94.34,1.96,1.2,3.13,2.63,1.1,1.33,2.26,3.05,3.57,5.27.91,1.54,2.09,2.78,3.5,3.67,1.39.89,2.88,1.34,4.42,1.34.92,0,1.86-.26,2.81-.77.94-.51,1.2-.89,1.2-1.03,0-.18-.05-.32-.14-.45-.28-.08-.73-.01-1.64.47-.91.48-1.64.71-2.23.71-1.36,0-2.69-.41-3.94-1.22-1.24-.8-2.26-1.9-3.02-3.26-1.03-1.76-1.98-3.23-2.82-4.34-1-1.31-1.62-1.82-1.96-2.02l-2.4-1.36h9.08c1.57,0,3.05-.29,4.39-.86,1.33-.56,2.43-1.36,3.27-2.36l.39-.47.53.31c.68.4,1.36.68,2.09.87.74.19,1.51.29,2.29.29.13,0,.46-.02,1.1-.2.45-.11,1-.29,1.65-.53v-.89c-.26.1-.52.19-.78.26-1.39.4-2.84.35-4.07,0-.66-.19-1.26-.45-1.78-.79l-.39-.25.29-1.98c.05-.38.09-.68.09-.91,0-1.39-.38-2.67-1.15-3.91-.78-1.24-1.86-2.26-3.22-3.04l-2.37-1.36h12.75v-1.07h-27.56v1.07h11.22c2.66.27,4.85,1.19,6.58,2.74,1.78,1.59,2.67,3.46,2.67,5.56,0,1.79-.8,3.33-2.39,4.59-1.54,1.22-3.42,1.83-5.6,1.83h-6.95c-.65,0-1.23-.17-1.73-.5-.74-.49-.89-1.08-.89-1.49-.44-.36-.74-.27-.98-.09l-.1,2.89h0Z"/>
      <path class="cls-2" d="M442.05,73.83v2.53h-5.76v7.58c0,.76-.26,1.37-.79,1.84-.53.46-1.1.59-1.73.38-.51-.25-1.32-.42-2.43-.5-1.12-.08-2.73-.13-4.84-.13-3.16,0-5.84.87-8.06,2.59-2.21,1.73-3.31,3.81-3.31,6.26s1.1,4.37,3.31,6.03c2.21,1.67,4.9,2.5,8.06,2.5,2.24,0,4.25-.36,6.04-1.07,1.79-.71,3.15-1.73,4.07-3.04.46-.68.85-1.16,1.14-1.45.29-.29.54-.44.75-.44.43,0,.79.09,1.11.28.32.19.48.41.48.66,0,1.69-1.52,3.38-4.55,5.06-3.03,1.69-6.05,2.53-9.04,2.53-3.84,0-7.11-1.09-9.83-3.26-2.72-2.17-4.08-4.77-4.08-7.81s1.36-5.85,4.08-8.06c2.72-2.21,5.99-3.32,9.83-3.32,1.81,0,3.33.05,4.55.16,1.22.1,2.13.26,2.72.47v-7.27h-24.15v-2.53h32.43Z"/>
      <path class="cls-2" d="M426.5,106.16c-3.98,0-7.44-1.15-10.29-3.41-2.88-2.31-4.35-5.13-4.35-8.38s1.46-6.28,4.34-8.63c2.84-2.31,6.3-3.48,10.29-3.48,1.88,0,3.39.06,4.61.16.76.06,1.4.15,1.93.25v-5.6h-24.15v-3.98h33.88v3.98h-5.75v6.86c0,.97-.35,1.77-1.04,2.38-.72.63-1.56.82-2.45.52-.39-.18-1-.37-2.26-.47-1.1-.08-2.71-.13-4.78-.13-2.98,0-5.53.82-7.61,2.44-2.05,1.59-3.04,3.45-3.04,5.68s.99,3.92,3.03,5.45c2.07,1.56,4.64,2.35,7.62,2.35,2.13,0,4.07-.34,5.76-1.02,1.66-.66,2.92-1.59,3.75-2.78.49-.7.89-1.21,1.23-1.55.43-.44.85-.65,1.27-.65.55,0,1.05.13,1.48.38.72.43.83.99.83,1.29,0,1.99-1.61,3.85-4.92,5.69-3.13,1.74-6.29,2.62-9.4,2.62h0ZM426.5,83.72h0c-3.65,0-6.8,1.06-9.37,3.16-2.56,2.08-3.8,4.54-3.8,7.49s1.24,5.19,3.8,7.24c2.58,2.05,5.73,3.1,9.37,3.1,2.86,0,5.78-.82,8.69-2.44,2.75-1.53,4.15-3.01,4.17-4.39h0s-.05-.03-.12-.07c-.2-.12-.43-.18-.72-.18,0,0-.08.06-.25.23-.27.27-.62.72-1.06,1.35-1.01,1.43-2.48,2.53-4.41,3.3-1.87.75-3.99,1.12-6.3,1.12-3.31,0-6.17-.89-8.5-2.64-2.39-1.81-3.61-4.03-3.61-6.62s1.21-4.97,3.6-6.83c2.34-1.82,5.2-2.75,8.5-2.75,2.11,0,3.76.04,4.89.13,1.21.09,2.1.28,2.7.58.08,0,.41.19.93-.27.37-.33.55-.74.55-1.29v-8.31h5.75v-1.08h-30.97v1.08h24.15v9.02l-.97-.35c-.53-.19-1.39-.33-2.54-.43-1.17-.1-2.68-.16-4.49-.16h0Z"/>
      <path class="cls-2" d="M269.18,148.42c-.3,0-.57-.11-.79-.34-.22-.22-.33-.48-.33-.78s.11-.56.33-.78c.22-.22.49-.33.79-.33h1.48v-4.51c-.78.83-1.67,1.49-2.65,1.97-1.18.58-2.39.87-3.6.87-1.97,0-3.67-.69-5.07-2.04-1.4-1.35-2.11-3.01-2.11-4.92v-9.06h-3.12v-2.24h22.95v2.24h-4.16v17.7h1.7c.29,0,.57.11.79.33.22.22.33.48.33.78s-.11.56-.33.78c-.22.22-.49.33-.79.33h-5.42ZM259.46,137.55h0c0,1.31.49,2.44,1.44,3.36.96.91,2.14,1.38,3.51,1.38s2.67-.41,3.82-1.21c1.15-.81,1.97-1.88,2.44-3.18v-9.41h-11.21v9.06h0Z"/>
      <path class="cls-2" d="M276.8,126.51v1.74h-4.16v18.2h1.95c.23,0,.43.09.61.26.17.18.26.38.26.61s-.09.44-.26.6c-.17.18-.38.26-.61.26h-5.42c-.23,0-.43-.09-.6-.26-.17-.17-.26-.37-.26-.6s.09-.43.26-.61c.17-.17.38-.26.6-.26h1.73v-5.42c-.87,1.04-1.87,1.84-3.01,2.4-1.15.56-2.3.84-3.49.84-1.91,0-3.54-.65-4.9-1.97-1.36-1.31-2.03-2.89-2.03-4.74v-9.32h-3.12v-1.74h22.45ZM259.21,137.56h0c0,1.38.51,2.56,1.52,3.53,1.01.97,2.24,1.45,3.69,1.45s2.76-.42,3.97-1.25c1.2-.84,2.04-1.94,2.53-3.3v-9.75h-11.7v9.32h0Z"/>
      <path class="cls-2" d="M270.8,128.27c-.62,0-1.22-.16-1.79-.49-.57-.32-1.06-.78-1.45-1.35l-3.91-6.08c-.2-.3-.47-.54-.81-.71-.34-.17-.73-.26-1.14-.26h-1.95c-.3,0-.56-.11-.79-.33-.22-.22-.33-.49-.33-.79s.11-.57.33-.78c.23-.22.49-.33.79-.33h1.95c.67,0,1.35.19,2.01.55.65.37,1.22.87,1.67,1.51l3.69,5.65c.33.44.66.78.98,1.04.3.23.56.36.75.36h1.08c.3,0,.56.11.78.33.23.22.34.49.34.79,0,.18-.07.44-.37.66-.22.16-.47.24-.75.24h-1.08Z"/>
      <path class="cls-2" d="M261.7,117.41c.64,0,1.27.18,1.88.52.62.35,1.15.82,1.58,1.43l3.68,5.63c.35.46.69.83,1.04,1.11.35.27.65.41.91.41h1.08c.23,0,.43.09.61.26.18.17.26.38.26.61,0,.17-.09.32-.26.45-.17.13-.37.19-.61.19h-1.08c-.58,0-1.13-.15-1.67-.45-.53-.31-.99-.73-1.36-1.28l-3.9-6.07c-.23-.34-.53-.61-.91-.8-.38-.19-.79-.28-1.26-.28h-1.94c-.23,0-.43-.09-.61-.26-.17-.17-.26-.37-.26-.6s.08-.43.26-.61c.18-.17.38-.26.61-.26h1.94Z"/>
      <path class="cls-2" d="M294.36,148.42c-.35,0-.66-.11-.91-.32-.28-.22-.42-.49-.42-.8s.11-.56.33-.78c.22-.22.48-.34.79-.34h1.7v-7.73h-8.16v2.78c0,1.25-.48,2.34-1.44,3.24-.96.9-2.13,1.34-3.49,1.34s-2.49-.45-3.44-1.34c-.96-.9-1.44-1.99-1.44-3.24,0-1.4.52-2.6,1.53-3.56,1.01-.97,2.26-1.46,3.7-1.46h2.35v-7.73h-9.36v-2.24h26.15v2.24h-4.16v17.69h1.48c.34,0,.66.11.91.32.28.22.42.49.42.8s-.14.59-.42.8c-.25.21-.56.32-.91.32h-5.2ZM282.75,138.46h0c-.74,0-1.35.27-1.88.81-.52.55-.77,1.19-.77,1.97,0,.66.25,1.2.76,1.66.53.46,1.15.69,1.89.69s1.39-.23,1.91-.69c.53-.46.78-1,.78-1.65v-2.78h-2.7ZM295.84,128.49h-8.16v7.73h8.16v-7.73h0Z"/>
      <path class="cls-2" d="M301.99,126.51v1.74h-4.16v18.19h1.73c.28,0,.54.09.75.26.22.17.32.38.32.61s-.11.43-.32.61c-.21.18-.47.26-.75.26h-5.2c-.29,0-.54-.08-.76-.26-.22-.17-.32-.37-.32-.61s.09-.43.26-.61c.17-.17.37-.26.61-.26h1.95v-8.23h-8.66v3.03c0,1.19-.45,2.2-1.37,3.05-.91.85-2.02,1.28-3.32,1.28s-2.36-.42-3.27-1.28c-.91-.85-1.36-1.87-1.36-3.05,0-1.33.48-2.46,1.45-3.38.97-.93,2.14-1.39,3.53-1.39h2.6v-8.23h-9.36v-1.74h25.65ZM280.69,139.09h0c-.56.6-.84,1.31-.84,2.15,0,.72.28,1.34.84,1.84.57.51,1.25.76,2.06.76s1.5-.26,2.08-.76c.58-.5.87-1.12.87-1.84v-3.03h-2.95c-.81,0-1.49.3-2.06.89h0ZM296.09,128.24h-8.66v8.23h8.66v-8.23h0Z"/>
      <path class="cls-2" d="M295.99,128.27c-.62,0-1.22-.16-1.79-.49-.56-.32-1.05-.78-1.44-1.35l-3.9-6.08c-.21-.31-.48-.54-.81-.71-.35-.17-.73-.26-1.14-.26h-1.95c-.3,0-.57-.11-.78-.33-.22-.23-.33-.49-.33-.79s.11-.56.33-.78c.22-.22.49-.33.79-.33h1.95c.68,0,1.35.19,2,.55.66.37,1.22.87,1.67,1.51l3.69,5.65c.32.43.66.78.99,1.04.3.24.56.36.76.36h1.08c.29,0,.56.11.78.33.22.23.34.49.34.79,0,.17-.07.43-.36.66-.21.16-.48.24-.76.24h-1.08Z"/>
      <path class="cls-2" d="M286.89,117.41c.64,0,1.26.18,1.88.52.62.35,1.15.82,1.58,1.43l3.68,5.63c.34.46.7.83,1.04,1.11.35.27.65.41.91.41h1.08c.23,0,.43.09.61.26.17.17.26.38.26.61,0,.17-.09.32-.26.45-.17.13-.38.19-.61.19h-1.08c-.58,0-1.13-.15-1.67-.45-.53-.31-.99-.73-1.37-1.28l-3.9-6.07c-.23-.34-.53-.61-.91-.8-.38-.19-.8-.28-1.26-.28h-1.95c-.23,0-.43-.09-.61-.26-.17-.17-.26-.37-.26-.6s.09-.43.26-.61c.17-.17.38-.26.61-.26h1.95Z"/>
      <path class="cls-2" d="M309.15,145.83c-1.57,0-2.92-.63-4.02-1.86-1.09-1.24-1.65-2.73-1.65-4.46s.53-3.33,1.57-4.6c1.06-1.28,2.36-1.93,3.88-1.93h9.35v2.23h-9.35c-.88,0-1.61.41-2.24,1.24-.65.85-.97,1.88-.97,3.06s.34,2.09,1.02,2.89c.68.8,1.47,1.19,2.41,1.19.87,0,1.63-.39,2.25-1.18.64-.8.96-1.78.96-2.9,0-.31.15-.58.42-.8.26-.21.57-.32.91-.32.3,0,.56.11.78.33.22.21.34.48.34.78,0,1.73-.55,3.23-1.65,4.46-1.1,1.23-2.45,1.86-4.02,1.86h0ZM301.28,126.26h16.58v2.24h-16.58v-2.24h0Z"/>
      <path class="cls-2" d="M317.6,128.24h-16.08v-1.74h16.08v1.74h0ZM305.25,135.06h0c1.01-1.23,2.24-1.84,3.68-1.84h9.1v1.73h-9.1c-.95,0-1.77.45-2.45,1.34-.68.89-1.02,1.96-1.02,3.21s.36,2.21,1.08,3.05c.72.85,1.59,1.28,2.6,1.28.95,0,1.77-.43,2.45-1.28.68-.85,1.02-1.87,1.02-3.05,0-.23.11-.44.32-.6.22-.17.47-.27.76-.27.23,0,.43.09.61.27.17.17.26.37.26.6,0,1.67-.52,3.11-1.58,4.29-1.05,1.18-2.33,1.78-3.83,1.78s-2.78-.6-3.83-1.78c-1.05-1.18-1.58-2.62-1.58-4.29s.5-3.21,1.52-4.44h0Z"/>
      <path class="cls-2" d="M327.63,148.42c-2.67,0-4.99-.77-6.9-2.28-1.92-1.53-2.89-3.4-2.89-5.55s.97-4.16,2.89-5.72c1.9-1.54,4.22-2.33,6.9-2.33,1.24,0,2.3.03,3.14.11.67.06,1.2.14,1.6.24v-4.4h-16.55v-2.24h22.73v2.24h-3.95v4.95c0,.59-.21,1.08-.63,1.45-.29.26-.62.39-.96.39-.16,0-.32-.03-.48-.08-.35-.17-.88-.28-1.61-.34-.77-.06-1.88-.09-3.3-.09-2.1,0-3.9.58-5.36,1.72-1.45,1.13-2.18,2.51-2.18,4.09s.71,2.84,2.18,3.94c1.47,1.1,3.27,1.65,5.37,1.65,1.49,0,2.85-.24,4.05-.71,1.18-.47,2.08-1.15,2.68-1.99.33-.48.6-.81.82-1.03.25-.25.48-.38.69-.38.33,0,.64.08.89.23.37.22.45.49.45.67,0,1.27-1.06,2.47-3.25,3.68-2.11,1.18-4.24,1.77-6.32,1.77h0Z"/>
      <path class="cls-2" d="M338.3,126.51v1.74h-3.95v5.2c0,.52-.18.94-.54,1.26-.36.31-.76.4-1.19.25-.35-.17-.9-.29-1.67-.35-.77-.05-1.87-.09-3.32-.09-2.17,0-4.01.59-5.52,1.78-1.52,1.18-2.28,2.62-2.28,4.29s.76,3,2.28,4.14c1.51,1.14,3.35,1.71,5.52,1.71,1.53,0,2.91-.24,4.14-.73,1.22-.49,2.16-1.18,2.79-2.08.32-.46.58-.8.78-1,.2-.2.37-.3.52-.3.29,0,.54.06.76.2.22.13.33.28.33.45,0,1.16-1.04,2.31-3.12,3.46-2.08,1.16-4.15,1.73-6.2,1.73-2.63,0-4.87-.74-6.74-2.23-1.86-1.49-2.79-3.27-2.79-5.35s.93-4.01,2.79-5.53c1.87-1.51,4.11-2.27,6.74-2.27,1.24,0,2.29.04,3.12.11.84.07,1.46.18,1.86.32v-4.98h-16.55v-1.74h22.23Z"/>
      <path class="cls-2" d="M334.25,158.52c-.08,0-.16,0-.24-.02-.3-.06-.56-.19-.76-.4l-5.95-7.43-1.98,1.19c-.15.13-.35.2-.57.2l-.19-.02c-.29-.06-.52-.22-.67-.49-.12-.2-.15-.43-.09-.67.06-.24.2-.43.4-.55l2.17-1.29,2.19-.04,6.14,7.46c.28.28.46.62.51.99.08.56-.19.81-.36.9-.19.1-.39.16-.61.16h0Z"/>
      <path class="cls-2" d="M328.44,149.25l6.07,7.37c.26.26.41.55.45.87.04.32-.04.54-.24.65-.2.11-.42.15-.67.11-.25-.04-.46-.15-.63-.32l-6.06-7.59-2.17,1.3c-.17.14-.37.2-.59.15-.22-.05-.38-.17-.5-.37-.09-.14-.11-.3-.06-.48.04-.17.13-.3.28-.39l2.17-1.3h1.95Z"/>
      <path class="cls-2" d="M356.66,148.42c-.35,0-.66-.1-.92-.32-.28-.22-.42-.49-.42-.8s.14-.59.42-.81c.26-.21.57-.31.92-.31h1.48v-9.54c-.46.21-.92.38-1.37.5-.57.15-1.12.22-1.62.22-.62,0-1.19-.04-1.7-.11-.44-.06-.85-.15-1.22-.27-.5.77-1.28,1.39-2.33,1.83-1.11.47-2.4.71-3.85.71h-3.31c.42.46.84.96,1.26,1.51.55.72,1.1,1.54,1.62,2.45.47.83,1.09,1.49,1.82,1.97.74.48,1.51.72,2.29.72.18,0,.54-.06,1.21-.31.61-.23,1.06-.34,1.39-.34.18,0,.43.06.65.36.16.22.25.48.25.76,0,.46-.4.86-1.23,1.24-.75.35-1.52.52-2.27.52-1.19,0-2.35-.35-3.43-1.03-1.07-.69-1.95-1.62-2.63-2.77-.86-1.46-1.66-2.64-2.39-3.53-.7-.85-1.32-1.38-1.82-1.57-.35-.13-.62-.27-.85-.45-.26-.21-.4-.43-.4-.65v-2.17c0-.18.06-.43.36-.66.22-.16.47-.25.76-.25s.54.08.76.25c.3.22.36.48.36.66,0,.26.15.49.45.71.33.23.74.34,1.25.34h3.9c1.38,0,2.57-.37,3.53-1.1.95-.72,1.42-1.55,1.42-2.55,0-1.28-.53-2.43-1.59-3.42-1.07-1-2.43-1.59-4.03-1.75h-8.46v-2.24h27.63v2.24h-4.16v17.7h1.7c.3,0,.57.11.79.33.22.22.33.48.33.79s-.14.58-.41.8c-.26.21-.57.32-.92.32h-5.2ZM353.05,134.97h0c.23.03.49.07.77.1.39.04.83.06,1.32.06.55,0,1.1-.07,1.62-.21.48-.13.94-.32,1.37-.56v-5.89h-7.77c.77.55,1.4,1.21,1.88,1.98.65,1.01.98,2.09.98,3.19,0,.12-.02.3-.05.53-.02.18-.07.45-.13.79h0Z"/>
      <path class="cls-2" d="M364.29,126.51v1.74h-4.16v18.2h1.95c.23,0,.43.09.61.26.17.18.26.38.26.61s-.1.44-.32.6c-.22.18-.47.26-.76.26h-5.2c-.29,0-.54-.09-.76-.26-.22-.17-.32-.37-.32-.6s.11-.43.32-.61c.22-.17.47-.26.76-.26h1.73v-10.18c-.58.29-1.14.51-1.69.65-.55.14-1.06.22-1.56.22-.61,0-1.16-.04-1.67-.11-.5-.07-.96-.18-1.36-.32-.47.81-1.24,1.44-2.32,1.91-1.09.46-2.33.69-3.75.69h-3.9c.55.55,1.1,1.18,1.65,1.91.55.72,1.08,1.53,1.6,2.43.49.87,1.12,1.55,1.9,2.06.78.5,1.59.76,2.43.76.29,0,.72-.11,1.3-.32.58-.22,1.01-.33,1.3-.33.17,0,.32.09.45.26.13.17.2.38.2.61,0,.35-.36.69-1.08,1.02-.73.33-1.45.5-2.17.5-1.16,0-2.25-.33-3.3-1-1.04-.67-1.89-1.56-2.55-2.69-.86-1.47-1.67-2.66-2.41-3.55-.74-.9-1.38-1.44-1.92-1.65-.32-.12-.58-.25-.78-.41-.2-.16-.3-.31-.3-.46v-2.17c0-.17.09-.32.26-.45.17-.13.37-.2.6-.2s.43.07.61.2c.17.13.26.28.26.45,0,.35.19.65.57.91.38.26.84.39,1.39.39h3.9c1.44,0,2.68-.38,3.69-1.15,1.01-.77,1.52-1.68,1.52-2.75,0-1.36-.56-2.56-1.67-3.6-1.11-1.04-2.5-1.65-4.18-1.82h-8.23v-1.74h27.12ZM352.05,130.6h0c.62.97.94,1.98.94,3.06,0,.11-.02.28-.04.49-.03.22-.09.56-.17,1.02.29.06.64.11,1.04.15.4.05.85.07,1.34.07.58,0,1.15-.07,1.69-.22.55-.15,1.07-.36,1.56-.65v-6.28h-8.88c1.07.6,1.92,1.39,2.53,2.36h0Z"/>
      <path class="cls-2" d="M408.57,126.82v2.86h-6.86v29.97h3.21c.38,0,.71.14,1,.43.28.28.43.62.43.99s-.15.72-.43,1c-.28.29-.62.43-1,.43h-8.92c-.38,0-.71-.14-1.01-.43-.28-.28-.42-.62-.42-1s.14-.71.42-.99c.29-.29.62-.43,1.01-.43h2.85v-7.13c-1.52,1.8-3.31,3.21-5.35,4.2-2.05,1-4.19,1.5-6.42,1.5-3.23,0-6-1.25-8.31-3.74-2.32-2.5-3.47-5.53-3.47-9.1,0-3.14,1.19-5.82,3.57-8.06,2.37-2.24,5.23-3.35,8.56-3.35,1.38,0,3.07.35,5.07,1.07,2,.71,3.28,1.43,3.86,2.14.33.28.52.62.57,1.03.05.41-.03.77-.21,1.11-.19.29-.5.43-.93.43s-.83-.14-1.21-.43c-.95-.81-2.05-1.42-3.28-1.85-1.24-.43-2.52-.64-3.85-.64-1.05,0-1.98.09-2.81.29-.83.19-1.56.45-2.18.78l12.49,14.63c1.24-.72,2.19-1.93,2.89-3.65.69-1.71,1.03-3.71,1.03-5.99v-13.2h-27.33v-2.86h37.04ZM378.81,142.31h0c-.43,1.04-.64,2.07-.64,3.07,0,2.76.86,5.12,2.6,7.07,1.73,1.95,3.84,2.93,6.31,2.93,1.04,0,2.05-.12,3.03-.36.97-.24,1.87-.6,2.68-1.07l-12.13-14.63c-.81.95-1.43,1.95-1.86,3h0Z"/>
      <path class="cls-2" d="M404.92,163.07h-8.92c-.53,0-1-.2-1.4-.59-.39-.39-.59-.86-.59-1.39s.2-1.01.59-1.4c.41-.39.87-.59,1.4-.59h2.29v-5.12c-1.34,1.35-2.86,2.44-4.54,3.27-2.11,1.03-4.35,1.56-6.67,1.56-3.38,0-6.31-1.32-8.73-3.93-2.4-2.59-3.61-5.78-3.61-9.48,0-3.29,1.26-6.13,3.75-8.47,2.47-2.33,5.48-3.5,8.94-3.5,1.46,0,3.18.36,5.26,1.1,2.11.75,3.45,1.51,4.1,2.32.37.3.62.77.69,1.32.06.51-.03,1-.28,1.44-.23.35-.64.72-1.42.72-.56,0-1.08-.18-1.55-.54-.91-.77-1.96-1.36-3.13-1.77-1.16-.41-2.4-.61-3.67-.61-1.01,0-1.91.09-2.69.27-.52.12-.99.26-1.4.43l11.7,13.69c.93-.67,1.69-1.71,2.26-3.12.66-1.64.99-3.58.99-5.78v-12.63h-27.33v-3.99h38.16v3.99h-6.86v28.84h2.65c.53,0,1,.2,1.4.59.39.39.59.87.59,1.4s-.2,1-.6,1.39c-.38.39-.86.59-1.39.59h0ZM396.01,160.21h0c-.23,0-.42.08-.61.27-.17.17-.26.36-.26.6s.08.42.26.59c.19.19.37.27.6.27h8.92c.23,0,.42-.09.6-.26.19-.18.27-.38.27-.6s-.08-.42-.27-.6c-.18-.19-.37-.27-.6-.27h-3.78v-31.09h6.86v-1.73h-35.91v1.73h27.33v13.76c0,2.34-.36,4.43-1.07,6.21-.74,1.83-1.8,3.15-3.13,3.92l-.4.23-13.25-15.51.61-.33c.66-.36,1.42-.63,2.32-.84.86-.2,1.85-.3,2.94-.3,1.4,0,2.76.23,4.04.67,1.31.45,2.47,1.11,3.46,1.96.25.19.53.29.84.29.35,0,.43-.12.46-.18.11-.19.16-.45.12-.73-.03-.26-.15-.47-.37-.67-.42-.51-1.33-1.2-3.68-2.04-1.93-.69-3.57-1.04-4.88-1.04-3.17,0-5.92,1.08-8.17,3.2-2.28,2.15-3.39,4.66-3.39,7.66,0,3.41,1.12,6.34,3.31,8.72,2.19,2.36,4.85,3.56,7.9,3.56,2.14,0,4.22-.48,6.18-1.44,1.96-.96,3.7-2.33,5.17-4.06l.99-1.18v9.23h-3.41ZM387.08,155.93h0c-2.64,0-4.9-1.05-6.74-3.11-1.82-2.05-2.75-4.55-2.75-7.44,0-1.07.23-2.18.69-3.28.45-1.11,1.11-2.17,1.95-3.15l.43-.51,12.98,15.65-.57.33c-.85.5-1.8.88-2.83,1.13-1.02.25-2.09.37-3.16.37h0ZM380.67,140.2h0c-.56.74-1.01,1.52-1.34,2.32-.4.97-.6,1.93-.6,2.85,0,2.61.83,4.86,2.46,6.69,1.61,1.81,3.6,2.73,5.9,2.73.99,0,1.96-.11,2.9-.34.69-.17,1.34-.4,1.94-.7l-11.25-13.57h0Z"/>
      <path class="cls-2" d="M380.28,115.76c-.57-.48-1.13-.83-1.67-1.07-.55-.24-1.07-.36-1.54-.36h-2.14c-.29,0-.54-.1-.75-.32-.21-.21-.32-.47-.32-.75,0-.38.11-.71.32-1,.22-.29.46-.43.75-.43h2.14c.9,0,1.82.21,2.75.65.93.42,1.8,1.04,2.6,1.85l8.92,10.71c.48.57.93,1.01,1.36,1.31.42.31.8.47,1.14.47h1.79c.38,0,.7.13.96.39.26.26.41.61.46,1.03.05.29-.07.54-.35.75-.28.21-.64.32-1.07.32h-1.43c-.8,0-1.61-.21-2.43-.64-.81-.43-1.55-1.05-2.2-1.85l-9.28-11.06h0ZM387.85,112.27h0c.28-.29.61-.43,1-.43h1.78c.95,0,1.81.19,2.56.57.76.38,1.34.9,1.71,1.57l6.42,11.78c.19.33.44.6.75.78.31.19.65.29,1.04.29h1.07c.28,0,.54.14.75.42.21.29.32.62.32,1,0,.29-.12.54-.32.75-.21.21-.47.32-.75.32h-2.14c-.43,0-.91-.22-1.43-.68-.52-.45-1-1.06-1.43-1.82l-6.07-11.06c-.24-.43-.58-.77-1.03-1.03-.45-.26-.94-.4-1.46-.4h-1.78c-.38,0-.71-.1-1-.32-.29-.21-.43-.47-.43-.75,0-.38.14-.71.43-1h0ZM408.97,114.55h0c.61.61.92,1.38.92,2.28s-.31,1.66-.92,2.29c-.62.61-1.38.92-2.29.92s-1.66-.31-2.28-.92c-.61-.62-.93-1.38-.93-2.29s.31-1.67.93-2.28c.62-.62,1.38-.93,2.28-.93s1.66.31,2.29.93h0Z"/>
      <path class="cls-2" d="M404.19,129.88h-2.14c-.57,0-1.17-.28-1.79-.81-.57-.49-1.09-1.16-1.55-1.97l-6.07-11.07c-.19-.33-.46-.61-.82-.81-.37-.22-.76-.32-1.18-.32h-1.78c-.51,0-.95-.15-1.34-.43-.54-.39-.66-.87-.66-1.2,0-.54.2-1.02.6-1.4.39-.39.86-.59,1.39-.59h1.78c1.04,0,1.99.21,2.82.63.86.43,1.51,1.03,1.95,1.79l6.43,11.78c.14.25.32.44.54.57.23.14.47.21.75.21h1.07c.33,0,.8.11,1.2.65.29.39.44.85.44,1.34,0,.43-.17.82-.48,1.14-.32.32-.72.49-1.15.49h0ZM388.85,112.4h0c-.23,0-.42.08-.6.26-.18.18-.27.37-.27.6,0,.04,0,.15.2.29.19.15.4.21.67.21h1.78c.62,0,1.21.16,1.75.47.53.3.95.72,1.24,1.24l6.07,11.07c.4.69.83,1.26,1.31,1.67.41.35.77.53,1.06.53h2.14c.14,0,.24-.05.35-.15.14-.14.16-.27.16-.35,0-.25-.07-.47-.22-.67-.15-.2-.25-.2-.29-.2h-1.07c-.48,0-.93-.12-1.33-.37-.38-.23-.69-.56-.94-.99l-6.43-11.78c-.32-.55-.81-1-1.47-1.34-.69-.34-1.44-.51-2.31-.51h-1.78ZM395.62,129.88h-1.43c-.9,0-1.8-.24-2.69-.71-.87-.46-1.67-1.13-2.38-1.99l-9.28-11.06c-.44-.36-.96-.69-1.47-.92-.47-.2-.92-.3-1.31-.3h-2.14c-.44,0-.82-.16-1.15-.48-.32-.32-.49-.72-.49-1.15,0-.5.15-.95.43-1.34.34-.44.74-.65,1.21-.65h2.14c.99,0,1.99.24,2.99.7.99.45,1.92,1.11,2.76,1.96l8.95,10.74c.44.54.86.95,1.25,1.22.32.24.61.37.81.37h1.79c.53,0,.99.19,1.36.55.35.35.56.81.62,1.37.04.25.03.8-.58,1.26-.38.29-.86.43-1.41.43h0ZM374.93,112.4h0s-.15,0-.31.21c-.13.18-.2.4-.2.66,0,.14.05.25.15.35.11.11.22.15.35.15h2.14c.55,0,1.14.13,1.76.4.61.27,1.22.66,1.81,1.15l9.35,11.13c.61.75,1.3,1.33,2.04,1.72.73.38,1.44.57,2.16.57h1.43c.31,0,.55-.07.73-.21.15-.12.14-.17.14-.2-.04-.33-.13-.56-.31-.73-.16-.16-.33-.23-.57-.23h-1.79c-.45,0-.95-.19-1.47-.57-.46-.32-.95-.8-1.46-1.41l-8.91-10.71c-.72-.72-1.54-1.3-2.41-1.7-.85-.39-1.69-.59-2.51-.59h-2.14ZM406.68,120.61h0c-1.05,0-1.95-.37-2.68-1.09-.73-.73-1.09-1.63-1.09-2.68s.37-1.96,1.09-2.68c.73-.73,1.63-1.09,2.68-1.09s1.96.37,2.68,1.09c.72.73,1.09,1.63,1.09,2.68s-.37,1.95-1.09,2.68c-.73.72-1.63,1.09-2.69,1.09h0ZM406.68,114.19h0c-.75,0-1.37.25-1.88.77-.51.51-.76,1.13-.76,1.88s.25,1.37.76,1.89c.51.51,1.13.76,1.88.76s1.38-.25,1.89-.76c.51-.52.76-1.14.76-1.89s-.25-1.37-.76-1.88c-.51-.52-1.13-.77-1.89-.77h0Z"/>
      <path class="cls-2" d="M461.81,126.82v2.86h-25.4v9.63c1.52-1.48,3.19-2.62,5-3.43,1.8-.81,3.59-1.21,5.35-1.21,3.23,0,6,1.16,8.31,3.46,2.31,2.31,3.46,5.08,3.46,8.31,0,2.95-1.24,5.47-3.74,7.56-2.5,2.09-5.54,3.14-9.1,3.14-.39,0-.71-.14-1-.43-.29-.29-.42-.62-.42-1s.14-.71.42-1c.29-.29.62-.43,1-.43,2.75,0,5.11-.76,7.06-2.28,1.95-1.52,2.93-3.38,2.93-5.56,0-2.47-.87-4.58-2.61-6.31-1.74-1.74-3.84-2.6-6.31-2.6s-4.84.73-6.81,2.21c-1.97,1.47-3.15,3.35-3.53,5.63v14.27h2.86c.38,0,.71.14,1,.43.29.28.43.62.43,1s-.14.71-.43,1c-.29.29-.62.43-1,.43h-8.92c-.38,0-.71-.14-1-.43-.29-.29-.43-.62-.43-1s.14-.72.43-1c.29-.29.62-.43,1-.43h3.21v-7.49c-1.33,1.57-2.94,2.79-4.81,3.68-1.89.88-3.85,1.31-5.89,1.31-3.23,0-6.01-1.15-8.32-3.46-2.3-2.31-3.46-5.07-3.46-8.32,0-2.94,1.25-5.47,3.75-7.56,2.49-2.09,5.53-3.14,9.1-3.14.48,0,.89.15,1.25.43.35.29.54.62.54,1s-.18.72-.54,1c-.36.28-.77.43-1.25.43-2.75,0-5.12.76-7.06,2.28-1.95,1.52-2.92,3.38-2.92,5.56,0,2.48.86,4.58,2.61,6.32,1.73,1.74,3.84,2.6,6.31,2.6,2.71,0,5.08-.74,7.1-2.21,2.02-1.48,3.23-3.35,3.6-5.64v-16.77h-25.76v-2.86h54.01Z"/>
      <path class="cls-2" d="M439.27,163.07h-8.92c-.53,0-1-.2-1.4-.6-.39-.38-.59-.86-.59-1.4s.2-1.01.59-1.39c.4-.4.87-.6,1.4-.6h2.65v-5.5c-1.17,1.13-2.51,2.06-4.01,2.76-1.95.91-4.01,1.37-6.13,1.37-3.38,0-6.31-1.22-8.71-3.62-2.4-2.4-3.62-5.33-3.62-8.71,0-3.11,1.33-5.8,3.95-8,2.58-2.17,5.76-3.27,9.45-3.27.61,0,1.14.19,1.6.55.5.4.75.88.75,1.44,0,.38-.13.94-.75,1.43-.46.37-1,.55-1.6.55-2.62,0-4.88.73-6.72,2.17-1.82,1.42-2.71,3.09-2.71,5.12,0,2.34.8,4.28,2.44,5.92,1.61,1.62,3.6,2.44,5.92,2.44,2.58,0,4.85-.71,6.76-2.1,1.9-1.38,3.03-3.15,3.38-5.27v-16.11h-25.76v-3.98h55.14v3.98h-25.4v7.8c1.3-1.11,2.71-2,4.2-2.67,1.87-.83,3.75-1.26,5.58-1.26,3.37,0,6.3,1.22,8.71,3.62,2.41,2.41,3.63,5.34,3.63,8.71,0,3.11-1.33,5.8-3.95,8-2.59,2.17-5.77,3.26-9.46,3.26-.54,0-1.01-.2-1.4-.59-.39-.38-.59-.87-.59-1.4s.2-1.01.59-1.4c.4-.39.88-.59,1.41-.59,2.61,0,4.87-.73,6.71-2.16,1.83-1.42,2.71-3.1,2.71-5.12,0-2.34-.8-4.28-2.44-5.92-1.64-1.64-3.58-2.44-5.92-2.44s-4.62.71-6.48,2.1c-1.85,1.38-2.96,3.15-3.32,5.28v13.61h2.3c.53,0,1,.2,1.39.6.39.39.59.87.59,1.39s-.2,1.01-.6,1.4c-.39.4-.86.6-1.39.6h0ZM430.35,160.21h0c-.23,0-.42.08-.61.27-.18.17-.26.36-.26.59s.08.42.26.6c.19.18.37.26.61.26h8.92c.23,0,.42-.08.59-.26.19-.19.27-.37.27-.6s-.08-.42-.27-.6c-.18-.18-.37-.27-.6-.27h-3.42v-14.83c.41-2.52,1.68-4.54,3.76-6.09,2.06-1.54,4.47-2.32,7.15-2.32s4.88.93,6.71,2.77c1.84,1.84,2.77,4.09,2.77,6.71,0,2.36-1.06,4.38-3.15,6.01-2.04,1.59-4.53,2.4-7.4,2.4-.24,0-.42.08-.61.27-.17.17-.25.37-.25.6s.08.42.26.6c.18.18.37.26.61.26,3.41,0,6.35-1.01,8.73-3,2.39-2,3.55-4.33,3.55-7.13,0-3.06-1.11-5.73-3.3-7.92-2.18-2.19-4.85-3.29-7.91-3.29-1.68,0-3.4.39-5.12,1.16-1.75.78-3.37,1.9-4.84,3.32l-.95.92v-11.53h25.4v-1.73h-52.89v1.73h25.76v17.33c-.41,2.52-1.7,4.54-3.83,6.09-2.11,1.54-4.61,2.32-7.43,2.32-2.62,0-4.88-.93-6.72-2.77-1.83-1.83-2.77-4.09-2.77-6.71,0-2.36,1.06-4.38,3.14-6.01,2.04-1.59,4.54-2.4,7.41-2.4.35,0,.64-.1.9-.31.29-.23.32-.43.32-.55,0-.14-.04-.33-.33-.57-.26-.2-.55-.3-.9-.3-3.42,0-6.36,1.01-8.73,3.01-2.39,2-3.55,4.33-3.55,7.13,0,3.11,1.08,5.7,3.29,7.92,2.18,2.18,4.85,3.29,7.92,3.29,1.95,0,3.86-.43,5.65-1.26,1.8-.85,3.35-2.03,4.63-3.53l.99-1.17v9.58h-3.77Z"/>
    </g>
  </g>
</svg>