<?xml version="1.0" encoding="UTF-8"?>
<svg id="Layer_2" data-name="Layer 2" xmlns="http://www.w3.org/2000/svg" viewBox="0 0 1987.32 734.16">
  <defs>
    <style>
      .cls-1 {
        fill: #fff;
      }

      .cls-2 {
        fill: #d7127c;
      }
    </style>
  </defs>
  <g id="Layer_1-2" data-name="Layer 1">
    <g>
      <path class="cls-2" d="M1159.51,124.59l-.03,116.1h-45.16s-.21-107.37-.21-107.37c-.02-7.9-2.34-16.53-7.71-21.89-6.64-6.64-17.35-6.65-25.61-3.12s-14.84,9.46-21.75,16.28l-.09,116.17-44.91-.13V71.6s36.72-.05,36.72-.05l3.58,22.8c19.54-18.89,36.65-30.76,65.37-25.66,15.63,2.77,27.41,12.95,33.78,27.92,7.44-7.49,13.91-13.64,21.99-19.05,17.43-11.67,39.56-13.65,58.3-3.84,20.61,10.78,25.81,37.77,26.21,59.38l.02,107.57-45.2.11-.09-104.66c0-10.14-2.89-24.29-13.35-28.33-16.24-6.27-30.38,5.09-41.86,16.82Z"/>
      <path class="cls-2" d="M978.4,171.02c2.52,35.26-20.86,61.94-53.7,70.18-39.25,9.85-80.85-1.14-110.48-29l26.26-31.09c12.63,11.01,25.85,18.79,41.46,22.54,15.56,4.31,44.04,2.45,49.19-15.84,4.25-15.08-3.92-24.62-18.13-30.77l-49.55-21.47c-10.99-4.76-20.52-12-27.78-21.51-18.98-24.87-14.98-60.17,8.29-80.78,35.11-31.1,94.54-24.7,127.94,8.66l-23.1,28.8c-11.38-8.95-23.02-15.51-36.92-17.57-16.45-2.44-39.73.28-42.17,19.27-1.79,13.96,9.76,21.55,21.89,26.55l40.34,16.6c25.63,10.54,44.29,25.48,46.43,55.46Z"/>
      <path class="cls-2" d="M1296.76,197.5c-2.7-52.45,58.73-60.39,97.35-65.37-.75-14.15-7-26.04-22.27-28.05-9.25-1.22-18.13.45-27.05,3.1-8.82,3.54-16.54,7.33-25.52,12.34l-16.35-29.74c13.66-8.33,27.21-14.68,42.27-18.53,33.26-8.25,73.1-4.89,87.33,31.38,4.67,11.9,6.69,24.31,6.7,37.46l.07,100.57-36.9.08-3.65-18.81c-19.16,17.35-43.81,28.35-69.58,20.04-19.49-6.29-31.32-23.74-32.38-44.46ZM1379.38,205.11c5.58-3.96,9.99-7.49,14.7-11.8l-.05-33.29c-14.25,1.6-36.05,5.47-47.47,15.86-8.2,8.03-9.41,22.75.56,29.68s22.02,4.46,32.25-.44Z"/>
      <path class="cls-2" d="M1549.52,240.92c-22.64,7.66-51.8,5.62-60.96-18.97-3.01-8.07-4.73-16.47-4.74-25.5l-.06-196.45,45.24.02.04,197.76c0,3.17,2.23,7.01,3.9,8.49,2.58,2.3,5.73,2.08,10.91,1.19l5.67,33.45Z"/>
      <path class="cls-2" d="M1644.9,240.93c-11.87,4.29-24.17,4.87-36.11,2.42-22.28-4.59-28.98-25.86-29.51-46.53V.01s44.97,0,44.97,0l.03,198.22c1.18,3.45,2.25,6.69,4.37,8.34,2.55,1.99,6.37,1.59,10.68,1.19l5.56,33.16Z"/>
      <path class="cls-2" d="M191.73,199.38c-4.46-53.96,57.93-62.09,97.08-67.33-.29-4.97-1.15-9.91-3.05-14.26-7.39-17-28.69-15.61-43.68-11.4-9.74,3.52-18.14,7.56-27.92,13.18l-16.36-29.73c13.67-8.67,27.33-14.63,42.41-18.71,32.76-7.97,72.72-4.81,86.89,30.9,4.25,10.72,6.79,22.04,6.8,34.02l.12,104.59-36.73.13-3.73-18.33c-19.3,15.67-38.93,26.12-63.94,21.04-21.64-4.39-36.06-21.86-37.9-44.1ZM277.11,203.22l11.73-9.91-.1-33.48c-16.81,2.49-52,7.62-53.62,29-1.09,9.44,3.93,17.39,12.86,19.68,10.26,2.63,20.28.41,29.13-5.29Z"/>
      <path class="cls-2" d="M466.23,106.94c-17.98-4.05-30.53,5.87-42.46,18.06l.02,115.69-45.01-.02V71.59s36.82-.07,36.82-.07l3.54,22.48c7.3-6.18,13.45-11.75,21.26-16.53,15.56-9.52,33.73-12.47,51.37-7.79,26.59,7.05,34.26,33.62,35.5,58.44v112.57s-44.95,0-44.95,0v-101.63c-.6-12.27-1.86-28.93-16.08-32.13Z"/>
      <path class="cls-2" d="M564.24,198.57c-3.47-53.29,57.89-61.4,96.91-66.36.17-5.9-1.24-12.12-4.4-17.31-9-14.75-30.85-12.44-44.85-7.44-8.83,3.15-16.53,7.36-25.28,12.03l-16.26-29.68c26.27-16.74,59.78-26.84,90.45-20.23,18.55,4,33.04,16.31,39.55,34.18,3.62,9.95,6.04,20.35,6.05,31.34l.09,105.53-36.54.18-3.84-18.28c-19.12,15.16-38.17,25.98-63.55,21.04-22.03-4.29-36.85-22.14-38.33-44.99ZM646.82,205.03c5.44-3.71,10.2-7.52,14.78-11.92l-.12-33.25c-15.5,2.12-38.01,5.81-49.16,17.65-6.64,8.47-7.07,21.98,2.42,28.24,9.78,6.46,22.13,4.21,32.08-.73Z"/>
      <path class="cls-2" d="M11.33,205.39l30.75-22.75c9.56,15.38,22.02,26.22,41.67,22.1,17.37-3.64,20.32-20.09,21.31-35.46V17.35s45.21,0,45.21,0v157.52c-1.63,31.24-16.73,59.82-48.59,67.4-16.81,4-34.28,3.31-50.71-2.16-17.34-5.78-30.35-18.11-39.64-34.71Z"/>
      <g>
        <path class="cls-2" d="M1369.03,428.82c27.5,8.15,41.98,25.1,42.06,54.16.06,23.67-12.17,43.86-33.61,54.13-14.97,7.21-31.16,10.68-48.19,10.71l-85,.18v-223.34s83.39.16,83.39.16c15,.03,29.08,2.93,42.44,8.35,17.08,7.39,28.21,22.13,29.15,40.81,1.99,22.19-7.68,44.85-30.24,54.82ZM1355.26,384.59c-.46-10.54-5.91-18.22-15.41-21.7-5.69-1.64-12.02-3.12-18.11-3.13l-32.23-.04v55.6s29.9-.08,29.9-.08c18.16-.05,36.83-8.33,35.85-30.64ZM1366.76,479.54c.02-12.44-6.12-21.79-17.23-26.2-7.1-2.35-14.91-4.24-22.74-4.25l-37.28-.03v63.61s38.3-.09,38.3-.09c6.98-.02,14.11-1.98,20.3-4.37,12.1-4.67,18.62-15.4,18.64-28.68Z"/>
        <polygon class="cls-2" points="1976.44 547.72 1927.6 548.06 1886.85 478.64 1863.11 505.56 1862.94 547.99 1818.78 548.06 1818.78 307.34 1863 307.39 1863.24 451.83 1922.07 379.01 1971.13 379.28 1912.75 448.21 1976.44 547.72"/>
        <path class="cls-2" d="M1477.61,547.03c-23.16-3.93-37.95-22.38-39.63-44.93-3.97-53.47,57.82-61.6,97-66.83,0-9.55-3.4-19.39-11.86-24.46-7.61-4.56-16.45-4.45-25.19-3.34-13.46,2.44-25.01,8.13-37.49,15.35l-16.36-29.83c13.39-8.3,26.69-14.36,41.44-18.34,32.24-8.3,72.8-5.53,87.38,29.46,4.44,10.66,7.21,22,7.23,33.99l.13,105.56-36.76.07-3.58-18.24c-18.53,15.28-37.62,25.75-62.31,21.56ZM1520.54,508.35c5.53-3.98,9.95-7.55,14.77-11.82l-.07-33.37c-15.19,1.79-37.97,5.84-48.98,17.33-6.67,8.23-7.4,21.63,1.74,28.09,9.65,6.82,22.1,4.72,32.54-.23Z"/>
        <path class="cls-2" d="M1713.98,414.68c-18.37-5.31-32.32,5.53-43.73,17.52l.03,115.71-45.21.16-.02-168.91,36.83-.21,3.55,22.23c6.9-5.63,12.75-10.96,20.05-15.62,26.61-16.98,67.64-15.76,81.2,16.85,4.39,10.56,6.76,21.79,6.76,33.7l.05,111.91-44.95-.03v-102.9c-.57-10.81-1.94-26.77-14.56-30.43Z"/>
      </g>
      <path class="cls-2" d="M741.03,421.46c-5.74-15.48-26.44-14.41-38.24-7.26-6.29,3.81-11.55,8.65-16.78,13.9v115.6s-45.23-.03-45.23-.03v-168.85s36.94-.03,36.94-.03l3.54,22.4c6.69-5.59,12.4-10.75,19.48-15.38,15.34-10.03,33.52-13.48,51.42-9.4,28.51,6.49,36.33,34.64,37.33,60.72v110.56s-45.2,0-45.2,0v-104.63c-.48-6.24-1.18-11.98-3.27-17.59Z"/>
      <path class="cls-2" d="M453.75,500.51c-2.54-52.41,59-60.17,97.36-65.23-1.15-14.55-6.16-24.73-21.47-27.97-7.84-1.06-15.41-.1-23.18,1.61-10.59,3.44-19.78,7.87-30.21,13.84l-16.34-29.8c13.1-8.09,25.86-13.85,40.02-17.99,33.88-8.93,75.51-6.15,89.8,31.41,4.44,11.66,6.46,23.82,6.47,36.71l.07,100.56-36.94.08-3.56-18.28c-20.66,17.67-45.69,28.85-71.98,18.86-18.33-6.96-29.09-23.94-30.05-43.8ZM535.21,508.98c6.08-4.07,10.95-7.89,15.89-12.56l-.1-33.3c-16.21,2.18-36.09,5.57-47.88,16.31-7.71,8.18-8.79,22.36.85,29.24,9.15,6.52,21.11,4.67,31.25.31Z"/>
      <path class="cls-2" d="M368.67,421.96c-5.9-16.64-27.96-14.89-39.96-6.85-5.55,3.71-10.2,7.97-15.2,12.77l-.02,115.77-45.15.13-.06-168.95,36.84-.05,3.6,22.45c7.85-6.71,14.52-12.73,23.01-17.57,16.25-9.27,35.07-11.64,52.88-5.71,25.8,8.6,31.92,37.76,32.39,62.14l.02,107.6-45.25-.02.02-103.57c-.44-6.4-1.09-12.42-3.12-18.15Z"/>
      <polygon class="cls-2" points="135.91 415.77 136.04 453.7 56.8 453.73 56.77 543.65 11.33 543.76 11.27 320.54 149.63 320.51 149.84 358.49 56.81 358.5 56.78 415.77 135.91 415.77"/>
      <path class="cls-2" d="M1058.26,512.8c16.54,2.08,31.07-2.35,45.57-11.22l15.35,27.64c-22.36,14.87-48.5,21.61-74.72,17.52-29.98-4.68-54.06-24.13-63.65-52.96-6.7-20.15-7.26-41.57-1.77-62.16,11.66-43.82,53.99-70.61,98.57-57.68,42.27,12.27,52.78,60.39,45.85,98.27h-103.94c2.35,21.28,16.27,37.8,38.74,40.58ZM1086.44,442.02c.47-17.61-6.6-33.45-25.02-36.23-23.3-3.52-39.86,13.65-42.51,36.19l67.53.04Z"/>
      <path class="cls-2" d="M925.42,508.91c7.26-2.6,12.73-6.28,19.16-11.03l17.94,29.72c-19.77,16.88-43.97,22.68-68.65,19.47-30.12-3.92-54.52-23.46-64.1-52.42-6.67-20.17-7.46-41.66-2.03-62.33,10.7-40.77,48.81-64.51,89.94-61.27,15.93,1.25,30.15,7.27,42.72,18.35l-21.61,29.06c-6.07-4.89-10.8-7.85-17.16-10.18-18.57-4.01-37.02,4.83-45.08,22.54-8.31,18.26-8.19,39.98.43,58.02,8.89,18.61,28.93,27.06,48.45,20.06Z"/>
      <rect class="cls-2" x="180.29" y="374.77" width="45.21" height="168.96"/>
      <path class="cls-2" d="M219.46,343.29c-10.22,6.54-23.06,6.17-32.76.06-6.63-4.18-9.97-11.16-10.4-17.9-.5-7.77,2.05-14.93,8.04-19.95,6.31-5.29,14.26-6.74,22.48-6.07,10.34.85,19.18,7.34,21.99,16.55,3.05,10,.16,21.23-9.35,27.32Z"/>
      <g>
        <path d="M1184.33,696.97c0-7.33.85-14.54,1.26-21.98l-18.2,50.5-8.45.16-18.06-49.81,1.1,22.13.03,34.7h-12.22s-.03-75.64-.03-75.64h15.33s18.32,51.14,18.32,51.14l17.82-50.98,15.56-.2v75.52s-12.45.28-12.45.28v-35.82Z"/>
        <path d="M1086.6,696.97l1.02-21.1-17.79,49.25c-2.46.73-5.68.75-8.67.28l-18.2-50.31,1.16,17.87.17,39.58-12.29.05.03-75.58,15.44.12,18.28,51.2,17.83-51.26,15.65-.04.02,75.47-12.74.2.06-35.73Z"/>
        <path d="M1739.13,709.48c.65,16.87-14.07,23.25-27.37,23.26l-27.96.02-.03-75.79,28.97.21c5.95.04,12.64,2.02,17.1,5.67,5.14,4.2,6.05,10.66,4.93,17.11-.9,5.18-4.58,9.93-10.2,12.63,8.68,1.59,14.21,7.92,14.56,16.91ZM1714.46,687.16c5.58-1.28,7.63-6.19,7.3-10.64s-3.86-8.32-9.07-8.43l-15.13-.32.02,20.43c5.92.11,11.43.22,16.88-1.04ZM1716.44,721.2c6.88-1.33,9.82-7.05,9.35-12.68-1.04-12.39-19.39-9.83-28.24-9.99l.03,23.47c6.67.04,12.81.38,18.86-.79Z"/>
        <path d="M1897.27,732.31l-13.88.58-22.29-40.18-8.95-17.69,1.27,22.96.1,34.76-12.97-.09v-75.6s13.93.1,13.93.1l16.92,30.39c5.14,9.23,9.62,18.16,14.2,27.55l-1.14-19.08-.16-38.97h12.93s.04,75.27.04,75.27Z"/>
        <path d="M1357.42,732.26c-5.36.56-9.96.59-15.11.41l-16.09-29.28-11.38-.09-.13,29.47-13.69-.14v-75.55s26.87-.07,26.87-.07c4.11-.01,8.85,1.02,12.66,1.89,9.41,2.9,14.04,10.65,14.13,20.16.09,10.08-4.61,18.74-14.9,22.09l17.63,31.11ZM1341.06,681.83c.72-4.8-.76-10.79-6.46-12.47-6.16-1.82-13.04-1.35-19.82-1.33v24.21c9.98-.1,24.4,2.14,26.28-10.41Z"/>
        <path d="M973.33,734.11c-14.35.53-26.05-7.08-31.14-19.91-4.81-12.11-4.92-25.75-.46-37.98,4.76-13.05,16.38-20.51,30.04-20.59s25.51,7.13,30.43,20.17c4.68,12.4,4.58,26.5-.47,38.79s-15.25,19.03-28.39,19.52ZM988.53,679.12c-2.87-7.19-9.25-11.52-16.35-11.58s-13.63,4.07-16.56,11.22c-4.37,10.63-4.25,23.2.82,33.48,3.34,6.76,9.71,10.32,16.81,9.96,17.61-.91,21.63-27.16,15.28-43.08Z"/>
        <path d="M805.14,708.81c-3.58,14.37-15.7,23.58-30.21,23.72l-25.13.25-.03-75.75c9.62.02,18.91-.37,28.14.6,13.78,1.44,24.42,10.47,27.49,23.77,2.08,8.98,2.07,18.03-.26,27.41ZM791.65,684.02c-3.3-13.96-15.88-16.95-28.38-15.71v53.2c5.9.55,11.7.28,17.19-2.06,12.93-5.5,13.95-23.81,11.2-35.43Z"/>
        <path d="M490.79,708.48c-3.52,14.36-15.39,23.85-29.86,24.01l-25.6.28-.06-75.55c8.96-.25,17.9-.44,26.8.23,14.48,1.08,25.95,10.29,28.98,24.3,1.9,8.79,2,17.5-.26,26.74ZM476.64,682.14c-3.97-12.78-15.99-14.54-27.87-14.18l.04,53.79c4.32.02,8.17.01,12.04-.64,17.99-3.02,20.07-25.17,15.79-38.97Z"/>
        <polygon points="331.02 732.55 317.41 732.78 317.19 699.24 287.06 699.26 286.99 732.55 273.31 732.81 273.29 657.07 286.98 657.02 287.06 687.22 317.25 687.27 317.32 657.16 331.01 657.05 331.02 732.55"/>
        <path d="M1987.32,732.18c-4.97.61-9.28.64-14.7.62l-20.36-35.18-10.55,12.57-.31,22.53-13.62.05-.03-75.75,13.67.12.31,33.93,26.62-33.91,15.21.1-23.03,29.29,26.77,45.62Z"/>
        <path d="M576.25,656.97v43.07c-.01,5.35-.9,11.09-2.28,16.04-3.24,11.7-13.27,18.03-25.19,18.02-8.28,0-16.59-1.35-22.28-7.97-4.51-5.25-7.49-12.88-7.53-20.22l-.24-48.89,13.47.02.15,46.38c.02,4.63,1.47,10.22,4.11,13.84,3.87,5.3,10.63,5.93,17,3.91,4.6-1.46,9.2-7.73,9.25-14.27l.34-49.74,13.2-.2Z"/>
        <polygon points="716.78 699.14 689.53 699.36 689.59 721.19 722.67 721.27 722.62 732.77 676.02 732.76 676.01 657.07 721.75 656.98 721.75 668.42 689.57 668.53 689.57 687.47 716.75 687.6 716.78 699.14"/>
        <path d="M1799.51,712.29l-25.18-.03-5.96,20.5-13.88-.06,24.58-75.54,16.03-.15,24.6,75.54-14.33.19-5.86-20.46ZM1796.18,701.31l-9.21-33.56-9.32,33.75,18.53-.2Z"/>
        <path d="M1538.57,712.26h-25.17s-5.98,20.57-5.98,20.57l-13.81-.34,24.64-75.51,15.94.05,24.62,75.53-14.33.24-5.9-20.56ZM1535.26,701.27l-9.24-33.55-9.29,33.77,18.53-.22Z"/>
        <path d="M44.99,712.31l-25.24-.02-5.93,20.52-13.81-.34,24.52-75.28,16.08-.05,24.55,75.3-14.3.39-5.86-20.52ZM41.66,701.32l-9.3-33.6-9.19,33.72,18.5-.12Z"/>
        <polygon points="402.24 699.2 375.13 699.25 375.02 721.15 408.54 721.36 408.36 732.79 361.56 732.75 361.53 657.02 407.06 657 407.12 668.4 375.06 668.58 375.06 687.46 402.08 687.63 402.24 699.2"/>
        <polygon points="1268.23 699.14 1241.01 699.38 1241.05 721.18 1274.02 721.27 1273.95 732.81 1227.28 732.7 1227.3 657 1272.89 657.02 1272.92 668.41 1241.06 668.57 1241.05 687.42 1268.09 687.62 1268.23 699.14"/>
        <path d="M157.74,730.82c-14.5,6.63-30.95,3.04-42.4-7.77l7.99-9.42c7.57,6.64,15.71,10.03,25.14,7.97,3.75-.82,6.84-4.07,7.38-7.08.79-4.41-1.34-8.17-5.43-10.03l-19.9-9.01c-7.42-3.36-11.7-10.67-11.82-17.98-.13-8.05,4.31-15.27,12.06-18.85,12.37-5.72,26.77-3.1,36.88,6.57l-6.99,8.8c-6.6-5.29-13.66-7.85-21.72-5.67-3.48.94-6.2,4.02-6.41,7.17s1.96,6.91,5.22,8.31l18.96,8.16c8.12,3.5,13.22,10.4,13.37,18.59s-3.79,16.33-12.32,20.23Z"/>
        <path d="M208.65,678.78c-7.07,14.83-3.68,40.73,13.78,43.17,8.01,1.12,13.73-1.47,19.54-7.47l7.33,8.65c-8.53,10.03-20.57,12.89-33.38,9.77-23.64-5.75-29.32-35.76-21.44-55.95,4.06-10.4,12.84-17.79,22.19-20.09,11.98-2.95,23.31-.23,31.15,8.6l-7.27,8.64c-5.26-4.96-10.85-7.37-17.43-6.28-5.96.99-11.53,4.79-14.47,10.96Z"/>
        <path d="M882.04,678.17c-7.61,14.88-4.17,41.18,13.4,43.75,8,1.17,13.77-1.39,19.57-7.46l7.34,8.65c-8,9.46-18.93,12.44-30.99,10.36-25.9-4.46-32.64-36.89-22.96-58.43,4.4-9.8,13.12-16.34,22.05-18.35,11.7-2.63,22.16-.1,30.41,8.58l-7.21,8.8c-5.27-4.73-10.41-7.15-16.69-6.37s-11.82,4.39-14.92,10.48Z"/>
        <path d="M1394.66,678.77c-7,14.68-3.92,40.51,13.79,43.18,7.94,1.2,13.75-1.55,19.55-7.48l7.33,8.59c-7.8,9.27-18.39,12.31-30.16,10.55-10.07-1.51-19.8-8.28-24.23-19.02-8.97-21.71-2.13-52.47,22.52-57.93,11.78-2.61,22.11.05,30.42,8.62l-7.46,8.81c-5.4-5.28-10.78-7.29-17.26-6.29-5.91.91-11.57,4.84-14.5,10.97Z"/>
        <polygon points="651.42 721.27 651.39 732.76 606.34 732.78 606.29 657.29 620 657.03 620.03 721.17 651.42 721.27"/>
        <polygon points="1624.42 721.28 1624.38 732.79 1579.55 732.75 1579.54 657.09 1593 657.07 1593.03 721.17 1624.42 721.28"/>
        <rect x="1459.29" y="657.01" width="13.72" height="75.9"/>
        <path class="cls-1" d="M1716.44,721.2c-6.05,1.17-12.18.83-18.86.79l-.03-23.47c8.85.17,27.2-2.4,28.24,9.99.47,5.63-2.47,11.36-9.35,12.68Z"/>
        <path class="cls-1" d="M1714.46,687.16c-5.45,1.25-10.97,1.15-16.88,1.04l-.02-20.43,15.13.32c5.22.11,8.76,4.15,9.07,8.43s-1.72,9.35-7.3,10.64Z"/>
        <path class="cls-1" d="M1341.06,681.83c-1.88,12.54-16.3,10.31-26.27,10.41v-24.21c6.78-.02,13.66-.49,19.82,1.33,5.7,1.69,7.17,7.67,6.46,12.47Z"/>
        <path class="cls-1" d="M988.53,679.12c6.35,15.92,2.33,42.16-15.28,43.08-7.1.37-13.48-3.2-16.81-9.96-5.07-10.28-5.2-22.86-.82-33.48,2.94-7.14,9.51-11.28,16.56-11.22s13.48,4.39,16.35,11.58Z"/>
        <path class="cls-1" d="M791.65,684.02c2.75,11.63,1.74,29.93-11.2,35.43-5.49,2.34-11.29,2.61-17.18,2.06v-53.2c12.5-1.25,25.07,1.75,28.37,15.71Z"/>
        <path class="cls-1" d="M476.64,682.14c4.29,13.8,2.21,35.95-15.79,38.97-3.88.65-7.73.66-12.04.64l-.04-53.79c11.88-.36,23.9,1.4,27.87,14.18Z"/>
        <polygon class="cls-1" points="1796.18 701.31 1777.65 701.5 1786.96 667.75 1796.18 701.31"/>
        <polygon class="cls-1" points="1535.26 701.27 1516.73 701.49 1526.02 667.72 1535.26 701.27"/>
        <polygon class="cls-1" points="41.66 701.32 23.17 701.44 32.36 667.72 41.66 701.32"/>
      </g>
    </g>
  </g>
</svg>