<?xml version="1.0" encoding="UTF-8"?>
<svg id="Layer_2" data-name="Layer 2" xmlns="http://www.w3.org/2000/svg" viewBox="0 0 731 234.3">
  <defs>
    <style>
      .cls-1 {
        fill: #9aca3c;
      }

      .cls-2 {
        fill: #0093d5;
      }

      .cls-3 {
        fill: #ef4123;
      }

      .cls-3, .cls-4 {
        fill-rule: evenodd;
      }
    </style>
  </defs>
  <g id="Layer_1-2" data-name="Layer 1">
    <g>
      <path class="cls-1" d="M177.9,167l-60.6,67.3-74.4-67,18-20c1.7,2.7,4.6,5.6,9.2,8.4,15.4,9.3,37.1,5.6,38.1,4.5,0,0,10.3-28.1,10.2-28.1.6-1.3,39.8-14.2,59.5,34.9"/>
      <path class="cls-2" d="M150.2,9.2l95.5,38.6-38.6,95.5-.2-.1c-1.8-9.9-2.8-19.5-10.4-28.7-13.1-16.1-34.6-16.7-41.3-18,4.4-5,12.8-14.4,14.2-15.7,2.3-2,7,.1,6.9.2,0,0,2.1-6.8-7.2-6.9,0,0-2.1-4.4-10.8-2-2.9.8-19.5,6.3-19.8,6.4-2.1.5-4.3,1.2-6.3,2-1.3-5.1-3-10.3-4.7-15.1l22.7-56.2Z"/>
      <path class="cls-3" d="M0,58.6h0l35.8,72.9,54.7-25.5c1.8-33-32-40-65.5-43.3-8-.7-16.9-1.5-25-4.1M23,28.2L81.5,0l18.1,37.3c-8.9-2.3-19.5-2.9-31.6-2-9.8.1-36,1.8-45-7.1"/>
      <path class="cls-4" d="M294.3,162.8v-50.8h-17.4v51.3c0,13.1-4.9,19.9-15.6,19.9-8.5,0-13-4.2-16.3-13.1l-17.1,4.6c4.4,15.3,16,25.8,33.4,25.8,22.7,0,32.9-14.9,33-37.7"/>
      <path class="cls-4" d="M379.3,199.2l-16.4-18.7c4.2-6.8,7.5-14.1,9.8-21.8l-14.1-4.5c-1.8,4.9-3.8,9.8-6.1,14.5l-24-27.4c-2.7-3.2-4.6-5.7-4.6-9.5s3.1-5.7,8.2-5.7c6.6,0,13,2.2,18.2,6.2l8.4-12.6c-8.4-5.9-15.3-9.1-26-9.1-14.7,0-25.9,7.4-25.9,21.6,0,7,3,12.6,7.6,17.7l2.2,2.5c-11.1,5.5-17.8,12.8-17.8,25,0,15.7,10.8,23.2,28.6,23.2,10.2,0,18.6-2.9,25.4-8.5l6.6,7.1h19.9ZM342.8,181.2c-3.6,2.6-8.1,3.9-13.5,3.9-8.7,0-13.2-3.6-13.2-9.2,0-5.2,2.7-9.7,9.6-13.3l17.1,18.6Z"/>
      <path class="cls-4" d="M458,199.2l-32-57.1,25.5-30.1h-21l-24.4,29.8c-2.4,2.9-5.6,6.9-6.9,8.8.1-2.7.2-10.6.2-13.8v-24.8h-17.4v87.2h17.5v-25.7l14-16.5,23.6,42.1h20.9v.1Z"/>
      <path class="cls-4" d="M554.2,173.4c0-14.1-8.7-19.7-16.7-21.8,7.3-2.6,12.6-8.2,12.6-17.8,0-15-9.8-21.8-23.7-21.8h-31.9v87.2h31.3c18.3,0,28.4-8.7,28.4-25.8M540.3,134.2c0,7.6-4.2,13.8-15.1,13.8h-21v-27.2h21.8c9.7,0,14.3,5.3,14.3,13.4M544.4,173.9c0,10-5,16.4-18.1,16.4h-22.2v-33.6h21.7c11.4,0,18.6,6.2,18.6,17.2"/>
      <path class="cls-4" d="M610.6,199.2v-45.6c0-15.2-8.8-21.2-22.9-21.2-7.6-.1-15.2,1.7-21.9,5.2l3.5,7.6c5.4-3.3,11.5-5,17.8-5,9.6,0,14.2,4.7,14.2,14.5v7.7c-5.1-2.5-10.7-3.8-16.3-3.7-13,0-25,6.2-25,20.9,0,15.8,10.7,20.9,20.9,20.9,9.3,0,15.8-4.4,20.4-9.3v8h9.3ZM601.2,183.1c-4.3,6.2-11.3,9.8-18.8,9.8-8,0-13.3-4.2-13.3-14,0-8.2,5.7-12.8,15.3-12.8,8,0,12.6,1.4,16.8,3.7v13.3Z"/>
      <path class="cls-4" d="M672.5,199.2v-39.9c0-18.8-9.1-26.9-22.9-26.9-7.2-.2-14,3.3-18.1,9.3v-8h-9.3v65.4h9.3v-38.2c0-14.3,7.1-20.4,16.2-20.4,10.5,0,15.5,6.4,15.5,20.4v38.2h9.3v.1Z"/>
      <polygon class="cls-4" points="731 199.2 710.3 156.9 727.5 133.8 717 133.8 695.6 164.2 693 168.1 693 164.8 693 108.3 683.7 113.6 683.7 199.2 693 199.2 693 180.3 704.3 164.8 720.9 199.2 731 199.2"/>
    </g>
  </g>
</svg>