<?xml version="1.0" encoding="UTF-8"?>
<svg id="Layer_2" data-name="Layer 2" xmlns="http://www.w3.org/2000/svg" viewBox="0 0 81.03 24.12">
  <defs>
    <style>
      .cls-1 {
        fill: #db746d;
      }
    </style>
  </defs>
  <g id="Layer_1-2" data-name="Layer 1">
    <g>
      <path class="cls-1" d="M22.26,13.55s-1.24,3.11-2.79,2.97c-.84-.08-1.11-.78-1.11-1.21l.02-10.58h-4.18v10.84c0,1.77,1.26,3.38,3.5,3.49,2.11.1,4.54-3.06,4.54-3.06v2.72s4.15-.03,4.15-.03l.03-13.95h-4.16l-.02,8.81Z"/>
      <path class="cls-1" d="M7.97,17.42c0,1.81-1.49,3.28-3.33,3.28s-3.33-1.47-3.33-3.28c0-.05,0-.1,0-.15.05.74.68,1.33,1.45,1.33s1.41-.6,1.45-1.36h0v-4.14H0v4.14c.01,3.33,2.75,6.02,6.13,6.02s6.11-2.68,6.13-6V.86s-4.3,0-4.3,0v16.56Z"/>
      <path class="cls-1" d="M36.21,4.8c-1.53,0-2.88.77-3.8,1.95l-.02-2.01h-4.14l-.03,19.38h4.16s0-7.01,0-7.01c.76,1.13,2.19,1.99,3.8,1.99,2.88,0,5.39-2.96,5.4-7.14,0-4.18-2.49-7.15-5.37-7.16ZM34.9,17.26c-1.03,0-2.11-1.25-2.5-2.27v-6.1c.41-1.02,1.49-2.26,2.52-2.26,1.48,0,2.16,1.76,2.15,5.32,0,3.56-.7,5.32-2.17,5.31Z"/>
      <path class="cls-1" d="M43.08,18.77h4.15l.03-14.03h-4.18v14.03Z"/>
      <path class="cls-1" d="M63.06,4.77c-4.22,0-6.84,3.28-6.84,7.14,0,4.18,2.92,6.99,6.56,7.16,1.66.08,3.98-.97,5.08-2.12l-.67-.99c-2.2,1.93-3.17,1.69-3.17,1.69-2.74,0-3.23-2.18-3.23-5.9h8.07c-.21-4.42-2.75-6.98-5.79-6.98ZM64.82,10.46h-4.04c0-2.2.61-4.97,2.28-4.97,1.28,0,1.9,3.17,1.76,4.97Z"/>
      <path class="cls-1" d="M56.64,4.67h-2.29s0-4.67,0-4.67l-6,5.99h1.77s.01,12.77.01,12.77h4.18l.03-12.79h2.29s0-1.29,0-1.29Z"/>
      <path class="cls-1" d="M77.7,4.62c-1.29.38-2.52,1.42-3.37,2.47v-2.41s-4.18,0-4.18,0v14.03h4.16s.01-9.07.01-9.07v-.42c.56-.97,1.55-2.34,2.56-2.25.67.06,1.23.81,1.24,1.51l2.9-2.88c.06-.06-1.6-1.49-3.33-.98Z"/>
    </g>
  </g>
</svg>