<?xml version="1.0" encoding="UTF-8"?>
<svg id="Layer_2" data-name="Layer 2" xmlns="http://www.w3.org/2000/svg" viewBox="0 0 875.99 157.02">
  <defs>
    <style>
      .cls-1 {
        fill: #8e13bc;
      }

      .cls-2 {
        fill: #fff;
      }

      .cls-3 {
        fill: #bb2424;
      }
    </style>
  </defs>
  <g id="Layer_1-2" data-name="Layer 1">
    <g>
      <rect x="338.84" width="3.13" height="157.02"/>
      <path class="cls-2" d="M279.34,69.88l-32.28-.03c-.1-6.49,1.44-12.87,6.93-16.72,5.88-4.13,14.94-3.62,20.11,1.53,3.99,3.98,5.26,9.45,5.24,15.22Z"/>
      <g>
        <path class="cls-1" d="M277.97,94.23c6.41-.67,12.3-.75,18.55.01,1.86,2.47.04,7.05-1.92,9.32-8.62,9.93-20.8,13.45-33.79,13.1-14.79-.41-27.63-8.49-31.89-23.17-2.85-9.84-3.02-20.65-.65-30.65,3.78-15.96,17.28-25.89,33.56-26.12,10.88-.15,21.87,2.9,28.89,11.38,7.81,9.43,10.3,21.59,8.45,34.33l-52.09.29c-.12,6.68,1.69,13.21,6.89,17.09,7.56,5.65,18.79,3.51,24-5.59ZM279.34,69.88c.02-5.77-1.25-11.24-5.24-15.22-5.17-5.15-14.23-5.66-20.11-1.53-5.49,3.85-7.02,10.23-6.93,16.72l32.28.03Z"/>
        <path class="cls-1" d="M180.79,101.27c17.17-.19,12.83-13.84,19.76-13.81l12.14.05c.99,0,3.37.9,3.68,1.64.39.91.45,2.63.13,4.05-2.09,9.4-8.81,16.26-17.66,20.18-7.96,3.53-17.04,3.78-25.82,2.68-14.43-1.82-25.5-12.65-27.55-27.13-2.72-19.24-.94-41.8,20.07-49.43,12.88-4.67,27.33-3.57,38.82,3.71,12.72,8.07,14.82,23.07,9.64,22.96l-16.8-.37c-2.06-8.95-8.16-13.51-15.92-13.55-8.23-.04-14.69,5.36-15.84,14.15-1.61,12.28-2.55,35.05,15.34,34.85Z"/>
        <path class="cls-1" d="M53.59,113.12c-16.05,6.28-43.54,5.99-53.34-12.95-.64-1.23,0-5.4,1.39-5.46,5.26-.21,10.19-.16,15.14.05,6.23,7.46,15.39,10.15,24.28,7.2,3.71-1.23,6.1-3.96,6.14-7.64.16-14.11-32-7.23-42.24-23.53-6.75-10.75-1.98-24.04,9.32-29.7,14.61-7.32,32.74-5.53,45.28,5.06,3.21,2.71,6.07,7.46,4.75,11.45-4.34,1.49-11.76,1.83-15.92.23-6.51-6-13.46-9.5-22.39-6.12-1.74.66-3.98,3.63-4.45,5.37-3.37,12.58,19.15,10.16,34.89,18.08,7.96,4.01,11.98,11.55,11.3,19.83s-5.82,14.9-14.14,18.15Z"/>
        <rect class="cls-1" x="79.73" y="10.11" width="19.57" height="105.02"/>
        <rect class="cls-1" x="112.92" y="40.69" width="19.5" height="74.4"/>
        <path class="cls-1" d="M132.95,10.05l.04,20.7c-11.2.46-20.01-8.18-20.81-20.48l20.77-.22Z"/>
      </g>
      <path class="cls-3" d="M492.86,108.31c-17.21-8.27-31.03-21.73-40.7-37.62-11.34-18.63-12.37-43.57-6.51-64.42,19.55-.35,41.1-.03,58.29,9.76-10.35,10.29-18.43,21.35-22.71,35.06-5.74,19.84-1.01,39.13,11.63,57.22Z"/>
      <path class="cls-3" d="M443.41,126.03c-16.2-9.76-27.94-23.93-33.05-41.76-3.37-23.04,2.57-40.93,17-60.97-2.06,46.06,20.77,78.07,60.66,99.77-14.9,5.4-29.36,4.87-44.61,2.97Z"/>
      <path class="cls-3" d="M514.59,110.34c-9.05-8.33-21-25.7-20.71-38.56l44.42.23c-2.68,16.49-10.87,28.34-23.7,38.33Z"/>
      <path class="cls-3" d="M495.1,60.13c-3.02-7.76,15.11-31.09,21.65-35.72,10.98,9.34,18.7,20.28,21.46,35.5l-43.11.22Z"/>
      <path class="cls-3" d="M410.2,20.98c-16.89,32.16-21.64,52.79-7.45,85.51-13.8-11.13-20.88-27.65-19.43-44.33,1.48-17.03,12.2-32.61,26.88-41.18Z"/>
      <path class="cls-3" d="M868.85,117.84l-305-.04,4.34-39.09,304.8-.03-4.14,39.15ZM673.14,89.47l7.41-.69c.57-.2,1.98-1.75,2.37-1.31l1.74,1.99c.39.45-2.39,1.61-2.49,2.42l-2.75,20.22c1.44,1.09,5.62,1.21,6.31-.16l2.47-17.83c.16-1.16-.54-3.69-.72-4.63.66-1.04,2.01-2.91,2.17-3.98s-1.46-2.97-2.51-3.24c-.87-.23-3.04,1.13-4.01,1.14l-16.59.14-3.84,29.01c-.12,1.39,4.03,1.81,5.35,1.06,2.73-1.55-.16-10.79,3.82-11.16,1.44-.14,4.41.45,4.64-.55s.56-3.38.63-4.49c.07-1.02-2.92-1.08-4.58-1.45s-1.22-6.3.59-6.47ZM585.11,99.02l-8.04-6.11c-.81-.61-.22-3.84.63-4.39.68-.44,2.76-.89,3.13-.17l1.74,3.44c.67,1.33,4.99,1.3,5.61-.06.81-1.79.14-5.33-1-6.6-3.3-3.7-12.31-3.31-16.08,2.64-1.63,2.58-2.09,8.35.77,10.21l7.73,5.06c.96.63.72,4.41-.34,4.82-.84.33-3.26.97-3.6.13l-1.5-3.7c-.57-1.4-4.05-1.21-5.16-.4s-1.16,4.39-.47,5.69c2.75,5.16,8.96,5.2,13.49,2.78,3.96-2.11,7.88-9.71,3.1-13.34ZM639.87,111.56l3.73-28.44-6.32.04-3.72,28.87c.9,1.26,6.05,1.45,6.3-.47ZM649.26,112.1l3.55-28.11c-.21-1.51-5.96-1.58-6.18-.05l-4.04,28.34c1.71.71,4.91.73,6.67-.18ZM808.13,97.19c3.4-2.74,5.36-7.86,2.33-10.78-3.68-3.55-9.7-3.89-14.25-2.4l-4.04,29.41c6.59,2.08,15.55.9,17.87-5.8,1.22-3.54.28-6.97-1.9-10.42ZM862.54,100.25l6.07-9.04c-1.71-.49-4.68-1.27-5.53-.35l-4.21,4.59.47-12.06c-.37-.79-5.51-.74-6.08.85l-3.62,27.03c-.2,1.48,4.25,2.33,5.44,1.46.97-.71,1.24-2.54,2.06-4.92-.03-2.2.16-2.13.72,0,.99,2.03,1.57,4.29,2.72,4.95.99.57,4.44-.04,4.88-.5l-2.92-12ZM596.98,112.45c1.07.73,5.26.67,5.84-.59l2.78-16.69c2.95,6.44-1.28,11.09-.21,17.61l6.07-.05,2.12-17.54c.16-1.35-1.09-3.99-2.11-4.58-.85-.49-3.08-.32-4.55-.09-2.28.34-5.22-.22-7.19-.14l-8.49.35-3,21.39c.71,1.1,5.69,1.1,6-.39l2.81-15.67c.71.46,1.76.92,1.67,1.45s-.61,2.16-.67,2.83l-1.05,12.12ZM630.89,112.72l2.69-21.93-6.5-.12c-2.79-1.09-5.84-.91-8.04,1.6-5.81,6.6-5.13,18.94-.81,20.82,1.6.7,4.43.07,6.28-.48l6.38.12ZM718.12,112.79l5.6-.06,3.14-21.68-6.06-.47c-3.38-.26-6.73-1.72-9.25,2.34-4.95,7.96-4.53,19.05.4,20.38,1.41.38,4.53-.49,6.17-.51ZM761.81,105.08c-.28-1.05-4.31-1.8-5.02-.85l-3,4.02c-2.78-3.97-.76-10.15,2.1-13.49l1.67,5.02c.28.84,3.87.35,4.5-.27,1.72-1.68.13-6.96-2.27-8.62s-6.59-1.47-9.03,1.14c-3.93,4.2-4.49,10.36-3.94,16.06.41,4.2,3.69,6.64,8.08,5.58,3.27-.8,6.81-5.22,6.91-8.58ZM822.25,112.94l5.96-.49,2.72-21.44-6.06-.47c-2.5-.2-5.35-1.26-7.68,1.03-8.52,8.36-4.43,22.17-.47,21.84l5.54-.46ZM841.89,95.1l-.98,17.38c.9.42,4.68.37,5.97-.23.62-6.05,4.9-20.02-1.34-22.28-1.16-.42-3.55.56-4.95.63l-6.98.35-2.63,21.98,5.98-.44,2.05-13.39c.17-1.1,1.49-2.84,2.88-4ZM698.9,111.52c-.12,1.39,3.94,1.87,4.81,1.06,2.09-1.94,4.03-14.36,2-20.69-.75-2.36-5.36-1.18-7.2-1.17l-7.13.04-2.79,21.67c1.76.43,4.68.42,6.15-.15l2.06-13.35c.27-1.72,1.14-3.1,3.49-4.03l-1.39,16.61ZM736.76,112.73c2.76-.09,4.88-.21,6.25-.39,0-5.58,5.66-23.93-4.05-22.12-3.16.59-5.39.54-9.09.29l-3.11,22.29,6.28-.41,1.91-15.32c.07-.52,2.37-1.99,2.53-1.48s.73,2.03.67,2.63l-1.4,14.5ZM771.24,108.2c-.37-1.38-.44-3.83.38-3.94l3.29-.44c1.38-.18,4.75.46,5.31-.64,1.7-3.36,1.47-9.17-1.47-11.8-1.67-1.5-6.24-1.78-8.18-.36-6.37,4.69-8.62,14.55-3.81,21.08,1.65,2.24,6.14,1.98,8.37.71,1.82-1.03,4.47-4.21,4.27-6.36-2.76-1.49-5.26-.38-8.17,1.73Z"/>
      <path class="cls-3" d="M604.24,73.79c-2.35,2.14-8.84,1.97-10.65-.19l-10.06-29.69-4.82,31.05-10.02-.28,7.01-51.57,10.87.11,9.83,30.41,4.6-30.69,10.28.25-7.04,50.6Z"/>
      <path class="cls-3" d="M712.44,74.73l3.88-28.47c.18-1.33-1.56-4.3-2.86-4.36s-4.62,1.73-4.82,3.06l-4.43,29.97-10.92-.25,7.37-51.12c3.14-.76,7.21-.73,10.55-.25l-1.46,13.15c4.42-2.41,8.36-3.4,12.05-1.9,4.24,1.71,5.89,6.89,5.29,11.48l-3.69,28.26c-3.88.85-6.84.92-10.95.43Z"/>
      <path class="cls-3" d="M776.75,50.83l-12.43.16-2.51,15.09,17.3.27c.91,2.08.24,6.39-1.34,8.62l-27.91.02,7.17-52.04h27.67s-.97,7.07-.97,7.07l-16.84.2-1.8,12.38,12,.42-.35,7.81Z"/>
      <path class="cls-3" d="M814.52,73.45c-.54,3.51-9.54,1.88-9.43-1.3-3.66,2.74-6.55,4.27-10.47,3.78-12.26-1.51-11.44-26.6-1.26-38.19,4.43-5.05,12.29-5.64,16.35-.13,2.44-2.48,7.67-3.39,10.44-.88l-5.62,36.71ZM804.36,42.02c-8.59.32-10.7,25.91-4.1,26.11,6.91.2,11.06-26.37,4.1-26.11Z"/>
      <path class="cls-3" d="M627.03,75.9c-6.79.92-12.58-2.91-13.81-9.41-2.21-11.62,1.94-31.59,16.17-32.65,4.72-.35,9.98.74,12.33,5.6,5.08,10.49,1.8,34.23-14.69,36.46ZM632.12,41.24c-9.48-3.25-11.92,26.68-4.85,26.33s10.02-24.56,4.85-26.33Z"/>
      <path class="cls-3" d="M847.25,54.88c4.21,4.54,2.13,10.79-.51,15.13-4.25,6.99-17.87,8.02-22.7,2.2-2.33-2.8-2.7-6.45-1.92-10.15l9.33-1.08c.08,2.37.4,5.59,1.67,6.44,2.18,1.45,5.42-.98,5.74-3.02,1.11-7.02-9.63-5.75-13.02-12.54-2.29-4.59-.29-9.77,2.33-13.05,3.14-3.94,8.39-5.48,13.56-4.93,6.48.69,11.46,6.03,9.46,12.64-2.42.46-7.05,1.06-8.99.16-1.02-.47-.94-4.2-2.03-4.46-1.41-.33-4.43.59-4.77,1.9-1.97,7.58,7.32,5.9,11.85,10.77Z"/>
      <path class="cls-3" d="M871.96,70.79l-1.18,3.63c-.37,1.13-8.64,2.64-12.12-1.81-1.53-1.96-2.17-5.67-1.8-8.66l2.41-19.67c-1.62-1.4-2.98-3.67-2.78-5.88.14-1.56,2.68-3.09,4.43-4.07l1.95-11.31,10.29.05-1.14,11.22c2.29,1.34,4.35,2.69,3.91,5.14-.51,2.81-2.42,3.8-5.42,4.43l-2.94,22.74,3.69.72c.81.16.96,2.7.71,3.48Z"/>
      <path class="cls-3" d="M689.04,67.71l-.31,5.76c-.08,1.55-3.92,1.97-5.86,2.09-15.09,1-6.46-22.85-6.08-30.54-1.06-1.59-3.5-3.95-3.16-5.41.43-1.87,2.15-3.72,4.14-5.18l1.96-11.06c2.51-.49,7.65-.44,10.24-.12l-.81,11.33c2.59,1.45,3.83,2.61,3.7,4.4-.25,3.64-2.34,4.37-5.21,4.88l-2.93,19.95c-.08.53.37,2.85.86,2.98l3.47.92Z"/>
      <path class="cls-3" d="M659.6,62.95l-1.76,11.97c-3.74.08-7.08-.03-10.75-.44l5.39-38.49c3.61-1.74,8.21-.2,8.6,2.92,1.6-2.19,3.41-4.27,4.99-5.25,1.39-.86,5.72.04,6.26,1.6.7,2.03-.2,6.54-1.29,7.79-2.33.44-6.92.51-7.72,2.15-2.75,5.63-2.85,11.79-3.73,17.75Z"/>
      <path class="cls-3" d="M799.55,108.81c-.52-3.52.01-6.44,2.23-9.1,1.73,1.17,2.6,3.17,2.42,4.86-.2,1.83-1.03,2.87-4.64,4.24Z"/>
      <path class="cls-3" d="M800.88,96.19c-.52-3.52.01-6.44,2.23-9.1,1.73,1.17,2.6,3.17,2.42,4.86-.2,1.83-1.03,2.87-4.64,4.24Z"/>
      <path class="cls-3" d="M623.06,109.02c-3.29-4.61-1.62-10.08,1.16-14.3,3.16,4,2.25,9.46-1.16,14.3Z"/>
      <path class="cls-3" d="M820.21,109.15c-3.04-4.7-2.21-10.21,1.9-14.07,2.12,4.56,1.96,9.71-1.9,14.07Z"/>
      <path class="cls-3" d="M774.03,93.56c2.03,2.09,1.5,4.56-1.2,6.31-1.42-2.03-1.33-4.34,1.2-6.31Z"/>
      <path class="cls-3" d="M716.68,108.38c-3.55-3.73-2.11-9.74,1.2-13.87,3.06,4.31,2.04,9.03-1.2,13.87Z"/>
    </g>
  </g>
</svg>