<?xml version="1.0" encoding="UTF-8"?>
<svg id="Layer_2" data-name="Layer 2" xmlns="http://www.w3.org/2000/svg" viewBox="0 0 104.61 31.98">
  <defs>
    <style>
      .cls-1 {
        fill: #231f20;
      }
    </style>
  </defs>
  <g id="Layer_1-2" data-name="Layer 1">
    <g id="Niyo_Logo" data-name="Niyo Logo">
      <path id="Vector" class="cls-1" d="M37.12,3.23h5.59l8.22,13.33V3.23h5.66v22.39h-5.57l-8.24-13.36v13.36h-5.66V3.23Z"/>
      <path id="Vector_2" data-name="Vector 2" class="cls-1" d="M60.34,7.35c-1.16-1.16-1.16-3.04,0-4.22,1.21-1.14,3.06-1.14,4.26,0,1.16,1.14,1.18,3.01.05,4.15t-.05.05c-1.21,1.14-3.06,1.14-4.26.02ZM59.68,10.25h5.64v15.37h-5.64v-15.37Z"/>
      <path id="Vector_3" data-name="Vector 3" class="cls-1" d="M70.98,31.81c-.57-.05-1.14-.19-1.66-.4v-4.2c.66.26,1.4.4,2.11.38.59.02,1.16-.14,1.66-.47.45-.38.78-.9.95-1.45l.38-1.02-6.66-14.42h5.61l4,10.01,3.77-9.99h5.64l-6.35,16.08c-.73,1.92-1.71,3.34-2.87,4.27-1.16.93-2.65,1.38-4.45,1.38-.71,0-1.42-.05-2.13-.17Z"/>
      <path id="Vector_4" data-name="Vector 4" class="cls-1" d="M90.14,25.07c-1.35-.62-2.51-1.64-3.32-2.87-1.56-2.61-1.56-5.88,0-8.49.81-1.26,1.97-2.25,3.32-2.89,3.17-1.4,6.8-1.4,9.97,0,1.35.62,2.51,1.64,3.32,2.89,1.56,2.61,1.56,5.88,0,8.49-.81,1.26-1.97,2.25-3.32,2.87-3.17,1.38-6.8,1.38-9.97,0ZM97.82,20.71c.66-.66,1.02-1.59,1.02-2.78s-.33-2.11-1.02-2.78c-.66-.66-1.56-1.02-2.7-1.02s-2.04.33-2.7,1.02c-.66.66-1.02,1.59-1.02,2.78s.33,2.09,1.02,2.78c.66.66,1.56,1.02,2.7,1.02s2.04-.33,2.7-1.02Z"/>
      <path id="Vector_5" data-name="Vector 5" class="cls-1" d="M14.59,0c8.06,0,14.59,6.48,14.59,14.45s-6.54,14.45-14.59,14.45S0,22.42,0,14.45,6.54,0,14.59,0ZM23.12,8.02h-3.89l-1.75,4.7-1.75-4.7h-4.88l-4.81,12.86h4.03l3.44-9.25,2.18,5.84-1.26,3.42h3.93l1.97-5.24,2.8-7.61Z"/>
    </g>
  </g>
</svg>