<?xml version="1.0" encoding="utf-8"?>
<!-- Generator: Adobe Illustrator 23.1.0, SVG Export Plug-In . SVG Version: 6.00 Build 0)  -->
<svg version="1.1" id="Layer_1" xmlns="http://www.w3.org/2000/svg" xmlns:xlink="http://www.w3.org/1999/xlink" x="0px" y="0px"
	 viewBox="0 0 145.76 41.12" style="enable-background:new 0 0 145.76 41.12;" xml:space="preserve">
<style type="text/css">
	.st0{fill-rule:evenodd;clip-rule:evenodd;fill:#007C3D;}
	.st1{fill-rule:evenodd;clip-rule:evenodd;fill:#FBED21;}
	.st2{fill-rule:evenodd;clip-rule:evenodd;fill:#B31F31;}
</style>
<rect x="0.77" y="0.74" class="st0" width="144.14" height="39.35"/>
<path class="st1" d="M128.54,18.58v-4.74c0-0.28-0.05-0.51-0.09-0.6c-0.05-0.09-0.23-0.14-0.42-0.14v-0.23h2.09v4.27l0.84-0.74
	c0.51-0.46,0.79-0.74,0.84-0.93c0-0.14-0.23-0.23-0.7-0.23V15h2.42v0.23c-0.28,0-0.51,0.05-0.7,0.14c-0.18,0.09-0.46,0.32-0.83,0.6
	l-0.6,0.56l1.67,2.04c0.23,0.33,0.42,0.51,0.51,0.6c0.14,0.09,0.23,0.14,0.33,0.14v0.23h-2.65v-0.23c0.28,0,0.42-0.05,0.42-0.14
	c0-0.09-0.09-0.32-0.33-0.6l-0.97-1.21l-0.23,0.23v0.98c0,0.28,0.05,0.51,0.09,0.6c0.09,0.09,0.23,0.14,0.46,0.14v0.23h-2.65v-0.23
	c0.18,0,0.37-0.05,0.42-0.14C128.5,19.09,128.54,18.86,128.54,18.58z M122.37,18.58v-2.6c0-0.28-0.04-0.51-0.09-0.6
	c-0.09-0.09-0.23-0.14-0.51-0.14V15h2.14v0.74c0.14-0.19,0.28-0.37,0.46-0.51c0.37-0.23,0.74-0.37,1.16-0.37
	c0.46,0,0.79,0.14,1.07,0.42c0.32,0.23,0.46,0.56,0.46,0.98v2.32c0,0.28,0,0.51,0.09,0.6c0.05,0.09,0.19,0.14,0.42,0.14v0.23h-2.69
	v-0.23c0.28,0,0.42-0.05,0.51-0.14c0.05-0.09,0.09-0.32,0.09-0.6v-2.04c0-0.37-0.04-0.65-0.14-0.79s-0.23-0.19-0.51-0.19
	c-0.19,0-0.37,0.05-0.56,0.19c-0.14,0.09-0.23,0.23-0.33,0.33v2.51c0,0.28,0,0.51,0.09,0.6c0.09,0.09,0.23,0.14,0.46,0.14v0.23
	h-2.74v-0.23c0.28,0,0.42-0.05,0.51-0.14C122.32,19.09,122.37,18.86,122.37,18.58z M119.21,18.58v-1.44l-0.14,0.05
	c-0.42,0.09-0.74,0.28-0.93,0.46c-0.23,0.19-0.32,0.42-0.32,0.7c0,0.19,0.05,0.37,0.14,0.51c0.14,0.09,0.28,0.14,0.42,0.14
	c0.19,0,0.33,0,0.46-0.09C118.93,18.81,119.07,18.72,119.21,18.58z M117.44,19.69c-0.37,0-0.65-0.09-0.88-0.28
	c-0.23-0.23-0.33-0.46-0.33-0.79c0-0.33,0.14-0.6,0.46-0.88c0.28-0.23,0.79-0.46,1.44-0.65l1.07-0.28v-0.74
	c0-0.33-0.05-0.56-0.23-0.7c-0.14-0.14-0.37-0.19-0.7-0.19c-0.28,0-0.46,0.05-0.6,0.19c-0.14,0.14-0.14,0.23,0,0.37
	c0.23,0.23,0.33,0.46,0.19,0.7c-0.09,0.23-0.37,0.32-0.7,0.32c-0.23,0-0.42-0.04-0.56-0.14c-0.09-0.14-0.19-0.28-0.19-0.51
	c0-0.37,0.23-0.65,0.6-0.88c0.37-0.23,0.88-0.37,1.49-0.37c0.74,0,1.3,0.14,1.67,0.37c0.37,0.23,0.56,0.6,0.56,1.07v2.46
	c0,0.14,0.05,0.19,0.09,0.23c0,0.05,0.09,0.09,0.14,0.09c0.05,0,0.09,0,0.14-0.05c0.05,0,0.09-0.05,0.14-0.09l0.14,0.19
	c-0.14,0.19-0.32,0.33-0.56,0.42c-0.23,0.09-0.46,0.19-0.65,0.19c-0.32,0-0.6-0.09-0.74-0.28c-0.09-0.09-0.19-0.23-0.19-0.42
	c-0.23,0.19-0.42,0.33-0.65,0.42C118.23,19.65,117.86,19.69,117.44,19.69z M111.45,16.16v2.51c0,0.19,0.05,0.33,0.14,0.42
	c0.09,0.09,0.28,0.14,0.51,0.14h0.05c0.46,0,0.79-0.09,0.98-0.37c0.23-0.28,0.33-0.65,0.33-1.21c0-0.51-0.14-0.88-0.42-1.12
	c-0.33-0.23-0.79-0.37-1.39-0.37H111.45z M111.45,13.65v2.23h0.18c0.56,0,0.98-0.14,1.21-0.33c0.23-0.23,0.33-0.6,0.33-1.12
	c0-0.42-0.09-0.79-0.28-0.97c-0.19-0.23-0.46-0.33-0.88-0.33c-0.18,0-0.37,0.05-0.46,0.14C111.5,13.33,111.45,13.47,111.45,13.65z
	 M109.64,18.58v-4.74c0-0.28-0.09-0.46-0.19-0.56c-0.14-0.09-0.42-0.19-0.79-0.19v-0.23h3.48c0.93,0,1.67,0.09,2.14,0.37
	c0.51,0.28,0.74,0.65,0.74,1.16c0,0.51-0.28,0.93-0.83,1.21c-0.28,0.14-0.6,0.28-1.02,0.33c0.51,0.09,0.93,0.23,1.3,0.42
	c0.6,0.28,0.93,0.74,0.93,1.3c0,0.56-0.28,1.02-0.84,1.39c-0.56,0.37-1.3,0.51-2.18,0.51h-3.72v-0.23c0.37,0,0.65-0.09,0.79-0.19
	C109.55,19.04,109.64,18.86,109.64,18.58z M102.34,15.42c-0.33,0-0.6,0.14-0.74,0.46c-0.19,0.28-0.23,0.79-0.23,1.44
	c0,0.65,0.05,1.11,0.18,1.39c0.19,0.33,0.42,0.46,0.7,0.46c0.28,0,0.51-0.14,0.7-0.32c0.09-0.09,0.19-0.23,0.23-0.33v-2.55
	c-0.05-0.09-0.14-0.23-0.28-0.33C102.71,15.51,102.53,15.42,102.34,15.42z M101.69,19.69c-0.6,0-1.07-0.19-1.44-0.65
	c-0.37-0.42-0.56-1.02-0.56-1.72c0-0.7,0.23-1.3,0.65-1.76c0.42-0.46,0.93-0.7,1.53-0.7c0.37,0,0.7,0.14,1.02,0.37
	c0.14,0.05,0.23,0.14,0.28,0.23v-1.63c0-0.28-0.05-0.46-0.14-0.56c-0.09-0.14-0.33-0.19-0.65-0.19v-0.23h2.37v5.71
	c0,0.23,0.05,0.37,0.14,0.42c0.05,0.09,0.23,0.14,0.51,0.14v0.23c-0.42,0.05-0.79,0.09-1.11,0.14c-0.33,0.05-0.65,0.09-1.11,0.19
	v-0.6c-0.05,0.09-0.14,0.19-0.23,0.23C102.58,19.6,102.16,19.69,101.69,19.69z M94.03,18.58v-2.6c0-0.28-0.05-0.51-0.14-0.6
	c-0.05-0.09-0.23-0.14-0.46-0.14V15h2.14v0.74c0.14-0.19,0.28-0.37,0.46-0.51c0.33-0.23,0.7-0.37,1.16-0.37
	c0.42,0,0.79,0.14,1.07,0.42c0.28,0.23,0.42,0.56,0.42,0.98v2.32c0,0.28,0.05,0.51,0.14,0.6c0.05,0.09,0.19,0.14,0.42,0.14v0.23
	h-2.69v-0.23c0.23,0,0.42-0.05,0.46-0.14c0.09-0.09,0.14-0.32,0.14-0.6v-2.04c0-0.37-0.05-0.65-0.14-0.79
	c-0.09-0.14-0.28-0.19-0.51-0.19c-0.19,0-0.37,0.05-0.56,0.19c-0.14,0.09-0.28,0.23-0.37,0.33v2.51c0,0.28,0.05,0.51,0.14,0.6
	c0.04,0.09,0.23,0.14,0.46,0.14v0.23h-2.74v-0.23c0.23,0,0.42-0.05,0.46-0.14C93.98,19.09,94.03,18.86,94.03,18.58z M91.61,12.72
	c0.28,0,0.46,0.05,0.65,0.18c0.14,0.19,0.23,0.37,0.23,0.56c0,0.23-0.09,0.42-0.23,0.56c-0.18,0.14-0.37,0.23-0.65,0.23
	c-0.23,0-0.42-0.09-0.6-0.23c-0.19-0.14-0.23-0.33-0.23-0.56c0-0.19,0.05-0.37,0.23-0.56C91.19,12.77,91.38,12.72,91.61,12.72z
	 M90.87,18.58v-2.6c0-0.28-0.05-0.51-0.14-0.6c-0.04-0.09-0.23-0.14-0.46-0.14V15h2.14v3.58c0,0.28,0.05,0.51,0.14,0.6
	c0.05,0.09,0.23,0.14,0.46,0.14v0.23h-2.74v-0.23c0.23,0,0.42-0.05,0.46-0.14C90.82,19.09,90.87,18.86,90.87,18.58z M88.97,14.86
	c-0.19-0.56-0.46-1.02-0.84-1.35c-0.37-0.32-0.84-0.51-1.3-0.51c-0.37,0-0.7,0.09-0.93,0.28c-0.23,0.19-0.33,0.42-0.33,0.7
	c0,0.28,0.09,0.51,0.37,0.7c0.23,0.23,0.65,0.42,1.25,0.65c0.88,0.33,1.49,0.7,1.86,1.02c0.37,0.37,0.56,0.79,0.56,1.25
	c0,0.65-0.28,1.21-0.79,1.58c-0.46,0.37-1.16,0.6-2,0.6c-0.46,0-1.02-0.14-1.63-0.33c-0.19-0.05-0.32-0.05-0.37-0.05
	c-0.09,0.05-0.19,0.14-0.23,0.28v0.09h-0.37v-2.46h0.33c0.14,0.6,0.42,1.11,0.84,1.53c0.42,0.37,0.93,0.56,1.49,0.56
	c0.42,0,0.74-0.09,1.02-0.28c0.23-0.23,0.37-0.51,0.37-0.84c0-0.28-0.09-0.51-0.37-0.74c-0.23-0.19-0.7-0.42-1.35-0.65
	c-0.79-0.32-1.35-0.65-1.67-0.97c-0.37-0.37-0.56-0.79-0.56-1.25c0-0.6,0.23-1.11,0.7-1.44c0.42-0.37,1.02-0.56,1.81-0.56
	c0.37,0,0.83,0.09,1.35,0.28c0.23,0.09,0.37,0.09,0.51,0.09c0.09-0.05,0.19-0.14,0.23-0.28l0.05-0.09h0.32v2.18H88.97z M75.31,13.65
	c0,0.14,0.09,0.37,0.23,0.65c0.14,0.23,0.33,0.51,0.6,0.79c0.14-0.05,0.28-0.09,0.37-0.19c0.28-0.14,0.46-0.37,0.46-0.6
	c0-0.37-0.14-0.65-0.33-0.88c-0.19-0.28-0.46-0.37-0.7-0.37c-0.23,0-0.37,0.05-0.46,0.14C75.35,13.33,75.31,13.47,75.31,13.65z
	 M75.77,19c0.23,0,0.46-0.09,0.74-0.23l0.33-0.19l-0.74-0.88c-0.33-0.42-0.7-0.88-1.12-1.44l-0.18-0.23
	c-0.19,0.09-0.37,0.19-0.46,0.28c-0.23,0.19-0.37,0.42-0.37,0.7c0,0.46,0.18,0.93,0.56,1.35C74.89,18.76,75.31,19,75.77,19z
	 M74.01,14.26c0-0.46,0.23-0.84,0.6-1.11c0.42-0.28,0.93-0.46,1.58-0.46c0.56,0,1.02,0.14,1.39,0.37c0.33,0.23,0.51,0.51,0.51,0.88
	c0,0.37-0.23,0.7-0.74,1.02c-0.28,0.19-0.6,0.33-0.97,0.42l1.02,1.35l0.7,0.83c0.19-0.23,0.33-0.42,0.46-0.6
	c0.09-0.14,0.14-0.23,0.23-0.37c0.14-0.28,0.19-0.51,0.09-0.7c-0.09-0.14-0.33-0.23-0.7-0.23v-0.28h2.32v0.28
	c-0.28,0-0.51,0.05-0.65,0.14c-0.14,0.14-0.28,0.33-0.46,0.6c-0.14,0.23-0.28,0.46-0.46,0.65c-0.19,0.28-0.37,0.51-0.6,0.74
	l0.28,0.32c0.18,0.23,0.37,0.37,0.51,0.46c0.18,0.09,0.32,0.14,0.51,0.14c0.14,0,0.23-0.05,0.37-0.09c0.14-0.09,0.23-0.19,0.33-0.28
	l0.19,0.09c-0.23,0.46-0.51,0.79-0.79,0.98c-0.28,0.23-0.65,0.33-1.07,0.33c-0.23,0-0.46-0.09-0.74-0.19
	c-0.23-0.14-0.46-0.28-0.65-0.46l-0.14-0.23c-0.37,0.23-0.7,0.42-1.02,0.56c-0.51,0.23-1.02,0.33-1.58,0.33
	c-0.6,0-1.12-0.19-1.53-0.51c-0.37-0.33-0.6-0.74-0.6-1.25c0-0.51,0.23-0.97,0.7-1.39c0.32-0.28,0.84-0.56,1.53-0.88
	c-0.14-0.18-0.23-0.37-0.32-0.56C74.1,14.77,74.01,14.49,74.01,14.26z M65.78,19.41c0.37,0,0.65-0.19,0.84-0.51
	c0.14-0.33,0.23-0.88,0.23-1.63c0-0.65-0.09-1.16-0.23-1.44c-0.19-0.28-0.46-0.42-0.84-0.42c-0.28,0-0.56,0.19-0.74,0.56v2.6
	c0,0.14,0.05,0.28,0.09,0.42c0.05,0.14,0.14,0.23,0.23,0.28C65.51,19.37,65.64,19.41,65.78,19.41z M63.46,13.84
	c0-0.28-0.05-0.51-0.09-0.6c-0.09-0.09-0.23-0.14-0.51-0.14v-0.23h2.18v2.55c0.42-0.37,0.84-0.56,1.35-0.56
	c0.6,0,1.12,0.23,1.53,0.65c0.37,0.42,0.6,0.97,0.6,1.63c0,0.79-0.23,1.39-0.7,1.86c-0.46,0.46-1.11,0.7-1.86,0.7
	c-0.51,0-0.93-0.14-1.39-0.46l-0.09-0.09l-0.88,0.56h-0.14V13.84z M60.35,18.58v-1.44l-0.14,0.05c-0.42,0.09-0.74,0.28-0.93,0.46
	c-0.23,0.19-0.33,0.42-0.33,0.7c0,0.19,0.05,0.37,0.14,0.51c0.09,0.09,0.23,0.14,0.42,0.14c0.19,0,0.33,0,0.46-0.09
	C60.07,18.81,60.21,18.72,60.35,18.58z M58.58,19.69c-0.37,0-0.65-0.09-0.88-0.28c-0.23-0.23-0.37-0.46-0.37-0.79
	c0-0.33,0.18-0.6,0.46-0.88c0.33-0.23,0.84-0.46,1.49-0.65l1.07-0.28v-0.74c0-0.33-0.09-0.56-0.23-0.7
	c-0.14-0.14-0.37-0.19-0.74-0.19c-0.23,0-0.46,0.05-0.56,0.19c-0.14,0.14-0.14,0.23,0,0.37c0.23,0.23,0.28,0.46,0.19,0.7
	c-0.14,0.23-0.37,0.32-0.7,0.32c-0.23,0-0.42-0.04-0.56-0.14c-0.14-0.14-0.19-0.28-0.19-0.51c0-0.37,0.19-0.65,0.6-0.88
	c0.37-0.23,0.88-0.37,1.49-0.37c0.7,0,1.25,0.14,1.67,0.37c0.37,0.23,0.56,0.6,0.56,1.07v2.46c0,0.14,0.05,0.19,0.05,0.23
	c0.05,0.05,0.09,0.09,0.19,0.09c0.05,0,0.09,0,0.14-0.05c0,0,0.05-0.05,0.09-0.09l0.19,0.19c-0.14,0.19-0.33,0.33-0.56,0.42
	c-0.23,0.09-0.46,0.19-0.65,0.19c-0.33,0-0.6-0.09-0.74-0.28c-0.09-0.09-0.19-0.23-0.23-0.42c-0.19,0.19-0.42,0.33-0.6,0.42
	C59.37,19.65,58.96,19.69,58.58,19.69z M55.42,12.72c0.23,0,0.46,0.05,0.6,0.18c0.19,0.19,0.28,0.37,0.28,0.56
	c0,0.23-0.09,0.42-0.28,0.56c-0.14,0.14-0.37,0.23-0.6,0.23c-0.23,0-0.46-0.09-0.6-0.23c-0.19-0.14-0.28-0.33-0.28-0.56
	c0-0.19,0.09-0.37,0.28-0.56C54.96,12.77,55.19,12.72,55.42,12.72z M54.68,15.84c0-0.23-0.05-0.42-0.14-0.46
	c-0.05-0.09-0.28-0.14-0.56-0.14V15h2.28v4.41c0,0.74-0.19,1.3-0.51,1.67c-0.32,0.33-0.84,0.51-1.58,0.51
	c-0.42,0-0.79-0.09-1.07-0.28c-0.28-0.19-0.42-0.46-0.42-0.74c0-0.14,0.09-0.28,0.23-0.42c0.14-0.09,0.28-0.19,0.46-0.19
	c0.28,0,0.51,0.14,0.6,0.33c0.09,0.19,0.04,0.37-0.09,0.6c-0.09,0.14-0.14,0.23-0.09,0.28c0.05,0.09,0.19,0.09,0.37,0.09
	c0.19,0,0.33-0.05,0.42-0.19c0.05-0.09,0.09-0.32,0.09-0.56V15.84z M47.94,18.58v-2.6c0-0.28-0.05-0.51-0.14-0.6
	c-0.05-0.09-0.23-0.14-0.46-0.14V15h2.14v0.74c0.09-0.19,0.28-0.37,0.46-0.51c0.33-0.23,0.7-0.37,1.16-0.37
	c0.42,0,0.79,0.14,1.07,0.42c0.28,0.23,0.42,0.56,0.42,0.98v2.32c0,0.28,0.05,0.51,0.09,0.6c0.09,0.09,0.23,0.14,0.46,0.14v0.23
	h-2.69v-0.23c0.23,0,0.42-0.05,0.46-0.14c0.09-0.09,0.14-0.32,0.14-0.6v-2.04c0-0.37-0.05-0.65-0.14-0.79
	c-0.09-0.14-0.28-0.19-0.51-0.19c-0.19,0-0.37,0.05-0.56,0.19c-0.14,0.09-0.28,0.23-0.37,0.33v2.51c0,0.28,0.05,0.51,0.14,0.6
	c0.05,0.09,0.23,0.14,0.46,0.14v0.23h-2.74v-0.23c0.23,0,0.42-0.05,0.46-0.14C47.9,19.09,47.94,18.86,47.94,18.58z M43.16,15v3.21
	c0,0.33,0.05,0.56,0.14,0.7c0.05,0.09,0.23,0.19,0.46,0.19c0.19,0,0.42-0.09,0.6-0.19c0.14-0.09,0.23-0.19,0.33-0.28v-2.65
	c0-0.28-0.05-0.46-0.14-0.56c-0.09-0.14-0.28-0.19-0.56-0.19V15h2.28v3.58c0,0.23,0,0.37,0.09,0.42c0.09,0.09,0.28,0.14,0.51,0.14
	v0.23c-0.42,0.05-0.79,0.09-1.07,0.14c-0.33,0.05-0.7,0.09-1.11,0.19v-0.65c-0.14,0.14-0.28,0.23-0.46,0.37
	c-0.37,0.19-0.74,0.28-1.12,0.28c-0.51,0-0.88-0.09-1.11-0.33c-0.28-0.28-0.42-0.6-0.42-1.07v-2.32c0-0.28-0.05-0.51-0.09-0.6
	c-0.09-0.09-0.23-0.14-0.42-0.14V15H43.16z M36.98,16.21h0.19c0.6,0,1.02-0.09,1.3-0.33c0.23-0.28,0.37-0.65,0.37-1.25
	c0-0.51-0.09-0.88-0.33-1.12c-0.19-0.23-0.51-0.32-0.93-0.32c-0.23,0-0.37,0.05-0.46,0.09c-0.09,0.09-0.14,0.23-0.14,0.42V16.21z
	 M35.17,18.58v-4.74c0-0.28-0.05-0.46-0.18-0.56c-0.09-0.09-0.37-0.19-0.79-0.19v-0.23h3.58c0.97,0,1.72,0.14,2.23,0.42
	c0.46,0.33,0.74,0.79,0.74,1.35c0,0.65-0.28,1.16-0.84,1.44c-0.51,0.32-1.39,0.46-2.55,0.46h-0.37v2.04c0,0.28,0.09,0.46,0.19,0.56
	c0.14,0.09,0.42,0.19,0.84,0.19v0.23h-3.81v-0.23c0.42,0,0.7-0.09,0.79-0.19C35.12,19.04,35.17,18.86,35.17,18.58z"/>
<path class="st1" d="M112.73,28.19c0.09-0.28,0.19-0.46,0.23-0.6c0.05-0.09,0.09-0.28,0.14-0.42c0.05-0.19,0.05-0.33,0.09-0.51
	c0-0.14,0-0.28,0-0.46c0-0.33,0-0.65-0.09-0.93c-0.05-0.28-0.19-0.65-0.37-1.07h0.37c0.23,0.33,0.37,0.6,0.51,0.93
	c0.09,0.37,0.14,0.7,0.14,1.02c0,0.28-0.05,0.6-0.14,0.93c-0.09,0.37-0.23,0.74-0.51,1.11H112.73z M110.78,26.15
	c0,0.23,0.04,0.42,0.14,0.51c0.09,0.09,0.19,0.14,0.33,0.14c0.14,0,0.23-0.05,0.37-0.14c0.09-0.14,0.14-0.28,0.14-0.51
	c0-0.23-0.05-0.37-0.14-0.51c-0.09-0.09-0.23-0.14-0.37-0.14c-0.14,0-0.23,0.05-0.33,0.14C110.82,25.78,110.78,25.92,110.78,26.15z
	 M110.26,27.45l0.65,0.05c0,0.09,0.05,0.14,0.09,0.19c0.05,0.05,0.14,0.05,0.23,0.05c0.14,0,0.28,0,0.33-0.05
	c0.09-0.05,0.09-0.09,0.14-0.19c0-0.05,0.05-0.14,0.05-0.23v-0.33c-0.19,0.23-0.42,0.33-0.7,0.33c-0.28,0-0.51-0.09-0.7-0.37
	c-0.14-0.19-0.19-0.42-0.19-0.7c0-0.37,0.09-0.65,0.28-0.88c0.19-0.18,0.37-0.28,0.65-0.28c0.28,0,0.51,0.14,0.65,0.37v-0.33h0.56v2
	c0,0.23,0,0.42-0.05,0.56c-0.05,0.14-0.14,0.23-0.19,0.32c-0.09,0.05-0.19,0.09-0.33,0.14c-0.14,0.05-0.28,0.09-0.46,0.09
	c-0.37,0-0.65-0.09-0.79-0.23c-0.19-0.09-0.23-0.28-0.23-0.46V27.45z M109.71,27.26h-0.56v-1.12c0-0.23-0.05-0.37-0.05-0.42
	c-0.05-0.09-0.09-0.14-0.14-0.19c-0.05-0.05-0.09-0.05-0.19-0.05s-0.19,0-0.28,0.09c-0.09,0.04-0.14,0.09-0.14,0.18
	c-0.05,0.09-0.05,0.28-0.05,0.51v0.98h-0.6v-2.18h0.56v0.33c0.19-0.23,0.42-0.37,0.7-0.37c0.14,0,0.28,0.05,0.37,0.09
	c0.09,0.05,0.19,0.09,0.23,0.18c0.05,0.05,0.09,0.14,0.09,0.23c0.05,0.09,0.05,0.23,0.05,0.37V27.26z M106.55,25.08h0.56v2.18h-0.56
	V25.08z M106.55,24.24h0.56v0.56h-0.56V24.24z M104.18,27.26v-3.02h0.56v1.63l0.7-0.79h0.7l-0.74,0.84l0.83,1.35h-0.65l-0.56-0.98
	l-0.28,0.28v0.7H104.18z M103.06,26.24c-0.09,0-0.19,0.05-0.37,0.09c-0.14,0-0.23,0.05-0.33,0.09c-0.05,0.05-0.09,0.14-0.09,0.19
	c0,0.09,0.05,0.19,0.09,0.23c0.05,0.05,0.14,0.09,0.23,0.09c0.09,0,0.18-0.05,0.28-0.09c0.09-0.09,0.14-0.14,0.14-0.23
	c0.05-0.05,0.05-0.14,0.05-0.28V26.24z M102.27,25.78l-0.51-0.09c0.05-0.23,0.14-0.37,0.28-0.46c0.14-0.14,0.37-0.19,0.65-0.19
	c0.28,0,0.46,0.05,0.6,0.09c0.09,0.09,0.18,0.14,0.23,0.23c0.09,0.09,0.09,0.28,0.09,0.51v0.7c0,0.19,0,0.33,0.05,0.42
	c0,0.09,0.05,0.19,0.09,0.28h-0.6c0,0,0-0.09-0.05-0.14c0-0.05,0-0.05,0-0.09c-0.09,0.09-0.23,0.18-0.33,0.23
	c-0.09,0.05-0.23,0.09-0.37,0.09c-0.23,0-0.37-0.09-0.51-0.18c-0.14-0.14-0.19-0.28-0.19-0.46c0-0.14,0-0.23,0.05-0.37
	c0.09-0.09,0.14-0.14,0.28-0.19c0.09-0.05,0.23-0.09,0.46-0.14c0.28-0.05,0.46-0.09,0.56-0.14v-0.09c0-0.09-0.05-0.18-0.09-0.23
	c-0.05-0.05-0.14-0.05-0.33-0.05c-0.09,0-0.19,0-0.23,0.05C102.37,25.59,102.32,25.64,102.27,25.78z M101.44,25.08v0.46h-0.37v0.88
	c0,0.19,0,0.28,0,0.33c0,0.05,0,0.05,0.05,0.09c0.05,0,0.05,0,0.09,0c0.05,0,0.14,0,0.23-0.05l0.05,0.46
	c-0.14,0.05-0.28,0.09-0.46,0.09c-0.09,0-0.19-0.05-0.28-0.09c-0.09,0-0.14-0.05-0.19-0.14c-0.05-0.05-0.05-0.09-0.09-0.19
	c0-0.09,0-0.23,0-0.42v-0.97h-0.28v-0.46h0.28v-0.42l0.6-0.33v0.74H101.44z M99.35,27.26h-0.56v-2.18h0.51v0.33
	c0.09-0.14,0.19-0.23,0.28-0.28c0.04-0.05,0.14-0.09,0.23-0.09c0.14,0,0.28,0.05,0.37,0.14L100,25.64
	c-0.09-0.04-0.18-0.09-0.28-0.09c-0.05,0-0.14,0.05-0.19,0.09c-0.05,0.05-0.09,0.14-0.14,0.23c-0.05,0.14-0.05,0.37-0.05,0.74V27.26
	z M97.77,26.01c-0.05-0.19-0.05-0.33-0.14-0.37c-0.09-0.09-0.19-0.14-0.33-0.14c-0.09,0-0.23,0.05-0.28,0.14
	c-0.09,0.09-0.14,0.19-0.14,0.37H97.77z M97.72,26.57l0.56,0.14c-0.05,0.19-0.19,0.37-0.33,0.46c-0.19,0.09-0.37,0.18-0.6,0.18
	c-0.37,0-0.65-0.14-0.83-0.42c-0.19-0.19-0.23-0.42-0.23-0.74c0-0.37,0.09-0.65,0.28-0.84c0.19-0.23,0.42-0.33,0.74-0.33
	c0.33,0,0.56,0.14,0.74,0.33c0.19,0.23,0.28,0.56,0.28,0.98h-1.44c0,0.18,0.05,0.33,0.14,0.42c0.09,0.09,0.19,0.14,0.32,0.14
	c0.09,0,0.19,0,0.23-0.05C97.63,26.8,97.68,26.71,97.72,26.57z M94.33,26.15c0,0.23,0.05,0.42,0.09,0.51
	c0.09,0.14,0.23,0.23,0.37,0.23c0.14,0,0.28-0.09,0.37-0.19c0.09-0.09,0.14-0.28,0.14-0.51c0-0.23-0.05-0.42-0.14-0.56
	c-0.09-0.09-0.23-0.14-0.37-0.14c-0.14,0-0.23,0.05-0.33,0.14C94.38,25.78,94.33,25.92,94.33,26.15z M95.86,27.26h-0.51v-0.28
	c-0.09,0.09-0.23,0.19-0.33,0.28c-0.14,0.05-0.23,0.09-0.37,0.09c-0.28,0-0.46-0.14-0.65-0.32c-0.19-0.19-0.28-0.46-0.28-0.84
	c0-0.37,0.09-0.65,0.28-0.88c0.19-0.18,0.37-0.28,0.65-0.28c0.23,0,0.46,0.09,0.65,0.33v-1.12h0.56V27.26z M93.26,27.26H92.7v-1.12
	c0-0.23,0-0.37-0.05-0.42c0-0.09-0.04-0.14-0.14-0.19c-0.05-0.05-0.09-0.05-0.19-0.05c-0.09,0-0.19,0-0.28,0.09
	c-0.05,0.04-0.14,0.09-0.14,0.18c-0.04,0.09-0.04,0.28-0.04,0.51v0.98h-0.6v-2.18h0.56v0.33c0.19-0.23,0.42-0.37,0.7-0.37
	c0.14,0,0.28,0.05,0.37,0.09c0.09,0.05,0.19,0.09,0.23,0.18c0.05,0.05,0.09,0.14,0.14,0.23c0,0.09,0,0.23,0,0.37V27.26z
	 M88.24,24.24h0.6v1.67c0,0.23,0,0.42,0,0.46c0.05,0.14,0.09,0.23,0.19,0.33c0.14,0.09,0.23,0.09,0.42,0.09c0.18,0,0.32,0,0.42-0.09
	c0.05-0.05,0.14-0.14,0.14-0.28c0-0.09,0.05-0.23,0.05-0.51v-1.67h0.6v1.63c0,0.33-0.05,0.6-0.05,0.74
	c-0.05,0.14-0.09,0.28-0.19,0.37c-0.09,0.09-0.23,0.19-0.37,0.28c-0.14,0.05-0.33,0.09-0.6,0.09c-0.28,0-0.46-0.05-0.65-0.14
	c-0.14-0.04-0.23-0.14-0.33-0.23c-0.09-0.09-0.14-0.23-0.18-0.32c-0.05-0.19-0.05-0.46-0.05-0.79V24.24z M85.92,26.24
	c-0.09,0-0.19,0.05-0.37,0.09c-0.14,0-0.23,0.05-0.28,0.09c-0.09,0.05-0.14,0.14-0.14,0.19c0,0.09,0.05,0.19,0.09,0.23
	c0.05,0.05,0.14,0.09,0.23,0.09c0.09,0,0.19-0.05,0.28-0.09c0.09-0.09,0.14-0.14,0.14-0.23c0.05-0.05,0.05-0.14,0.05-0.28V26.24z
	 M85.13,25.78l-0.51-0.09c0.05-0.23,0.14-0.37,0.28-0.46c0.18-0.14,0.37-0.19,0.65-0.19c0.28,0,0.46,0.05,0.6,0.09
	c0.14,0.09,0.19,0.14,0.28,0.23c0.05,0.09,0.05,0.28,0.05,0.51v0.7c0,0.19,0,0.33,0.04,0.42c0,0.09,0.05,0.19,0.09,0.28h-0.56
	c-0.05,0-0.05-0.09-0.09-0.14c0-0.05,0-0.05,0-0.09c-0.09,0.09-0.19,0.18-0.33,0.23c-0.09,0.05-0.23,0.09-0.37,0.09
	c-0.23,0-0.37-0.09-0.51-0.18c-0.14-0.14-0.19-0.28-0.19-0.46c0-0.14,0-0.23,0.09-0.37c0.05-0.09,0.14-0.14,0.23-0.19
	c0.09-0.05,0.28-0.09,0.46-0.14c0.28-0.05,0.46-0.09,0.56-0.14v-0.09c0-0.09-0.05-0.18-0.09-0.23c-0.05-0.05-0.14-0.05-0.32-0.05
	c-0.09,0-0.14,0-0.23,0.05C85.23,25.59,85.18,25.64,85.13,25.78z M83.55,25.08h0.56v2.18h-0.56V25.08z M83.55,24.24h0.56v0.56h-0.56
	V24.24z M81.42,26.15c0,0.23,0.05,0.42,0.09,0.51c0.09,0.14,0.23,0.23,0.42,0.23c0.09,0,0.23-0.09,0.33-0.19
	c0.09-0.09,0.14-0.28,0.14-0.51c0-0.23-0.05-0.42-0.14-0.56c-0.09-0.09-0.19-0.14-0.37-0.14c-0.09,0-0.23,0.05-0.33,0.14
	C81.46,25.78,81.42,25.92,81.42,26.15z M82.95,27.26h-0.51v-0.28c-0.09,0.09-0.19,0.19-0.33,0.28c-0.14,0.05-0.23,0.09-0.37,0.09
	c-0.23,0-0.46-0.14-0.65-0.32c-0.19-0.19-0.28-0.46-0.28-0.84c0-0.37,0.09-0.65,0.28-0.88c0.19-0.18,0.37-0.28,0.65-0.28
	c0.23,0,0.46,0.09,0.65,0.33v-1.12h0.56V27.26z M80.35,27.26h-0.56v-1.12c0-0.23,0-0.37-0.05-0.42c0-0.09-0.05-0.14-0.09-0.19
	c-0.09-0.05-0.14-0.05-0.23-0.05s-0.19,0-0.28,0.09c-0.05,0.04-0.09,0.09-0.14,0.18c-0.05,0.09-0.05,0.28-0.05,0.51v0.98h-0.6v-2.18
	h0.56v0.33c0.19-0.23,0.42-0.37,0.74-0.37c0.09,0,0.23,0.05,0.33,0.09c0.09,0.05,0.19,0.09,0.23,0.18c0.05,0.05,0.09,0.14,0.14,0.23
	c0,0.09,0,0.23,0,0.37V27.26z M77.19,24.24h0.6v3.02h-0.6V24.24z M74.35,25.08h0.33v-0.14c0-0.18,0.05-0.32,0.05-0.42
	c0.05-0.09,0.14-0.19,0.23-0.23c0.09-0.05,0.23-0.09,0.42-0.09c0.14,0,0.32,0.05,0.46,0.09l-0.09,0.42
	c-0.09-0.05-0.14-0.05-0.23-0.05c-0.09,0-0.14,0-0.19,0.05c-0.05,0.05-0.05,0.14-0.05,0.23v0.14h0.42v0.46h-0.42v1.72h-0.6v-1.72
	h-0.33V25.08z M72.5,26.2c0,0.23,0.05,0.37,0.14,0.51c0.14,0.09,0.23,0.14,0.42,0.14c0.14,0,0.28-0.05,0.37-0.14
	c0.09-0.14,0.14-0.28,0.14-0.51c0-0.23-0.05-0.37-0.14-0.51c-0.09-0.09-0.23-0.18-0.37-0.18c-0.18,0-0.28,0.09-0.42,0.18
	C72.54,25.82,72.5,25.96,72.5,26.2z M71.89,26.15c0-0.18,0.05-0.37,0.14-0.56c0.09-0.19,0.23-0.33,0.42-0.42
	c0.19-0.09,0.37-0.14,0.6-0.14c0.33,0,0.6,0.14,0.79,0.33c0.23,0.23,0.32,0.51,0.32,0.84c0,0.32-0.09,0.6-0.32,0.79
	c-0.23,0.23-0.46,0.37-0.79,0.37c-0.23,0-0.42-0.05-0.6-0.14c-0.19-0.09-0.33-0.23-0.42-0.42C71.94,26.61,71.89,26.43,71.89,26.15z
	 M69.71,26.71h0.56v0.56h-0.56V26.71z M69.29,25.08v0.46h-0.42v0.88c0,0.19,0.05,0.28,0.05,0.33c0,0.05,0,0.05,0.05,0.09
	c0,0,0.05,0,0.09,0c0.04,0,0.14,0,0.23-0.05l0.05,0.46c-0.14,0.05-0.28,0.09-0.46,0.09c-0.09,0-0.18-0.05-0.28-0.09
	c-0.09,0-0.14-0.05-0.19-0.14c-0.05-0.05-0.05-0.09-0.09-0.19c0-0.09,0-0.23,0-0.42v-0.97h-0.28v-0.46h0.28v-0.42l0.56-0.33v0.74
	H69.29z M66.55,27.26l-0.88-2.18h0.6l0.42,1.12l0.09,0.37c0.04-0.09,0.04-0.14,0.09-0.19c0-0.05,0-0.09,0.05-0.19l0.42-1.12h0.6
	l-0.88,2.18H66.55z M63.81,26.2c0,0.23,0.05,0.37,0.14,0.51c0.14,0.09,0.23,0.14,0.42,0.14c0.14,0,0.28-0.05,0.37-0.14
	c0.09-0.14,0.14-0.28,0.14-0.51c0-0.23-0.04-0.37-0.14-0.51c-0.09-0.09-0.23-0.18-0.37-0.18c-0.19,0-0.28,0.09-0.42,0.18
	C63.86,25.82,63.81,25.96,63.81,26.2z M63.21,26.15c0-0.18,0.05-0.37,0.14-0.56c0.09-0.19,0.23-0.33,0.42-0.42
	c0.19-0.09,0.37-0.14,0.6-0.14c0.33,0,0.6,0.14,0.79,0.33c0.23,0.23,0.33,0.51,0.33,0.84c0,0.32-0.09,0.6-0.33,0.79
	c-0.19,0.23-0.46,0.37-0.79,0.37c-0.23,0-0.42-0.05-0.6-0.14c-0.19-0.09-0.33-0.23-0.42-0.42C63.25,26.61,63.21,26.43,63.21,26.15z
	 M61.49,26.2v-0.51h1.3v1.16c-0.14,0.14-0.33,0.23-0.56,0.37c-0.23,0.09-0.46,0.14-0.74,0.14c-0.28,0-0.56-0.09-0.79-0.23
	c-0.28-0.14-0.42-0.33-0.56-0.56c-0.09-0.23-0.19-0.51-0.19-0.79c0-0.32,0.09-0.6,0.23-0.84c0.09-0.28,0.33-0.46,0.56-0.6
	c0.19-0.09,0.42-0.14,0.74-0.14c0.37,0,0.65,0.09,0.88,0.23c0.19,0.19,0.33,0.37,0.37,0.65l-0.6,0.14
	c-0.05-0.14-0.09-0.28-0.23-0.37c-0.09-0.09-0.28-0.14-0.42-0.14c-0.28,0-0.51,0.09-0.65,0.28c-0.14,0.19-0.23,0.42-0.23,0.74
	c0,0.37,0.09,0.65,0.23,0.84c0.14,0.14,0.37,0.23,0.65,0.23c0.09,0,0.23,0,0.37-0.05c0.14-0.05,0.23-0.14,0.33-0.19V26.2H61.49z
	 M57.45,26.1l-0.42-1.11l-0.42,1.11H57.45z M58.56,27.26h-0.65l-0.28-0.65h-1.21l-0.23,0.65h-0.65l1.16-3.02h0.65L58.56,27.26z
	 M55.4,28.19h-0.42c-0.19-0.32-0.37-0.65-0.46-1.02c-0.09-0.33-0.19-0.65-0.19-0.98c0-0.42,0.09-0.79,0.23-1.12
	c0.09-0.32,0.28-0.6,0.46-0.88h0.37c-0.19,0.42-0.32,0.79-0.37,1.07c-0.09,0.28-0.14,0.6-0.14,0.93c0,0.23,0.05,0.46,0.09,0.7
	c0.05,0.23,0.09,0.46,0.14,0.7C55.21,27.73,55.26,27.91,55.4,28.19z"/>
<g>
	<path class="st1" d="M91.29,5.22h0.65V4.77h-0.66V4.4c0-0.1-0.02-0.19-0.05-0.27c-0.03-0.08-0.07-0.15-0.13-0.21
		c-0.05-0.06-0.11-0.11-0.18-0.15c-0.06-0.04-0.13-0.07-0.19-0.09c-0.06-0.02-0.12-0.03-0.18-0.03c-0.11,0-0.2,0.01-0.28,0.04
		c-0.08,0.02-0.16,0.06-0.22,0.09c-0.06,0.04-0.12,0.08-0.16,0.12c-0.05,0.04-0.08,0.08-0.11,0.12c-0.03,0.04-0.05,0.07-0.06,0.1
		c-0.01,0.02-0.02,0.04-0.02,0.04l0.42,0.27c0,0,0.01-0.01,0.01-0.03c0.01-0.02,0.02-0.04,0.04-0.08c0.02-0.03,0.04-0.06,0.07-0.09
		c0.03-0.03,0.06-0.06,0.1-0.08c0.04-0.02,0.09-0.03,0.14-0.03c0.08,0,0.15,0.01,0.19,0.04c0.05,0.03,0.08,0.07,0.09,0.12
		c0.02,0.05,0.02,0.11,0.02,0.17v0.31H90.5v0.46h0.28c0,0.03,0,0.09,0,0.17c0,0.08,0,0.17,0,0.27c0,0.1,0,0.22,0,0.34
		c0,0.12,0,0.25,0,0.38c0,0.13,0,0.26,0,0.38c0,0.12,0,0.24,0,0.35c0,0.11,0,0.21,0,0.3c0,0.09,0,0.15,0,0.2l0.51,0
		c0-0.04,0-0.1,0-0.19c0-0.08,0-0.19,0-0.3c0-0.12,0-0.24,0-0.38c0-0.13,0-0.27,0-0.41c0-0.14,0-0.27,0-0.4c0-0.13,0-0.24,0-0.35
		c0-0.1,0-0.19,0-0.25C91.29,5.27,91.29,5.23,91.29,5.22z M87.58,5.22h1.95v0.85h-1.02V5.61c-0.1,0-0.19,0-0.26,0.01
		c-0.07,0.01-0.13,0.03-0.18,0.04c-0.05,0.02-0.09,0.05-0.14,0.08c-0.04,0.03-0.09,0.08-0.14,0.13c-0.05,0.05-0.09,0.11-0.12,0.17
		c-0.03,0.06-0.05,0.12-0.06,0.18c-0.01,0.06-0.02,0.11-0.02,0.16c0,0.05,0,0.09,0,0.12c0,0.03,0,0.04,0,0.04H88v1.04h0.51V6.55
		h1.02V7.6h0.51V5.22h0.61V4.77h-3.07V5.22z M83.53,8.32v0.4c0.08,0.02,0.16,0.04,0.23,0.06c0.07,0.02,0.14,0.03,0.21,0.04
		c0.07,0.01,0.14,0.02,0.21,0.02c0.07,0,0.15,0.01,0.24,0.01c0.1,0,0.18,0,0.26-0.01c0.08,0,0.15-0.01,0.23-0.02
		c0.07-0.01,0.14-0.02,0.22-0.04c0.07-0.02,0.15-0.04,0.23-0.07V8.32c-0.09,0.03-0.17,0.05-0.24,0.07
		c-0.07,0.02-0.15,0.03-0.22,0.05c-0.07,0.01-0.15,0.02-0.22,0.02c-0.08,0-0.16,0.01-0.26,0.01c-0.09,0-0.17,0-0.24-0.01
		c-0.07-0.01-0.14-0.01-0.21-0.03c-0.07-0.01-0.14-0.03-0.21-0.04C83.69,8.37,83.62,8.35,83.53,8.32z M83.53,7.73v0.4
		c0.08,0.02,0.16,0.04,0.23,0.06c0.07,0.02,0.14,0.03,0.21,0.04c0.07,0.01,0.14,0.02,0.21,0.02c0.07,0,0.15,0.01,0.24,0.01
		c0.1,0,0.18,0,0.26-0.01c0.08,0,0.15-0.01,0.23-0.02c0.07-0.01,0.14-0.03,0.22-0.05c0.07-0.02,0.15-0.04,0.23-0.07V7.73
		c-0.09,0.03-0.17,0.05-0.24,0.07c-0.07,0.02-0.15,0.03-0.22,0.04c-0.07,0.01-0.15,0.02-0.22,0.02c-0.08,0.01-0.16,0.01-0.26,0.01
		c-0.09,0-0.17,0-0.24-0.01c-0.07-0.01-0.14-0.01-0.21-0.02c-0.07-0.01-0.14-0.03-0.21-0.04C83.69,7.78,83.62,7.75,83.53,7.73z
		 M84.33,6.27h0.82v0.7c0,0.04-0.01,0.08-0.03,0.1c-0.02,0.02-0.04,0.03-0.08,0.03c-0.13,0-0.25-0.02-0.35-0.06
		c-0.11-0.04-0.2-0.09-0.27-0.15c-0.08-0.06-0.14-0.14-0.17-0.22c-0.04-0.08-0.06-0.17-0.06-0.26c0-0.02,0-0.04,0.01-0.07
		c0.01-0.02,0.02-0.04,0.04-0.06C84.26,6.29,84.29,6.28,84.33,6.27z M85.16,5.22v0.56h-1.14c-0.04,0-0.08,0.01-0.13,0.03
		c-0.05,0.02-0.09,0.05-0.14,0.08c-0.04,0.04-0.08,0.09-0.11,0.15C83.62,6.1,83.6,6.17,83.6,6.26c0,0.14,0.03,0.27,0.08,0.41
		c0.05,0.13,0.12,0.25,0.21,0.37c0.09,0.11,0.19,0.21,0.31,0.29c0.11,0.09,0.23,0.15,0.36,0.2c0.13,0.05,0.25,0.07,0.37,0.07
		c0.05,0,0.11,0,0.18-0.01c0.06,0,0.13-0.01,0.19-0.03c0.06-0.02,0.12-0.05,0.18-0.09c0.06-0.04,0.1-0.1,0.13-0.18
		c0.03-0.08,0.05-0.17,0.05-0.29V5.22h0.61V4.77h-2.68v0.46H85.16z M81.13,7.73v0.4c0.08,0.02,0.16,0.04,0.23,0.06
		c0.07,0.02,0.14,0.03,0.21,0.04c0.07,0.01,0.14,0.02,0.21,0.02c0.07,0,0.15,0.01,0.24,0.01c0.1,0,0.18,0,0.26-0.01
		c0.08,0,0.16-0.01,0.23-0.02c0.07-0.01,0.14-0.03,0.21-0.05c0.07-0.02,0.15-0.04,0.23-0.07V7.73c-0.09,0.03-0.17,0.05-0.24,0.07
		c-0.07,0.02-0.15,0.03-0.22,0.04c-0.07,0.01-0.15,0.02-0.22,0.02c-0.08,0.01-0.16,0.01-0.26,0.01c-0.09,0-0.17,0-0.24-0.01
		c-0.08-0.01-0.15-0.01-0.21-0.02c-0.07-0.01-0.14-0.03-0.21-0.04C81.29,7.78,81.21,7.75,81.13,7.73z M81.47,6.13v0.82
		c0,0.03-0.01,0.06-0.02,0.08c-0.02,0.03-0.04,0.06-0.08,0.08c-0.03,0.02-0.08,0.03-0.13,0.03c-0.06,0-0.13-0.02-0.19-0.05
		c-0.06-0.03-0.12-0.08-0.18-0.13c-0.06-0.05-0.11-0.11-0.16-0.18c-0.04-0.07-0.08-0.13-0.1-0.19c-0.03-0.07-0.04-0.12-0.04-0.18
		c0-0.02,0-0.04,0-0.07c0-0.03,0.01-0.06,0.02-0.1c0.01-0.03,0.03-0.06,0.07-0.08c0.03-0.02,0.08-0.03,0.15-0.04H81.47z M83.08,5.22
		h0.62V4.77h-3.68v0.46h1.44v0.42h-0.99c-0.04,0-0.08,0.01-0.13,0.04c-0.05,0.03-0.1,0.06-0.14,0.11c-0.05,0.05-0.08,0.1-0.11,0.17
		c-0.03,0.07-0.05,0.14-0.05,0.23c0,0.14,0.02,0.28,0.06,0.42c0.04,0.14,0.1,0.26,0.17,0.38c0.07,0.12,0.16,0.22,0.26,0.31
		c0.1,0.09,0.21,0.16,0.33,0.21c0.12,0.05,0.25,0.08,0.38,0.08c0.05,0,0.11,0,0.18-0.01c0.06-0.01,0.13-0.02,0.19-0.05
		c0.07-0.02,0.12-0.05,0.18-0.09c0.06-0.04,0.1-0.1,0.13-0.17c0.03-0.07,0.05-0.15,0.05-0.26v-1.8h0.61V7.6h0.5V5.22z M80.19,4.77
		h-2.71v0.46h1.58v1.75c0,0.04-0.01,0.08-0.03,0.1c-0.02,0.02-0.04,0.03-0.08,0.03c-0.13,0-0.25-0.02-0.35-0.06
		c-0.11-0.04-0.2-0.09-0.27-0.15c-0.08-0.06-0.14-0.14-0.17-0.22C78.12,6.6,78.1,6.51,78.1,6.42c0-0.03,0.01-0.05,0.03-0.06
		c0.02,0,0.07-0.01,0.13-0.01h0.25V5.87h-0.57c-0.04,0-0.08,0.01-0.13,0.01c-0.05,0.01-0.1,0.03-0.14,0.06
		C77.62,5.96,77.58,6,77.55,6.05c-0.03,0.05-0.05,0.12-0.05,0.2c0,0.14,0.03,0.27,0.08,0.41c0.05,0.13,0.12,0.25,0.21,0.37
		c0.09,0.11,0.19,0.21,0.31,0.29c0.11,0.09,0.23,0.15,0.36,0.2c0.12,0.05,0.25,0.07,0.37,0.07c0.05,0,0.11,0,0.18-0.01
		c0.06,0,0.13-0.01,0.19-0.03c0.06-0.02,0.12-0.05,0.18-0.09c0.06-0.04,0.1-0.1,0.13-0.18c0.03-0.08,0.05-0.17,0.05-0.29V5.22h0.63
		V4.77z M76.32,5.22h0.16V7.6h0.51V5.22h0.81V4.77h-0.8V4.62c0-0.12,0.02-0.22,0.04-0.29c0.03-0.07,0.07-0.11,0.11-0.14
		c0.05-0.03,0.1-0.04,0.14-0.04c0.08,0,0.15,0.01,0.2,0.03c0.05,0.02,0.09,0.05,0.12,0.08c0.03,0.03,0.05,0.06,0.06,0.08
		c0.01,0.02,0.02,0.04,0.02,0.04l0.38-0.24c0,0-0.01-0.01-0.02-0.04c-0.01-0.02-0.03-0.06-0.06-0.09c-0.03-0.04-0.06-0.08-0.11-0.12
		c-0.05-0.04-0.1-0.08-0.16-0.12c-0.06-0.04-0.14-0.07-0.22-0.09c-0.08-0.03-0.18-0.04-0.28-0.04c-0.06,0-0.12,0.01-0.18,0.03
		c-0.06,0.02-0.13,0.05-0.19,0.09c-0.06,0.04-0.12,0.09-0.18,0.15c-0.05,0.06-0.1,0.13-0.13,0.21c-0.03,0.08-0.05,0.17-0.05,0.27
		v0.38h-0.17V5.22z M75.13,5.22h0.23c0,0.02,0,0.05,0,0.11c0,0.06,0,0.12,0,0.2c0,0.08,0,0.17,0,0.26c0,0.09,0,0.18,0,0.28
		c0,0.09,0,0.17,0,0.25c0,0.08,0,0.14,0,0.2l0.51,0c0-0.08,0-0.16,0-0.26c0-0.09,0-0.19,0-0.28c0-0.1,0-0.19,0-0.28
		c0-0.09,0-0.18,0-0.26c0-0.08,0-0.15,0-0.2h0.65V4.77h-1.39V5.22z M72.97,5.47c-0.1,0-0.21,0.01-0.31,0.02
		c-0.1,0.01-0.19,0.04-0.27,0.09c-0.08,0.05-0.14,0.11-0.19,0.21C72.17,5.88,72.14,6,72.14,6.15c0,0.12,0.02,0.23,0.06,0.32
		c0.04,0.09,0.1,0.17,0.17,0.23c0.07,0.06,0.15,0.1,0.24,0.13c0.09,0.03,0.18,0.04,0.27,0.03c0.01,0.06,0.04,0.13,0.09,0.2
		c0.05,0.07,0.11,0.13,0.18,0.2c0.07,0.06,0.16,0.12,0.25,0.17c0.1,0.05,0.2,0.09,0.31,0.12c0.11,0.03,0.22,0.05,0.34,0.05
		c0.07,0,0.12-0.01,0.18-0.01c0.05-0.01,0.1-0.02,0.14-0.03c0.05-0.01,0.1-0.03,0.15-0.06l0.11-0.48c-0.02,0.02-0.06,0.04-0.1,0.06
		C74.5,7.1,74.45,7.11,74.4,7.13c-0.05,0.02-0.1,0.03-0.15,0.04c-0.05,0.01-0.1,0.01-0.14,0.01c-0.08,0-0.17-0.01-0.24-0.03
		c-0.08-0.02-0.15-0.04-0.21-0.07c-0.06-0.03-0.11-0.06-0.14-0.09c-0.03-0.03-0.05-0.06-0.05-0.09c0-0.02,0.01-0.04,0.02-0.05
		c0.01-0.01,0.03-0.01,0.06-0.01h1.04V6.35h-1.56c-0.09,0-0.16,0-0.22-0.01c-0.06-0.01-0.11-0.02-0.14-0.05
		c-0.03-0.03-0.05-0.07-0.05-0.12c0-0.06,0.02-0.1,0.05-0.12c0.03-0.03,0.08-0.05,0.13-0.05c0.06-0.01,0.12-0.01,0.19-0.01h1.68
		V5.22h0.62V4.77h-3.14v0.46h2.02v0.25H72.97z M68.56,7.36h-0.38v0.17c0,0-0.01,0-0.03,0.01c-0.02,0-0.04,0.01-0.07,0.02
		c-0.03,0.01-0.06,0.03-0.09,0.06c-0.03,0.02-0.05,0.06-0.07,0.09c-0.02,0.04-0.03,0.08-0.03,0.14c0,0.07,0.02,0.13,0.05,0.18
		c0.03,0.05,0.08,0.1,0.14,0.13c0.05,0.03,0.11,0.05,0.18,0.05c0.06,0,0.12-0.01,0.16-0.04c0.05-0.03,0.08-0.05,0.11-0.09
		c0.03-0.03,0.05-0.06,0.06-0.08c0.01-0.02,0.02-0.04,0.02-0.04c0,0,0.01,0,0.03,0c0.02,0,0.05,0.01,0.09,0.01
		c0.04,0.01,0.08,0.02,0.12,0.03c0.04,0.01,0.08,0.03,0.12,0.06c0.11,0.07,0.21,0.14,0.29,0.2c0.08,0.06,0.15,0.11,0.2,0.15
		c0.05,0.04,0.08,0.06,0.1,0.06c0.02,0,0.02-0.02,0-0.06c-0.01-0.04-0.04-0.09-0.09-0.15c-0.05-0.06-0.1-0.13-0.17-0.21
		c-0.07-0.08-0.15-0.15-0.25-0.22c-0.06-0.05-0.11-0.08-0.16-0.11c-0.05-0.03-0.1-0.06-0.15-0.08c-0.05-0.02-0.11-0.04-0.17-0.06
		V7.36z M70.27,5.22h0.65V4.77h-0.66V4.4c0-0.1-0.02-0.19-0.05-0.27c-0.03-0.08-0.08-0.15-0.13-0.21c-0.05-0.06-0.11-0.11-0.17-0.15
		c-0.06-0.04-0.13-0.07-0.19-0.09c-0.06-0.02-0.12-0.03-0.18-0.03c-0.1,0-0.2,0.01-0.28,0.04c-0.08,0.02-0.16,0.06-0.22,0.09
		c-0.06,0.04-0.12,0.08-0.16,0.12c-0.05,0.04-0.08,0.08-0.11,0.12c-0.03,0.04-0.05,0.07-0.06,0.1c-0.01,0.02-0.02,0.04-0.02,0.04
		l0.42,0.27c0,0,0-0.01,0.01-0.03c0.01-0.02,0.02-0.04,0.04-0.08c0.02-0.03,0.04-0.06,0.07-0.09c0.03-0.03,0.06-0.06,0.1-0.08
		c0.04-0.02,0.09-0.03,0.14-0.03c0.08,0,0.14,0.01,0.19,0.04c0.04,0.03,0.07,0.07,0.09,0.12c0.02,0.05,0.02,0.11,0.02,0.17v0.31
		h-0.27v0.46h0.28c0,0.03,0,0.09,0,0.17c0,0.08,0,0.17,0,0.27c0,0.1,0,0.22,0,0.34c0,0.12,0,0.25,0,0.38c0,0.13,0,0.26,0,0.38
		c0,0.12,0,0.24,0,0.35c0,0.11,0,0.21,0,0.3c0,0.09,0,0.15,0,0.2l0.51,0c0-0.04,0-0.1,0-0.19c0-0.08,0-0.19,0-0.3
		c0-0.12,0-0.24,0-0.38c0-0.13,0-0.27,0-0.41c0-0.14,0-0.27,0-0.4c0-0.13,0-0.24,0-0.35c0-0.1,0-0.19,0-0.25
		C70.27,5.27,70.27,5.23,70.27,5.22z M68.57,5.22v0.76h-0.8c0,0,0-0.01,0-0.03c0-0.02-0.01-0.06-0.02-0.09
		c-0.01-0.04-0.01-0.08-0.02-0.12c-0.01-0.04-0.02-0.09-0.03-0.13c-0.01-0.04-0.02-0.08-0.03-0.11c-0.02-0.05-0.04-0.1-0.06-0.14
		c-0.02-0.04-0.03-0.07-0.05-0.09c-0.01-0.02-0.02-0.03-0.02-0.03H68.57z M69.63,4.77h-2.76v0.46H67c0,0,0.01,0.01,0.03,0.04
		c0.02,0.02,0.04,0.06,0.07,0.11c0.03,0.05,0.05,0.11,0.08,0.18c0.03,0.07,0.05,0.15,0.07,0.24c0.02,0.09,0.03,0.18,0.03,0.29
		c0,0.11-0.01,0.22-0.03,0.32c-0.02,0.1-0.04,0.18-0.07,0.26c-0.03,0.08-0.06,0.15-0.09,0.21c-0.03,0.06-0.05,0.11-0.07,0.16
		c-0.02,0.05-0.03,0.08-0.03,0.11c0,0.02,0,0.05,0.01,0.08c0.01,0.04,0.02,0.07,0.05,0.11c0.02,0.04,0.06,0.07,0.1,0.09
		c0.05,0.03,0.11,0.04,0.19,0.04c0.07,0,0.12-0.02,0.17-0.06c0.05-0.04,0.09-0.09,0.13-0.16C67.67,7.16,67.7,7.08,67.72,7
		c0.02-0.09,0.04-0.18,0.04-0.27c0.01-0.09,0.01-0.19,0.01-0.28h0.8V7.6h0.53V5.22h0.53V4.77z M64.52,4.41h0.63
		c0.04-0.08,0.1-0.18,0.16-0.3c0.06-0.12,0.14-0.24,0.22-0.38c0.08-0.13,0.18-0.27,0.28-0.41c0.11-0.14,0.22-0.27,0.35-0.4
		c0.13-0.13,0.27-0.24,0.42-0.34c0.15-0.1,0.32-0.18,0.5-0.24c0.18-0.06,0.37-0.09,0.58-0.09c0.13,0,0.24,0.03,0.34,0.07
		c0.1,0.05,0.19,0.1,0.26,0.18c0.07,0.07,0.14,0.15,0.19,0.24c0.06,0.09,0.1,0.18,0.14,0.26c0.03,0.09,0.06,0.17,0.08,0.24
		c0.02,0.07,0.04,0.13,0.05,0.18c0.01,0.05,0.01,0.07,0.01,0.07h0.46c0,0-0.01-0.03-0.01-0.07c-0.01-0.05-0.03-0.11-0.05-0.19
		c-0.02-0.08-0.05-0.17-0.09-0.27c-0.04-0.1-0.08-0.21-0.14-0.31c-0.06-0.11-0.12-0.21-0.2-0.31c-0.08-0.1-0.16-0.19-0.26-0.27
		c-0.1-0.08-0.21-0.15-0.34-0.19C68,1.83,67.86,1.8,67.7,1.8c-0.26,0-0.51,0.03-0.72,0.09c-0.22,0.06-0.42,0.14-0.59,0.25
		c-0.18,0.11-0.34,0.23-0.49,0.38c-0.15,0.14-0.28,0.3-0.41,0.46c-0.12,0.17-0.24,0.34-0.35,0.52c-0.11,0.18-0.22,0.36-0.32,0.54
		C64.79,4,64.75,3.95,64.71,3.9c-0.04-0.05-0.09-0.1-0.14-0.16c-0.06-0.05-0.12-0.1-0.19-0.15c-0.07-0.04-0.15-0.08-0.25-0.11
		c-0.09-0.03-0.19-0.04-0.31-0.04c-0.18,0-0.35,0.02-0.52,0.06c-0.17,0.04-0.32,0.12-0.46,0.22c-0.14,0.1-0.25,0.24-0.35,0.41
		c-0.1,0.17-0.16,0.38-0.2,0.63h-0.46v0.46h0.43c0,0.31,0.03,0.6,0.08,0.85c0.05,0.25,0.13,0.48,0.22,0.67
		c0.1,0.19,0.21,0.35,0.34,0.48c0.13,0.13,0.27,0.23,0.43,0.29c0.15,0.06,0.32,0.1,0.48,0.1c0.14,0,0.26-0.02,0.36-0.05
		c0.1-0.03,0.18-0.08,0.24-0.13c0.06-0.05,0.11-0.11,0.15-0.18c0.04-0.07,0.06-0.13,0.08-0.19c0.01-0.06,0.02-0.12,0.02-0.17
		c0-0.07-0.01-0.12-0.03-0.18c-0.02-0.05-0.04-0.1-0.06-0.15c-0.03-0.04-0.05-0.08-0.08-0.12c-0.03-0.03-0.06-0.07-0.08-0.1
		c0.02-0.01,0.06-0.03,0.1-0.06c0.05-0.03,0.09-0.07,0.15-0.12c0.05-0.05,0.1-0.12,0.15-0.21c0.05-0.08,0.09-0.19,0.12-0.31
		c0.03-0.12,0.05-0.26,0.06-0.43h0.46V4.77h-2.63c0.02-0.13,0.06-0.25,0.1-0.35c0.04-0.1,0.1-0.19,0.17-0.27
		c0.07-0.08,0.16-0.13,0.26-0.17c0.11-0.04,0.23-0.06,0.38-0.06c0.12,0,0.22,0.01,0.3,0.04c0.09,0.02,0.16,0.05,0.21,0.09
		c0.06,0.04,0.1,0.08,0.14,0.12c0.03,0.04,0.06,0.08,0.08,0.12c0.02,0.04,0.03,0.07,0.04,0.09C64.52,4.4,64.52,4.41,64.52,4.41z
		 M60.96,5.57c-0.03,0.05-0.07,0.1-0.13,0.14c-0.06,0.05-0.12,0.08-0.2,0.11c-0.08,0.03-0.17,0.04-0.26,0.04
		c-0.05,0-0.11-0.01-0.17-0.02c-0.06-0.01-0.11-0.03-0.17-0.06c-0.05-0.02-0.1-0.06-0.13-0.09c-0.03-0.04-0.05-0.08-0.05-0.13
		c0-0.06,0.02-0.11,0.05-0.15c0.03-0.04,0.07-0.08,0.12-0.1c0.05-0.03,0.11-0.05,0.17-0.06c0.06-0.01,0.12-0.02,0.19-0.02
		c0.16,0,0.28,0.03,0.37,0.08C60.86,5.36,60.92,5.45,60.96,5.57z M62.99,6.48h0.62c0.12,0,0.23,0.02,0.31,0.05
		c0.08,0.03,0.14,0.08,0.18,0.13c0.04,0.06,0.06,0.12,0.06,0.19c0,0.04,0,0.07-0.01,0.11C64.13,7,64.12,7.03,64.1,7.06
		c-0.02,0.03-0.06,0.05-0.1,0.07c-0.05,0.02-0.11,0.03-0.18,0.03c-0.1,0-0.19-0.02-0.27-0.06c-0.08-0.04-0.15-0.08-0.22-0.14
		c-0.07-0.06-0.12-0.12-0.17-0.18c-0.05-0.06-0.08-0.12-0.11-0.17C63.01,6.55,63,6.51,62.99,6.48z M62.78,5.22h1.72
		c0,0.1-0.01,0.2-0.03,0.29c-0.02,0.1-0.05,0.18-0.09,0.26c-0.05,0.08-0.11,0.14-0.19,0.18C64.1,6,64,6.02,63.86,6.02h-1.02
		c0,0,0-0.01-0.01-0.04c-0.01-0.03-0.01-0.06-0.02-0.1c-0.01-0.04-0.01-0.09-0.02-0.14c-0.01-0.05-0.01-0.1-0.01-0.14
		c0-0.02,0-0.05,0-0.1c0-0.04,0-0.09,0-0.14C62.78,5.31,62.78,5.26,62.78,5.22z M61.41,5.66c0-0.14-0.03-0.26-0.09-0.37
		c-0.06-0.11-0.14-0.2-0.24-0.28c-0.1-0.08-0.21-0.13-0.34-0.17c-0.13-0.04-0.26-0.06-0.4-0.06c-0.12,0-0.24,0.02-0.35,0.05
		c-0.11,0.03-0.21,0.08-0.31,0.14c-0.09,0.06-0.16,0.14-0.21,0.23C59.42,5.3,59.4,5.4,59.39,5.52c0,0.1,0.02,0.19,0.06,0.27
		c0.04,0.08,0.09,0.15,0.16,0.22c0.07,0.06,0.15,0.12,0.23,0.16c0.09,0.04,0.18,0.07,0.28,0.1c0.1,0.02,0.19,0.03,0.29,0.03
		c0.08,0,0.15-0.01,0.21-0.03c0.06-0.02,0.11-0.05,0.15-0.07c0.05-0.03,0.09-0.05,0.13-0.08c-0.01,0.03-0.01,0.07-0.03,0.13
		c-0.01,0.06-0.02,0.12-0.03,0.2c-0.01,0.07-0.02,0.15-0.02,0.23c-0.01,0.08-0.01,0.15-0.01,0.23c0,0.11,0.02,0.21,0.05,0.3
		c0.03,0.09,0.07,0.17,0.12,0.23c0.05,0.06,0.1,0.11,0.16,0.15c0.06,0.03,0.11,0.05,0.17,0.05c0.06,0,0.11,0,0.16-0.01
		c0.05,0,0.08-0.02,0.11-0.04c0.03-0.02,0.04-0.05,0.04-0.1c0-0.04-0.01-0.08-0.02-0.1c-0.01-0.02-0.03-0.04-0.06-0.05
		c-0.02-0.01-0.05-0.02-0.08-0.04c-0.03-0.01-0.05-0.03-0.08-0.06c-0.03-0.03-0.04-0.07-0.06-0.12c-0.02-0.05-0.02-0.12-0.02-0.21
		c0-0.12,0.01-0.23,0.02-0.33c0.01-0.11,0.02-0.21,0.04-0.31c0.01-0.1,0.03-0.2,0.04-0.3C61.41,5.87,61.41,5.77,61.41,5.66z"/>
	<path class="st1" d="M108.69,4.77h-2.71v0.46h1.58v1.75c0,0.04-0.01,0.08-0.03,0.1c-0.02,0.02-0.04,0.03-0.08,0.03
		c-0.13,0-0.25-0.02-0.35-0.06c-0.1-0.04-0.19-0.09-0.27-0.15c-0.08-0.06-0.13-0.14-0.18-0.22c-0.04-0.08-0.06-0.17-0.06-0.26
		c0-0.03,0.01-0.05,0.03-0.06c0.02,0,0.06-0.01,0.12-0.01H107V5.87h-0.57c-0.04,0-0.08,0.01-0.13,0.01
		c-0.05,0.01-0.1,0.03-0.14,0.06c-0.04,0.03-0.08,0.07-0.11,0.12c-0.03,0.05-0.05,0.12-0.05,0.2c0,0.14,0.03,0.27,0.08,0.41
		c0.05,0.13,0.12,0.25,0.21,0.37c0.09,0.11,0.19,0.21,0.31,0.29c0.11,0.09,0.23,0.15,0.36,0.2c0.12,0.05,0.25,0.07,0.37,0.07
		c0.05,0,0.11,0,0.18-0.01c0.06,0,0.13-0.01,0.19-0.03c0.06-0.02,0.12-0.05,0.18-0.09c0.05-0.04,0.1-0.1,0.13-0.18
		c0.03-0.08,0.05-0.17,0.05-0.29V5.22h0.63V4.77z M104.81,5.22h0.15V7.6h0.51V5.22h0.81V4.77h-0.8V4.62c0-0.12,0.02-0.22,0.05-0.29
		c0.03-0.07,0.07-0.11,0.11-0.14c0.04-0.03,0.09-0.04,0.14-0.04c0.08,0,0.15,0.01,0.2,0.03c0.05,0.02,0.1,0.05,0.12,0.08
		c0.03,0.03,0.05,0.06,0.06,0.08c0.01,0.02,0.02,0.04,0.02,0.04l0.38-0.24c0,0-0.01-0.01-0.02-0.04c-0.01-0.02-0.03-0.06-0.06-0.09
		c-0.03-0.04-0.06-0.08-0.11-0.12c-0.04-0.04-0.1-0.08-0.16-0.12c-0.06-0.04-0.14-0.07-0.22-0.09c-0.08-0.03-0.18-0.04-0.28-0.04
		c-0.06,0-0.12,0.01-0.18,0.03c-0.06,0.02-0.13,0.05-0.19,0.09c-0.06,0.04-0.12,0.09-0.17,0.15c-0.05,0.06-0.1,0.13-0.13,0.21
		c-0.03,0.08-0.05,0.17-0.05,0.27v0.38h-0.17V5.22z M101.75,5.22h2c0.03,0.03,0.04,0.08,0.04,0.13c0,0.06,0,0.12-0.02,0.19
		c-0.02,0.07-0.04,0.13-0.08,0.19c-0.03,0.06-0.07,0.11-0.12,0.15c-0.05,0.04-0.1,0.06-0.16,0.06c-0.05,0-0.1-0.01-0.15-0.03
		c-0.05-0.02-0.1-0.04-0.15-0.06c-0.05-0.02-0.11-0.05-0.18-0.06c-0.07-0.02-0.15-0.03-0.24-0.03c-0.22,0-0.39,0.03-0.5,0.08
		c-0.11,0.05-0.17,0.14-0.17,0.25c0,0.08,0.02,0.14,0.06,0.19c0.04,0.05,0.09,0.09,0.16,0.11c0.07,0.03,0.14,0.04,0.22,0.05
		c0.08,0.01,0.16,0.01,0.25,0.01c0.06,0,0.12,0,0.16-0.01c0.04-0.01,0.08-0.01,0.11-0.02c0.03-0.01,0.06-0.01,0.1-0.02
		c0.03-0.01,0.07-0.01,0.12-0.02c0.05,0,0.11-0.01,0.18-0.01c0.04,0,0.09,0.01,0.13,0.03c0.04,0.02,0.08,0.04,0.12,0.07
		c0.04,0.03,0.06,0.06,0.09,0.1c0.02,0.04,0.03,0.08,0.03,0.12c0,0.12-0.03,0.22-0.08,0.29c-0.06,0.07-0.13,0.13-0.23,0.16
		c-0.1,0.03-0.22,0.05-0.35,0.05c-0.14,0-0.27-0.01-0.37-0.04c-0.11-0.02-0.2-0.06-0.28-0.09c-0.08-0.04-0.15-0.08-0.21-0.12
		c-0.06-0.04-0.11-0.08-0.15-0.12c-0.04-0.04-0.08-0.07-0.1-0.09c-0.03-0.02-0.06-0.04-0.08-0.04c-0.04,0-0.07,0-0.09,0.01
		c-0.02,0.01-0.03,0.01-0.03,0.03c0,0.02-0.01,0.04,0,0.07c0,0.03,0.01,0.07,0.04,0.13c0.02,0.05,0.06,0.11,0.11,0.17
		c0.05,0.06,0.12,0.12,0.19,0.19c0.08,0.06,0.17,0.12,0.27,0.17c0.1,0.05,0.22,0.1,0.35,0.13c0.13,0.03,0.28,0.05,0.44,0.05
		c0.12,0,0.23-0.01,0.34-0.02c0.11-0.01,0.21-0.04,0.3-0.08c0.09-0.04,0.17-0.09,0.24-0.16c0.07-0.07,0.12-0.16,0.16-0.27
		c0.04-0.11,0.06-0.25,0.06-0.41c0-0.06-0.02-0.12-0.05-0.18c-0.03-0.06-0.07-0.11-0.11-0.16c-0.04-0.05-0.08-0.09-0.13-0.12
		c-0.04-0.03-0.07-0.05-0.1-0.05c0.02-0.01,0.05-0.03,0.09-0.07c0.04-0.03,0.08-0.08,0.13-0.14c0.04-0.06,0.09-0.12,0.12-0.2
		c0.04-0.07,0.07-0.16,0.08-0.25c0.02-0.09,0.02-0.19,0-0.29h0.62V4.77h-3.21V5.22z M96.87,5.22h0.65V4.77h-0.66V4.4
		c0-0.1-0.02-0.19-0.05-0.27c-0.03-0.08-0.08-0.15-0.13-0.21c-0.05-0.06-0.11-0.11-0.17-0.15c-0.06-0.04-0.13-0.07-0.19-0.09
		c-0.06-0.02-0.12-0.03-0.18-0.03c-0.1,0-0.2,0.01-0.28,0.04c-0.08,0.02-0.16,0.06-0.22,0.09c-0.06,0.04-0.12,0.08-0.16,0.12
		c-0.05,0.04-0.08,0.08-0.11,0.12c-0.03,0.04-0.05,0.07-0.06,0.1c-0.01,0.02-0.02,0.04-0.02,0.04l0.42,0.27c0,0,0.01-0.01,0.01-0.03
		c0.01-0.02,0.02-0.04,0.04-0.08c0.02-0.03,0.04-0.06,0.07-0.09c0.03-0.03,0.06-0.06,0.1-0.08c0.04-0.02,0.09-0.03,0.14-0.03
		c0.08,0,0.15,0.01,0.19,0.04c0.04,0.03,0.08,0.07,0.09,0.12c0.02,0.05,0.02,0.11,0.02,0.17v0.31h-0.27v0.46h0.28
		c0,0.03,0,0.09,0,0.17c0,0.08,0,0.17,0,0.27c0,0.1,0,0.22,0,0.34c0,0.12,0,0.25,0,0.38c0,0.13,0,0.26,0,0.38c0,0.12,0,0.24,0,0.35
		c0,0.11,0,0.21,0,0.3c0,0.09,0,0.15,0,0.2l0.51,0c0-0.04,0-0.1,0-0.19c0-0.08,0-0.19,0-0.3c0-0.12,0-0.24,0-0.38
		c0-0.13,0-0.27,0-0.41c0-0.14,0-0.27,0-0.4c0-0.13,0-0.24,0-0.35c0-0.1,0-0.19,0-0.25C96.87,5.27,96.87,5.23,96.87,5.22z
		 M94.08,5.99c0.08,0,0.15,0.02,0.21,0.04c0.06,0.03,0.12,0.06,0.17,0.1c0.05,0.04,0.09,0.08,0.13,0.13c0.04,0.05,0.07,0.1,0.1,0.14
		c-0.01,0.02-0.02,0.05-0.04,0.08c-0.02,0.03-0.04,0.07-0.06,0.11c-0.02,0.04-0.06,0.07-0.09,0.11c-0.04,0.03-0.08,0.06-0.14,0.08
		c-0.05,0.02-0.11,0.03-0.18,0.03c-0.1,0-0.18-0.01-0.25-0.04c-0.07-0.03-0.12-0.06-0.16-0.1c-0.04-0.04-0.08-0.09-0.1-0.14
		c-0.02-0.05-0.03-0.1-0.03-0.15c0-0.06,0.01-0.11,0.04-0.16c0.03-0.05,0.06-0.09,0.1-0.12c0.04-0.03,0.09-0.06,0.14-0.08
		C93.98,6,94.03,5.99,94.08,5.99z M95.31,6.5c0.06-0.09,0.11-0.21,0.15-0.34c0.05-0.13,0.09-0.28,0.12-0.44
		c0.03-0.16,0.04-0.33,0.04-0.5h0.62V4.77h-3.12v0.46h1.96c0,0.07,0,0.14-0.01,0.21c-0.01,0.08-0.02,0.15-0.04,0.22
		C95.01,5.73,95,5.79,94.98,5.85c-0.02,0.06-0.03,0.1-0.04,0.12c-0.1-0.1-0.19-0.18-0.28-0.25c-0.09-0.07-0.18-0.12-0.28-0.15
		c-0.1-0.03-0.2-0.05-0.31-0.05c-0.13,0-0.24,0.02-0.34,0.05c-0.1,0.03-0.19,0.08-0.26,0.14c-0.08,0.06-0.14,0.12-0.19,0.19
		c-0.05,0.07-0.09,0.15-0.11,0.22c-0.03,0.08-0.04,0.15-0.04,0.23c0,0.13,0.02,0.24,0.07,0.34c0.04,0.1,0.1,0.19,0.17,0.26
		c0.07,0.07,0.15,0.13,0.24,0.18c0.09,0.05,0.18,0.08,0.28,0.1c0.1,0.02,0.19,0.03,0.28,0.03c0.12,0,0.22-0.02,0.32-0.05
		c0.09-0.03,0.17-0.07,0.25-0.12C94.8,7.06,94.87,7,94.95,6.94c0.02,0.04,0.04,0.08,0.06,0.13c0.02,0.06,0.03,0.11,0.04,0.17
		c0.01,0.06,0.02,0.12,0.03,0.17c0.01,0.05,0.01,0.1,0.02,0.13c0,0.03,0.01,0.05,0.01,0.05l0.54,0.01c0,0,0-0.03,0-0.08
		c0-0.05-0.01-0.12-0.03-0.22c-0.02-0.1-0.05-0.21-0.1-0.35C95.47,6.83,95.4,6.67,95.31,6.5z"/>
	<path class="st1" d="M100.6,7.17c-0.04,0-0.1-0.01-0.15-0.03c-0.05-0.02-0.1-0.04-0.15-0.06c-0.05-0.02-0.09-0.05-0.12-0.07
		c-0.03-0.02-0.05-0.04-0.06-0.05c0.01-0.01,0.04-0.03,0.07-0.05c0.03-0.02,0.08-0.04,0.12-0.06c0.05-0.02,0.09-0.04,0.14-0.06
		c0.04-0.01,0.08-0.02,0.12-0.02c0.03,0,0.07,0,0.11,0.01c0.04,0.01,0.07,0.03,0.1,0.06c0.03,0.03,0.04,0.08,0.04,0.14
		c0,0.03-0.01,0.06-0.04,0.1c-0.02,0.03-0.05,0.06-0.09,0.08C100.67,7.15,100.63,7.16,100.6,7.17z M99.5,7.37
		c-0.06,0-0.12,0.02-0.16,0.05c-0.05,0.03-0.09,0.07-0.12,0.12c-0.03,0.05-0.04,0.1-0.04,0.17c0,0.06,0.02,0.11,0.05,0.16
		c0.03,0.05,0.07,0.08,0.12,0.11c0.05,0.03,0.1,0.04,0.16,0.04c0.06,0,0.12-0.02,0.16-0.05c0.05-0.03,0.09-0.07,0.11-0.12
		c0.03-0.05,0.04-0.11,0.04-0.17c0-0.06-0.02-0.12-0.05-0.16c-0.03-0.05-0.07-0.08-0.12-0.11C99.62,7.39,99.56,7.37,99.5,7.37z
		 M101.91,4.77h-3.22v0.46h2.11v0.21h-0.84c-0.11,0-0.2,0.02-0.28,0.06c-0.08,0.04-0.15,0.09-0.21,0.16
		c-0.06,0.07-0.1,0.15-0.13,0.24c-0.03,0.09-0.04,0.18-0.04,0.28c0,0.15,0.02,0.29,0.07,0.43c0.04,0.14,0.11,0.27,0.19,0.39
		c0.08,0.12,0.18,0.22,0.29,0.32c0.11,0.09,0.23,0.16,0.36,0.21c0.13,0.05,0.27,0.08,0.41,0.08c0.13,0,0.25-0.03,0.36-0.08
		c0.1-0.06,0.19-0.13,0.25-0.23c0.06-0.09,0.09-0.2,0.09-0.33c0-0.09-0.02-0.17-0.05-0.25c-0.03-0.08-0.08-0.15-0.14-0.21
		c-0.06-0.06-0.13-0.11-0.21-0.14c-0.08-0.03-0.16-0.05-0.26-0.05c-0.07,0-0.14,0.01-0.21,0.03c-0.07,0.02-0.14,0.04-0.21,0.07
		c-0.07,0.03-0.13,0.06-0.18,0.09c-0.05,0.03-0.09,0.06-0.13,0.08c-0.03,0.02-0.05,0.03-0.05,0.03c-0.01-0.01-0.03-0.03-0.05-0.07
		c-0.02-0.03-0.03-0.07-0.05-0.12c-0.01-0.04-0.02-0.09-0.02-0.13c0-0.09,0.02-0.16,0.06-0.21c0.04-0.05,0.09-0.08,0.15-0.1
		c0.06-0.02,0.13-0.03,0.2-0.03h1.13V5.22h0.62V4.77z"/>
</g>
<g>
	<rect x="6.92" y="4.01" class="st1" width="17.8" height="25.46"/>
	<path class="st2" d="M11.86,26.29c-0.07-0.06-0.24-0.18-0.23-0.38c0-0.1,0.07-0.19,0.13-0.25c0.07-0.06,0.17-0.07,0.27-0.07
		c0.13,0,0.24,0.06,0.33,0.18c0.1,0.12,0.19,0.28,0.22,0.53h0.26l0.09,0.21h-0.31v1.62L12.36,28V26.5l-0.32,0v1.61L11.77,28v-0.58
		c-0.02,0.02-0.05,0.03-0.06,0.03c-0.02,0.01-0.03,0.02-0.06,0.02c-0.06,0.02-0.11,0.02-0.15,0.02c-0.08,0-0.24-0.05-0.35-0.14
		c-0.13-0.1-0.19-0.21-0.19-0.31V26.5H10.7l-0.1-0.21H11.86z M13.45,27.83l-0.22,0.22l-0.22-0.23l0.22-0.22L13.45,27.83z
		 M11.77,26.5h-0.55v0.56c0,0.18,0.06,0.26,0.18,0.26c0.05,0,0.11-0.01,0.18-0.04c0.03-0.01,0.06-0.03,0.1-0.04
		c0.03-0.02,0.07-0.04,0.09-0.06V26.5z M12.01,26.3l0.47,0c-0.02-0.18-0.09-0.29-0.17-0.38c-0.08-0.09-0.17-0.12-0.26-0.12
		c-0.12,0.01-0.22,0.08-0.19,0.29C11.88,26.18,11.95,26.26,12.01,26.3z M15.74,26.5c0.22,0.3,0.12,0.39-0.01,0.5
		c-0.02,0.04-0.08,0.03-0.08,0.05c-0.04-0.06-0.09-0.09-0.16-0.07c-0.12,0.02-0.21,0.16-0.19,0.23c0.02,0.05,0.07,0.14,0.17,0.27
		c0.09,0.11,0.34,0.37,0.63,0.7l0.07-0.16l-0.26-0.28c-0.1-0.11-0.16-0.17-0.17-0.18c-0.03-0.03-0.06-0.07-0.1-0.12
		c0,0,0-0.01,0-0.01c0-0.01,0.01-0.01,0.02-0.02c0.01-0.01,0.04-0.02,0.08-0.05c0.03-0.02,0.05-0.04,0.08-0.07l0.07-0.08
		c0.05,0.06,0.12,0.11,0.18,0.14c0.07,0.03,0.14,0.05,0.21,0.05c0.02,0,0.02,0,0.06-0.02c0.04-0.01,0.07-0.02,0.1-0.03
		c0.03-0.01,0.05-0.02,0.06-0.02V28l0.28,0.12V26.5h0.21l-0.1-0.21h-3.3l0.1,0.21h0.22v0.86c0,0.1,0.03,0.19,0.11,0.23l0.99,0.57
		c0.06,0.04,0.09,0.07,0.09,0.1c0,0.02-0.01,0.03-0.02,0.06c-0.01,0.02-0.03,0.04-0.04,0.06l0.17,0.16
		c0.07-0.11,0.11-0.18,0.11-0.22c0-0.04-0.02-0.07-0.04-0.1c-0.02-0.03-0.07-0.07-0.14-0.11l-0.89-0.58
		c-0.01-0.01-0.02-0.02-0.03-0.05c-0.01-0.03-0.01-0.05-0.01-0.08V26.5h0.48v0.77c0,0.04-0.03,0.07-0.1,0.07l-0.19-0.01l0.18,0.17
		l0.12,0.03c0.01,0,0.02,0,0.04,0.01c0.01,0,0.02,0,0.04,0h0.04c0.08,0,0.15-0.05,0.15-0.14V26.5H15.74z M15.91,26.5
		c0.1,0.2,0.13,0.42,0.03,0.61l0.11,0.06c0.06,0.03,0.13,0.04,0.19,0.04c0.02,0,0.04,0,0.07,0c0.02,0,0.01-0.02,0.05-0.04
		c0.07-0.03,0.12-0.05,0.16-0.09V26.5H15.91z M19.05,26.3c-0.06-0.06-0.11-0.19-0.13-0.27c-0.02-0.09,0.01-0.27,0.11-0.34
		c0.07-0.06,0.17-0.1,0.27-0.1c0.13,0,0.24,0.06,0.33,0.18c0.09,0.12,0.16,0.27,0.19,0.52h0.26l0.11,0.21H19.9v1.62L19.61,28V26.5
		h-0.36v1.62L18.99,28v-0.45c-0.06,0.07-0.11,0.09-0.16,0.12c-0.09,0.05-0.23,0.08-0.35,0.08c-0.08,0-0.16-0.01-0.22-0.03
		c-0.07-0.03-0.15-0.07-0.21-0.13c-0.11-0.11-0.17-0.27-0.17-0.4c0-0.09,0.05-0.22,0.13-0.3c0.1-0.11,0.31-0.18,0.47-0.17
		c0.1,0.01,0.23,0.03,0.32,0.09c0.08,0.05,0.12,0.07,0.19,0.17V26.5H17.8l-0.1-0.21L19.05,26.3z M18.73,27.42
		c0.05-0.02,0.06-0.04,0.09-0.08c0.03-0.04,0.05-0.09,0.05-0.13c0-0.1-0.03-0.17-0.09-0.23c-0.05-0.04-0.11-0.07-0.17-0.07h-0.1
		c-0.02,0-0.04,0-0.09,0.02L18.73,27.42z M18.29,27.02c-0.03,0.02-0.05,0.04-0.09,0.1c-0.04,0.06-0.06,0.11-0.06,0.16
		c0,0.08,0.02,0.17,0.08,0.21c0.05,0.03,0.12,0.06,0.2,0.06c0.04,0,0.08,0,0.09-0.01l0.1-0.05L18.29,27.02z M19.18,26.3l0.56,0
		c-0.02-0.18-0.07-0.28-0.15-0.37c-0.08-0.09-0.17-0.15-0.26-0.14C19.11,25.82,19.05,26.12,19.18,26.3z M17.59,27.83l-0.21,0.22
		l-0.22-0.23l0.21-0.22L17.59,27.83z"/>
	<path class="st2" d="M17.15,21l-0.1,0l-0.09,0.02l-0.09,0.02c-0.05,0.02-0.09,0.03-0.13,0.05c-0.04,0.02-0.08,0.04-0.12,0.07
		c-0.04,0.03-0.07,0.05-0.11,0.09c-0.03,0.03-0.06,0.07-0.09,0.1c-0.03,0.04-0.05,0.07-0.08,0.11c-0.02,0.04-0.04,0.08-0.06,0.12
		c-0.02,0.05-0.03,0.09-0.05,0.13l-0.02,0.09l-0.01,0.1v0.1l0.01,0.1l0.02,0.09c0.01,0.05,0.03,0.09,0.05,0.13
		c0.02,0.04,0.04,0.08,0.06,0.12c0.03,0.04,0.05,0.08,0.08,0.11c0.03,0.03,0.06,0.07,0.09,0.1c0.04,0.03,0.07,0.06,0.11,0.09
		c0.04,0.03,0.08,0.05,0.12,0.07c0.04,0.02,0.09,0.03,0.13,0.05l0.09,0.02l0.09,0.02l0.1,0l0.1,0l0.09-0.02
		c0.05-0.01,0.09-0.02,0.14-0.04c0.05-0.02,0.09-0.04,0.13-0.06c0.04-0.02,0.08-0.05,0.12-0.07c0.04-0.03,0.07-0.06,0.11-0.09
		c0.03-0.04,0.06-0.07,0.09-0.11c0.03-0.04,0.05-0.08,0.07-0.12c0.02-0.04,0.04-0.09,0.06-0.13c0.02-0.05,0.03-0.09,0.04-0.14
		l0.02-0.1l0-0.1l0-0.1l-0.02-0.09c-0.01-0.05-0.02-0.09-0.04-0.14c-0.02-0.04-0.04-0.09-0.06-0.13c-0.02-0.04-0.05-0.08-0.07-0.12
		c-0.03-0.04-0.06-0.07-0.09-0.1c-0.04-0.03-0.07-0.06-0.11-0.09c-0.04-0.03-0.08-0.05-0.12-0.08c-0.04-0.02-0.09-0.04-0.13-0.06
		c-0.04-0.02-0.09-0.03-0.14-0.04l-0.09-0.02L17.15,21z M10.94,14.36l0.02-0.26l0.02-0.17l0.03-0.17l0.03-0.17l0.04-0.16l0.05-0.16
		l0.05-0.16l0.06-0.16l0.06-0.16l0.07-0.15l0.07-0.15l0.08-0.14l0.09-0.14l0.09-0.14l0.1-0.14l0.1-0.13l0.1-0.13l0.11-0.12
		l0.11-0.12l0.12-0.12l0.12-0.11l0.13-0.11l0.13-0.1l0.14-0.1l0.14-0.09l0.14-0.09l0.14-0.08l0.15-0.08l0.15-0.07l0.16-0.07
		l0.16-0.06l0.22-0.08V9.31h0.06l0.14-0.01l0.14-0.02l0.14-0.02l0.13-0.03l0.13-0.04l0.13-0.04l0.12-0.05l0.12-0.05L15.38,9
		l0.12-0.06l0.11-0.07l0.11-0.07l0.11-0.08l0.11-0.08l0.1-0.09l0.1-0.09l0.1-0.09l0.09-0.09l0.09-0.1l0.09-0.1l0.09-0.1l0.08-0.11
		l0.16-0.21l0.14-0.22l0.13-0.22L17.22,7l0.05-0.11l0.2-0.27l0.19-0.25l0.1-0.12l0.1-0.11l0.09-0.11l0.1-0.1l0.1-0.09l0.1-0.09
		l0.1-0.08l0.1-0.08l0.1-0.07l0.1-0.07l0.1-0.06l0.11-0.05l0.11-0.05l0.11-0.05l0.11-0.04l0.12-0.04l0.12-0.04l0.13-0.03l0.13-0.03
		l0.14-0.02l0.14-0.02l0.15-0.02l0.16-0.02l0.32-0.02c0.15-0.01,0.3-0.01,0.45-0.02v2.26l-0.1-0.02l-0.1-0.01l-0.1-0.01h-0.1
		l-0.09,0l-0.09,0.01L20.38,7.2l-0.09,0.02L20.2,7.24l-0.08,0.03L20.03,7.3l-0.08,0.03l-0.08,0.04L19.8,7.41l-0.07,0.04L19.65,7.5
		l-0.07,0.05l-0.13,0.11l-0.12,0.12L19.21,7.9l-0.1,0.13l-0.1,0.14l-0.09,0.14l-0.07,0.15c-0.14,0.25-0.27,0.5-0.41,0.75
		c-0.05,0.08-0.1,0.16-0.16,0.25c-0.04,0.06-0.09,0.12-0.13,0.17C18.1,9.69,18.05,9.75,18,9.8L17.9,9.91
		c-0.06,0.05-0.12,0.1-0.18,0.15l-0.13,0.09l-0.14,0.09l-0.08,0.04l-0.23,0.12l0.3,0.14l0.14,0.07l0.14,0.08l0.14,0.08L18,10.87
		l0.13,0.09l0.13,0.1l0.12,0.1l0.12,0.11l0.12,0.11l0.11,0.11l0.11,0.12l0.11,0.12l0.1,0.12l0.1,0.13l0.09,0.13l0.09,0.14l0.08,0.14
		l0.08,0.14l0.07,0.15l0.07,0.15l0.06,0.15l0.06,0.15l0.05,0.16l0.05,0.16l0.04,0.16l0.04,0.16l0.03,0.16l0.02,0.17l0.02,0.17
		l0.01,0.17l0,0.17l0,0.18l-0.01,0.17l-0.02,0.17l-0.02,0.17l-0.03,0.17l-0.04,0.17l-0.04,0.16l-0.05,0.16l-0.05,0.16l-0.06,0.16
		l-0.06,0.15l-0.07,0.15l-0.07,0.15l-0.08,0.14l-0.09,0.14l-0.09,0.14l-0.09,0.13l-0.1,0.13l-0.1,0.13l-0.11,0.12l-0.11,0.12
		l-0.12,0.12l-0.12,0.11l-0.12,0.11l-0.13,0.1l-0.13,0.1l-0.14,0.09l-0.14,0.09l-0.14,0.08l-0.15,0.08l-0.15,0.07l-0.49,0.21
		l0.52,0.03l0.15,0.01l0.15,0.02l0.14,0.03l0.14,0.04l0.14,0.04l0.14,0.05l0.13,0.06l0.13,0.06l0.12,0.07l0.12,0.07l0.12,0.08
		l0.11,0.09l0.11,0.09l0.1,0.09l0.1,0.1l0.1,0.1l0.09,0.11l0.09,0.11l0.08,0.12l0.08,0.12l0.07,0.12l0.06,0.13l0.06,0.13l0.05,0.13
		l0.05,0.14l0.04,0.14l0.03,0.14l0.03,0.14l0.02,0.15l0.01,0.15l0,0.15l0,0.15l-0.01,0.15l-0.02,0.15l-0.03,0.15l-0.03,0.14
		l-0.04,0.14l-0.05,0.14l-0.05,0.14l-0.06,0.13l-0.07,0.13l-0.07,0.13l-0.08,0.12l-0.08,0.12l-0.09,0.11l-0.09,0.11l-0.1,0.11
		l-0.11,0.1l-0.11,0.1l-0.11,0.09l-0.12,0.09l-0.12,0.08l-0.12,0.07l-0.13,0.07l-0.13,0.06l-0.14,0.05l-0.14,0.05l-0.14,0.04
		l-0.14,0.03l-0.15,0.03l-0.15,0.02l-0.15,0.01l-0.15,0l-0.15,0l-0.15-0.01l-0.15-0.02l-0.14-0.03l-0.14-0.03l-0.14-0.04l-0.14-0.05
		l-0.13-0.05l-0.13-0.06l-0.13-0.06l-0.12-0.07l-0.12-0.07l-0.12-0.08l-0.11-0.09l-0.11-0.09l-0.11-0.1l-0.1-0.1l-0.09-0.11
		l-0.09-0.11l-0.09-0.11l-0.08-0.12l-0.07-0.12l-0.07-0.12l-0.06-0.13l-0.06-0.13l-0.05-0.13l-0.04-0.14l-0.04-0.14l-0.03-0.14
		l-0.02-0.14l-0.02-0.15l-0.01-0.19v-7.67h2.04v2.51l0.2-0.08l0.16-0.08l0.15-0.09l0.15-0.1l0.14-0.11l0.13-0.12l0.12-0.13
		l0.11-0.14l0.1-0.14l0.09-0.15l0.08-0.16l0.07-0.17l0.03-0.08l0.05-0.17l0.02-0.09l0.02-0.09l0.01-0.09l0.01-0.09l0-0.09l0-0.09
		l0-0.12l-0.01-0.12l-0.02-0.12l-0.02-0.12l-0.03-0.11l-0.03-0.11l-0.04-0.11l-0.04-0.11l-0.05-0.1l-0.05-0.1l-0.06-0.1l-0.06-0.1
		l-0.07-0.09l-0.07-0.09l-0.07-0.09l-0.08-0.08l-0.08-0.08l-0.09-0.07l-0.09-0.07l-0.09-0.07l-0.1-0.06l-0.1-0.06l-0.1-0.05
		l-0.1-0.05l-0.11-0.04l-0.11-0.04l-0.11-0.03l-0.11-0.03l-0.12-0.02l-0.12-0.02l-0.12-0.01l-0.12,0l-0.11,0l-0.11,0.01l-0.11,0.01
		l-0.11,0.02l-0.11,0.02l-0.1,0.03l-0.1,0.03l-0.1,0.03l-0.1,0.04l-0.09,0.04l-0.09,0.05l-0.09,0.05l-0.09,0.06l-0.09,0.06
		l-0.08,0.06l-0.08,0.07l-0.08,0.07l-0.07,0.07l-0.07,0.08l-0.07,0.08l-0.06,0.08L13.5,13.3l-0.06,0.09l-0.05,0.09l-0.05,0.09
		l-0.04,0.09l-0.04,0.1l-0.04,0.1l-0.03,0.1l-0.03,0.1l-0.02,0.11l-0.02,0.11v10.71h-2.18L10.94,14.36L10.94,14.36z"/>
</g>
<rect x="0.77" y="32.42" class="st1" width="144.14" height="7.99"/>
<g>
	<path class="st2" d="M99.62,35.76l-0.35,1.34c-0.17,0.63-0.33,1.09-0.49,1.38c-0.16,0.28-0.35,0.5-0.56,0.63
		c-0.21,0.14-0.45,0.21-0.73,0.21c-0.17,0-0.3-0.03-0.38-0.09c-0.08-0.06-0.12-0.14-0.12-0.22c0-0.08,0.03-0.15,0.1-0.21
		c0.07-0.06,0.15-0.09,0.26-0.09c0.09,0,0.16,0.02,0.21,0.07c0.05,0.05,0.07,0.1,0.07,0.17c0,0.06-0.01,0.11-0.05,0.14
		c-0.03,0.03-0.05,0.05-0.05,0.06l0.01,0.02c0.01,0.01,0.03,0.01,0.04,0.01c0.06,0,0.11-0.02,0.15-0.06
		c0.11-0.09,0.19-0.2,0.24-0.33c0.04-0.09,0.1-0.32,0.21-0.71l0.62-2.32h-0.42l0.1-0.34c0.15,0,0.26-0.02,0.33-0.06
		c0.07-0.04,0.14-0.13,0.22-0.26c0.22-0.39,0.46-0.67,0.71-0.85c0.25-0.17,0.53-0.25,0.83-0.25c0.19,0,0.34,0.04,0.43,0.11
		c0.09,0.07,0.13,0.17,0.13,0.28c0,0.1-0.03,0.18-0.09,0.24c-0.06,0.06-0.13,0.09-0.22,0.09c-0.08,0-0.15-0.02-0.2-0.07
		c-0.05-0.05-0.08-0.1-0.08-0.17c0-0.05,0.02-0.1,0.05-0.15c0.03-0.06,0.05-0.09,0.05-0.11c0-0.02-0.01-0.04-0.02-0.05
		c-0.01-0.01-0.03-0.02-0.06-0.02c-0.12,0-0.24,0.07-0.37,0.21c-0.21,0.23-0.37,0.58-0.5,1.07h0.44l-0.11,0.34H99.62z M96.8,35.49
		c-0.11,0-0.2,0.03-0.27,0.09c-0.14,0.12-0.3,0.41-0.48,0.85c-0.18,0.45-0.27,0.85-0.27,1.21c0,0.09,0.03,0.16,0.08,0.22
		c0.06,0.06,0.12,0.09,0.2,0.09c0.08,0,0.15-0.03,0.21-0.07c0.09-0.07,0.2-0.22,0.33-0.47c0.13-0.24,0.24-0.51,0.32-0.8
		c0.08-0.29,0.12-0.56,0.12-0.81c0-0.1-0.03-0.18-0.08-0.23C96.92,35.52,96.86,35.49,96.8,35.49z M96.92,35.34
		c0.16,0,0.31,0.03,0.45,0.1c0.14,0.07,0.25,0.17,0.32,0.3c0.07,0.13,0.11,0.26,0.11,0.42c0,0.32-0.09,0.63-0.28,0.94
		c-0.18,0.31-0.43,0.56-0.73,0.74c-0.3,0.18-0.6,0.27-0.91,0.27c-0.27,0-0.49-0.08-0.64-0.23c-0.15-0.16-0.23-0.35-0.23-0.58
		c0-0.27,0.06-0.52,0.17-0.76c0.11-0.24,0.25-0.44,0.43-0.62c0.17-0.17,0.37-0.32,0.6-0.42C96.45,35.39,96.68,35.34,96.92,35.34z
		 M90.67,35.6l0.94-0.26c0.07,0.09,0.13,0.17,0.16,0.25c0.06,0.14,0.09,0.33,0.11,0.57c0.04,0.48,0.07,0.98,0.09,1.52
		c0.22-0.27,0.47-0.63,0.75-1.08c0.08-0.13,0.13-0.26,0.13-0.38c0-0.08-0.05-0.15-0.15-0.22c-0.1-0.07-0.16-0.12-0.18-0.16
		c-0.03-0.04-0.04-0.09-0.04-0.15c0-0.1,0.04-0.18,0.11-0.25c0.07-0.07,0.16-0.11,0.27-0.11c0.11,0,0.21,0.04,0.29,0.12
		c0.08,0.08,0.12,0.18,0.12,0.29c0,0.13-0.04,0.28-0.11,0.45c-0.08,0.17-0.25,0.46-0.53,0.88c-0.36,0.53-0.71,0.99-1.05,1.38
		c-0.22,0.25-0.4,0.43-0.54,0.53c-0.14,0.11-0.28,0.2-0.42,0.26c-0.09,0.04-0.17,0.06-0.26,0.06c-0.12,0-0.21-0.04-0.3-0.12
		c-0.08-0.08-0.12-0.17-0.12-0.28s0.04-0.2,0.11-0.27c0.08-0.07,0.16-0.11,0.26-0.11c0.13,0,0.24,0.06,0.34,0.19
		c0.07,0.08,0.12,0.12,0.17,0.12c0.05,0,0.09-0.01,0.14-0.04c0.06-0.03,0.15-0.1,0.25-0.22c0.01-0.24,0.02-0.42,0.02-0.55
		c0-0.17-0.01-0.4-0.02-0.7l-0.05-1.11c-0.02-0.2-0.06-0.35-0.14-0.44c-0.06-0.07-0.13-0.1-0.22-0.1c-0.03,0-0.07,0-0.12,0.01V35.6z
		 M89.4,35.93c0-0.16-0.02-0.27-0.08-0.34c-0.04-0.05-0.09-0.07-0.15-0.07c-0.06,0-0.13,0.03-0.19,0.09
		c-0.14,0.12-0.28,0.36-0.44,0.73c-0.16,0.37-0.24,0.68-0.24,0.95c0,0.1,0.02,0.18,0.05,0.22c0.03,0.05,0.08,0.07,0.12,0.07
		c0.09,0,0.18-0.05,0.28-0.15c0.13-0.14,0.26-0.32,0.36-0.53C89.31,36.53,89.4,36.21,89.4,35.93z M90.38,35.38l-0.59,1.93
		l-0.06,0.24c-0.01,0.03-0.01,0.05-0.01,0.06c0,0.02,0.01,0.04,0.03,0.06c0.02,0.02,0.03,0.03,0.05,0.03c0.04,0,0.1-0.03,0.18-0.09
		c0.03-0.03,0.11-0.12,0.22-0.27l0.11,0.05c-0.14,0.25-0.3,0.44-0.46,0.55c-0.16,0.12-0.34,0.17-0.53,0.17
		c-0.12,0-0.21-0.03-0.26-0.08c-0.06-0.06-0.09-0.13-0.09-0.22c0-0.07,0.03-0.21,0.1-0.42l0.07-0.24c-0.24,0.39-0.46,0.66-0.68,0.82
		c-0.13,0.09-0.26,0.14-0.4,0.14c-0.19,0-0.32-0.07-0.4-0.22s-0.12-0.31-0.12-0.49c0-0.27,0.09-0.58,0.26-0.94
		c0.17-0.35,0.4-0.64,0.69-0.85c0.24-0.18,0.45-0.27,0.66-0.27c0.11,0,0.21,0.03,0.28,0.09c0.07,0.06,0.12,0.18,0.15,0.35l0.11-0.36
		L90.38,35.38z M85.91,35.34l0.22,2.04c0.31-0.29,0.51-0.52,0.6-0.68c0.09-0.17,0.14-0.31,0.14-0.42c0-0.04-0.01-0.08-0.03-0.13
		c-0.02-0.04-0.06-0.1-0.12-0.18c-0.06-0.08-0.1-0.12-0.1-0.14c-0.01-0.04-0.02-0.08-0.02-0.13c0-0.1,0.03-0.18,0.11-0.25
		c0.07-0.07,0.16-0.1,0.27-0.1c0.11,0,0.19,0.03,0.26,0.1c0.09,0.1,0.13,0.22,0.13,0.35c0,0.21-0.11,0.5-0.32,0.84
		c-0.21,0.35-0.71,0.84-1.47,1.47h-0.12l-0.19-1.78l-1.31,1.78h-0.13c0.03-0.54,0.04-1.04,0.04-1.51c0-0.31-0.02-0.53-0.05-0.66
		c-0.02-0.08-0.06-0.14-0.11-0.18c-0.05-0.04-0.11-0.06-0.17-0.06c-0.03,0-0.07,0-0.12,0.01V35.6l1.05-0.26
		c0.06,0.15,0.1,0.29,0.12,0.43c0.03,0.21,0.05,0.44,0.05,0.72c0,0.1-0.01,0.24-0.01,0.44l1.18-1.58H85.91z M80.53,35.93
		c0-0.16-0.03-0.27-0.08-0.34c-0.04-0.05-0.09-0.07-0.15-0.07c-0.06,0-0.13,0.03-0.19,0.09c-0.14,0.12-0.28,0.36-0.44,0.73
		c-0.16,0.37-0.24,0.68-0.24,0.95c0,0.1,0.02,0.18,0.05,0.22c0.03,0.05,0.08,0.07,0.12,0.07c0.09,0,0.18-0.05,0.28-0.15
		c0.13-0.14,0.26-0.32,0.36-0.53C80.43,36.53,80.53,36.21,80.53,35.93z M81.5,35.38l-0.59,1.93l-0.06,0.24
		c-0.01,0.03-0.01,0.05-0.01,0.06c0,0.02,0.01,0.04,0.03,0.06c0.02,0.02,0.04,0.03,0.05,0.03c0.04,0,0.1-0.03,0.18-0.09
		c0.03-0.03,0.1-0.12,0.22-0.27l0.11,0.05c-0.14,0.25-0.3,0.44-0.46,0.55c-0.16,0.12-0.34,0.17-0.53,0.17
		c-0.11,0-0.2-0.03-0.26-0.08c-0.06-0.06-0.09-0.13-0.09-0.22c0-0.07,0.03-0.21,0.1-0.42l0.07-0.24c-0.24,0.39-0.46,0.66-0.68,0.82
		c-0.13,0.09-0.26,0.14-0.4,0.14c-0.19,0-0.32-0.07-0.4-0.22c-0.08-0.15-0.12-0.31-0.12-0.49c0-0.27,0.09-0.58,0.26-0.94
		c0.18-0.35,0.41-0.64,0.69-0.85c0.23-0.18,0.45-0.27,0.66-0.27c0.11,0,0.2,0.03,0.27,0.09c0.07,0.06,0.12,0.18,0.15,0.35l0.11-0.36
		L81.5,35.38z M76.81,35.34l-0.13,0.9h-0.11c-0.01-0.23-0.09-0.42-0.22-0.55c-0.13-0.13-0.28-0.2-0.43-0.2
		c-0.09,0-0.17,0.03-0.23,0.08c-0.06,0.05-0.09,0.11-0.09,0.19c0,0.06,0.01,0.12,0.04,0.17c0.03,0.05,0.09,0.13,0.18,0.22
		c0.32,0.33,0.51,0.55,0.59,0.68c0.07,0.12,0.1,0.26,0.1,0.4c0,0.15-0.04,0.3-0.12,0.44c-0.08,0.14-0.2,0.25-0.37,0.33
		c-0.16,0.08-0.33,0.12-0.5,0.12c-0.12,0-0.26-0.02-0.43-0.07c-0.12-0.03-0.2-0.05-0.26-0.05c-0.05,0-0.09,0.01-0.12,0.02
		c-0.03,0.01-0.06,0.04-0.1,0.09h-0.11l0.15-0.97h0.1c0.07,0.24,0.14,0.4,0.2,0.5c0.06,0.1,0.14,0.18,0.25,0.24
		c0.1,0.06,0.2,0.09,0.3,0.09c0.11,0,0.2-0.03,0.28-0.1c0.07-0.07,0.11-0.15,0.11-0.24c0-0.09-0.02-0.18-0.07-0.26
		c-0.05-0.08-0.16-0.22-0.33-0.4c-0.24-0.25-0.39-0.44-0.47-0.57c-0.05-0.1-0.08-0.21-0.08-0.33c0-0.21,0.08-0.38,0.24-0.52
		c0.16-0.14,0.38-0.21,0.67-0.21c0.12,0,0.28,0.02,0.46,0.06c0.09,0.02,0.17,0.03,0.22,0.03c0.08,0,0.14-0.03,0.19-0.1H76.81z
		 M74.35,35.34l-0.62,2.06c-0.03,0.12-0.05,0.19-0.05,0.23c0,0.02,0.01,0.04,0.03,0.06c0.02,0.02,0.04,0.03,0.06,0.03
		c0.03,0,0.07-0.01,0.1-0.04c0.09-0.07,0.2-0.2,0.33-0.39l0.1,0.06c-0.31,0.51-0.63,0.76-0.98,0.76c-0.13,0-0.24-0.04-0.32-0.11
		c-0.08-0.07-0.12-0.16-0.12-0.27c0-0.07,0.02-0.16,0.05-0.27l0.42-1.39c0.04-0.13,0.06-0.23,0.06-0.3c0-0.04-0.02-0.08-0.06-0.11
		c-0.04-0.03-0.09-0.05-0.16-0.05c-0.03,0-0.07,0-0.11,0l0.04-0.12l1.03-0.16H74.35z M74.16,34c0.13,0,0.23,0.04,0.32,0.12
		c0.09,0.08,0.13,0.18,0.13,0.3c0,0.12-0.04,0.22-0.13,0.3c-0.09,0.08-0.19,0.12-0.31,0.12c-0.12,0-0.23-0.04-0.31-0.12
		c-0.09-0.08-0.13-0.19-0.13-0.3c0-0.12,0.04-0.22,0.13-0.3C73.93,34.04,74.04,34,74.16,34z M69.39,36.79
		c0.18-0.03,0.32-0.06,0.42-0.1c0.1-0.04,0.19-0.11,0.29-0.21c0.09-0.1,0.18-0.22,0.24-0.36c0.07-0.15,0.1-0.28,0.1-0.41
		c0-0.05-0.02-0.1-0.05-0.13c-0.03-0.03-0.07-0.04-0.12-0.04c-0.1,0-0.21,0.06-0.33,0.19C69.73,35.96,69.54,36.31,69.39,36.79z
		 M69.37,36.94c-0.02,0.13-0.03,0.23-0.03,0.31c0,0.15,0.05,0.26,0.13,0.35s0.2,0.13,0.35,0.13c0.14,0,0.28-0.03,0.43-0.1
		c0.14-0.07,0.31-0.18,0.5-0.35l0.09,0.08c-0.23,0.27-0.46,0.46-0.68,0.58c-0.22,0.11-0.46,0.17-0.73,0.17
		c-0.34,0-0.57-0.08-0.7-0.23c-0.13-0.16-0.19-0.33-0.19-0.54c0-0.32,0.1-0.64,0.29-0.95c0.19-0.32,0.46-0.57,0.79-0.76
		c0.33-0.19,0.67-0.29,1.01-0.29c0.17,0,0.3,0.04,0.39,0.12c0.09,0.08,0.13,0.18,0.13,0.29c0,0.14-0.04,0.28-0.13,0.41
		c-0.12,0.18-0.27,0.33-0.44,0.44c-0.18,0.11-0.38,0.2-0.6,0.25C69.82,36.89,69.62,36.92,69.37,36.94z M67.97,37.33l0.09,0.08
		c-0.2,0.22-0.39,0.39-0.58,0.49c-0.25,0.14-0.52,0.21-0.79,0.21c-0.18,0-0.34-0.04-0.49-0.11c-0.14-0.08-0.24-0.18-0.31-0.31
		c-0.07-0.13-0.1-0.27-0.1-0.41c0-0.32,0.09-0.63,0.27-0.94c0.18-0.31,0.42-0.55,0.71-0.73c0.3-0.18,0.59-0.27,0.87-0.27
		c0.23,0,0.4,0.05,0.52,0.15c0.12,0.1,0.17,0.22,0.17,0.36c0,0.13-0.04,0.24-0.13,0.33c-0.09,0.09-0.18,0.14-0.29,0.14
		c-0.09,0-0.17-0.03-0.23-0.09c-0.06-0.06-0.09-0.13-0.09-0.21c0-0.1,0.05-0.2,0.16-0.27c0.08-0.06,0.11-0.1,0.11-0.14
		c0-0.03-0.01-0.06-0.05-0.08c-0.04-0.03-0.09-0.05-0.16-0.05c-0.17,0-0.33,0.06-0.48,0.2c-0.2,0.17-0.35,0.4-0.46,0.66
		c-0.11,0.27-0.16,0.52-0.16,0.76c0,0.19,0.06,0.34,0.16,0.45c0.11,0.11,0.24,0.17,0.38,0.17c0.13,0,0.27-0.03,0.42-0.1
		C67.69,37.55,67.83,37.46,67.97,37.33z M65.48,35.34l-0.62,2.06c-0.03,0.12-0.05,0.19-0.05,0.23c0,0.02,0.01,0.04,0.03,0.06
		c0.02,0.02,0.04,0.03,0.06,0.03c0.03,0,0.07-0.01,0.1-0.04c0.09-0.07,0.2-0.2,0.33-0.39l0.1,0.06c-0.31,0.51-0.63,0.76-0.98,0.76
		c-0.13,0-0.24-0.04-0.31-0.11c-0.08-0.07-0.12-0.16-0.12-0.27c0-0.07,0.02-0.16,0.05-0.27l0.42-1.39c0.04-0.13,0.06-0.23,0.06-0.3
		c0-0.04-0.02-0.08-0.06-0.11c-0.04-0.03-0.09-0.05-0.16-0.05c-0.03,0-0.07,0-0.11,0l0.04-0.12l1.03-0.16H65.48z M65.29,34
		c0.13,0,0.23,0.04,0.32,0.12c0.09,0.08,0.13,0.18,0.13,0.3c0,0.12-0.04,0.22-0.13,0.3c-0.09,0.08-0.19,0.12-0.32,0.12
		c-0.12,0-0.23-0.04-0.31-0.12c-0.09-0.08-0.13-0.19-0.13-0.3c0-0.12,0.04-0.22,0.13-0.3C65.06,34.04,65.17,34,65.29,34z
		 M61.98,38.11h-0.11c0.01-0.16,0.01-0.28,0.01-0.36c0-0.22-0.02-0.54-0.05-0.96c-0.04-0.42-0.08-0.69-0.12-0.83
		c-0.03-0.1-0.08-0.18-0.14-0.22c-0.04-0.03-0.09-0.05-0.15-0.05c-0.03,0-0.08,0-0.12,0.01v-0.1l1.01-0.26
		c0.2,0.53,0.3,1.21,0.29,2.03c0.3-0.27,0.5-0.49,0.61-0.66c0.11-0.17,0.17-0.31,0.17-0.42c0-0.09-0.03-0.18-0.1-0.27
		c-0.07-0.09-0.11-0.16-0.13-0.2c-0.02-0.04-0.03-0.08-0.03-0.13c0-0.1,0.03-0.18,0.1-0.25c0.07-0.07,0.16-0.1,0.26-0.1
		c0.11,0,0.2,0.03,0.26,0.1c0.09,0.09,0.13,0.21,0.13,0.34c0,0.13-0.02,0.26-0.07,0.39c-0.05,0.13-0.13,0.28-0.26,0.45
		c-0.12,0.18-0.26,0.33-0.4,0.48C62.88,37.36,62.49,37.7,61.98,38.11z M60.18,35.34l-0.46,1.63c0.38-0.8,0.66-1.28,0.85-1.47
		c0.11-0.11,0.23-0.16,0.35-0.16c0.09,0,0.15,0.03,0.21,0.09c0.05,0.06,0.08,0.14,0.08,0.25c0,0.19-0.05,0.35-0.14,0.47
		c-0.06,0.08-0.13,0.12-0.2,0.12c-0.08,0-0.14-0.04-0.18-0.11c-0.04-0.07-0.07-0.11-0.09-0.12c-0.02-0.01-0.03-0.02-0.05-0.02
		c-0.02,0-0.04,0.01-0.06,0.02c-0.05,0.02-0.1,0.08-0.18,0.17c-0.07,0.09-0.16,0.24-0.27,0.45c-0.1,0.21-0.19,0.39-0.24,0.53
		c-0.06,0.15-0.14,0.42-0.25,0.83h-0.74l0.5-1.92c0.04-0.14,0.06-0.24,0.06-0.28c0-0.05-0.01-0.09-0.03-0.12
		c-0.02-0.03-0.04-0.05-0.08-0.06c-0.03-0.01-0.1-0.02-0.21-0.02l0.03-0.08l0.92-0.19H60.18z M56.93,36.79
		c0.18-0.03,0.32-0.06,0.42-0.1c0.1-0.04,0.19-0.11,0.29-0.21c0.09-0.1,0.18-0.22,0.24-0.36c0.07-0.15,0.1-0.28,0.1-0.41
		c0-0.05-0.02-0.1-0.05-0.13c-0.03-0.03-0.07-0.04-0.12-0.04c-0.1,0-0.21,0.06-0.33,0.19C57.27,35.96,57.08,36.31,56.93,36.79z
		 M56.91,36.94c-0.02,0.13-0.03,0.23-0.03,0.31c0,0.15,0.05,0.26,0.13,0.35c0.09,0.09,0.2,0.13,0.35,0.13c0.14,0,0.28-0.03,0.43-0.1
		c0.14-0.07,0.31-0.18,0.5-0.35l0.09,0.08c-0.23,0.27-0.46,0.46-0.68,0.58c-0.22,0.11-0.46,0.17-0.73,0.17
		c-0.34,0-0.57-0.08-0.7-0.23c-0.13-0.16-0.19-0.33-0.19-0.54c0-0.32,0.1-0.64,0.29-0.95c0.19-0.32,0.46-0.57,0.79-0.76
		c0.33-0.19,0.67-0.29,1.01-0.29c0.17,0,0.3,0.04,0.39,0.12c0.09,0.08,0.13,0.18,0.13,0.29c0,0.14-0.04,0.28-0.13,0.41
		c-0.12,0.18-0.27,0.33-0.44,0.44c-0.18,0.11-0.38,0.2-0.6,0.25C57.35,36.89,57.16,36.92,56.91,36.94z M55.82,35.34l-0.13,0.9h-0.11
		c-0.02-0.23-0.09-0.42-0.22-0.55c-0.13-0.13-0.28-0.2-0.43-0.2c-0.1,0-0.17,0.03-0.23,0.08c-0.06,0.05-0.09,0.11-0.09,0.19
		c0,0.06,0.01,0.12,0.04,0.17c0.03,0.05,0.08,0.13,0.18,0.22c0.32,0.33,0.51,0.55,0.58,0.68c0.07,0.12,0.1,0.26,0.1,0.4
		c0,0.15-0.04,0.3-0.12,0.44c-0.08,0.14-0.2,0.25-0.36,0.33c-0.16,0.08-0.33,0.12-0.5,0.12c-0.12,0-0.26-0.02-0.43-0.07
		c-0.12-0.03-0.2-0.05-0.26-0.05c-0.05,0-0.09,0.01-0.12,0.02c-0.03,0.01-0.06,0.04-0.1,0.09H53.5l0.15-0.97h0.1
		c0.07,0.24,0.14,0.4,0.2,0.5c0.06,0.1,0.15,0.18,0.25,0.24c0.1,0.06,0.2,0.09,0.3,0.09c0.11,0,0.2-0.03,0.28-0.1
		c0.07-0.07,0.11-0.15,0.11-0.24c0-0.09-0.02-0.18-0.07-0.26c-0.05-0.08-0.16-0.22-0.33-0.4c-0.24-0.25-0.39-0.44-0.47-0.57
		c-0.05-0.1-0.08-0.21-0.08-0.33c0-0.21,0.08-0.38,0.24-0.52c0.16-0.14,0.38-0.21,0.67-0.21c0.13,0,0.28,0.02,0.46,0.06
		c0.09,0.02,0.17,0.03,0.22,0.03c0.08,0,0.14-0.03,0.19-0.1H55.82z M50.14,36.79c0.18-0.03,0.32-0.06,0.42-0.1
		c0.1-0.04,0.19-0.11,0.29-0.21c0.09-0.1,0.18-0.22,0.25-0.36c0.07-0.15,0.1-0.28,0.1-0.41c0-0.05-0.02-0.1-0.05-0.13
		c-0.03-0.03-0.07-0.04-0.12-0.04c-0.1,0-0.21,0.06-0.33,0.19C50.48,35.96,50.29,36.31,50.14,36.79z M50.11,36.94
		c-0.02,0.13-0.03,0.23-0.03,0.31c0,0.15,0.04,0.26,0.13,0.35c0.09,0.09,0.21,0.13,0.35,0.13c0.14,0,0.28-0.03,0.43-0.1
		c0.14-0.07,0.31-0.18,0.5-0.35l0.09,0.08c-0.23,0.27-0.46,0.46-0.68,0.58c-0.22,0.11-0.47,0.17-0.73,0.17
		c-0.34,0-0.58-0.08-0.71-0.23c-0.13-0.16-0.19-0.33-0.19-0.54c0-0.32,0.1-0.64,0.29-0.95c0.19-0.32,0.46-0.57,0.79-0.76
		c0.33-0.19,0.67-0.29,1.01-0.29c0.17,0,0.3,0.04,0.39,0.12c0.09,0.08,0.13,0.18,0.13,0.29c0,0.14-0.04,0.28-0.13,0.41
		c-0.12,0.18-0.27,0.33-0.44,0.44c-0.18,0.11-0.38,0.2-0.6,0.25C50.56,36.89,50.36,36.92,50.11,36.94z M48.19,35.34l-0.46,1.63
		c0.38-0.8,0.66-1.28,0.85-1.47c0.11-0.11,0.23-0.16,0.35-0.16c0.08,0,0.15,0.03,0.21,0.09c0.05,0.06,0.08,0.14,0.08,0.25
		c0,0.19-0.05,0.35-0.15,0.47c-0.06,0.08-0.13,0.12-0.2,0.12c-0.08,0-0.14-0.04-0.18-0.11c-0.04-0.07-0.07-0.11-0.09-0.12
		c-0.01-0.01-0.03-0.02-0.05-0.02c-0.02,0-0.04,0.01-0.06,0.02c-0.04,0.02-0.1,0.08-0.17,0.17c-0.07,0.09-0.16,0.24-0.27,0.45
		c-0.1,0.21-0.19,0.39-0.25,0.53c-0.06,0.15-0.14,0.42-0.24,0.83h-0.74l0.5-1.92c0.03-0.14,0.06-0.24,0.06-0.28
		c0-0.05-0.01-0.09-0.03-0.12c-0.02-0.03-0.05-0.05-0.08-0.06c-0.03-0.01-0.1-0.02-0.21-0.02l0.03-0.08l0.92-0.19H48.19z
		 M44.95,36.79c0.18-0.03,0.32-0.06,0.41-0.1c0.1-0.04,0.19-0.11,0.29-0.21c0.1-0.1,0.18-0.22,0.25-0.36
		c0.07-0.15,0.1-0.28,0.1-0.41c0-0.05-0.02-0.1-0.05-0.13c-0.03-0.03-0.07-0.04-0.12-0.04c-0.1,0-0.21,0.06-0.33,0.19
		C45.28,35.96,45.09,36.31,44.95,36.79z M44.92,36.94c-0.02,0.13-0.03,0.23-0.03,0.31c0,0.15,0.04,0.26,0.13,0.35
		c0.09,0.09,0.21,0.13,0.35,0.13c0.14,0,0.28-0.03,0.43-0.1c0.14-0.07,0.31-0.18,0.5-0.35l0.09,0.08c-0.23,0.27-0.46,0.46-0.68,0.58
		c-0.22,0.11-0.47,0.17-0.73,0.17c-0.34,0-0.58-0.08-0.71-0.23c-0.13-0.16-0.19-0.33-0.19-0.54c0-0.32,0.1-0.64,0.29-0.95
		c0.19-0.32,0.46-0.57,0.79-0.76c0.34-0.19,0.67-0.29,1.01-0.29c0.17,0,0.3,0.04,0.39,0.12c0.09,0.08,0.13,0.18,0.13,0.29
		c0,0.14-0.04,0.28-0.13,0.41c-0.12,0.18-0.27,0.33-0.44,0.44c-0.18,0.11-0.38,0.2-0.6,0.25C45.37,36.89,45.17,36.92,44.92,36.94z
		 M42.53,34l-0.79,2.61c0.27-0.38,0.47-0.64,0.6-0.78c0.18-0.2,0.34-0.33,0.48-0.4c0.13-0.07,0.26-0.1,0.38-0.1
		c0.1,0,0.19,0.04,0.27,0.11c0.07,0.08,0.11,0.17,0.11,0.3c0,0.11-0.02,0.24-0.07,0.39l-0.39,1.24c-0.03,0.11-0.05,0.18-0.05,0.22
		c0,0.02,0.01,0.03,0.02,0.05c0.01,0.01,0.03,0.02,0.05,0.02c0.02,0,0.05-0.01,0.07-0.03c0.06-0.05,0.13-0.12,0.21-0.23
		c0.02-0.03,0.05-0.07,0.09-0.12l0.12,0.07c-0.17,0.27-0.34,0.46-0.5,0.57c-0.16,0.1-0.3,0.15-0.44,0.15c-0.12,0-0.22-0.03-0.3-0.09
		c-0.07-0.06-0.1-0.14-0.1-0.23c0-0.08,0.02-0.21,0.07-0.36l0.38-1.24c0.02-0.08,0.03-0.15,0.03-0.19c0-0.02-0.01-0.04-0.03-0.06
		c-0.02-0.01-0.04-0.03-0.06-0.03c-0.07,0-0.17,0.06-0.3,0.18c-0.26,0.24-0.53,0.61-0.79,1.12l-0.27,0.86h-0.75l1-3.28
		c0.04-0.14,0.06-0.24,0.06-0.3c0-0.05-0.02-0.09-0.06-0.11c-0.05-0.04-0.13-0.05-0.24-0.05l0.02-0.12L42.34,34H42.53z M35.75,38.12
		l0.28-3.37c0.01-0.1,0.01-0.18,0.01-0.24c0-0.1-0.03-0.18-0.07-0.22c-0.05-0.05-0.14-0.08-0.26-0.08l0.05-0.11h1.67l-0.03,0.11
		H37.3c-0.11,0-0.2,0.03-0.26,0.1c-0.07,0.07-0.11,0.2-0.12,0.38l-0.16,2l1.24-1.62l0.03-0.37c0.01-0.08,0.01-0.14,0.01-0.19
		c0-0.09-0.03-0.17-0.08-0.22c-0.06-0.05-0.14-0.08-0.27-0.09l0.03-0.11h1.68l-0.03,0.11c-0.15,0-0.26,0.03-0.33,0.1
		c-0.07,0.07-0.11,0.2-0.13,0.38l-0.16,2l1.2-1.57c0.2-0.27,0.33-0.45,0.38-0.55c0.03-0.07,0.05-0.12,0.05-0.17
		c0-0.04-0.02-0.08-0.07-0.12c-0.05-0.03-0.13-0.06-0.26-0.07l0.03-0.11h1.1l-0.03,0.11c-0.1,0.02-0.18,0.05-0.25,0.1
		c-0.09,0.07-0.21,0.2-0.36,0.39l-2.62,3.43h-0.18l0.21-2.66l-2.03,2.66H35.75z"/>
	<path class="st2" d="M108.21,36.79c0.18-0.03,0.32-0.06,0.42-0.1c0.1-0.04,0.19-0.11,0.29-0.21c0.09-0.1,0.18-0.22,0.24-0.36
		c0.07-0.15,0.1-0.28,0.1-0.41c0-0.05-0.02-0.1-0.05-0.13c-0.03-0.03-0.07-0.04-0.12-0.04c-0.1,0-0.21,0.06-0.33,0.19
		C108.54,35.96,108.36,36.31,108.21,36.79z M108.18,36.94c-0.02,0.13-0.03,0.23-0.03,0.31c0,0.15,0.05,0.26,0.13,0.35
		c0.09,0.09,0.2,0.13,0.35,0.13c0.14,0,0.28-0.03,0.43-0.1c0.14-0.07,0.31-0.18,0.5-0.35l0.09,0.08c-0.23,0.27-0.46,0.46-0.68,0.58
		c-0.22,0.11-0.46,0.17-0.73,0.17c-0.34,0-0.57-0.08-0.7-0.23c-0.13-0.16-0.19-0.33-0.19-0.54c0-0.32,0.1-0.64,0.29-0.95
		c0.19-0.32,0.46-0.57,0.79-0.76c0.33-0.19,0.67-0.29,1.01-0.29c0.17,0,0.3,0.04,0.39,0.12c0.09,0.08,0.13,0.18,0.13,0.29
		c0,0.14-0.04,0.28-0.13,0.41c-0.12,0.18-0.27,0.33-0.44,0.44c-0.18,0.11-0.38,0.2-0.6,0.25C108.63,36.89,108.43,36.92,108.18,36.94
		z M106.76,35.76l-0.35,1.34c-0.17,0.63-0.33,1.09-0.49,1.38c-0.16,0.28-0.34,0.5-0.55,0.63c-0.21,0.14-0.45,0.21-0.73,0.21
		c-0.17,0-0.3-0.03-0.38-0.09c-0.08-0.06-0.12-0.14-0.12-0.22c0-0.08,0.03-0.15,0.1-0.21c0.07-0.06,0.15-0.09,0.26-0.09
		c0.09,0,0.16,0.02,0.21,0.07c0.05,0.05,0.07,0.1,0.07,0.17c0,0.06-0.02,0.11-0.05,0.14c-0.03,0.03-0.05,0.05-0.05,0.06l0.02,0.02
		c0.01,0.01,0.03,0.01,0.04,0.01c0.06,0,0.11-0.02,0.15-0.06c0.11-0.09,0.19-0.2,0.24-0.33c0.04-0.09,0.11-0.32,0.21-0.71l0.62-2.32
		h-0.42l0.1-0.34c0.15,0,0.26-0.02,0.33-0.06c0.07-0.04,0.14-0.13,0.22-0.26c0.22-0.39,0.46-0.67,0.71-0.85
		c0.25-0.17,0.52-0.25,0.83-0.25c0.19,0,0.34,0.04,0.42,0.11c0.09,0.07,0.13,0.17,0.13,0.28c0,0.1-0.03,0.18-0.09,0.24
		c-0.06,0.06-0.13,0.09-0.22,0.09c-0.08,0-0.15-0.02-0.2-0.07c-0.05-0.05-0.08-0.1-0.08-0.17c0-0.05,0.02-0.1,0.05-0.15
		c0.03-0.06,0.05-0.09,0.05-0.11c0-0.02-0.01-0.04-0.02-0.05c-0.01-0.01-0.03-0.02-0.06-0.02c-0.12,0-0.24,0.07-0.37,0.21
		c-0.21,0.23-0.37,0.58-0.5,1.07h0.44l-0.11,0.34H106.76z M104.99,35.34l-0.62,2.06c-0.03,0.12-0.05,0.19-0.05,0.23
		c0,0.02,0.01,0.04,0.03,0.06c0.02,0.02,0.04,0.03,0.06,0.03c0.03,0,0.07-0.01,0.1-0.04c0.09-0.07,0.2-0.2,0.33-0.39l0.1,0.06
		c-0.31,0.51-0.63,0.76-0.98,0.76c-0.13,0-0.24-0.04-0.32-0.11c-0.08-0.07-0.12-0.16-0.12-0.27c0-0.07,0.02-0.16,0.05-0.27
		l0.42-1.39c0.04-0.13,0.06-0.23,0.06-0.3c0-0.04-0.02-0.08-0.06-0.11c-0.04-0.03-0.09-0.05-0.16-0.05c-0.03,0-0.07,0-0.11,0
		l0.04-0.12l1.03-0.16H104.99z M104.8,34c0.12,0,0.23,0.04,0.32,0.12c0.09,0.08,0.13,0.18,0.13,0.3c0,0.12-0.04,0.22-0.13,0.3
		c-0.09,0.08-0.19,0.12-0.32,0.12c-0.12,0-0.23-0.04-0.31-0.12c-0.09-0.08-0.13-0.19-0.13-0.3c0-0.12,0.04-0.22,0.13-0.3
		C104.57,34.04,104.68,34,104.8,34z M103.64,34l-1.01,3.27c-0.06,0.19-0.09,0.31-0.09,0.36c0,0.03,0.01,0.05,0.03,0.06
		c0.02,0.02,0.03,0.03,0.06,0.03c0.04,0,0.07-0.01,0.1-0.04c0.1-0.08,0.21-0.2,0.33-0.38l0.12,0.05c-0.19,0.29-0.38,0.51-0.57,0.63
		c-0.13,0.08-0.26,0.13-0.41,0.13c-0.14,0-0.24-0.03-0.32-0.1c-0.08-0.07-0.12-0.15-0.12-0.25c0-0.07,0.03-0.19,0.07-0.34l0.82-2.68
		c0.05-0.15,0.07-0.24,0.07-0.29c0-0.05-0.02-0.08-0.06-0.11c-0.06-0.04-0.14-0.06-0.26-0.05l0.03-0.11l1.03-0.17H103.64z"/>
</g>
</svg>
