<?xml version="1.0" encoding="UTF-8"?>
<svg id="Layer_2" data-name="Layer 2" xmlns="http://www.w3.org/2000/svg" xmlns:xlink="http://www.w3.org/1999/xlink" viewBox="0 0 514.86 175.29">
  <defs>
    <style>
      .cls-1 {
        fill: url(#radial-gradient-2);
      }

      .cls-1, .cls-2 {
        fill-rule: evenodd;
      }

      .cls-3 {
        fill: #ce1432;
      }

      .cls-2 {
        fill: url(#radial-gradient);
      }
    </style>
    <radialGradient id="radial-gradient" cx="76.98" cy="49.52" fx="76.98" fy="49.52" r="64.08" gradientTransform="translate(-1.1) scale(1.01 1)" gradientUnits="userSpaceOnUse">
      <stop offset="0" stop-color="#fdb913"/>
      <stop offset=".29" stop-color="#fdb913"/>
      <stop offset=".98" stop-color="#f47920"/>
    </radialGradient>
    <radialGradient id="radial-gradient-2" cx="76.98" cy="125.77" fx="76.98" fy="125.77" r="64.08" gradientTransform="translate(-1.1) scale(1.01 1)" gradientUnits="userSpaceOnUse">
      <stop offset="0" stop-color="#ed1a3b"/>
      <stop offset=".16" stop-color="#ed1a31"/>
      <stop offset=".31" stop-color="#ed1c24"/>
      <stop offset=".45" stop-color="#e41924"/>
      <stop offset=".68" stop-color="#ce1424"/>
      <stop offset=".95" stop-color="#aa0a24"/>
      <stop offset=".98" stop-color="#a70a25"/>
    </radialGradient>
  </defs>
  <g id="Layer_1-2" data-name="Layer 1">
    <g>
      <g>
        <polygon class="cls-2" points="76.69 0 153.37 43.82 105.07 71.43 76.69 55.21 0 99.03 0 43.82 76.69 0 76.69 0"/>
        <polygon class="cls-1" points="76.69 175.29 153.38 131.47 153.38 76.26 76.69 120.08 48.31 103.86 0 131.47 76.69 175.29"/>
      </g>
      <path class="cls-3" d="M235.05,38.32c-.35-3.54-1.8-6.28-4.35-8.21-2.56-1.92-6-2.89-10.32-2.89s-7.83.83-10.14,2.48c-2.3,1.66-3.46,4.08-3.46,7.26,0,2.17.77,3.78,2.31,4.85,1.54,1.07,4.63,2.13,9.27,3.17l10.19,2.33c5.46,1.25,9.36,3.09,11.7,5.54,2.35,2.42,3.52,5.84,3.52,10.27,0,5.09-2.01,9.13-6.04,12.11-4.02,2.98-9.47,4.47-16.36,4.47-7.65,0-13.63-1.72-17.93-5.16-4.2-3.38-6.29-8.02-6.29-13.9v-.42h7.3c.13,4.08,1.67,7.22,4.62,9.44,2.95,2.21,7.05,3.32,12.3,3.32,4.86,0,8.55-.8,11.07-2.41,2.52-1.6,3.78-3.96,3.78-7.07,0-2.7-.83-4.7-2.49-6-1.65-1.27-4.97-2.48-9.96-3.63l-10.2-2.33c-5.15-1.17-8.83-2.8-11.03-4.89-2.2-2.09-3.29-4.98-3.29-8.67,0-5.37,1.9-9.63,5.71-12.78,3.81-3.14,8.95-4.71,15.42-4.71s11.82,1.58,15.72,4.74c3.9,3.16,5.98,7.52,6.25,13.07h-7.3Z"/>
      <path class="cls-3" d="M263.71,79.28c-4.17,0-7.48-1.07-9.93-3.21-2.45-2.14-3.67-5.03-3.67-8.66s1.15-6.58,3.45-8.74c2.3-2.16,5.66-3.51,10.07-4.05l9.77-1.18c.8-.08,1.55-.2,2.27-.38.93-.23,1.65-.69,2.15-1.37.5-.69.76-1.55.76-2.6v-.34c0-2.19-.86-3.9-2.6-5.14-1.73-1.23-4.14-1.85-7.23-1.85s-5.24.65-6.9,1.96c-1.66,1.31-2.66,3.26-3,5.85h-6.61c.34-4.48,1.99-7.85,4.93-10.1,2.94-2.25,7.16-3.38,12.65-3.38,5.18,0,9.13,1.08,11.84,3.23,2.71,2.15,4.06,5.29,4.06,9.42v22.47c0,.69.22,1.24.66,1.66.44.42,1.04.63,1.78.63.21,0,.53-.03.94-.08.41-.05.86-.12,1.34-.23v4.97c-.69.25-1.42.46-2.2.61-.77.15-1.42.23-1.95.23-2.71,0-4.68-.71-5.9-2.14-.8-.95-1.37-2.29-1.71-4.02-.53.64-1.14,1.25-1.83,1.83-3.59,3.08-7.98,4.62-13.16,4.62ZM278.58,62v-4.43c-1.33.61-2.8,1.03-4.42,1.26l-6.58.92c-3.45.46-5.98,1.23-7.57,2.31-1.6,1.08-2.39,2.55-2.39,4.41,0,2.29.65,4.06,1.95,5.29,1.3,1.24,3.15,1.85,5.54,1.85,3.77,0,6.96-.98,9.57-2.94,1.78-1.38,2.96-2.93,3.55-4.66.1-.33.18-.85.24-1.57.08-.74.12-1.55.12-2.44Z"/>
      <path class="cls-3" d="M296.82,37.32h6.79v6.99c.61-1.1,1.27-2.09,1.96-2.98,2.71-3.5,6.06-5.24,10.03-5.24.66,0,1.34.12,2.03.34v7.03l-1.48-.04c-3.89,0-6.89,1.12-9.01,3.35-2.12,2.23-3.18,5.41-3.18,9.54v21.89h-7.15v-40.86Z"/>
      <path class="cls-3" d="M332.15,79.28c-4.17,0-7.48-1.07-9.92-3.21-2.45-2.14-3.67-5.03-3.67-8.66s1.15-6.58,3.45-8.74c2.3-2.16,5.66-3.51,10.07-4.05l9.77-1.18c.8-.08,1.56-.2,2.27-.38.93-.23,1.65-.69,2.15-1.37.5-.69.76-1.55.76-2.6v-.34c0-2.19-.86-3.9-2.6-5.14-1.73-1.23-4.14-1.85-7.23-1.85s-5.24.65-6.89,1.96c-1.66,1.31-2.66,3.26-3,5.85h-6.61c.34-4.48,1.99-7.85,4.93-10.1,2.95-2.25,7.16-3.38,12.65-3.38,5.18,0,9.13,1.08,11.84,3.23,2.71,2.15,4.07,5.29,4.07,9.42v22.47c0,.69.22,1.24.66,1.66.44.42,1.03.63,1.78.63.21,0,.53-.03.94-.08.41-.05.86-.12,1.34-.23v4.97c-.69.25-1.42.46-2.19.61-.77.15-1.42.23-1.95.23-2.71,0-4.67-.71-5.9-2.14-.8-.95-1.37-2.29-1.71-4.02-.53.64-1.14,1.25-1.84,1.83-3.59,3.08-7.97,4.62-13.16,4.62ZM347.03,62v-4.43c-1.33.61-2.8,1.03-4.43,1.26l-6.58.92c-3.45.46-5.97,1.23-7.58,2.31-1.59,1.08-2.39,2.55-2.39,4.41,0,2.29.65,4.06,1.95,5.29,1.3,1.24,3.15,1.85,5.54,1.85,3.77,0,6.96-.98,9.57-2.94,1.78-1.38,2.97-2.93,3.55-4.66.11-.33.19-.85.24-1.57.08-.74.12-1.55.12-2.44Z"/>
      <path class="cls-3" d="M388.65,49.13c-.21-2.27-1.17-4.02-2.88-5.27-1.71-1.25-4.01-1.87-6.9-1.87s-5.23.5-6.78,1.49c-1.55.99-2.33,2.45-2.33,4.36,0,1.45.54,2.55,1.63,3.29,1.09.74,3.25,1.48,6.49,2.22l7.4,1.68c4.14.97,7.1,2.3,8.88,4.01,1.76,1.68,2.64,4.04,2.64,7.07,0,4.05-1.52,7.26-4.56,9.62-3.04,2.37-7.15,3.55-12.33,3.55-6.01,0-10.48-1.14-13.43-3.41-2.95-2.27-4.58-5.85-4.9-10.73h6.9c.35,2.9,1.42,5,3.21,6.29,1.79,1.3,4.53,1.95,8.22,1.95,3.21,0,5.65-.59,7.31-1.76,1.66-1.17,2.49-2.88,2.49-5.12,0-1.43-.54-2.51-1.63-3.25-1.09-.74-3.28-1.48-6.58-2.22l-7.41-1.68c-4.01-.92-6.87-2.2-8.57-3.86-1.7-1.63-2.55-3.92-2.55-6.87,0-3.85,1.43-6.9,4.28-9.15,2.86-2.25,6.73-3.38,11.62-3.38s8.92,1.16,11.85,3.47c2.93,2.31,4.49,5.51,4.68,9.58h-6.76Z"/>
      <path class="cls-3" d="M410.94,78.18l-12.11-40.86h7.87l8.19,32.54h0l8.32-32.54h7.97l8.57,32.77h0l8.64-32.77h7.12l-12.07,40.86h-7.69l-8.81-31.93h0l-8.32,31.93h-7.69Z"/>
      <path class="cls-3" d="M468.73,79.28c-4.18,0-7.48-1.07-9.93-3.21-2.45-2.14-3.67-5.03-3.67-8.66s1.15-6.58,3.45-8.74c2.3-2.16,5.66-3.51,10.07-4.05l9.77-1.18c.79-.08,1.55-.2,2.27-.38.93-.23,1.65-.69,2.15-1.37.5-.69.75-1.55.75-2.6v-.34c0-2.19-.87-3.9-2.6-5.14-1.73-1.23-4.14-1.85-7.23-1.85s-5.24.65-6.9,1.96c-1.66,1.31-2.66,3.26-3,5.85h-6.6c.34-4.48,1.99-7.85,4.93-10.1,2.94-2.25,7.16-3.38,12.65-3.38,5.18,0,9.13,1.08,11.84,3.23,2.71,2.15,4.07,5.29,4.07,9.42v22.47c0,.69.22,1.24.66,1.66.44.42,1.03.63,1.78.63.21,0,.53-.03.94-.08.41-.05.86-.12,1.34-.23v4.97c-.69.25-1.42.46-2.19.61-.77.15-1.42.23-1.95.23-2.71,0-4.67-.71-5.9-2.14-.8-.95-1.37-2.29-1.71-4.02-.53.64-1.14,1.25-1.84,1.83-3.59,3.08-7.97,4.62-13.16,4.62ZM483.6,62v-4.43c-1.33.61-2.8,1.03-4.42,1.26l-6.58.92c-3.46.46-5.98,1.23-7.57,2.31-1.6,1.08-2.39,2.55-2.39,4.41,0,2.29.65,4.06,1.95,5.29,1.3,1.24,3.15,1.85,5.54,1.85,3.77,0,6.96-.98,9.57-2.94,1.78-1.38,2.96-2.93,3.55-4.66.1-.33.18-.85.24-1.57.08-.74.12-1.55.12-2.44Z"/>
      <path class="cls-3" d="M514.86,78.14c-2.44.35-4.23.52-5.34.52-3.13,0-5.35-.66-6.64-1.98-1.29-1.32-1.93-3.6-1.93-6.83v-26.9h-5.91v-5.62h5.91v-11.48h7.15v11.48h6.76v5.62h-6.76v26.89c0,.92.38,1.64,1.14,2.17.76.54,1.78.8,3.06.8h2.56v5.33Z"/>
      <g>
        <path class="cls-3" d="M199.25,94.73h25.95c5.03,0,9.09,1.23,12.17,3.69,3.08,2.46,4.62,5.69,4.62,9.72,0,4.66-1.82,8.3-5.46,10.92-.83.61-1.73,1.13-2.69,1.56,1.95.66,3.65,1.49,5.1,2.48,3.87,2.67,5.81,6.38,5.81,11.12,0,5.22-1.88,9.31-5.65,12.25-3.76,2.94-9,4.41-15.7,4.41h-24.16v-56.15ZM207.27,118.64h14.24c4.33,0,7.5-.75,9.51-2.24,2.01-1.49,3.01-3.84,3.01-7.05,0-2.8-.92-4.86-2.77-6.18-1.84-1.31-4.75-1.96-8.71-1.96h-15.29v17.43ZM207.27,144.4h16.27c4.58,0,7.93-.84,10.06-2.52,2.13-1.68,3.19-4.33,3.19-7.96,0-3.16-1.11-5.48-3.33-6.94-2.22-1.47-5.72-2.2-10.48-2.2h-15.7v19.62Z"/>
        <path class="cls-3" d="M262.62,151.98c-4.21,0-7.55-1.07-10.01-3.21-2.47-2.14-3.7-5.02-3.7-8.67s1.16-6.58,3.48-8.74c2.32-2.16,5.71-3.51,10.15-4.05l9.85-1.18c.8-.08,1.57-.2,2.3-.38.93-.23,1.66-.69,2.17-1.38.51-.68.76-1.55.76-2.59v-.35c0-2.19-.87-3.9-2.62-5.13-1.75-1.23-4.18-1.85-7.29-1.85s-5.29.65-6.95,1.96c-1.67,1.31-2.68,3.26-3.03,5.85h-6.67c.35-4.48,2.01-7.84,4.98-10.1,2.97-2.25,7.22-3.38,12.76-3.38,5.23,0,9.21,1.08,11.94,3.23,2.74,2.15,4.11,5.29,4.11,9.42v22.47c0,.69.22,1.24.66,1.66.45.42,1.04.63,1.8.63.21,0,.53-.02.95-.07.41-.05.87-.13,1.35-.23v4.97c-.7.26-1.43.46-2.21.61-.78.15-1.43.23-1.97.23-2.73,0-4.71-.72-5.95-2.15-.8-.94-1.38-2.28-1.73-4.02-.54.64-1.16,1.25-1.85,1.83-3.62,3.08-8.04,4.62-13.27,4.62ZM277.62,134.69v-4.43c-1.34.61-2.83,1.03-4.46,1.26l-6.63.92c-3.49.46-6.03,1.23-7.64,2.31-1.61,1.08-2.41,2.56-2.41,4.41,0,2.29.66,4.06,1.97,5.29,1.32,1.24,3.18,1.85,5.59,1.85,3.81,0,7.02-.98,9.65-2.94,1.8-1.37,2.99-2.93,3.58-4.66.11-.33.19-.85.25-1.57.08-.74.12-1.55.12-2.45Z"/>
        <path class="cls-3" d="M295.01,110.02h6.86v6.01l1.61-2.02c3.13-3.49,7.06-5.23,11.78-5.23s8.4,1.22,10.98,3.67c2.57,2.45,3.86,5.92,3.86,10.43v28h-7.22v-25.69c0-3.59-.73-6.19-2.2-7.78-1.46-1.59-3.83-2.39-7.1-2.39-3.49,0-6.25,1.26-8.29,3.77-2.04,2.51-3.06,5.91-3.06,10.19v21.91h-7.21v-40.86Z"/>
        <path class="cls-3" d="M338.86,94.73h7.21v32.39l18.17-17.1h9.21l-16.35,15.15,17.44,25.71h-9.42l-13.36-20.76-5.68,5.27v15.49h-7.21v-56.15Z"/>
      </g>
    </g>
  </g>
</svg>