<?xml version="1.0" encoding="UTF-8"?>
<svg id="Layer_2" data-name="Layer 2" xmlns="http://www.w3.org/2000/svg" viewBox="0 0 175.75 66.98">
  <defs>
    <style>
      .cls-1 {
        fill: #a5d1a1;
      }

      .cls-1, .cls-2, .cls-3, .cls-4 {
        fill-rule: evenodd;
      }

      .cls-2 {
        fill: #0072aa;
      }

      .cls-3 {
        fill: #72b0d2;
      }

      .cls-4 {
        fill: #22aa47;
      }
    </style>
  </defs>
  <g id="Layer_1-2" data-name="Layer 1">
    <g>
      <path class="cls-2" d="M34.46,29.08h-1.83c-1.22,0-1.73-.78-1.73-1.91v-8.08h3.56v-2.28h-3.56v-4.3h-2.57v14.61c0,3.08,1.54,4.4,4.29,4.4h1.83v-2.45h0Z"/>
      <path class="cls-2" d="M9.78,24.58v.11c0,5.23,4.27,7.11,8.27,7.11s7.84-1.87,7.84-6.01-3.3-5.11-6.4-5.81l-1.08-.23c-2.78-.61-5.18-1.12-5.18-3.19,0-2.95,3.03-3.28,4.33-3.28,2.86,0,4.52,1.38,4.8,3.96v.09h2.71v-.11c-.16-4.05-2.85-6.36-7.4-6.36-3.62,0-7.28,1.82-7.28,5.9,0,3.64,3.04,4.6,6.43,5.34l.67.15c2.86.61,5.57,1.19,5.57,3.63,0,3.04-3.08,3.49-4.91,3.49-1.55,0-2.95-.4-3.94-1.11-1.12-.81-1.71-2.04-1.71-3.55v-.11h-2.71Z"/>
      <path class="cls-2" d="M49.89,29.16l-.14.05c-.32.12-.53.13-.68.13-.62,0-.65-.33-.65-1.49v-7.37c0-2.73-1.79-4.05-5.48-4.05-2.24,0-6.01.63-6.18,4.9v.11s2.56,0,2.56,0v-.1c.1-1.78,1.21-2.62,3.48-2.62,2.1,0,3.08.72,3.08,2.29,0,1.3-1.32,1.49-3.14,1.74-.52.07-1.05.15-1.61.26-2.5.48-4.94,1.22-4.94,4.52,0,2.57,1.82,4.13,4.85,4.13,2.04,0,3.69-.72,4.96-2.09.1,1.69,1.17,2.09,2.08,2.09.74,0,1.29-.14,1.75-.42l.05-.03v-2.04h0ZM41.58,29.35c-.8,0-2.66-.19-2.66-1.99s1.42-2.24,2.79-2.48c.42-.07.87-.13,1.3-.18,1.1-.14,2.15-.28,2.85-.7,0,0,.06-.04,0,0v2.23c0,1.21-1.16,3.13-4.28,3.13h0Z"/>
      <path class="cls-2" d="M52.16,16.82v14.53h2.57v-8.19c0-2.74,1.54-4.39,4.13-4.39,1.72,0,2.8,1.08,2.8,2.78v9.8h2.57v-9.52c0-3.6-1.65-5.35-5.04-5.35-2.06,0-3.6.81-4.61,2.41v-2.08h-2.42Z"/>
      <path class="cls-2" d="M77.87,11.36v7.23c-1.09-1.54-3.05-2.1-4.57-2.1-4.05,0-6.65,2.96-6.65,7.56,0,2.11.6,4.01,1.67,5.35,1.19,1.49,2.93,2.3,5.04,2.3s3.72-.77,4.51-2.1v1.75h2.57V11.36h-2.57ZM73.69,29.4c-2.99,0-4.33-2.6-4.33-5.19,0-1.63.41-5.44,4.2-5.44,4.08,0,4.4,4.08,4.4,5.32,0,2.57-1.12,5.3-4.27,5.3h0Z"/>
      <path class="cls-2" d="M96.71,29.21l-.14.05c-.32.12-.53.13-.68.13-.63,0-.66-.33-.66-1.49v-7.37c0-2.73-1.79-4.05-5.46-4.05-2.25,0-6.01.63-6.18,4.9v.11s2.56,0,2.56,0v-.1c.1-1.78,1.2-2.62,3.48-2.62,2.1,0,3.07.74,3.07,2.28,0,1.3-1.31,1.49-3.13,1.74-.52.07-1.05.15-1.61.26-2.49.48-4.93,1.22-4.93,4.52,0,2.57,1.8,4.13,4.84,4.13,2.04,0,3.7-.72,4.95-2.09.1,1.69,1.17,2.09,2.08,2.09.75,0,1.3-.14,1.76-.42l.05-.03v-2.04h0ZM88.4,29.4c-.8,0-2.66-.19-2.66-1.99s1.41-2.24,2.78-2.48c.42-.07.86-.13,1.3-.18,1.1-.14,2.15-.28,2.84-.7,0,0,.06-.04,0,0v2.23c0,1.21-1.16,3.13-4.27,3.13h0Z"/>
      <path class="cls-2" d="M106.69,16.49h-.1c-2.4-.08-4.01.88-5.22,3.13v-2.81h-2.42v14.53h2.56v-6.48c0-3.87,1.63-5.69,5.08-5.69h.11v-2.7h0Z"/>
      <path class="cls-2" d="M118.27,11.36v7.23c-1.09-1.54-3.04-2.1-4.58-2.1-4.03,0-6.64,2.96-6.64,7.56,0,2.11.59,4.01,1.68,5.35,1.19,1.49,2.92,2.3,5.03,2.3s3.73-.78,4.52-2.1v1.75h2.58V11.36h-2.58ZM114.1,29.4c-3,0-4.33-2.6-4.33-5.19,0-1.63.41-5.44,4.2-5.44,4.08,0,4.4,4.08,4.4,5.32,0,2.57-1.12,5.3-4.26,5.3h0Z"/>
      <path class="cls-2" d="M15.08,51.55v.1c-.27,3.45-2.41,5.61-5.6,5.61-2.2,0-3.91-.8-5.06-2.41-1.03-1.41-1.58-3.4-1.58-5.77,0-2.16.57-4.1,1.57-5.49,1.15-1.58,2.9-2.4,5.04-2.4,2.89,0,4.92,1.54,5.43,4.13l.02.09h2.85l-.02-.12c-.29-2.05-1.26-3.72-2.79-4.87-1.45-1.08-3.34-1.65-5.45-1.65-2.92,0-5.36,1.07-7.06,3.09-1.56,1.86-2.42,4.51-2.42,7.43,0,6.43,3.55,10.42,9.26,10.42,2.45,0,4.54-.74,6.04-2.14,1.47-1.38,2.38-3.42,2.62-5.88v-.12s-2.84,0-2.84,0h0Z"/>
      <path class="cls-2" d="M20.39,39.2v20.03h2.57v-8.21c0-2.75,1.55-4.39,4.13-4.39,1.73,0,2.8,1.06,2.8,2.77v9.83h2.57v-9.55c0-3.59-1.64-5.33-5.03-5.33-1.53,0-3.55.58-4.47,2.2v-7.35h-2.57Z"/>
      <path class="cls-2" d="M37.84,49.35v-.1c.1-1.78,1.2-2.61,3.47-2.61,2.11,0,3.08.72,3.08,2.27,0,1.32-1.31,1.5-3.13,1.76-.51.07-1.04.15-1.6.26-2.5.48-4.94,1.22-4.94,4.5,0,2.59,1.81,4.13,4.85,4.13,2.03,0,3.7-.7,4.95-2.07.1,1.69,1.17,2.07,2.09,2.07.73,0,1.29-.13,1.74-.4l.05-.03v-2.04l-.14.05c-.32.12-.53.13-.68.13-.61,0-.64-.33-.64-1.51v-7.37c0-2.71-1.8-4.03-5.49-4.03-2.24,0-6.01.63-6.18,4.88v.11s2.57,0,2.57,0h0ZM40.1,57.26c-.81,0-2.67-.19-2.67-2.01s1.41-2.22,2.8-2.46c.42-.08.86-.13,1.28-.19,1.12-.14,2.16-.28,2.86-.7,0,0,.06-.03,0,0v2.21c0,1.21-1.16,3.14-4.27,3.14h0Z"/>
      <path class="cls-2" d="M120.85,59.22v-20h-2.58v7.23c-1.09-1.54-3.04-2.1-4.58-2.1-4.03,0-6.64,2.96-6.64,7.56,0,2.09.59,4.01,1.68,5.35,1.19,1.49,2.92,2.29,5.03,2.29s3.73-.76,4.52-2.08v1.75h2.58ZM114.1,57.26c-3,0-4.33-2.61-4.33-5.18,0-1.63.41-5.44,4.2-5.44,4.08,0,4.4,4.08,4.4,5.33,0,2.56-1.12,5.3-4.26,5.3h0Z"/>
      <path class="cls-2" d="M78.58,54.71c-.44,1.65-1.68,2.55-3.55,2.55-1.32,0-2.43-.41-3.19-1.2-.77-.81-1.18-1.98-1.16-3.3h10.71v-.1c.11-2.58-.68-5.04-2.12-6.53-1.14-1.18-2.64-1.78-4.47-1.78-3.96,0-6.84,3.17-6.84,7.56.15,4.86,2.7,7.64,6.98,7.64,3.28,0,5.53-1.76,6.2-4.84h-2.56ZM74.67,46.64c2.15,0,3.84,1.64,4.01,3.84h-7.98c.19-1.94,1.48-3.84,3.98-3.84h0Z"/>
      <path class="cls-2" d="M102.55,54.74c-.45,1.63-1.71,2.52-3.56,2.52-1.32,0-2.42-.41-3.18-1.2-.79-.81-1.19-1.98-1.17-3.3h10.72v-.1c.11-2.58-.69-5.04-2.12-6.53-1.13-1.18-2.65-1.78-4.46-1.78-3.97,0-6.84,3.17-6.84,7.56.15,4.86,2.69,7.64,6.98,7.64,3.27,0,5.51-1.75,6.19-4.81h-2.55ZM98.64,46.64c2.14,0,3.85,1.64,4.01,3.84h-8c.19-1.94,1.49-3.84,3.99-3.84h0Z"/>
      <path class="cls-2" d="M53.23,59.23v-6.49c0-3.88,1.62-5.69,5.08-5.69h.11v-2.7h-.1c-2.41-.08-4.03.88-5.22,3.12v-2.81h-2.43v14.57h2.57Z"/>
      <path class="cls-2" d="M86.5,59.22v-6.48c0-3.88,1.61-5.69,5.08-5.69h.11v-2.7h-.1c-2.42-.08-4.03.88-5.22,3.12v-2.8h-2.43v14.55h2.57Z"/>
      <path class="cls-2" d="M66.67,56.95h-1.82c-1.23,0-1.74-.78-1.74-1.93v-8.06h3.56v-2.28h-3.56v-4.29h-2.57v14.6c0,3.1,1.55,4.41,4.3,4.41h1.83v-2.45h0Z"/>
      <path class="cls-3" d="M145.43,64.68c-1.75,1.05-3.35,1.67-5.02,1.67-4.32,0-7.94-3.54-8.15-7.8l8.43-5.02,13.1,5.86-8.36,5.3h0Z"/>
      <path class="cls-1" d="M150.44,43.12l-6.26-2.76c-2.8-1.25-5.44-2.29-5.44-5.37,0-1.6.48-2.43,1.25-3.26l13.24,5.84-3.28,1.89c-.9.56-1.53,1.04-1.53,1.74,0,.75.86,1.39,2.02,1.92h0Z"/>
      <path class="cls-3" d="M156.59,14.23l-6.42,3.89c-.57.34-1.33.9-1.33,1.75,0,.97,1.48,1.72,2.8,2.34l-8.03-3.54c-2.36-1.04-4.73-2.22-4.73-5.07,0-1.2.35-2.17.9-3L157.14,0c2.08,1.18,4.1,3.56,4.1,6.76,0,3.42-1.73,5.72-4.65,7.47h0Z"/>
      <path class="cls-1" d="M170.24,26.78l-1.59.9-13.26-5.85,15.41-9.28c2.08,1.2,4.12,3.56,4.12,6.76,0,3.42-1.69,5.78-4.68,7.47h0Z"/>
      <path class="cls-3" d="M159.05,38.03l7.84,3.44c2.94,1.32,3.84,2.86,3.84,4.81,0,1.11-.63,2.22-1.53,2.99l-13.19-5.86,2.23-1.25c1.89-1.04,2.51-1.67,2.51-2.36s-.44-1.2-1.71-1.78h0Z"/>
      <path class="cls-4" d="M173.02,66.98c-3.34-2.57-6.9-4.31-11.22-6.27l-20-8.85c-5.02-2.24-8.36-5.22-8.36-10.25s2.36-7.25,5.44-9.19l1.11-.7c-.76.83-1.25,1.67-1.25,3.26,0,3.08,2.64,4.12,5.44,5.37l23.26,10.25c4.05,1.74,7.75,4.73,7.75,9.82,0,2.8-1.06,5.3-2.17,6.55h0Z"/>
      <path class="cls-2" d="M170.66,48.37l-1.46.91c.9-.77,1.53-1.88,1.53-2.99,0-1.95-.91-3.49-3.84-4.81l-24.88-10.95c-5.02-2.22-8.15-5.09-8.15-10.09,0-4.6,2.29-7.61,5.92-9.83-.56.83-.9,1.8-.9,3,0,2.85,2.36,4.03,4.73,5.07l24.18,10.67c4.4,1.95,7.96,4.88,7.96,10.25,0,4.19-1.96,6.83-5.09,8.77h0Z"/>
    </g>
  </g>
</svg>