<?xml version="1.0" encoding="UTF-8"?>
<svg id="Layer_2" data-name="Layer 2" xmlns="http://www.w3.org/2000/svg" viewBox="0 0 365 129.32">
  <defs>
    <style>
      .cls-1 {
        fill: #a00;
      }
    </style>
  </defs>
  <g id="Layer_1-2" data-name="Layer 1">
    <g>
      <path class="cls-1" d="M27.5,2.43c1.87-2.12,4.91-2.35,7.55-2.43,2.04.15,4.11.25,6.1.77.64.28,1.59.53,1.62,1.38-.65,1.35-2.26,1.7-3.44,2.43-4.36,2.58-8.83,5.09-12.68,8.42.06-1.51-.17-3-.09-4.51.04-2.02-.55-4.39.93-6.06Z"/>
      <path class="cls-1" d="M46.56,4.58c3.7-2.07,8.23-.76,11.54,1.45.88.55,1.66,1.79.87,2.74-1.09,1.27-2.71,1.97-4.3,2.4-10.12,2.89-19.65,7.76-27.98,14.19-.02-1.62-.02-3.24,0-4.87,5.72-6.33,12.73-11.3,19.86-15.92Z"/>
      <path class="cls-1" d="M63.19,10.18c2.07-.76,4.39.12,6.04,1.43,1.19.94,2.52,1.69,3.64,2.72.8.75,1.43,2.02.73,3.04-1.12,1.62-3.17,2.07-4.94,2.63-14.81,4.87-29.44,10.97-42.06,20.27-.11-1.6-.11-3.2-.3-4.79,6.84-7.82,15.54-13.73,24.51-18.83,4.05-2.3,8.22-4.37,12.37-6.47Z"/>
      <path class="cls-1" d="M75.73,20.36c1.82-.74,4.17-.8,5.7.58,1.26,1.27,2.59,2.47,3.87,3.73.81.93,1.71,2.23,1.17,3.51-.65,1.55-2.36,2.26-3.82,2.84-12.46,3.81-24.89,7.91-36.62,13.63-6.85,3.33-13.44,7.23-19.44,11.92,0-1.45-.07-2.9-.09-4.34,6.3-7.81,14.57-13.75,23.12-18.87,8.37-4.97,17.19-9.13,26.12-12.98Z"/>
      <path class="cls-1" d="M85.27,33.25c1.4-.64,2.91-1.41,4.5-1.04,1.95.44,3.28,2.12,4.15,3.81,1.07,2.06,2.81,3.98,2.73,6.44,0,1.83-1.42,3.28-2.93,4.12-3.13,1.73-6.73,2.22-10.22,2.76-20.36,3.5-40.03,11.47-56.74,23.66.02-1.66-.19-3.32-.2-4.98,6.64-7.09,14.55-12.87,22.82-17.9,11.34-6.84,23.48-12.27,35.88-16.86Z"/>
      <path class="cls-1" d="M69.85,56.39c.2,1.64.09,3.29.24,4.94-7.12,7.64-15.73,13.75-24.69,19.04-10.72,6.26-22.1,11.34-33.74,15.63-1.26.51-2.49,1.28-3.91,1.2-2.26.06-3.98-1.84-4.92-3.71-1.13-2.16-2.98-4.2-2.82-6.78.09-1.84,1.6-3.2,3.12-4.03,3.02-1.59,6.45-2.1,9.79-2.62,20.43-3.46,40.18-11.44,56.94-23.66Z"/>
      <path class="cls-1" d="M86.27,60.3c2.75-2.03,6.35-2.55,9.68-2.23,1.51.05,3,.37,4.43.83,1.96.6,4,1.08,5.72,2.23-.02,2.88-.02,5.76,0,8.64-1.65-1.32-3.56-2.31-5.52-3.09-1.86-.69-3.95-1.27-5.9-.64-1.02.31-1.92,1.32-1.59,2.44.45,1.15,1.6,1.8,2.63,2.37,2.89,1.35,5.8,2.78,8.29,4.8,1.84,1.47,2.7,3.88,2.64,6.2.09,2.56-.96,5.17-2.97,6.8-2.49,2.05-5.76,2.96-8.93,3.01-4.29.16-8.6-.85-12.47-2.68.02-2.92.02-5.83,0-8.75,2.25,1.47,4.72,2.64,7.31,3.38,1.78.54,3.79.35,5.38-.63.56-.32.7-.99.87-1.56-.5-1.39-1.99-1.98-3.21-2.58-2.66-1.09-5.28-2.43-7.37-4.44-3.91-3.73-3.39-10.96,1-14.1Z"/>
      <path class="cls-1" d="M123.32,59.77c3.95-.46,8.1,0,11.63,1.91,4.05,2.2,7.26,6.16,8.01,10.78.43,3.34.3,6.89-1.28,9.94-2.3,4.64-7,7.87-12.07,8.71-4.21.67-8.72.2-12.47-1.93-3.51-2-6.42-5.25-7.54-9.18-1.14-4.19-.72-8.9,1.62-12.62,2.6-4.22,7.22-6.99,12.11-7.6M123.98,68.98c-4.63,1.58-5.59,8.38-2.17,11.6,2.26,2.3,6.39,2.29,8.63-.03,1.44-1.37,2.08-3.41,1.94-5.37.1-2.42-1.31-4.81-3.46-5.92-1.53-.73-3.34-.84-4.95-.28Z"/>
      <path class="cls-1" d="M183.19,60.04c10.81,0,21.61,0,32.42,0,0,2.69-.01,5.37,0,8.05-3.6-.02-7.21,0-10.81,0,0,7.64,0,15.28,0,22.91h-10.89c0-7.64,0-15.28,0-22.91-3.58,0-7.16,0-10.74,0,.03-2.68,0-5.36.01-8.05Z"/>
      <path class="cls-1" d="M219.57,60.04c3.5,0,7.01,0,10.52,0,0,3.8,0,7.6,0,11.4,4.19,0,8.38,0,12.57,0,0-3.8,0-7.6,0-11.4,3.51,0,7.02,0,10.53,0,0,10.4,0,20.8,0,31.2-3.51,0-7.02,0-10.53,0v-11.51c-4.19,0-8.39,0-12.58,0,0,3.84,0,7.68,0,11.52-3.51,0-7.02,0-10.52,0,0-10.4,0-20.8,0-31.2Z"/>
      <path class="cls-1" d="M146.51,60.34c3.57,0,7.14,0,10.71,0,0,5.15,0,10.31,0,15.46-.01,1.54-.09,3.16.56,4.6.58,1.38,1.87,2.4,3.35,2.64,1.74.34,3.73.24,5.2-.84,1.49-1.13,1.96-3.11,2.01-4.89,0-5.65,0-11.3,0-16.96,3.57,0,7.14,0,10.71,0,0,4.55,0,9.1,0,13.65.03,3.27.13,6.67-1.18,9.74-1.22,3.13-3.93,5.51-7.08,6.59-4.1,1.4-8.57,1.49-12.82.84-3.3-.55-6.63-1.97-8.71-4.68-2.15-2.75-2.83-6.36-2.74-9.77,0-5.45,0-10.91,0-16.36Z"/>
      <path class="cls-1" d="M50.7,84.69c6.79-3.32,13.36-7.17,19.31-11.86-.02,1.45.2,2.93.13,4.36-4.92,6.13-11.15,11.07-17.66,15.42-9.63,6.35-20.06,11.39-30.62,15.99-1.87.95-4.26,1.35-6.14.22-1.1-.93-2.08-1.99-3.15-2.96-.86-.78-1.72-1.6-2.25-2.65-.5-1.01-.27-2.29.56-3.06,1.43-1.35,3.37-1.93,5.21-2.45,11.78-3.63,23.5-7.61,34.6-13.01Z"/>
      <path class="cls-1" d="M28.94,109.06c14.45-4.85,28.76-10.83,41.08-19.95.03,1.6.36,3.21.26,4.81-4.23,4.94-9.33,9.07-14.67,12.74-6.57,4.49-13.57,8.28-20.71,11.77-.96.59-2.02,1.13-3.19,1.07-1.51-.15-2.99-.69-4.17-1.66-1.36-1.1-2.96-1.92-4.12-3.24-.82-.83-.87-2.32.03-3.12,1.47-1.46,3.61-1.75,5.49-2.43Z"/>
      <path class="cls-1" d="M82.24,94.9c3.39,0,6.77,0,10.16,0v29.99c-3.39,0-6.77,0-10.16,0,0-10,0-20,0-29.99Z"/>
      <path class="cls-1" d="M97.81,94.9c3.15,0,6.31,0,9.46,0,4.47,4.99,8.93,10,13.45,14.95.05-4.98,0-9.97.02-14.95,3.43,0,6.86,0,10.29,0,0,10,0,19.99,0,29.99-3.16-.04-6.33.09-9.48-.06-4.47-4.92-8.84-9.95-13.39-14.8,0,4.95,0,9.91,0,14.86-3.45,0-6.9,0-10.35,0,0-10,0-20,0-30Z"/>
      <path class="cls-1" d="M135.82,94.91c5.71.08,11.42-.19,17.12.17,4.08.28,8.02,2.12,10.79,5.13,2.53,2.59,3.76,6.26,3.6,9.84.1,3.56-1.22,7.16-3.75,9.7-2.74,2.95-6.65,4.69-10.64,4.97-5.7.36-11.42.1-17.12.18,0-10,0-19.99,0-29.99M146.06,102.58c0,4.88,0,9.76,0,14.64,1.4,0,2.81,0,4.22,0,2.15-.04,4.24-1.16,5.42-2.95,1.21-1.73,1.35-3.96,1.09-5.99-.4-2.35-2.07-4.47-4.34-5.28-2.06-.71-4.26-.32-6.39-.42Z"/>
      <path class="cls-1" d="M170.45,94.9c3.37,0,6.74,0,10.1,0,0,10,0,20,0,30-3.37,0-6.74,0-10.1,0,0-10,0-20,0-29.99Z"/>
      <path class="cls-1" d="M194.51,94.91c4.01,0,8.01-.02,12.02.02,3.73,10,7.53,19.98,11.27,29.98-3.11-.02-6.23.03-9.34-.02l-.18-.1c-.62-1.66-1.2-3.34-1.79-5.02-4.12-.02-8.25,0-12.37-.02-.61,1.69-1.25,3.37-1.89,5.05-.42.22-.93.07-1.39.12-2.74,0-5.49-.02-8.23,0,3.97-10,7.94-20,11.89-30M200.41,103c-1.3,3.2-2.44,6.47-3.77,9.66,2.46.15,4.92.03,7.38.07-1.19-3.25-2.39-6.49-3.61-9.73Z"/>
      <path class="cls-1" d="M219.79,94.91c3.16,0,6.33-.03,9.49.02,4.45,5.04,9.01,9.99,13.45,15.04-.04-5.02,0-10.04-.02-15.06,3.45,0,6.9,0,10.35,0v29.99c-3.15,0-6.29,0-9.44,0-4.54-4.95-8.98-10-13.5-14.96-.09,4.98-.02,9.97-.04,14.95-3.43,0-6.86,0-10.29,0,0-10,0-19.99,0-29.99Z"/>
      <path class="cls-1" d="M268.13,94.91c3.35,0,6.69,0,10.04,0,2.95.15,6.11.24,8.66,1.94,3.25,2.04,3.89,7.07,1.45,9.97-.6.71-1.4,1.23-2.22,1.65,2.14.79,4.27,2.13,5.15,4.33,1.03,2.63.89,5.78-.56,8.22-1.49,2.38-4.37,3.35-7.02,3.68-5.15.42-10.33.13-15.49.21v-29.99M274.83,100.22c0,2.17,0,4.34,0,6.5,1.82,0,3.65.02,5.48,0,1.16.01,2.47-.46,2.97-1.58.72-1.67.15-4.15-1.8-4.65-2.18-.5-4.44-.18-6.65-.27M274.84,112.17c0,2.39,0,4.79,0,7.18,2.21-.01,4.43.02,6.65-.01,1.19-.12,2.58-.38,3.3-1.44.68-1.18.67-2.71.08-3.92-.73-1.28-2.28-1.74-3.67-1.79-2.12-.04-4.24,0-6.37-.02Z"/>
      <path class="cls-1" d="M343.56,94.91c2.09,0,4.18,0,6.28,0,0,9.82,0,19.63,0,29.45-2.09,0-4.18,0-6.28,0,0-9.82,0-19.63,0-29.45Z"/>
      <path class="cls-1" d="M296.26,106.18c3.42-1.79,7.41-2.62,11.26-2.12,1.79.26,3.76.95,4.67,2.65,1.32,2.2.88,4.85.96,7.29.05,1.95-.12,3.92.08,5.86.61.88,1.83.23,2.63-.01,0,1.06.08,2.11.08,3.17-1.95.93-4.06,1.99-6.28,1.64-1.18-.2-1.97-1.22-2.33-2.29-1.82,1.45-4.12,2.17-6.43,2.25-1.59-.05-3.29-.42-4.44-1.6-1.6-1.71-1.82-4.64-.3-6.47,1.23-1.52,3.07-2.38,4.85-3.08,1.97-.77,4.04-1.28,6.08-1.85.07-.99-.18-2.1-1-2.74-1.17-.93-2.79-1.03-4.21-.77-2.09.42-4.02,1.45-5.64,2.8.04-1.57.01-3.14.02-4.71M302.17,117.07c-.9,1.09-.86,3.24.66,3.74,1.46.36,2.93-.3,4.16-1.03-.03-1.73.03-3.45-.04-5.18-1.67.63-3.6,1.02-4.78,2.46Z"/>
      <path class="cls-1" d="M41.73,118.25c10.24-2.87,19.87-7.82,28.3-14.3-.03,1.61,0,3.23-.03,4.84-4.87,5.48-10.8,9.87-16.83,13.96-1.64,1.01-3.14,2.39-5.07,2.79-2.35.62-4.84.13-7.02-.86-1.26-.57-2.65-1.16-3.47-2.33-.54-.74-.14-1.73.51-2.25,1.04-.89,2.3-1.49,3.61-1.86Z"/>
      <path class="cls-1" d="M325.05,107.05c1.74-1.67,4.04-2.85,6.49-2.86,1.96-.11,4.1.41,5.42,1.97,1.5,1.72,1.82,4.12,1.73,6.33,0,3.93,0,7.87,0,11.8-2.08,0-4.16,0-6.24,0-.01-4.15.04-8.29-.02-12.44-.01-1.34-.46-3.07-1.94-3.45-2.28-.55-4.42,1.25-5.42,3.14-.05,4.24-.01,8.49-.02,12.74-2.02,0-4.03,0-6.04,0,0-6.56,0-13.12,0-19.68,2.01,0,4.03,0,6.04,0,0,.82,0,1.63,0,2.45Z"/>
      <path class="cls-1" d="M357.33,104.6c2.53,0,5.05,0,7.58,0-2.51,3.13-5.09,6.21-7.55,9.38.49,1.03,1.36,1.86,2,2.82,1.88,2.54,3.76,5.07,5.65,7.61-2.42-.02-4.84,0-7.26-.01-2.56-3.44-5.15-6.85-7.75-10.26,2.48-3.16,4.9-6.36,7.35-9.54Z"/>
      <path class="cls-1" d="M63.05,121.35c2.41-1.55,4.84-3.1,6.98-5.01-.05,2.73.07,5.45.11,8.17-.11,1.96-1.72,3.48-3.49,4.1-2.55.89-5.31.77-7.96.52-1.47-.23-3.07-.24-4.34-1.1-.44-.22-.37-.74-.38-1.15.43-.41.85-.83,1.39-1.09,2.65-1.32,5.17-2.9,7.69-4.45Z"/>
    </g>
  </g>
</svg>