<?xml version="1.0" encoding="UTF-8"?>
<svg id="Layer_2" data-name="Layer 2" xmlns="http://www.w3.org/2000/svg" viewBox="0 0 834.9 188.61">
  <defs>
    <style>
      .cls-1 {
        fill: #fff;
      }

      .cls-2 {
        fill: #f28426;
      }

      .cls-3 {
        fill: #303794;
      }
    </style>
  </defs>
  <g id="Layer_1-2" data-name="Layer 1">
    <g>
      <path class="cls-1" d="M671.04,54.22c.61,13.81-8.88,24.16-22.25,24.37l-14.21.22-.02-46.57,14.24-.19c12.44-.17,21.67,9.38,22.23,22.18Z"/>
      <rect class="cls-2" x="223.81" y="119.53" width="607" height="6.29"/>
      <path class="cls-2" d="M188.61,94.3c0,52.08-42.22,94.3-94.3,94.3S0,146.39,0,94.3,42.22,0,94.3,0s94.3,42.22,94.3,94.3ZM150.6,56.47c-8.17-7.41-18.87-8.57-29.23-4.37-9.19-9.66-23.59-10.67-34.61-8.08,13.84,2.12,25.1,5.25,30.81,18.19,13.31-6.4,19.92-8.24,33.03-5.75ZM117.36,83.55c-6.1-6.2-14.74-7.86-22.97-4.6-5.72-5.24-12.86-6.8-20.61-6-1.97.06-4.14-.03-5.49,1.13,9.85.46,19.25,3.86,23.4,13.06,9.35-3.75,14.45-6.79,25.66-3.58Z"/>
      <circle class="cls-1" cx="563.47" cy="55.27" r="23.93"/>
      <path class="cls-3" d="M604.6,55.29c0,22.72-18.42,41.14-41.14,41.14s-41.14-18.42-41.14-41.14,18.42-41.14,41.14-41.14,41.14,18.42,41.14,41.14ZM587.4,55.27c0-13.22-10.71-23.93-23.93-23.93s-23.93,10.71-23.93,23.93,10.71,23.93,23.93,23.93,23.93-10.71,23.93-23.93Z"/>
      <path class="cls-3" d="M424.71,94.44l-16.44-24.69-13.41-.22-.15,24.8-17.39-.27V16.41s40.31.18,40.31.18c14.92.07,25.79,11.81,24.82,26.01.31,11.21-6.13,19.83-16.3,23.95l18.49,27.41-19.95.47ZM415.3,53.68c7-.15,10.18-6.76,9.58-12.34-.55-5.03-5.05-9.21-11.08-9.24l-18.98-.09.09,22.1,20.39-.43Z"/>
      <path class="cls-3" d="M688.95,59.33c-1.95,19.77-17.7,33.81-37.2,34.68-11.42.51-22.33.23-34.42.15V16.39s36.22.43,36.22.43c22.31.26,37.6,20.15,35.4,42.51ZM671.04,54.22c-.56-12.8-9.79-22.35-22.23-22.18l-14.24.19.02,46.57,14.21-.22c13.36-.2,22.85-10.56,22.25-24.37Z"/>
      <path class="cls-3" d="M342.81,16.55l17.46-.19-.23,47.43c-.05,11.08-5.07,22.12-14.95,27.31-11.57,6.08-25.94,6.12-37.61.27-9.43-4.73-14.99-14.99-15.07-25.66l-.36-49.27,17.42-.03.27,47.25c.06,9.84,7.85,16.2,17.1,15.91,8.26-.25,15.66-5.95,15.71-14.93l.26-48.11Z"/>
      <path class="cls-3" d="M276.89,80.8c-7.69,20.7-44.77,17.57-60.01,2.14l10.21-12.37c8.41,6.83,17.85,11.19,28.58,8.79,2.99-.67,5.65-3.59,5.83-6.16.22-3.16-2.34-6.2-5.67-7.25l-21.91-6.87c-8.69-2.73-13.49-9.89-13.95-18.54-.64-11.91,6.64-21.66,18.53-24.33,13.22-2.97,27.32.09,37.85,9l-8.9,12.92c-7.62-4.76-14.72-8.73-23.64-7.31-3.14.5-6.09,2.88-6.53,5.64-.4,2.52,1.52,6.39,4.38,7.26l18.44,5.65c5.31,1.63,10.93,4.29,14.45,8.66,5.16,6.39,5.25,14.94,2.34,22.77Z"/>
      <polygon class="cls-3" points="834.9 16.8 805.4 63.32 805.2 94.14 788.13 94.24 788.01 63.67 758.31 16.66 778.29 16.2 796.81 47.14 815.56 16.31 834.9 16.8"/>
      <polygon class="cls-3" points="523.78 16.71 494.49 62.83 494.17 94.12 476.88 94.27 476.82 63.67 447.32 16.85 467.18 16.22 485.67 47.21 504.44 16.24 523.78 16.71"/>
      <path class="cls-3" d="M746.25,76.87l-32.58-.17-7.37,17.62-17.52-.3,33.11-78.08,16.22-.19,33.19,78.15-18,.48-7.06-17.52ZM739.85,61.22l-10.01-24.14-10.08,24.26,20.09-.12Z"/>
      <polygon class="cls-3" points="728.43 172.1 728.29 153.72 720.12 165.75 712.36 155.06 711.85 171.97 705.37 171.98 705.32 143.28 712.46 143.14 720.18 154.77 727.46 143.32 734.76 143.08 734.83 171.93 728.43 172.1"/>
      <path class="cls-3" d="M485.54,156.87c2.54,2.05,4.71,5.16,4.29,8.35-.47,3.57-3.96,6.85-7.91,6.9l-17.06.19-.05-29.29,15.81.05c2.6,0,6.32,2.6,7.06,4.7.99,2.81-.08,6.49-2.14,9.1ZM480.8,150.17c-2.05-1.56-7.79-2.37-9.18-.49-.62.84-.88,4.51.14,4.75.81.2,3.21.55,4.02.42l4.63-.78c.93-.16,1.23-3.27.4-3.9ZM480.56,166.35c1.04,0,2.65-2.15,2.59-3.11s-1.87-2.83-2.9-2.85l-8.73-.1-.1,6.12,9.14-.08Z"/>
      <path class="cls-3" d="M553.86,171.64c-3.11,1.46-5.99.37-7.84-2.01l-11.42-14.7-.54,17.07-6.26-.08.05-28.33c1.33-.76,5.61-.94,6.7.43l12.45,15.79.52-16.48,6.23-.23.12,28.55Z"/>
      <path class="cls-3" d="M633.35,157.67c0,8.55-6.93,15.48-15.48,15.48s-15.48-6.93-15.48-15.48,6.93-15.48,15.48-15.48,15.48,6.93,15.48,15.48ZM626.72,157.69c0-4.89-3.96-8.85-8.85-8.85s-8.85,3.96-8.85,8.85,3.96,8.85,8.85,8.85,8.85-3.96,8.85-8.85Z"/>
      <path class="cls-3" d="M801.67,160.43l-13.23.16-.19,5.84,14.6.2c1.34.23,1.3,4.91,0,5.6l-21.43-.04-.11-29.09,22.06-.11.07,5.89-14.99.21-.24,5.32,13.58.26-.12,5.75Z"/>
      <path class="cls-3" d="M575.21,155.33l11.42,16.04c-.94.9-6.43,1.68-7.68.03l-8.71-11.53c-7.09,6.19,2.3,15.44-9.56,11.53l-.13-28.15,6.51-.02.57,11.52,10.81-11.03c1.38-1.4,5.95-.73,7.97-.2l-11.2,11.81Z"/>
      <path class="cls-3" d="M514.35,166.53c-2.88-1.06-9.3-1.09-12.74-.23l-2.29,5.06c-.62,1.36-4.92.96-6.68.21l11.79-27.98c1.62-1,5.06-1.03,6.84-.18l11.69,27.63c-.56.89-4.03,1.54-5.52,1.16-1.32-.34-1.91-2.46-3.1-5.65ZM511.46,159.84l-3.64-8.37-3.56,8.26,7.2.11Z"/>
      <path class="cls-3" d="M438.72,166.24c-3.09-.5-8.78-.53-12.46-.24l-2.13,4.96c-.68,1.58-4.56,1.53-6.94.61l11.97-28.45,6.53-.02,11.96,28.3c-1,.48-3.82.96-5.38.82-1.46-.13-2.33-2.7-3.54-5.98ZM435.95,159.63l-3.68-8.07-3.44,8.28,7.12-.21Z"/>
      <path class="cls-3" d="M694.02,172.05c-5.87,1.78-11.89.53-16.95-3.71.58-1.22,2.49-3.69,3.54-4.61,5.82,4.25,13.46,3.49,12.83.54-1.13-5.25-18.08-2.55-15.43-14.48.65-2.95,3.08-5.86,6.39-6.7,4.68-1.18,10.83-.6,14.02,3.25,1.01,1.22-2.58,5.19-3.95,4.31-3.17-2.04-8.18-3.82-10.1.53,1.93,4.78,14.63,2.37,15.64,11.17.48,4.19-1.55,8.37-5.99,9.72Z"/>
      <path class="cls-3" d="M823.91,172.24c-5.13,1.44-12.15.19-15.86-3.84,2.26-11.38,9.21,4.25,16.02-3.88-.67-5.45-14.49-2.57-15.57-11.21-.58-4.64,1.24-8.46,6.06-10.18,3.96-1.42,11.17-.09,13.97,2.52.57.53,0,3.12-.48,3.69-3.45,4.17-9.21-5.15-13.18,1.72,1.38,4.75,14.85,2.47,15.66,11.39.41,4.53-1.84,8.45-6.62,9.79Z"/>
      <path class="cls-3" d="M658.69,155.11c.74.66.9,3.94.68,5.73l-13.64.29-.29,10.87-6.62-.03v-28.87s22.09-.09,22.09-.09l.05,5.87-14.41.25c-1.04.48-1.13,4.09-.53,5.69l12.67.3Z"/>
      <path class="cls-3" d="M775.7,166.41c1.48.03,1.54,5.58.18,5.73l-20.27.08-.06-28.76c1.79-.21,4.78-.25,6.64-.1l.21,22.75,13.29.3Z"/>
      <rect class="cls-3" x="741.81" y="143.03" width="6.76" height="29.24"/>
    </g>
  </g>
</svg>