<?xml version="1.0" encoding="UTF-8"?>
<svg id="Layer_2" data-name="Layer 2" xmlns="http://www.w3.org/2000/svg" xmlns:xlink="http://www.w3.org/1999/xlink" viewBox="0 0 384.44 62.62">
  <defs>
    <style>
      .cls-1 {
        fill: #fff;
      }

      .cls-2, .cls-3 {
        fill: none;
      }

      .cls-4, .cls-5 {
        fill: #04a;
      }

      .cls-6 {
        clip-path: url(#clippath-1);
      }

      .cls-5 {
        stroke: #000;
      }

      .cls-5, .cls-3 {
        stroke-miterlimit: 2.61;
        stroke-width: .15px;
      }

      .cls-7 {
        clip-path: url(#clippath);
      }

      .cls-3 {
        stroke: #fff;
      }
    </style>
    <clipPath id="clippath">
      <rect class="cls-2" x="158.12" width="62.54" height="62.62"/>
    </clipPath>
    <clipPath id="clippath-1">
      <rect class="cls-2" x="158.12" width="62.54" height="62.62"/>
    </clipPath>
  </defs>
  <g id="Layer_1-2" data-name="Layer 1">
    <g id="layer1">
      <path id="path74" class="cls-4" d="M333.13,38.45v-4.33h1.99l-1.99-6.86v-5.24h3.07l6.69,19.5h-5.78l-.9-3.07h-3.07ZM344.69,22.02h5.24l6.69,10.83v-10.83h5.24v19.5h-5.24l-6.69-10.65v10.65h-5.24v-19.5ZM365.47,22.02h5.6v7.4l5.78-7.4h7.41l-6.5,7.4,6.68,12.1h-6.68l-3.8-7.94-2.89,3.25v4.69h-5.6v-19.5h0ZM333.13,22.02v5.24-.18l-1.99,7.04h1.99v4.33h-3.25l-.91,3.07h-5.6l6.68-19.5h3.07ZM314.16,41.52v-4.15h.36c1.09,0,1.63-.18,1.99-.54.54-.36.72-.9.72-1.44s-.18-1.08-.72-1.45c-.36-.36-.9-.54-1.99-.54h-.36v-3.61c.9,0,1.45-.18,1.81-.54.36-.36.54-.72.54-1.44,0-.54-.18-.9-.54-1.27-.36-.36-.9-.54-1.81-.54v-3.97h2.35c1.81,0,3.07.54,3.98,1.44.9.9,1.45,2.17,1.45,3.43s-.36,2.16-1.08,3.07c-.36.54-1.09.9-1.81,1.26,1.26.36,2.17.9,2.71,1.8.72.72.9,1.81.9,3.07,0,.9-.18,1.81-.54,2.71-.54.72-1.08,1.44-1.8,1.8-.54.36-1.08.54-2.17.72-1.27.18-1.99.18-2.35.18h-1.63ZM314.16,22.02v3.97h-2.35v3.79h2.35v3.61h-2.35v3.97h2.35v4.15h-7.95v-19.5h7.95ZM285.62,41.88v-4.51c1.08,0,1.99-.36,2.71-1.26.72-.72,1.08-2.35,1.08-4.51,0-1.81-.36-3.07-1.08-3.97-.72-.9-1.63-1.27-2.71-1.27v-4.51c2.89,0,5.24.72,6.86,2.53,1.62,1.81,2.35,4.15,2.35,7.4,0,2.17-.36,4.15-1.08,5.59-.72,1.45-1.62,2.53-3.07,3.43-1.26.72-2.89,1.08-4.88,1.08h-.18ZM248.4,22.02h5.42v11.73c0,1.08-.18,2.17-.36,3.25-.36,1.08-.9,1.99-1.62,2.71-.72.72-1.44,1.26-2.17,1.62-1.08.36-2.35.54-3.97.54-.9,0-1.81,0-2.89-.18-.9,0-1.8-.36-2.53-.72-.72-.36-1.27-.9-1.81-1.62-.72-.72-1.08-1.62-1.26-2.35-.36-1.26-.54-2.35-.54-3.25v-11.73h5.6v11.91c0,1.08.18,1.99.73,2.53.54.72,1.44.9,2.35.9s1.62-.18,2.17-.9c.54-.54.9-1.44.9-2.53v-11.91h0ZM285.62,21.84v4.51c-1.27,0-2.17.36-2.71,1.26-.72.9-1.08,2.35-1.08,4.33s.36,3.25,1.08,4.15c.54.9,1.44,1.26,2.71,1.26v4.51c-1.99,0-3.61-.36-4.88-.9-1.27-.72-2.35-1.98-3.26-3.43-.72-1.44-1.26-3.43-1.26-5.59,0-3.25.9-5.78,2.53-7.58,1.62-1.8,3.97-2.53,6.86-2.53ZM269.54,33.58l4.7,1.63c-.18,1.44-.72,2.71-1.45,3.79-.72.9-1.62,1.62-2.71,2.16-.9.54-2.35.72-3.79.72-1.99,0-3.61-.18-4.88-.9-1.26-.54-2.35-1.62-3.25-3.25-.9-1.44-1.26-3.43-1.26-5.96,0-3.25.72-5.6,2.35-7.4,1.63-1.8,3.79-2.53,6.69-2.53,2.35,0,3.97.36,5.42,1.44,1.26.9,2.17,2.53,2.71,4.51l-4.88,1.26c-.18-.72-.36-1.08-.54-1.26-.18-.54-.54-.9-1.09-1.08-.36-.36-.9-.36-1.45-.36-1.26,0-2.17.54-2.89,1.63-.54.72-.72,1.98-.72,3.79,0,2.17.18,3.61.9,4.51.54.72,1.45,1.08,2.53,1.08s1.8-.18,2.35-.9c.54-.72.9-1.62,1.26-2.89"/>
      <path id="path76" class="cls-4" d="M18.61,36.29v-3.97s-2.71,1.99-5.24,2.53c-1.26.18-3.25.18-4.52-.9-.73-.72-.73-1.08-1.09-1.62.72,0,3.79-.36,5.06-2.71,1.45-2.35-.9-5.05-.9-5.05h3.97v-3.43H0v3.43h6.14s3.43,1.08,2.35,3.43c-.9,1.98-5.78,1.26-5.78,1.26,0,0,0,1.63.36,3.25.9,3.25,4.7,5.78,8.49,5.78,4.52.36,7.04-1.99,7.04-1.99"/>
      <g id="g78">
        <g id="g80">
          <path id="path86" class="cls-4" d="M25.83,24.55v-3.43h-11.56v3.43h3.61v17.87h4.52v-17.87h3.43"/>
          <path id="path88" class="cls-4" d="M28.54,50s-.54-1.98-3.07-5.6c-2.35-3.25-8.31-3.97-11.38-1.26-1.81,1.62-2.35,4.51.54,6.32,3.07,1.99,6.68.54,6.68.54l-.9-2.53s-1.81.72-3.25.18c-1.26-.72-.9-2.17,0-2.71,1.44-.9,4.52-.72,5.96,2.17,1.26,2.71,1.62,3.97,1.62,3.97l3.8-1.08"/>
        </g>
      </g>
      <path id="path90" class="cls-4" d="M57.63,24.55v-3.43h-22.58v3.43h3.97v3.25c-1.08-.72-2.35-1.08-3.97-1.08v3.25c2.17,0,3.97.9,3.97,2.71,0,2.35-2.53,3.07-3.97,3.07v3.43c2.35-.18,3.97-1.08,3.97-1.08v4.33h4.52v-9.75s.36-2.71,4.16-2.71c2.17,0,3.61,1.08,3.61,3.07,0,1.63-2.17,2.71-3.97,2.71v3.25c4.52.18,8.67-2.53,8.31-6.5-.36-3.43-3.79-5.41-8.13-5.41-1.99,0-3.25.36-3.98.72v-3.25h14.09ZM24.39,21.12h10.66v3.43h-10.66v-3.43ZM35.05,26.72v3.25h-.18c-2.71,0-3.61,1.63-3.61,2.89,0,1.81,1.99,2.89,3.79,2.89v3.43c-.72,0-1.26,0-1.81-.18-3.07-.54-6.5-2.35-6.5-6.32,0-3.43,3.62-6.14,8.13-5.96h.18"/>
      <path id="path92" class="cls-4" d="M46.43,22.02s-.18-.18-.36-.18v.36c.18,0,.36,0,.36-.18"/>
      <path id="path94" class="cls-4" d="M67.02,24.55v-3.43h-11.56v3.43h3.61v17.87h4.34v-17.87h3.62"/>
      <path id="path96" class="cls-4" d="M62.69,21.48s-.9-3.79-2.35-5.59c-1.62-2.35-3.07-3.07-5.06-3.79-2.17-.72-5.24-.54-5.24-.54l.72,3.25s1.81,0,3.25.36c1.45.36,2.71,1.62,3.25,2.53,1.08,1.99,1.45,3.79,1.45,3.79h3.97"/>
      <path id="path98" class="cls-4" d="M66.48,22.02s-.18-.18-.36-.18v.36c.18,0,.36,0,.36-.18"/>
      <path id="path100" class="cls-4" d="M67.93,22.02v-.18c-.18,0-.18.18-.18.18q0,.18.18.18v-.18"/>
      <path id="path102" class="cls-4" d="M97.37,24.55h.54v-3.43h-.54v3.43ZM97.37,38.99v-6.5l3.43,2.35v3.07s-1.26.72-3.43,1.08h0ZM97.37,29.97v-3.25c2.35.54,3.43,1.44,3.43,1.44v3.43s-1.63-1.27-3.43-1.63h0ZM97.37,21.12h-3.43v3.43h3.43v-3.43ZM97.37,26.72v3.25h-.36c-1.08-.36-2.17-.36-3.07,0v-3.43h1.08c.9,0,1.63,0,2.35.18ZM97.37,32.49v6.5c-.72.18-1.44.36-2.35.36h-1.08v-3.07h.54c1.63.18,2.89-.18,2.89-.18l-3.43-2.35v-3.43l3.43,2.16ZM83.82,21.12h10.12v3.43h-10.12v-3.43ZM93.94,26.54c-3.79.36-7.41,2.89-7.41,6.5s3.43,5.96,7.41,6.32v-3.07c-1.26-.36-3.25-1.44-3.25-3.07,0-1.08.54-1.44.54-1.44l2.71,1.98v-3.43l-.36-.36h.36v-3.43"/>
      <path id="path104" class="cls-4" d="M107.85,24.55v-3.43h-11.56v3.43h3.61v17.87h4.52v-17.87h3.43"/>
      <path id="path106" class="cls-4" d="M104.24,21.3s-1.45-4.69-3.25-6.68c-1.08-1.45-2.35-2.35-3.79-2.89v3.61c.36.36.9.9,1.26,1.44,1.63,2.17,2.17,4.51,2.17,4.51h3.61ZM97.19,21.3v-3.79c.36.36.72.72.9,1.26.9,1.26,1.26,2.53,1.26,2.53h-2.17ZM97.19,11.73c-.54-.36-1.26-.54-1.81-.72h-.36v3.07c.72.36,1.45.72,2.17,1.26v-3.61ZM97.19,17.51v3.79h-.9s-.18-.72-.54-1.44c-.18-.36-.36-.72-.72-1.08v-2.71c.72.36,1.45.9,2.17,1.44ZM95.02,11.01v3.07h-.54c-1.08-.54-2.71-.36-2.71-.36l-1.45-3.07s2.71-.18,4.7.36ZM95.02,16.07c-.36-.18-.72-.18-1.26-.36-1.45-.36-3.61-.18-3.61-.18l1.08,2.53s1.08-.18,2.35.18c.54.18,1.08.36,1.45.54v-2.71"/>
      <path id="path108" class="cls-4" d="M106.59,13c0-1.08-.9-1.8-2.35-1.8-.36,0-.72,0-1.08.18v3.07c.36.18.72.36,1.08.36,1.45,0,2.35-.72,2.35-1.81ZM102.61,21.3v-4.33c.18.54.36.9.54,1.45v2.89h-.54ZM102.61,14.08v-2.35c0-.18.18-.18.54-.36v3.07c-.36,0-.54-.18-.54-.36ZM103.15,21.3h1.08s-.36-1.44-1.08-2.89v2.89ZM102.61,11.73v2.35c-.36-.36-.72-.72-.72-1.08,0-.54.36-.9.72-1.26h0ZM102.61,16.97c-.54-.9-1.08-1.8-1.62-2.34-1.08-1.45-2.35-2.35-3.79-2.89v3.61c.36.36.9.9,1.26,1.44,1.63,2.17,2.17,4.51,2.17,4.51h1.99v-4.33ZM97.19,21.3v-3.79c.36.36.72.72.9,1.26.9,1.26,1.27,2.53,1.27,2.53h-2.17ZM97.19,11.73v3.61c-.72-.54-1.45-.9-2.17-1.26v-3.07h.36c.54.18,1.26.36,1.81.72ZM97.19,17.51v3.79h-.9s-.18-.72-.54-1.44c-.18-.36-.36-.72-.72-1.08v-2.71c.72.36,1.45.9,2.17,1.44ZM95.02,11.01c-1.99-.54-4.7-.36-4.7-.36l1.45,3.07s1.62-.18,2.71.36h.54v-3.07ZM95.02,16.07c-.36-.18-.72-.18-1.26-.36-1.45-.36-3.61-.18-3.61-.18l1.08,2.53s1.08-.18,2.35.18c.54.18,1.08.36,1.45.54v-2.71"/>
      <path id="path110" class="cls-4" d="M139.83,24.55v-3.43h-22.58v3.43h3.97v3.25c-1.26-.72-2.53-1.08-3.97-1.08v3.25c2.17,0,3.79.9,3.79,2.71,0,2.35-2.53,3.07-3.79,3.07v3.43c2.35-.18,3.97-1.08,3.97-1.08v4.33h4.52v-9.75s.36-2.71,3.97-2.71c2.35,0,3.79,1.08,3.79,3.07,0,1.63-2.35,2.71-4.15,2.71v3.25c4.7.18,8.67-2.53,8.31-6.5-.36-3.43-3.61-5.41-7.95-5.41-1.99,0-3.43.36-3.97.72v-3.25h14.09ZM106.59,21.12h10.66v3.43h-10.66v-3.43ZM117.25,26.72v3.25h-.18c-2.71,0-3.79,1.63-3.79,2.89,0,1.81,2.17,2.89,3.79,2.89h.18v3.43c-.54,0-1.26,0-1.99-.18-2.89-.54-6.5-2.35-6.5-6.32,0-3.43,3.79-6.14,8.31-5.96h.18"/>
      <path id="path112" class="cls-4" d="M128.45,22.02s0-.18-.18-.18l-.18.18c0,.18.18.18.18.18q.18,0,.18-.18"/>
      <path id="path128" class="cls-1" d="M208.97,62.35l10.12-10.13V11.74l-10.18-10.4h-40l-10.2,10.47v40.48l10.05,10.06h40.21"/>
      <g id="g130">
        <g class="cls-7">
          <g id="g132">
            <path id="path138" class="cls-3" d="M208.97,62.35l10.12-10.13V11.74l-10.18-10.4h-40l-10.2,10.47v40.48l10.05,10.06h40.21Z"/>
          </g>
        </g>
      </g>
      <path id="path140" d="M208.91,52.09h-9.92v-11.17l8.46-8.83-17.29-18.78v4.74l11,12.89-10.92,11.22v20.2h18.73l10.12-10.13V11.74l-10.18-10.4h-40l-10.2,10.47v40.48l10.05,10.06h18.88v-20.2s-10.93-11.22-10.93-11.22l11-12.89v-4.74l-17.29,18.78,8.46,8.83v11.17h-9.92V11.6h39.88l.07,40.5h0ZM181.16,30.25c0-4.28,3.46-7.75,7.74-7.75s7.74,3.47,7.74,7.75-3.46,7.75-7.74,7.75-7.74-3.47-7.74-7.75"/>
      <g id="g142">
        <g class="cls-6">
          <g id="g144">
            <path id="path150" class="cls-5" d="M208.91,52.09h-9.92v-11.17l8.46-8.83-17.29-18.78v4.74l11,12.89-10.92,11.22v20.2h18.73l10.12-10.13V11.74l-10.18-10.4h-40l-10.2,10.47v40.48l10.05,10.06h18.88v-20.2s-10.93-11.22-10.93-11.22l11-12.89v-4.74l-17.29,18.78,8.46,8.83v11.17h-9.92V11.6h39.88l.07,40.5h0ZM181.16,30.25c0-4.28,3.46-7.75,7.74-7.75s7.74,3.47,7.74,7.75-3.46,7.75-7.74,7.75-7.74-3.47-7.74-7.75Z"/>
          </g>
        </g>
      </g>
    </g>
  </g>
</svg>