<?xml version="1.0" encoding="UTF-8"?>
<svg id="Layer_2" data-name="Layer 2" xmlns="http://www.w3.org/2000/svg" viewBox="0 0 177.46 44.29">
  <defs>
    <style>
      .cls-1 {
        fill: #fdb933;
      }

      .cls-2 {
        fill: #f58232;
      }

      .cls-3 {
        fill: #faa634;
      }

      .cls-4 {
        fill: #008572;
      }
    </style>
  </defs>
  <g id="Layer_1-2" data-name="Layer 1">
    <g>
      <path class="cls-4" d="M103.9,41.52c-.09-.13-.21-.23-.35-.32-.14-.09-.31-.16-.5-.23l-.79-.26c-.14-.04-.25-.09-.34-.13-.08-.04-.14-.08-.18-.13-.04-.04-.07-.09-.08-.15-.02-.06-.02-.14-.02-.24v-.22c0-.23.06-.41.18-.52.19-.18.63-.21,1.21-.14.2.02.4.06.6.1l.11.02.02-.83h-.08c-.21-.05-.43-.09-.65-.11-.22-.03-.41-.04-.56-.04-.61,0-1.06.14-1.34.41-.28.28-.42.67-.42,1.18v.09c0,.22.02.41.06.57.04.16.1.31.19.43.09.12.2.23.35.32.14.08.31.16.52.22l.88.29c.21.07.35.15.42.24.07.09.11.22.11.39v.28c0,.23-.07.4-.22.52-.15.12-.44.18-.85.18-.14,0-.32-.01-.53-.04-.21-.03-.43-.07-.66-.13l-.11-.03-.02.85.07.02c.25.06.49.1.72.13.23.03.41.04.55.04.35,0,.65-.03.89-.1.25-.07.46-.17.62-.31.16-.14.28-.31.35-.51.07-.2.1-.43.1-.68v-.16c0-.22-.02-.41-.06-.57-.04-.16-.1-.31-.19-.44"/>
      <polygon class="cls-4" points="108.69 38.42 107.51 42.53 106.32 38.42 105.09 38.42 105.03 44.19 105.93 44.19 105.97 40.15 106.99 43.61 108.02 43.61 109.05 40.15 109.09 44.19 109.98 44.19 109.93 38.42 108.69 38.42"/>
      <path class="cls-4" d="M112.58,38.42l-1.76,5.77h.94l.37-1.3h1.91l.37,1.3h.98l-1.77-5.77h-1.03ZM113.79,42.06h-1.44l.73-2.53.71,2.53Z"/>
      <polygon class="cls-4" points="117.15 38.42 116.24 38.42 116.24 44.19 119.37 44.19 119.37 43.36 117.15 43.36 117.15 38.42"/>
      <polygon class="cls-4" points="121.22 38.42 120.31 38.42 120.31 44.19 123.43 44.19 123.43 43.36 121.22 43.36 121.22 38.42"/>
      <path class="cls-4" d="M161.59,41.18c.18-.11.33-.25.42-.42.13-.22.2-.49.2-.79v-.19c0-.43-.16-.79-.49-1.06-.32-.27-.8-.4-1.44-.4-.31,0-.59,0-.83,0-.25,0-.47.02-.67.03h-.09v5.88h.09c.21.02.38.02.52.03.14,0,.26.01.37.02.11,0,.22,0,.32,0h.35c.35,0,.67-.04.93-.12.26-.08.48-.19.65-.34.17-.14.3-.32.39-.52.08-.2.13-.42.13-.66v-.19c0-.35-.1-.65-.29-.89-.15-.18-.34-.31-.57-.4M161.53,42.44v.18c0,.26-.09.47-.27.62-.18.16-.49.24-.92.24h-.19s-.1,0-.16,0c-.06,0-.13-.01-.2-.02-.06,0-.12,0-.19-.02v-1.78h.79c.41,0,.7.07.88.2.17.13.25.32.25.58M160.18,39.13c.42,0,.71.07.88.2.16.13.24.31.24.56v.14c0,.27-.08.47-.23.62-.16.15-.4.22-.72.22h-.74v-1.72c.2-.01.4-.02.57-.02"/>
      <path class="cls-4" d="M164.69,38.42l-1.76,5.77h.94l.37-1.3h1.91l.37,1.3h.98l-1.77-5.77h-1.03ZM165.9,42.06h-1.44l.73-2.53.71,2.53Z"/>
      <polygon class="cls-4" points="175.01 41.22 177.22 38.42 176.17 38.42 174.23 40.93 174.23 38.42 173.32 38.42 173.32 44.19 174.23 44.19 174.23 41.61 176.27 44.19 177.44 44.19 175.01 41.22"/>
      <polygon class="cls-4" points="127 44.19 127.91 44.19 127.91 41.68 129.58 41.68 129.58 40.84 127.91 40.84 127.91 39.27 130.12 39.27 130.12 38.42 127 38.42 127 44.19"/>
      <rect class="cls-4" x="131.12" y="38.42" width=".91" height="5.77"/>
      <path class="cls-4" d="M139.51,38.42l-1.76,5.77h.94l.37-1.3h1.91l.37,1.3h.98l-1.77-5.77h-1.03ZM140.72,42.06h-1.44l.73-2.53.71,2.53Z"/>
      <path class="cls-4" d="M149.01,39.36c.15-.14.41-.21.77-.21.21,0,.41.02.62.05.21.03.38.06.52.09l.11.02.02-.83-.67-.1c-.2-.03-.41-.05-.61-.05-.69,0-1.18.15-1.47.46-.29.3-.43.76-.43,1.36v2.34c0,.29.03.55.1.78.07.23.18.42.33.58.15.15.36.27.6.35.24.07.53.11.88.11.2,0,.4-.02.61-.05l.67-.1-.02-.85-.11.02c-.14.03-.31.06-.52.09-.2.03-.41.04-.62.04-.36,0-.62-.07-.77-.21-.15-.14-.22-.38-.22-.72v-2.43c0-.35.08-.59.22-.73"/>
      <polygon class="cls-4" points="151.9 44.19 155.02 44.19 155.02 43.35 152.81 43.35 152.81 41.68 154.85 41.68 154.85 40.84 152.81 40.84 152.81 39.27 155.02 39.27 155.02 38.42 151.9 38.42 151.9 44.19"/>
      <polygon class="cls-4" points="136.09 42.35 134.03 38.42 133.13 38.42 133.13 44.19 134.03 44.19 134.03 40.21 136.09 44.19 136.99 44.19 136.99 38.42 136.09 38.42 136.09 42.35"/>
      <polygon class="cls-4" points="146.02 42.35 143.96 38.42 143.06 38.42 143.06 44.19 143.96 44.19 143.96 40.21 146.02 44.19 146.93 44.19 146.93 38.42 146.02 38.42 146.02 42.35"/>
      <polygon class="cls-4" points="171.26 42.35 169.2 38.42 168.3 38.42 168.3 44.19 169.2 44.19 169.2 40.21 171.26 44.19 172.16 44.19 172.16 38.42 171.26 38.42 171.26 42.35"/>
      <path class="cls-2" d="M74.65,10.16v.71c1.65.33,1.95,1.47,1.95,3.73v24.54c-.1,1.92-1.34,3.53-3.06,4.17v.83c.11,0,.22,0,.33,0,.96,0,1.88-.17,2.73-.49,2.9-1.08,4.98-3.84,5.07-7.1V14.61c0-2.26.3-3.4,1.95-3.73v-.71h-8.97Z"/>
      <path class="cls-2" d="M87.55,10.16v.71c1.65.33,1.95,1.47,1.95,3.73v24.54c-.1,1.92-1.34,3.53-3.06,4.17v.83c.11,0,.22,0,.33,0,.96,0,1.88-.17,2.73-.49,2.9-1.08,4.98-3.84,5.07-7.1V14.61c0-2.26.3-3.4,1.95-3.73v-.71h-8.97Z"/>
      <path class="cls-2" d="M126.3,10.16v.71c1.11.32,1.47.96,1.47,1.73,0,.98-.39,2-.82,3.18l-3.54,9.7-5.57-13.92c-.36-.82-1.18-1.4-2.13-1.4h-5.18v.71c1.65.19,2.42,1.38,3.37,3.77l7.47,18.8h.83l7.19-18.8c.8-2.11,1.52-3.39,2.81-3.77v-.71h-5.9Z"/>
      <path class="cls-2" d="M148.74,31.24c-.37-.59-1.18-2.55-1.18-2.55l-7.26-18.54h-3.04l-7.06,18.83c-.77,2.04-1.47,3.33-2.69,3.74v.71h5.12v-.71c-1.01-.23-1.23-.66-1.23-1.32,0-.82.35-1.6.66-2.42l1.37-3.48h7.9s2.57,6.5,2.57,6.5c.38.85,1.21,1.37,2.17,1.42h4.98v-.71c-1.01-.09-1.7-.54-2.31-1.49M134.14,23.43l3.08-8.34,3.29,8.34h-6.37Z"/>
      <path class="cls-2" d="M107.91,29.54c0-3.03,0-16.86,0-16.91-.08-1.38-1.22-2.46-2.61-2.47h-4.58v.71c1.65.33,1.95,1.47,1.95,3.73v14.83c-.06,1.96-.45,2.99-2,3.3v.71h9.23v-.71c-1.52-.31-1.93-1.31-1.99-3.2"/>
      <path class="cls-2" d="M175.51,29v-11.07c0-5.23-2.38-7.76-7.29-7.76-3.12,0-5.78,1.09-8.15,3.4v-1.01c-.09-1.33-1.18-2.38-2.54-2.39h-4.42v.71c1.51.3,1.86,1.29,1.89,3.26v14.86c0,2.27-.3,3.41-1.95,3.74v.71h8.97v-.71c-1.65-.33-1.95-1.47-1.95-3.74v-13c1.95-2.22,4.09-3.32,6.28-3.32,3,0,4.09,1.75,4.09,5.54v10.77c0,2.27-.3,3.41-1.95,3.74v.71h8.97v-.71c-1.65-.33-1.95-1.47-1.95-3.74"/>
      <path class="cls-2" d="M48.32,14.6v11.08c0,5.23,2.38,7.76,7.29,7.76,3.12,0,5.77-1.09,8.15-3.39v1.01c.08,1.33,1.18,2.38,2.53,2.39h4.42v-.7c-1.51-.3-1.85-1.3-1.88-3.27v-14.86c0-2.26.3-3.4,1.95-3.73v-.71h-8.97v.71c1.65.33,1.95,1.47,1.95,3.73v13c-1.95,2.22-4.1,3.32-6.28,3.32-3,0-4.09-1.76-4.09-5.54v-10.78c0-2.26.31-3.4,1.95-3.73v-.71h-8.97v.71c1.65.33,1.95,1.47,1.95,3.73"/>
      <path class="cls-4" d="M37.01,7.26C37.15,1.21,39.55.03,39.55.03c0,0-5.2-.18-6.35.36-5.3,1.94-6.15,7.9-6.15,11.74v.03-.03c0-.57-.05-11.31-11.61-12.07C15.09.04,0,.03,0,.03,0,.03,2.43,1.2,2.55,7.26v18.29c.38-4.08,2.21-8.94,6.62-14.51,3.77,4.76,5.65,9,6.36,12.69,2.68-2.24,6.39-4.13,11.5-5.25,0,0,.58,6.99-2.3,13.41,3.25-.84,7.11-1,11.65,0,.35-1.21.57-2.48.64-3.79V7.26Z"/>
      <path class="cls-2" d="M8.69,40.26c-.15-3.67.34-11.12,6.83-16.54-.7-3.68-2.59-7.92-6.36-12.69-4.41,5.57-6.24,10.42-6.62,14.51,0,0-1.11,8.74,6.15,14.72"/>
      <path class="cls-3" d="M27.01,18.47c-5.11,1.13-8.81,3.02-11.5,5.25-6.49,5.41-6.98,12.87-6.83,16.54.18.18,2.71,1.83,2.71,1.83,2-3.24,6.17-8.36,13.32-10.21,2.88-6.43,2.3-13.41,2.3-13.41"/>
      <path class="cls-1" d="M24.72,31.89c-7.15,1.85-11.32,6.97-13.32,10.21,0,0,.02.01.03.02,4.22,2.35,8.63,2.04,8.63,2.04,7.74,0,14.26-5.19,16.3-12.27-4.55-.99-8.41-.83-11.65,0"/>
    </g>
  </g>
</svg>